<svg xmlns="http://www.w3.org/2000/svg" width="168" height="158" fill="none"><path fill="#030303" d="M.407 130.007V12.36c.153-.319.356-.62.454-.952C2.95 4.28 8.568.033 15.993.01c6.845-.02 13.69-.007 20.53-.004 2.156.004 2.793.527 3.224 2.587-.369 1.726-1.486 2.317-3.197 2.308-6.743-.043-13.49-.023-20.233-.017-6.73.007-11.005 4.254-11.008 10.942-.007 13.1-.004 26.2-.004 39.3 0 23.819.007 47.637-.003 71.458-.003 4.488 1.89 7.897 5.992 9.749 1.617.732 3.576.988 5.379.992 25.02.061 50.04.042 75.062.039.486 0 .973-.046 1.462-.069h7.776l-2.74-11.225h-7.054c-.65-.022-1.303-.068-1.953-.068C66.323 126 43.415 126 20.51 126c-3.188 0-3.788-.605-3.788-3.799V20.023c0-3.195.584-3.78 3.784-3.78h111.156c3.207 0 3.827.608 3.827 3.77 0 19.98 0 39.96.004 59.943 0 .647.045 1.297.068 1.944v7.016c3.844.943 7.583 1.859 11.247 2.756v-7.783c.026-.485.078-.969.078-1.453.003-22.09.007-44.178 0-66.264-.003-7.16-4.154-11.287-11.331-11.287-29.158 0-58.316-.01-87.474.026-1.803.004-3.08-.458-3.576-2.3.597-2.149 1.146-2.6 3.262-2.6 29.54-.004 59.08-.017 88.62.032a16.73 16.73 0 0 1 5.111.816c6.528 2.145 10.29 7.822 10.29 15.29.006 25.609.01 51.218-.026 76.826-.004 1.21.346 1.914 1.352 2.639 7.007 5.041 11.563 11.751 13.552 20.155.303 1.281.617 2.555.927 3.835v8.45c-.206.63-.487 1.245-.607 1.891-.908 4.894-2.838 9.353-5.705 13.412-1.133 1.602-2.067 1.797-4.01.92-1.091-1.443-.729-2.727.232-4.131 4.457-6.506 6.09-13.717 4.767-21.455-2.824-16.545-18.45-27.217-35.078-24.1-15.44 2.895-26.275 18.79-23.411 34.012 3.765 20 27.326 32.121 46.328 19.038 1.391-.959 2.658-1.099 4.001-.03.826 2.051.597 2.808-1.238 4.098-14.44 10.166-34.376 7.849-45.897-5.775-2.525-2.986-4.908-3.782-8.556-3.766-27.205.14-54.41.078-81.619.075-8.272 0-13.496-3.809-16.014-11.619-.059-.221-.245-.412-.379-.617Zm90.75-8.986c2.115.036 4.232.039 6.344.124 1.026.042 1.098-.55 1.18-1.32 1.704-15.787 14.792-28.813 30.614-30.45.921-.095 1.378-.326 1.329-1.343-.072-1.511.055-3.032-.056-4.54-.039-.55-.522-1.066-.8-1.599-5.747-5.762-11.488-11.53-17.245-17.282-3.644-3.643-7.063-3.978-11.377-1.141-8.164 5.369-16.308 10.77-24.498 16.1-4.876 3.171-10.238 2.967-14.93-.426-1.849-1.336-3.71-2.652-5.536-4.02-3.027-2.272-6.149-2.44-9.437-.592A4177.982 4177.982 0 0 1 22.874 87.89c-.918.507-1.283 1.034-1.277 2.116.05 9.857.03 19.717.033 29.573 0 .472.052.939.088 1.544h1.532c22.15 0 44.3 0 66.45-.003.487 0 .97-.062 1.456-.098Zm39.326-99.805H21.705V82.94c.542-.29.963-.507 1.378-.741 7.005-3.923 14.025-7.813 21.004-11.778 5.235-2.973 10.23-2.746 15.077.826 1.659 1.222 3.337 2.424 5.01 3.63 3.696 2.662 6.563 2.73 10.341.247C82.588 69.82 90.66 64.516 98.73 59.209c5.849-3.847 12.04-3.233 17.014 1.707 4.431 4.397 8.849 8.807 13.274 13.207.395.393.81.773 1.463 1.394.003-18.335.003-36.284.003-54.301Z"/><path fill="#25E9F2" d="M129.93 21.128v54.146c-.651-.619-1.061-.995-1.458-1.39-4.409-4.387-8.815-8.784-13.228-13.168-4.959-4.925-11.126-5.534-16.954-1.701-8.04 5.291-16.085 10.579-24.13 15.867-3.764 2.475-6.621 2.407-10.305-.246-1.67-1.203-3.339-2.401-4.992-3.62-4.829-3.56-9.808-3.79-15.024-.823-6.954 3.953-13.95 7.835-20.93 11.743-.414.23-.834.447-1.374.738v-61.54c36.144-.006 72.278-.006 108.395-.006Zm-80.055 10.18c-7.852.017-14.13 6.29-14.113 14.102.016 7.773 6.427 14.088 14.22 14.01 7.758-.075 14.052-6.357 14.065-14.04.016-7.75-6.365-14.085-14.172-14.072Z"/><path fill="#fff" d="M39.41 1.837c1.585.007 3.17.01 4.757.017.495 1.858 1.768 2.32 3.572 2.32 29.134-.036 58.267-.026 87.4-.026 7.172 0 11.322 4.164 11.322 11.385.007 22.282.004 44.563 0 66.842 0 .488-.049.977-.078 1.465-.685-.128-1.367-.256-2.052-.377-3.061-.544-6.121-1.085-9.182-1.63-.023-.652-.068-1.307-.068-1.96-.004-20.154-.004-40.308-.004-60.465 0-3.19-.619-3.803-3.823-3.803H20.192c-3.198 0-3.782.59-3.782 3.813v103.068c0 3.222.6 3.832 3.785 3.832 22.885 0 45.773 0 68.659.004.649 0 1.302.045 1.95.068.177 1.449.285 2.911.549 4.344.434 2.337.972 4.655 1.468 6.982-.486.023-.972.069-1.462.069-24.999.003-49.998.023-74.998-.039-1.801-.003-3.759-.262-5.374-1-4.098-1.869-5.99-5.307-5.987-9.834.01-24.026.003-48.052.003-72.08 0-13.215-.003-26.429.004-39.643C5.01 8.443 9.28 4.16 16.005 4.152c6.738-.007 13.479-.027 20.217.016 1.703.007 2.819-.593 3.187-2.33Z"/><path fill="#F2EA25" d="m157.523 144.493-3.177 3.376c-1.35-1.081-2.62-.94-4.018.03-19.103 13.232-42.785.972-46.574-19.255-2.882-15.395 8.01-31.471 23.535-34.4 16.716-3.152 32.424 7.642 35.264 24.375 1.329 7.826-.315 15.12-4.793 21.7-.969 1.42-1.333 2.715-.237 4.174Zm-26.85-23.441h-2.002c-3.667 0-7.331-.01-10.998.003-2.294.01-3.345.795-3.351 2.452-.007 1.666 1.083 2.501 3.312 2.508 3.283.01 6.566.003 9.848.003h3.188v2.008c0 3.56-.003 7.123.003 10.683 0 .545-.013 1.104.079 1.636.246 1.41 1.185 2.065 2.554 2.035 1.336-.033 2.282-1.108 2.301-2.705.046-3.944.02-7.889.02-11.833v-1.824h4.668c3.011 0 6.018.036 9.028-.02 1.632-.029 2.689-1.111 2.659-2.521-.029-1.37-1.004-2.307-2.597-2.392-1.201-.063-2.406-.03-3.611-.03-3.319-.003-6.641 0-10.144 0v-1.946c0-3.56.004-7.122 0-10.682-.003-2.59-.719-3.691-2.426-3.734-1.769-.043-2.531 1.078-2.531 3.76-.003 4.099 0 8.201 0 12.599Z"/><path fill="#2DA30F" d="M91.349 121.129c.626-9.274 3.811-17.479 9.698-24.585 5.966-7.201 13.471-11.776 22.425-13.873 1.845-.431 3.745-.618 5.618-.915.275.536.744 1.056.783 1.609.108 1.514-.016 3.048.054 4.568.048 1.027-.399 1.256-1.299 1.35-15.467 1.65-28.258 14.756-29.927 30.643-.08.775-.15 1.37-1.153 1.328-2.062-.082-4.13-.085-6.2-.125Z"/><path fill="#C7C7C8" d="M135.445 81.756c3.002.558 6.005 1.112 9.007 1.67.672.124 1.344.259 2.013.386v8.049l-11.023-2.85c.003-2.278.003-4.768.003-7.255Z"/><path fill="#C9C8C9" d="M93.242 136.872c-.466-2.265-.971-4.521-1.379-6.796-.248-1.394-.349-2.817-.514-4.227h6.616l2.57 11.02c-2.334.003-4.815.003-7.293.003Z"/><path fill="#030303" d="M50.442 31.233c7.86-.017 14.284 6.402 14.267 14.256-.016 7.78-6.349 14.144-14.16 14.22-7.846.075-14.297-6.321-14.316-14.19a14.194 14.194 0 0 1 14.209-14.286Zm-4.355 6.074a9.197 9.197 0 0 0-3.895 12.48c2.382 4.546 8.07 6.325 12.456 3.893 4.597-2.172 6.464-7.843 4.105-12.47-2.368-4.645-8.17-6.433-12.666-3.903Z"/><path fill="#94FB7A" fill-rule="evenodd" d="M90.654 121.012c.162-.015.325-.029.487-.04.64-9.251 3.898-17.432 9.913-24.523 6.097-7.183 13.765-11.746 22.915-13.837 1.297-.297 2.62-.477 3.943-.657.6-.082 1.2-.164 1.798-.257l-4.919-4.957c-4.1-4.133-8.199-8.265-12.307-12.39-3.64-3.656-7.056-3.992-11.365-1.145a8010.266 8010.266 0 0 0-7.552 5c-5.632 3.73-11.264 7.463-16.919 11.16-4.87 3.184-10.226 2.978-14.913-.427-.506-.368-1.014-.734-1.522-1.1v-.001h-.001c-1.343-.97-2.686-1.938-4.006-2.934-3.024-2.28-6.142-2.45-9.427-.594-7.94 4.488-15.879 8.97-23.845 13.406-.916.51-1.282 1.038-1.275 2.124.037 7.42.035 14.842.033 22.263v7.42c0 .313.023.627.049.981.013.178.027.366.039.569h1.53c22.125 0 44.25 0 66.376-.003.322 0 .644-.029.968-.058ZM65.39 99.948a10.686 10.686 0 0 1-.717-.639c-1.168-1.138-1.311-2.596-.411-3.627-.9 1.03-.757 2.489.41 3.627.234.227.473.44.718.64Zm13.06-4.318c.947 1.038.842 2.37-.278 3.573 1.123-1.202 1.228-2.535.278-3.573Zm-3.987.297a9.832 9.832 0 0 1 0 0Zm-22.044-.972a55.643 55.643 0 0 1 0 0c.005-.443.01-.885-.008-1.328-.055-1.406-.867-2.24-2.198-2.375 1.33.134 2.143.966 2.198 2.375.018.443.013.885.008 1.328Zm-.011.62c0 .219.005.438.009.658.01.486.02.971-.019 1.452-.11 1.393-.933 2.192-2.293 2.27 1.357-.078 2.18-.88 2.293-2.27.038-.483.029-.968.019-1.453-.005-.219-.009-.438-.009-.658Zm40.273 4.388c-1.175.006-2.098-.653-2.236-1.844a22.653 22.653 0 0 1-.01-4.998c.128-1.198 1.045-1.875 2.2-1.884-1.156.008-2.075.687-2.203 1.885-.176 1.65-.182 3.35.01 4.997.14 1.195 1.063 1.851 2.239 1.844Z" clip-rule="evenodd"/><path fill="#020406" d="M130.666 121.073c0-4.395-.003-8.494 0-12.593.004-2.68.762-3.804 2.532-3.758 1.703.043 2.422 1.143 2.426 3.731.003 3.558 0 7.118 0 10.675v1.945c3.503 0 6.825-.004 10.144 0 1.205 0 2.41-.033 3.611.029 1.593.086 2.568 1.022 2.597 2.391.03 1.409-1.027 2.49-2.659 2.52-3.007.055-6.018.019-9.028.019h-4.669v1.823c0 3.942.027 7.883-.019 11.824-.02 1.597-.965 2.671-2.302 2.704-1.369.032-2.308-.621-2.554-2.034-.092-.535-.079-1.09-.079-1.635-.006-3.557-.003-7.118-.003-10.675v-2.007h-3.188c-3.283 0-6.566.007-9.848-.003-2.23-.007-3.32-.841-3.313-2.506.007-1.656 1.057-2.441 3.352-2.45 3.667-.014 7.331-.004 10.998-.004.587.004 1.175.004 2.002.004Z"/><path fill="#FBBE78" d="M46.237 36.972c4.256-2.52 9.75-.738 11.992 3.887 2.234 4.608.466 10.256-3.886 12.42-3.952-.824-6.577-3.34-8.134-7.161-1.24-3.033-.856-6.1.028-9.146Z"/><path fill="#F9B05D" d="M45.548 36.744c-.884 3.056-1.27 6.13-.028 9.179 1.564 3.83 4.202 6.358 8.166 7.184-4.17 2.43-9.576.653-11.84-3.889-2.27-4.551-.627-10.093 3.702-12.474Z"/><path fill="#FF6D00" d="M79.472 84.76a3.665 3.665 0 0 1-3.66 3.67 3.665 3.665 0 0 1-3.658-3.67 3.665 3.665 0 0 1 3.659-3.67c2.023-.01 3.66 1.636 3.66 3.67Z"/><path fill="#000" d="M75.813 88.64c-2.14 0-3.87-1.74-3.87-3.89 0-2.14 1.741-3.89 3.87-3.89 2.139 0 3.869 1.74 3.869 3.89 0 2.15-1.74 3.89-3.87 3.89Zm0-7.34a3.461 3.461 0 0 0 0 6.92 3.461 3.461 0 0 0 0-6.92Z"/><path fill="#000" d="M106.23 77.82c-1.164-15.047-24.01-14.995-26.118-.43-2.35-1.626-5.495-1.72-7.938-.378-.608-6.323-6.51-11.073-13.515-10.727-17.237 1.458-16.566 24.2.933 24.032 6.732-.335 12.1-5.274 12.593-11.313 2.485-1.71 5.672-1.395 7.874.545 1.898 15.644 26.181 13.882 26.171-1.73Z"/><path fill="#fff" d="M99.037 89.101a13.486 13.486 0 0 1-3.91 1.206c-2.958-7.34-5.61-14.784-8.924-21.945A13.918 13.918 0 0 1 90 66.83c3.25 7.266 6.155 14.763 9.038 22.27ZM101.512 87.56c-.556.44-1.143.828-1.762 1.185-2.862-7.434-5.704-14.826-8.954-22.082a18.034 18.034 0 0 1 1.877-.22h.094c3.03 6.962 5.756 14.134 8.745 21.117ZM65.024 88.933a13.486 13.486 0 0 1-3.911 1.206c-2.957-7.34-5.61-14.784-8.923-21.945a13.92 13.92 0 0 1 3.796-1.531c3.26 7.266 6.165 14.763 9.038 22.27ZM67.498 87.392c-.556.44-1.143.828-1.761 1.185-2.863-7.434-5.704-14.826-8.955-22.082a18.039 18.039 0 0 1 1.877-.22h.094c3.041 6.962 5.767 14.134 8.745 21.117Z"/><path fill="#000" d="M106.44 77.809c-.252-7.864-8.493-12.928-15.959-11.303v.01a4.855 4.855 0 0 0-.377.084A14.88 14.88 0 0 0 85.91 68.3l.01.01c-3.198 1.96-5.442 5.117-5.976 8.724-2.307-1.437-5.065-1.573-7.591-.336-.84-7.37-8.787-11.9-15.875-10.349v.01c-.126.011-.252.043-.367.064a14.877 14.877 0 0 0-4.194 1.698v.01c-6.847 4.038-8.346 13.474-2.275 18.927 3.711 3.48 9.761 4.435 14.522 2.495.388-.157.755-.325 1.132-.503.115-.053.22-.116.325-.168v.01a16.947 16.947 0 0 0 2.003-1.32c2.663-2.087 4.445-5.096 4.75-8.43 2.464-1.563 5.158-1.374 7.475.534.808 9.154 11.618 13.589 19.44 9.552.115-.053.22-.115.325-.168l.01.01a16.952 16.952 0 0 0 2.003-1.32c3.072-2.412 4.97-6.019 4.813-9.94Zm-5.788 10.118c-.262.178-.535.346-.808.503-2.757-7.172-5.557-14.448-8.755-21.589.493-.084.996-.136 1.52-.167 3.03 6.92 5.673 13.882 8.63 20.823a8.735 8.735 0 0 1-.587.43Zm-1.94 1.09c-1.1.514-2.265.86-3.46 1.06-2.915-7.267-5.473-14.46-8.776-21.61a13.663 13.663 0 0 1 3.397-1.374c3.125 6.951 5.882 14.04 8.891 21.903-.02.01-.031.01-.052.021Zm-8.42-22.029c.126-.031.252-.052.378-.084 3.219 7.182 6.029 14.511 8.808 21.725-.105.063-.22.116-.326.168-3.009-7.811-5.756-14.878-8.86-21.809ZM66.65 87.759c-.263.178-.525.346-.797.503-2.768-7.182-5.557-14.448-8.755-21.588.492-.084.996-.137 1.52-.168 3.03 6.92 5.673 13.882 8.63 20.823-.2.147-.4.294-.598.43Zm-1.93 1.09c-1.1.514-2.264.86-3.47 1.06-2.915-7.256-5.484-14.47-8.776-21.61a13.666 13.666 0 0 1 3.397-1.374c3.125 6.952 5.882 14.04 8.891 21.904-.02 0-.031.01-.042.02ZM56.28 66.82c.126-.031.252-.052.377-.084 3.22 7.193 6.019 14.49 8.808 21.725-.105.063-.22.116-.325.168-2.999-7.811-5.746-14.878-8.86-21.809Zm3.303 23.277c-12.76.545-18.538-14.47-7.487-21.578 3.272 7.088 5.82 14.25 8.724 21.463a15.92 15.92 0 0 1-1.237.115Zm8.01-3.04c-2.915-6.868-5.536-13.725-8.514-20.572 11.544-.252 17.668 12.855 8.514 20.572Zm8.168-9.395c-1.153 0-2.244.325-3.334.944.01-.493.02-.986-.021-1.479 2.495-1.269 5.221-1.1 7.476.357-.053.534-.074 1.07-.063 1.604-1.28-.944-2.642-1.426-4.058-1.426Zm17.825 12.603c-7.35.482-14.28-5.505-13.243-12.991.462-3.544 2.642-6.658 5.767-8.587 3.271 7.098 5.82 14.249 8.713 21.463a15.46 15.46 0 0 1-1.237.115Zm8.01-3.04c-2.914-6.868-5.536-13.726-8.513-20.572 11.565-.252 17.667 12.875 8.513 20.571Z"/><path fill="#000" d="M86.235 101.652c-.01.01-.021.021-.042.031-4.152 3.041-9.605 3.712-14.501 2.328-4.446-1.269-9.971-4.645-9.804-9.96.273-5.778 8.378-3.461 11.534-2.675 1.384.357 2.778.608 4.215.525 2.307-.116 4.414-1.185 6.7-1.416 9.814-.409 7.507 6.868 1.898 11.167Z"/><path fill="#FF7CFF" d="M86.235 101.652c-.01.01-.021.021-.042.031-5.82 4.226-13.893 3.848-19.796-.126 4.31-6.165 15.591-6.112 19.838.095Z"/><path fill="#000" d="M85.847 90.265c-2.842-.23-5.41 1.28-8.22 1.447-4.037.084-6.376-1.604-10.716-1.646-3.356-.032-5.117 1.31-5.212 3.974-.115 3.606 2.307 6.091 4.425 7.559 5.788 4.1 14.47 4.509 20.205.21l.032-.021c4.739-3.513 8.346-10.883-.514-11.523Zm-14.784 13.347a18.938 18.938 0 0 1-4.394-2.097c4.3-5.85 15.078-5.787 19.293.095-4.257 3.051-9.971 3.628-14.9 2.002Zm19.827-9.09c-.178 2.464-2.758 5.431-4.624 6.857-4.372-6.102-15.476-6.155-19.911-.084-2.045-1.415-4.383-3.795-4.278-7.245.031-5.42 8.241-3.324 11.292-2.495 1.154.293 2.695.618 4.268.534 1.248-.063 2.453-.398 3.607-.734 1.457-.43 3.03-.828 4.56-.713 2.842.21 5.18 1.122 5.086 3.88Z"/></svg>