<svg xmlns="http://www.w3.org/2000/svg" width="26" height="26" fill="none"><mask id="a" width="26" height="26" x="0" y="0" fill="#000" maskUnits="userSpaceOnUse"><path fill="#fff" d="M0 0h26v26H0z"/><path fill-rule="evenodd" d="M14 12V1h-2v11H1v2h11v11h2V14h11v-2H14Z" clip-rule="evenodd"/></mask><path fill="#25E9F2" fill-rule="evenodd" d="M14 12V1h-2v11H1v2h11v11h2V14h11v-2H14Z" clip-rule="evenodd"/><path fill="#000" d="M14 1h1V0h-1v1Zm0 11h-1v1h1v-1ZM12 1V0h-1v1h1Zm0 11v1h1v-1h-1ZM1 12v-1H0v1h1Zm0 2H0v1h1v-1Zm11 0h1v-1h-1v1Zm0 11h-1v1h1v-1Zm2 0v1h1v-1h-1Zm0-11v-1h-1v1h1Zm11 0v1h1v-1h-1Zm0-2h1v-1h-1v1ZM13 1v11h2V1h-2Zm-1 1h2V0h-2v2Zm1 10V1h-2v11h2ZM1 13h11v-2H1v2Zm1 1v-2H0v2h2Zm10-1H1v2h11v-2Zm1 12V14h-2v11h2Zm1-1h-2v2h2v-2Zm-1-10v11h2V14h-2Zm12-1H14v2h11v-2Zm-1-1v2h2v-2h-2Zm-10 1h11v-2H14v2Z" mask="url(#a)"/></svg>