<svg xmlns="http://www.w3.org/2000/svg" width="297" height="169" fill="none"><path fill="#82E7D7" stroke="#000" stroke-width="2" d="M265.867 96.572c7.207-.89 13.729-3.13 18.86-7.437C291.768 83.225 296 73.585 296 58.788c0-7.761-3.888-14.425-10.177-19.334-6.273-4.896-14.959-8.073-24.712-8.948L42.734 1.16l-.022-.003-.022-.002C20.29-.845 1 16.78 1 39.26v19.528C1 79.92 18.14 97.042 39.275 97.042h69.872c-8.384 3.682-14.24 12.055-14.24 21.795 0 12.59 9.813 23.002 22.387 23.75l87.484 5.239c2.012 4.361.637 8.547-1.433 11.816-1.07 1.69-2.301 3.09-3.269 4.07a24.037 24.037 0 0 1-1.525 1.415l-.085.07-.02.016-.004.003v.001l-2.497 1.977 3.18-.196c9.807-.604 15.378-4.617 18.498-8.94 2.572-3.563 3.427-7.261 3.712-9.243l34.693 2.074.059-.999-.059.999c13.685.816 25.23-10.049 25.23-23.758v-8.294c0-10.18-6.396-18.867-15.391-22.265Z"/></svg>