<svg xmlns="http://www.w3.org/2000/svg" width="76" height="76" fill="none"><path fill="#000" d="M34.786 6.237c1.322-4.715 8.066-4.524 9.122.254.797 3.606 5.241 4.928 7.88 2.353 3.499-3.42 9.25.116 7.773 4.784-1.115 3.52 2.076 6.892 5.65 5.973 4.741-1.21 7.954 4.726 4.338 8.028-2.724 2.49-1.646 7.004 1.906 8.002 4.715 1.322 4.524 8.065-.255 9.122-3.605.796-4.927 5.24-2.352 7.88 3.42 3.498-.117 9.249-4.784 7.773-3.52-1.115-6.892 2.076-5.973 5.65 1.21 4.74-4.726 7.953-8.029 4.337-2.49-2.724-7.003-1.646-8.001 1.906-1.322 4.715-8.066 4.524-9.122-.255-.797-3.605-5.241-4.927-7.88-2.352-3.499 3.42-9.25-.116-7.773-4.784 1.115-3.52-2.076-6.892-5.65-5.973-4.741 1.21-7.954-4.726-4.338-8.028 2.724-2.49 1.646-7.004-1.906-8.002-4.715-1.322-4.524-8.065.255-9.122 3.605-.796 4.927-5.24 2.352-7.88-3.42-3.498.117-9.249 4.784-7.773 3.52 1.115 6.892-2.076 5.974-5.65-1.211-4.74 4.725-7.953 8.028-4.337 2.49 2.724 7.003 1.646 8.001-1.906Z"/><path fill="#000" d="M37.552 76h-.159c-2.357-.064-4.205-1.593-4.715-3.897a4.378 4.378 0 0 0-3.063-3.298 4.385 4.385 0 0 0-4.37 1.078c-1.684 1.646-4.073 1.912-6.08.68-2.007-1.237-2.846-3.483-2.134-5.73a4.372 4.372 0 0 0-1.01-4.385 4.384 4.384 0 0 0-4.321-1.253c-2.283.584-4.482-.377-5.602-2.453-1.12-2.07-.722-4.439 1.02-6.032a4.395 4.395 0 0 0 1.322-4.306 4.374 4.374 0 0 0-3.122-3.244c-2.268-.637-3.69-2.57-3.627-4.922.064-2.358 1.593-4.206 3.897-4.715a4.378 4.378 0 0 0 3.298-3.064 4.385 4.385 0 0 0-1.078-4.37c-1.646-1.683-1.912-4.072-.68-6.08 1.237-2.006 3.483-2.845 5.73-2.134a4.375 4.375 0 0 0 4.385-1.009 4.384 4.384 0 0 0 1.253-4.322c-.584-2.283.377-4.481 2.453-5.601 2.07-1.12 4.439-.722 6.032 1.02a4.39 4.39 0 0 0 4.3 1.321 4.374 4.374 0 0 0 3.245-3.122c.637-2.267 2.56-3.695 4.922-3.626 2.358.063 4.205 1.593 4.715 3.897a4.378 4.378 0 0 0 3.064 3.297 4.385 4.385 0 0 0 4.37-1.078c1.683-1.646 4.072-1.911 6.079-.68 2.007 1.238 2.846 3.484 2.134 5.73a4.384 4.384 0 0 0 1.01 4.39 4.37 4.37 0 0 0 4.321 1.249c2.283-.584 4.482.377 5.602 2.453 1.12 2.07.722 4.439-1.02 6.032a4.39 4.39 0 0 0-1.322 4.3 4.374 4.374 0 0 0 3.123 3.245c2.267.637 3.69 2.57 3.626 4.922-.064 2.357-1.593 4.205-3.897 4.715a4.378 4.378 0 0 0-3.297 3.063 4.385 4.385 0 0 0 1.077 4.37c1.646 1.683 1.912 4.073.68 6.08-1.237 2.007-3.483 2.846-5.73 2.134a4.372 4.372 0 0 0-4.385 1.009 4.384 4.384 0 0 0-1.253 4.322c.584 2.283-.377 4.481-2.453 5.602-2.07 1.12-4.439.722-6.032-1.02a4.39 4.39 0 0 0-4.3-1.322 4.374 4.374 0 0 0-3.245 3.122C41.7 74.593 39.835 76 37.552 76Zm-9.233-7.917c.478 0 .966.07 1.45.213 1.752.525 3.037 1.9 3.43 3.69.552 2.495 2.612 3.435 4.21 3.478 1.593.064 3.706-.775 4.397-3.24a4.911 4.911 0 0 1 3.631-3.493 4.896 4.896 0 0 1 4.816 1.482c1.726 1.884 3.977 1.667 5.384.907 1.407-.759 2.825-2.527 2.188-5.001a4.91 4.91 0 0 1 1.401-4.843 4.905 4.905 0 0 1 4.912-1.125c2.437.77 4.28-.547 5.118-1.907.84-1.359 1.18-3.6-.605-5.426a4.919 4.919 0 0 1-1.21-4.895c.525-1.753 1.9-3.038 3.69-3.43 2.495-.553 3.435-2.613 3.478-4.211.042-1.598-.776-3.706-3.24-4.396a4.911 4.911 0 0 1-3.493-3.632 4.897 4.897 0 0 1 1.481-4.816c1.885-1.726 1.668-3.982.908-5.384-.76-1.407-2.527-2.82-5.002-2.188a4.91 4.91 0 0 1-4.842-1.401 4.905 4.905 0 0 1-1.126-4.912c.77-2.437-.546-4.28-1.906-5.118-1.359-.84-3.6-1.18-5.426.605a4.92 4.92 0 0 1-4.896 1.21c-1.752-.525-3.037-1.9-3.43-3.69-.541-2.506-2.602-3.446-4.2-3.493-1.582-.038-3.706.775-4.396 3.239a4.911 4.911 0 0 1-3.632 3.493 4.896 4.896 0 0 1-4.816-1.481c-1.725-1.885-3.982-1.667-5.384-.908-1.407.76-2.824 2.527-2.187 5.002a4.91 4.91 0 0 1-1.402 4.842 4.905 4.905 0 0 1-4.911 1.126c-2.438-.77-4.28.547-5.119 1.906-.85 1.364-1.19 3.605.595 5.432a4.92 4.92 0 0 1 1.21 4.895c-.525 1.752-1.9 3.037-3.69 3.43-2.495.552-3.435 2.613-3.478 4.21-.042 1.599.776 3.707 3.24 4.397a4.911 4.911 0 0 1 3.493 3.632 4.909 4.909 0 0 1-1.481 4.821c-1.885 1.726-1.668 3.982-.908 5.384.759 1.407 2.527 2.82 5.001 2.188a4.91 4.91 0 0 1 4.843 1.401 4.905 4.905 0 0 1 1.125 4.912c-.77 2.437.547 4.28 1.907 5.118 1.359.84 3.6 1.184 5.426-.605a4.926 4.926 0 0 1 3.446-1.418Z"/><path fill="#82E7D7" d="M33.097 3.703c1.323-4.715 8.066-4.523 9.122.255.797 3.606 5.241 4.928 7.88 2.352 3.499-3.419 9.25.117 7.773 4.784-1.115 3.52 2.076 6.892 5.65 5.974 4.741-1.21 7.954 4.725 4.338 8.028-2.724 2.49-1.646 7.003 1.906 8.002 4.715 1.322 4.524 8.065-.255 9.122-3.605.796-4.927 5.24-2.352 7.88 3.42 3.498-.117 9.249-4.784 7.773-3.52-1.115-6.892 2.076-5.974 5.649 1.211 4.741-4.725 7.954-8.028 4.338-2.49-2.724-7.003-1.646-8.001 1.906-1.322 4.715-8.066 4.524-9.122-.255-.797-3.605-5.24-4.927-7.88-2.352-3.499 3.42-9.25-.117-7.773-4.784 1.115-3.52-2.076-6.892-5.65-5.973-4.741 1.21-7.953-4.726-4.338-8.029 2.724-2.49 1.646-7.003-1.906-8.001-4.715-1.322-4.524-8.066.255-9.122 3.605-.797 4.927-5.24 2.352-7.88-3.42-3.499.117-9.25 4.784-7.773 3.52 1.115 6.892-2.076 5.974-5.65-1.211-4.741 4.725-7.953 8.028-4.337 2.49 2.723 7.003 1.646 8.001-1.907Z"/><path fill="#000" d="M35.864 73.467h-.16c-2.357-.064-4.205-1.593-4.715-3.897a4.378 4.378 0 0 0-3.064-3.298 4.385 4.385 0 0 0-4.37 1.078c-1.683 1.646-4.072 1.912-6.079.68-2.007-1.237-2.846-3.484-2.134-5.73a4.372 4.372 0 0 0-1.01-4.385 4.384 4.384 0 0 0-4.321-1.253c-2.283.584-4.482-.377-5.602-2.453-1.12-2.071-.722-4.44 1.02-6.032A4.395 4.395 0 0 0 6.75 43.87a4.374 4.374 0 0 0-3.122-3.244c-2.268-.638-3.69-2.57-3.627-4.922.064-2.358 1.593-4.206 3.897-4.715a4.378 4.378 0 0 0 3.298-3.064 4.385 4.385 0 0 0-1.078-4.37c-1.646-1.683-1.912-4.073-.68-6.08 1.237-2.007 3.483-2.845 5.73-2.134a4.375 4.375 0 0 0 4.385-1.009 4.384 4.384 0 0 0 1.253-4.322c-.584-2.283.377-4.481 2.453-5.602 2.07-1.12 4.439-.722 6.032 1.02a4.39 4.39 0 0 0 4.3 1.322 4.374 4.374 0 0 0 3.245-3.122c.637-2.267 2.56-3.696 4.922-3.627 2.358.064 4.205 1.593 4.715 3.898a4.378 4.378 0 0 0 3.064 3.297 4.385 4.385 0 0 0 4.37-1.078c1.683-1.646 4.072-1.911 6.079-.68 2.007 1.238 2.846 3.484 2.134 5.73a4.384 4.384 0 0 0 1.01 4.39 4.37 4.37 0 0 0 4.321 1.248c2.284-.584 4.482.377 5.602 2.454 1.12 2.07.722 4.438-1.02 6.031a4.39 4.39 0 0 0-1.322 4.301 4.374 4.374 0 0 0 3.123 3.244c2.267.637 3.69 2.57 3.626 4.922-.064 2.358-1.593 4.206-3.897 4.715a4.378 4.378 0 0 0-3.297 3.064 4.385 4.385 0 0 0 1.077 4.37c1.646 1.683 1.912 4.072.68 6.08-1.237 2.006-3.483 2.845-5.73 2.134a4.372 4.372 0 0 0-4.385 1.009 4.384 4.384 0 0 0-1.253 4.322c.584 2.283-.377 4.481-2.453 5.602-2.07 1.12-4.439.722-6.032-1.02a4.39 4.39 0 0 0-4.3-1.322 4.374 4.374 0 0 0-3.245 3.122c-.616 2.225-2.48 3.632-4.762 3.632ZM26.63 65.55c.478 0 .966.07 1.45.213 1.752.525 3.037 1.9 3.43 3.69.552 2.495 2.612 3.435 4.21 3.477 1.593.064 3.706-.775 4.397-3.238a4.911 4.911 0 0 1 3.631-3.494 4.897 4.897 0 0 1 4.816 1.481c1.726 1.885 3.977 1.668 5.384.908 1.407-.76 2.825-2.527 2.188-5.002a4.91 4.91 0 0 1 1.401-4.842 4.904 4.904 0 0 1 4.912-1.126c2.437.77 4.28-.546 5.118-1.906.84-1.359 1.18-3.6-.605-5.426a4.919 4.919 0 0 1-1.21-4.896 4.907 4.907 0 0 1 3.69-3.43c2.495-.552 3.435-2.612 3.478-4.21.042-1.599-.776-3.706-3.24-4.397a4.911 4.911 0 0 1-3.493-3.631 4.896 4.896 0 0 1 1.481-4.816c1.885-1.726 1.667-3.983.908-5.384-.76-1.407-2.527-2.82-5.001-2.188a4.91 4.91 0 0 1-4.843-1.402 4.905 4.905 0 0 1-1.126-4.911c.77-2.437-.546-4.28-1.906-5.119-1.359-.839-3.6-1.178-5.426.606a4.919 4.919 0 0 1-4.896 1.21c-1.752-.525-3.037-1.9-3.43-3.69-.541-2.506-2.601-3.446-4.2-3.494-1.582-.037-3.706.776-4.396 3.24a4.911 4.911 0 0 1-3.632 3.493 4.896 4.896 0 0 1-4.816-1.481C23.18 3.9 20.922 4.117 19.52 4.877c-1.407.759-2.824 2.527-2.187 5.001a4.91 4.91 0 0 1-1.402 4.843 4.905 4.905 0 0 1-4.911 1.125c-2.438-.77-4.28.547-5.119 1.907-.85 1.364-1.19 3.605.595 5.431a4.919 4.919 0 0 1 1.21 4.896c-.525 1.752-1.9 3.037-3.69 3.43-2.495.552-3.435 2.612-3.478 4.21-.042 1.599.776 3.707 3.24 4.397a4.911 4.911 0 0 1 3.493 3.632 4.91 4.91 0 0 1-1.481 4.82c-1.885 1.726-1.668 3.983-.908 5.385.759 1.407 2.527 2.82 5.001 2.187a4.91 4.91 0 0 1 4.843 1.402 4.905 4.905 0 0 1 1.125 4.912c-.77 2.437.547 4.28 1.906 5.118 1.36.839 3.6 1.184 5.427-.605a4.926 4.926 0 0 1 3.446-1.418Z"/><path fill="#fff" stroke="#000" stroke-width=".5" d="M22.734 37.4c2.215.624 4.596-.289 6.642-2.185 2.05-1.899 3.8-4.811 4.78-8.284.979-3.472 1.01-6.87.255-9.56-.754-2.686-2.306-4.708-4.521-5.333s-4.595.288-6.642 2.184c-2.05 1.899-3.8 4.812-4.779 8.284-.98 3.472-1.01 6.87-.255 9.56.753 2.686 2.306 4.709 4.52 5.333Z"/><path fill="#000" d="M33.72 27.555c-1.616 5.725-5.71 9.58-9.146 8.611-3.435-.969-4.91-6.396-3.295-12.121 1.616-5.726 5.71-9.582 9.145-8.612 2.794.788 4.291 4.524 3.885 8.972-6.542 1.056-.59 3.15-.59 3.15Z"/><path fill="#fff" stroke="#000" stroke-width=".5" d="M48.068 45c2.215.624 4.595-.289 6.641-2.185 2.05-1.899 3.8-4.811 4.78-8.284.98-3.472 1.01-6.87.255-9.56-.754-2.686-2.306-4.708-4.52-5.333-2.215-.625-4.596.288-6.642 2.184-2.05 1.899-3.8 4.812-4.78 8.284-.979 3.472-1.01 6.87-.255 9.56.754 2.686 2.306 4.709 4.52 5.333Z"/><path fill="#000" d="M59.053 35.155c-1.615 5.725-5.71 9.58-9.145 8.611-3.435-.969-4.91-6.396-3.295-12.121 1.615-5.726 5.71-9.581 9.145-8.612 2.794.788 4.291 4.524 3.884 8.972-6.541 1.056-.589 3.15-.589 3.15Z"/></svg>