<svg width="63" height="70" viewBox="0 0 63 70" fill="none" xmlns="http://www.w3.org/2000/svg">
<path d="M19.0927 44.5817C12.5499 43.8253 8.26501 34.0949 9.56176 22.8787C10.8564 11.6804 17.2326 3.16441 23.7934 3.92292C30.3362 4.67936 34.6211 14.4097 33.3243 25.6259C32.0276 36.8422 25.6355 45.3381 19.0927 44.5817ZM41.6509 47.1897C37.4808 46.7076 34.025 42.4101 32.5871 35.9414C33.931 32.9821 34.9094 29.5615 35.3375 25.8587C35.7656 22.1559 35.6115 18.6044 34.9603 15.4143C37.8363 9.44447 42.1815 6.04884 46.3516 6.53096C52.8944 7.28739 57.1793 17.0178 55.8826 28.234C54.5858 39.4502 48.1937 47.9462 41.6509 47.1897Z" fill="#F0DCC2"/>
<path d="M22.2069 12.4463C20.3555 12.2322 18.5078 13.8765 17.139 16.578C17.0664 16.7336 17.0636 16.9154 17.1548 17.0717L20.1484 22.8458C20.3585 23.2344 19.909 23.656 19.5344 23.4306L16.2198 21.5355C15.8949 21.3522 15.4745 21.5222 15.4129 21.8976C15.3146 22.4327 15.2343 22.9698 15.1698 23.5271C14.4196 30.0159 16.3652 35.5596 19.5108 35.9233C22.6564 36.287 25.7976 31.3314 26.5478 24.8425C27.278 18.3695 25.3524 12.8099 22.2069 12.4463Z" fill="black"/>
<path d="M45.9888 4.4672C41.4592 3.94351 36.8659 6.96438 33.6263 12.4551C31.7423 6.53597 28.068 2.39532 23.4306 1.85916C15.7734 0.973884 8.37862 10.2647 6.95303 22.5953C5.52952 34.908 10.6072 45.659 18.2644 46.5443C22.9018 47.0804 27.424 43.8874 30.6089 38.5543C32.5101 44.6394 36.293 48.6286 40.8226 49.1523C48.4798 50.0376 55.8746 40.7468 57.3002 28.4161C58.7258 16.0855 53.646 5.35248 45.9888 4.4672ZM18.4992 44.5131C11.9564 43.7567 7.67153 34.0263 8.96828 22.8101C10.2629 11.6119 16.6571 3.09792 23.1999 3.85435C29.7427 4.61079 34.0276 14.3412 32.7308 25.5574C31.4341 36.7736 25.042 45.2696 18.4992 44.5131ZM41.0575 47.1212C36.8693 46.637 33.4315 42.3415 31.9936 35.8729C33.3376 32.9135 34.3159 29.4929 34.744 25.7901C35.1721 22.0873 35.018 18.5358 34.3668 15.3458C37.2428 9.3759 41.57 5.97819 45.7582 6.46239C52.3009 7.21883 56.5858 16.9492 55.2891 28.1654C53.9923 39.3816 47.6002 47.8776 41.0575 47.1212Z" fill="black"/>
<path d="M44.7654 15.0543C42.914 14.8403 41.0663 16.4846 39.6975 19.1861C39.6249 19.3416 39.6221 19.5234 39.6953 19.6776L42.689 25.4518C42.899 25.8404 42.4496 26.262 42.0749 26.0365L38.7603 24.1415C38.4354 23.9582 38.015 24.1282 37.9534 24.5036C37.8551 25.0386 37.7748 25.5758 37.7104 26.133C36.9602 32.6219 38.9058 38.1656 42.0513 38.5293C45.1969 38.8929 48.3382 33.9373 49.0884 27.4485C49.8365 20.9776 47.9109 15.418 44.7654 15.0543Z" fill="black"/>
<path d="M55.4225 62.4613C55.1738 61.7769 54.4141 61.4158 53.7116 61.6625C52.875 61.9665 51.9714 62.0624 51.0726 61.9584C49.5448 61.7818 48.2473 61.0307 47.3149 59.9575C47.232 59.7293 47.1131 59.497 46.914 59.3283C46.8802 59.3062 46.8442 59.302 46.8104 59.2799C46.0999 58.1777 45.7421 56.8613 45.9042 55.4593C45.9811 54.7942 46.1637 54.1596 46.4501 53.5734C46.7627 52.9173 46.4905 52.1208 45.8365 51.7902C45.1626 51.4755 44.384 51.7498 44.0534 52.4037C43.6439 53.2672 43.3741 54.1831 43.2619 55.1538C43.1123 56.4479 43.2744 57.7235 43.6689 58.8803C43.9985 59.8109 43.6782 60.8485 42.8505 61.3904C39.2971 63.7664 33.6153 64.8582 27.6297 64.1662C21.6442 63.4742 16.3635 61.0968 13.4439 57.9906C12.8018 57.2424 12.7267 56.159 13.2599 55.3281C13.9079 54.2919 14.3548 53.105 14.5065 51.7928C14.6167 50.8402 14.565 49.8688 14.3634 48.9347C14.2087 48.2247 13.4953 47.7779 12.7673 47.9305C12.0572 48.0852 11.6104 48.7986 11.7631 49.5267C11.9081 50.1627 11.9411 50.8223 11.8642 51.4873C11.7021 52.8894 11.0354 54.0873 10.1102 55.0004C10.0721 55.0142 10.0362 55.0101 9.99817 55.0239C9.76585 55.1428 9.59711 55.3418 9.46433 55.545C8.31165 56.3772 6.877 56.8124 5.34915 56.6358C4.45042 56.5319 3.59251 56.2323 2.84735 55.7454C2.21969 55.345 1.39763 55.5232 0.999273 56.1329C0.600916 56.7425 0.779099 57.5646 1.38878 57.963C2.49064 58.6732 3.71562 59.1063 5.02777 59.258C6.48372 59.4263 7.91141 59.2089 9.17463 58.681C9.84323 58.4122 10.5774 58.6792 11.0425 59.2248C14.3125 63.0819 20.3404 65.9282 27.3146 66.7345C34.2888 67.5408 40.8072 66.145 44.8709 63.1358C45.4483 62.7107 46.2261 62.6003 46.8137 63.0325C47.9411 63.8368 49.2635 64.3722 50.7195 64.5406C52.0316 64.6923 53.3231 64.5501 54.5579 64.11C55.3102 63.9056 55.6712 63.1458 55.4225 62.4613Z" fill="black"/>
</svg>
