<svg xmlns="http://www.w3.org/2000/svg" width="450" height="321" fill="none"><path fill="#F2CF4B" stroke="#000" stroke-linejoin="round" d="M1 70.657 396.043 1l42.906 243.334-395.043 69.657z"/><rect width="401.137" height="247.088" x="11.051" y="77.258" fill="#FB7AC0" stroke="#000" stroke-linejoin="round" rx="1" transform="rotate(-10 11.051 77.258)"/><path fill="#000" d="M155.325 102.299c-5.493 2.747-8.528 3.98-15.16 6.539-2.747-5.97-4.455-8.716-8.434-13.359 10.8-2.559 19.14-5.875 30.79-12.413-3.034-3.41-5.875-6.064-10.136-9.568-3.504 2.465-5.969 3.98-10.893 6.633-2.935-4.925-5.024-7.578-8.904-11.181 8.052-3.698 14.209-7.578 21.03-13.265 5.212-4.36 9.384-9.38 12.225-14.685l16.012 3.128c-1.99 2.747-2.653 3.698-3.886 5.212h18.189c3.411 0 5.494-.094 7.771-.475l7.865 7.865c-1.326 1.608-1.326 1.608-3.697 4.642-6.445 7.96-16.2 17.338-25.579 24.352h25.772c4.355 0 6.726-.094 8.998-.282-.381 2.653-.475 5.494-.475 9.76v25.961c0 4.642.187 7.483.569 10.324h-14.873v-4.925h-32.874v4.925h-14.873c.381-3.034.569-5.969.569-10.324v-18.864h-.006Zm10.612-39.888c-1.514 1.42-1.802 1.708-3.128 2.841 6.726 5.306 6.726 5.306 11.463 9.949 5.969-4.643 9.003-7.39 13.834-12.79h-22.169Zm3.598 51.539h33.068V98.79h-33.068v15.16Zm79.958-13.265c-2.365 14.022-5.118 21.318-11.938 31.454-3.504-4.924-6.82-8.434-11.75-12.601 4.924-6.345 7.865-13.359 9.285-22.55.757-4.261 1.327-11.75 1.515-17.814.094-.85.281-21.98.281-23.876 0-3.034-.381-9.473-.663-11.75h16.012c-.382 2.935-.476 4.83-.57 9.38 0 5.117 0 6.82-.094 9.76h21.13v-7.96c0-5.968-.094-8.433-.569-11.937h15.823c-.475 3.41-.569 5.78-.569 11.938v7.959h13.453c5.587 0 9.948-.188 12.883-.57V76.71c-3.504-.382-7.39-.57-12.883-.57H251.29c0 1.802-.094 3.316-.094 4.168-.094 4.073-.094 4.167-.188 6.914h31.835c4.261 0 7.108-.094 10.042-.382-.381 2.841-.475 5.688-.475 10.043v21.793c0 6.538.094 9.285.569 13.076H276.78c.475-3.504.569-6.538.569-13.076v-18.002h-27.856v.011ZM140.502 240.329c-10.042 1.896-13.834 2.465-25.672 3.979l-10.325 1.327c-1.608.188-1.895.287-3.885.475l-1.609-11.557c-3.697 1.796-5.023 2.46-9.379 4.355-2.271-5.305-3.885-8.24-6.632-11.938 9.38-1.989 16.957-4.924 23.119-9.097H95.121c-6.345 0-6.345 0-10.424.381v-12.507c2.653.287 4.454.381 10.987.381h28.895v-3.029h-3.316c-.282-2.177-.945-4.736-1.708-6.157 1.896.282 2.178.282 2.841.282.945 0 1.326-.381 1.326-1.326v-1.896h-5.576v2.178c0 3.504.094 4.924.282 7.771h-13.359c.282-3.223.282-3.598.282-7.677v-2.272h-4.737v4.361c0 2.935 0 3.504.188 4.736H87.919c0-.757 0-.757.188-2.177 0-.476.094-2.559.094-3.316v-7.014c0-.663 0-2.178-.094-2.747-.094-1.514-.094-1.514-.094-2.178.851.094 2.653.094 5.306.188h12.032v-2.653H93.794c-3.98 0-6.538.094-9.473.376v-10.324c2.084.282 3.504.381 7.39.381-2.466-1.707-5.4-3.316-8.529-4.83 3.792-4.455 5.4-7.296 7.39-13.359l12.22 2.084c-.663 1.702-.851 2.177-1.42 3.692h3.979c0-2.084-.094-3.029-.381-5.306h13.546c-.282 1.708-.381 2.935-.381 5.306h7.389c4.737 0 6.914-.094 9.379-.382v10.325c-3.316-.188-4.83-.282-9.285-.282h-7.472v2.747h7.483c6.251 0 8.053-.094 10.325-.382v10.325c-2.747-.282-5.588-.376-9.568-.376h-8.24v2.653h9.473c3.128 0 3.697 0 7.295-.188v10.136c0 1.421-.187 2.559-.663 3.698h4.643c-.282 2.083-.282 2.747-.282 5.024v1.608h21.699c6.063 0 9.097-.094 11.275-.381v12.507c-.476 0-.758-.094-1.045-.094-2.365-.287-3.885-.287-9.473-.287h-3.504l9.76 4.736c-.945.758-.945.758-3.598 2.935-.851.664-2.747 1.99-4.924 3.41 5.588 1.99 8.904 2.747 15.348 3.598-3.128 4.737-4.736 7.865-6.82 13.453-11.557-3.029-19.516-6.82-26.811-12.883v7.207h-.017Zm-35.146-66.699v-2.747h-8.622c-.569 1.138-.85 1.514-1.608 2.747h10.23Zm5.964 53.91c-3.885 2.652-4.924 3.222-10.136 5.969 3.885-.094 5.118-.188 10.136-.758v-5.211Zm13.834 3.598c5.306-.664 5.306-.664 11.275-1.708-3.698-3.886-5.875-7.108-7.865-11.557h-.851c-1.045.951-1.045.951-2.559 2.271v10.994Zm12.413-41.784c.188-1.99.282-3.316.282-6.444v-14.404c0-2.365-.094-5.399-.381-7.483h14.022c-.282 1.99-.282 3.029-.282 7.483v14.21c0 3.886 0 5.024.282 6.632h-13.923v.006Zm31.736 1.896c0 5.306-1.138 8.052-4.167 9.948-2.465 1.608-5.781 2.178-12.977 2.178-1.139 0-3.411-.094-7.108-.188-.663-4.361-1.708-7.484-3.598-11.463 3.979.282 6.914.475 9.191.475 4.361 0 5.024-.381 5.024-2.747v-25.009c0-3.128-.094-5.306-.381-7.865h14.497c-.381 2.465-.475 4.455-.475 8.716v25.955h-.006Zm-26.623 26.623c1.232 1.802 2.365 3.034 4.736 4.924 2.084-1.42 3.792-2.84 5.876-4.924H142.68Zm36.373-26.905c2.746.376 4.167.475 7.864.475h9.192c3.034 0 4.736-.094 7.295-.376-.282 2.935-.381 5.118-.381 10.706v22.262c1.802 2.747 2.935 3.692 5.687 4.737 3.698 1.42 8.81 1.99 17.432 1.99 18.57 0 31.454-.57 43.298-1.99-2.084 6.157-2.653 8.528-3.504 14.967-8.434.282-19.516.475-34.107.475-17.338 0-22.738-.569-28.425-3.128-3.128-1.42-5.118-2.841-7.389-5.4-3.698 3.128-7.014 5.682-10.043 7.578-.757.569-1.802 1.232-2.747 1.989l-6.157-15.348c1.045-.376 2.178-.851 2.935-1.326.282-.188.851-.476 1.802-1.045 2.653-1.514 3.979-2.366 7.202-4.643v-18.095h-3.98c-1.802 0-3.791.188-5.969.475v-14.303h-.005Zm9.948-34.3c6.82 5.781 12.126 10.987 16.581 16.105 3.885-5.306 6.726-11.463 7.389-15.63l13.74 2.465c-.188.569-.188.569-.663 1.99-.094.188-.757 2.177-1.514 4.073h4.83v-1.608c0-4.074-.094-5.781-.475-7.865h15.066c-.381 1.99-.475 3.692-.475 7.865v1.608h8.904c5.212 0 8.241-.188 11.181-.569v13.358c-3.034-.282-5.682-.375-10.612-.375h-9.473v4.83h13.928c4.355 0 6.632-.094 8.81-.381v13.264c-2.935-.381-5.4-.475-8.81-.475h-44.337c-2.841 0-5.024.094-7.672.282v-13.071c2.465.282 3.792.381 7.959.381-3.128-2.465-5.494-3.885-10.136-6.157l-8.147 7.865c-4.83-6.251-10.706-12.414-16.957-18.001l10.883-9.954Zm28.044 70.208c-3.792 0-5.212 0-7.39.282.188-2.271.188-2.271.188-16.487v-4.073c-.094-6.251-.094-6.251-.282-8.147 2.465.188 5.4.288 10.518.288h31.741c4.549 0 7.014-.094 9.661-.288-.188 2.272-.282 3.886-.282 10.043v9.666c0 5.776 0 6.821.188 8.998-2.653-.282-4.167-.282-8.81-.282h-35.532Zm12.319-43.961v-4.83H218.94c-1.232 2.083-1.801 2.934-3.128 4.83h13.552Zm-6.063 32.399h23.97v-5.024h-23.97v5.024Zm91.703-11.275c0 5.212 0 5.682.188 8.434-2.272-.094-4.643-.188-10.043-.188h-12.695c-.569 14.685-2.747 23.689-8.053 33.256-4.261-5.212-7.008-7.771-11.844-11.275 2.559-4.831 3.598-7.484 4.549-12.32 1.326-5.775 1.896-15.536 1.896-29.939 0-7.578-.094-10.518-.57-14.779 3.222.188 5.494.282 10.231.282h16.486c4.831 0 7.014-.094 10.137-.282-.188 2.271-.282 5.969-.282 10.136v16.675Zm-39.606-45.188c3.034.376 5.4.475 11.463.475h18.476c6.445 0 9.192-.094 11.651-.475v14.022c-2.559-.282-5.687-.376-10.893-.376h-20.179c-4.925 0-7.771.094-10.518.376v-14.022Zm25.96 41.209v-10.424h-8.622v4.642c0 3.223 0 3.317-.094 5.782h8.716Zm32.117-1.133c-1.896 22.925-5.682 32.592-18.383 46.332-3.504-4.643-6.157-7.39-10.799-11.087 4.924-4.831 7.201-7.771 9.567-12.22 3.034-5.588 4.455-11.844 5.306-22.169.381-5.024.475-10.324.475-26.717 0-5.212-.094-6.914-.381-9.473 8.052-.094 15.061-.945 23.019-2.841 5.876-1.42 10.894-3.029 13.453-4.361l6.726 13.74c-1.989.476-2.465.663-4.924 1.233-8.904 2.465-14.685 3.504-23.783 4.548v9.38h18.665c4.924 0 6.726-.094 9.567-.476v14.497c-2.841-.281-4.073-.381-7.771-.381v34.488c0 5.212.094 7.771.569 10.894h-15.254c.475-3.41.569-6.157.569-10.894v-34.488h-6.621v-.005Z"/><path fill="#fff" stroke="#000" stroke-width="2" d="M167.635 123.487v-3.925h30.874v4.925h17.016l-.152-1.133c-.374-2.785-.56-5.58-.56-10.191v-25.96c0-4.261.094-7.041.465-9.619l.178-1.242-1.251.103c-2.234.185-4.575.279-8.915.279h-22.822c8.693-6.813 17.444-15.36 23.406-22.722l.005-.007.006-.007a264.46 264.46 0 0 1 2.623-3.334c.296-.365.596-.728 1.058-1.288l.578-.701-.643-.642-7.865-7.865-.364-.364-.508.085c-2.194.367-4.212.461-7.606.461h-16.135a166.28 166.28 0 0 0 1.842-2.52l.8-1.105.918-1.268-1.537-.3-16.011-3.128-.725-.142-.348.651c-2.774 5.18-6.86 10.1-11.985 14.39-6.752 5.63-12.834 9.462-20.807 13.123l-1.358.624 1.095 1.017c3.802 3.532 5.833 6.108 8.725 10.96l.491.823.843-.454c4.655-2.508 7.144-4.015 10.369-6.257 3.526 2.925 6.05 5.268 8.602 8.05-11.014 6.097-19.08 9.248-29.437 11.702l-1.596.378 1.068 1.246c3.912 4.564 5.572 7.23 8.285 13.126l.392.852.876-.337c6.046-2.333 9.13-3.575 13.806-5.864v17.256c0 4.321-.186 7.213-.562 10.199l-.141 1.125h17.007v-1Zm3.712-57.613c-3.945-3.864-4.437-4.292-9.969-8.658.56-.494.971-.88 1.702-1.567l.253-.238h19.515c-3.786 4.107-6.647 6.66-11.501 10.463Zm27.256 25.916v13.16h-31.068V91.79h31.068Zm48.736 1.884h26.01v17.001c0 6.536-.095 9.511-.56 12.943l-.154 1.134h18.477l-.141-1.124c-.467-3.728-.561-6.424-.561-12.953V88.883c0-4.346.094-7.138.466-9.91l.168-1.25-1.256.122c-2.889.283-5.699.377-9.945.377h-30.801c.057-1.687.071-2.303.136-5.137l.017-.754.001-.012v-.011c0-.328.014-.763.033-1.303l.013-.392c.015-.445.03-.94.039-1.473h48.558c5.47 0 9.318.187 12.775.564l1.108.12V52.98l-1.129.147c-2.869.373-7.178.56-12.754.56h-12.453V46.73c0-6.147.094-8.461.56-11.8l.158-1.138h-18.117l.154 1.134c.466 3.436.56 5.847.56 11.804v6.959h-19.1c.064-2.392.064-4.263.064-8.746v-.005c.094-4.53.187-6.382.561-9.26l.147-1.13h-18.281l.139 1.124c.276 2.23.655 8.628.655 11.627 0 .942-.046 6.692-.105 12.32-.03 2.812-.062 5.59-.093 7.719-.015 1.064-.03 1.964-.044 2.624a87.67 87.67 0 0 1-.029 1.028l-.004.074v.002l-.005.04-.001.038c-.187 6.048-.755 13.48-1.499 17.67l-.002.011-.002.011c-1.398 9.044-4.279 15.894-9.087 22.09l-.588.757.732.619c4.875 4.121 8.132 7.57 11.581 12.418l.838 1.177.807-1.199c6.777-10.072 9.598-17.415 11.954-31.023Z"/><mask id="a" width="99" height="96" x="76" y="144.446" fill="#000" maskUnits="userSpaceOnUse"><path fill="#fff" d="M76 144.446h99v96H76z"/><path d="M137.502 232.329c-10.042 1.896-13.834 2.465-25.672 3.979l-10.325 1.327c-1.608.188-1.895.287-3.885.475l-1.609-11.557c-3.697 1.796-5.023 2.46-9.379 4.355-2.271-5.305-3.885-8.24-6.632-11.938 9.38-1.989 16.957-4.924 23.119-9.097H92.121c-6.345 0-6.345 0-10.424.381v-12.507c2.653.287 4.454.381 10.987.381h28.895v-3.029h-3.316c-.282-2.177-.945-4.736-1.708-6.157 1.896.282 2.178.282 2.841.282.945 0 1.326-.381 1.326-1.326v-1.896h-5.576v2.178c0 3.504.094 4.924.282 7.771h-13.359c.282-3.223.282-3.598.282-7.677v-2.272h-4.737v4.361c0 2.935 0 3.504.188 4.736H84.92c0-.757 0-.757.188-2.177 0-.476.094-2.559.094-3.316v-7.014c0-.663 0-2.178-.094-2.747-.094-1.514-.094-1.514-.094-2.178.851.094 2.653.094 5.306.188h12.032v-2.653H90.794c-3.98 0-6.538.094-9.473.376v-10.324c2.084.282 3.504.381 7.39.381-2.466-1.707-5.4-3.316-8.529-4.83 3.792-4.455 5.4-7.296 7.39-13.359l12.22 2.084c-.663 1.702-.851 2.177-1.42 3.692h3.979c0-2.084-.094-3.029-.381-5.306h13.546c-.282 1.708-.381 2.935-.381 5.306h7.389c4.737 0 6.914-.094 9.379-.382v10.325c-3.316-.188-4.83-.282-9.285-.282h-7.472v2.747h7.483c6.251 0 8.053-.094 10.325-.382v10.325c-2.747-.282-5.588-.376-9.568-.376h-8.24v2.653h9.473c3.128 0 3.697 0 7.295-.188v10.136c0 1.421-.187 2.559-.663 3.698h4.643c-.282 2.083-.282 2.747-.282 5.024v1.608h21.699c6.063 0 9.097-.094 11.275-.381v12.507c-.476 0-.758-.094-1.045-.094-2.365-.287-3.885-.287-9.473-.287h-3.504l9.76 4.736c-.945.758-.945.758-3.598 2.935-.851.664-2.747 1.99-4.924 3.41 5.588 1.99 8.904 2.747 15.348 3.598-3.128 4.737-4.736 7.865-6.82 13.453-11.557-3.029-19.516-6.82-26.811-12.883v7.207h-.017Zm-35.146-66.699v-2.747h-8.622c-.569 1.138-.85 1.514-1.608 2.747h10.23Zm5.964 53.91c-3.885 2.652-4.924 3.222-10.136 5.969 3.885-.094 5.118-.188 10.136-.758v-5.211Zm13.834 3.598c5.306-.664 5.306-.664 11.275-1.708-3.698-3.886-5.875-7.108-7.865-11.557h-.851c-1.045.951-1.045.951-2.559 2.271v10.994Zm12.413-41.784c.188-1.99.282-3.316.282-6.444v-14.404c0-2.365-.094-5.399-.381-7.483h14.022c-.282 1.99-.282 3.029-.282 7.483v14.21c0 3.886 0 5.024.282 6.632h-13.923v.006Zm31.736 1.896c0 5.306-1.138 8.052-4.167 9.948-2.465 1.608-5.781 2.178-12.977 2.178-1.139 0-3.411-.094-7.108-.188-.663-4.361-1.708-7.484-3.598-11.463 3.979.282 6.914.475 9.191.475 4.361 0 5.024-.381 5.024-2.747v-25.009c0-3.128-.094-5.306-.381-7.865h14.497c-.381 2.465-.475 4.455-.475 8.716v25.955h-.006Zm-26.623 26.623c1.232 1.802 2.365 3.034 4.736 4.924 2.084-1.42 3.792-2.84 5.876-4.924H139.68Z"/></mask><path fill="#fff" d="M137.502 232.329c-10.042 1.896-13.834 2.465-25.672 3.979l-10.325 1.327c-1.608.188-1.895.287-3.885.475l-1.609-11.557c-3.697 1.796-5.023 2.46-9.379 4.355-2.271-5.305-3.885-8.24-6.632-11.938 9.38-1.989 16.957-4.924 23.119-9.097H92.121c-6.345 0-6.345 0-10.424.381v-12.507c2.653.287 4.454.381 10.987.381h28.895v-3.029h-3.316c-.282-2.177-.945-4.736-1.708-6.157 1.896.282 2.178.282 2.841.282.945 0 1.326-.381 1.326-1.326v-1.896h-5.576v2.178c0 3.504.094 4.924.282 7.771h-13.359c.282-3.223.282-3.598.282-7.677v-2.272h-4.737v4.361c0 2.935 0 3.504.188 4.736H84.92c0-.757 0-.757.188-2.177 0-.476.094-2.559.094-3.316v-7.014c0-.663 0-2.178-.094-2.747-.094-1.514-.094-1.514-.094-2.178.851.094 2.653.094 5.306.188h12.032v-2.653H90.794c-3.98 0-6.538.094-9.473.376v-10.324c2.084.282 3.504.381 7.39.381-2.466-1.707-5.4-3.316-8.529-4.83 3.792-4.455 5.4-7.296 7.39-13.359l12.22 2.084c-.663 1.702-.851 2.177-1.42 3.692h3.979c0-2.084-.094-3.029-.381-5.306h13.546c-.282 1.708-.381 2.935-.381 5.306h7.389c4.737 0 6.914-.094 9.379-.382v10.325c-3.316-.188-4.83-.282-9.285-.282h-7.472v2.747h7.483c6.251 0 8.053-.094 10.325-.382v10.325c-2.747-.282-5.588-.376-9.568-.376h-8.24v2.653h9.473c3.128 0 3.697 0 7.295-.188v10.136c0 1.421-.187 2.559-.663 3.698h4.643c-.282 2.083-.282 2.747-.282 5.024v1.608h21.699c6.063 0 9.097-.094 11.275-.381v12.507c-.476 0-.758-.094-1.045-.094-2.365-.287-3.885-.287-9.473-.287h-3.504l9.76 4.736c-.945.758-.945.758-3.598 2.935-.851.664-2.747 1.99-4.924 3.41 5.588 1.99 8.904 2.747 15.348 3.598-3.128 4.737-4.736 7.865-6.82 13.453-11.557-3.029-19.516-6.82-26.811-12.883v7.207h-.017Zm-35.146-66.699v-2.747h-8.622c-.569 1.138-.85 1.514-1.608 2.747h10.23Zm5.964 53.91c-3.885 2.652-4.924 3.222-10.136 5.969 3.885-.094 5.118-.188 10.136-.758v-5.211Zm13.834 3.598c5.306-.664 5.306-.664 11.275-1.708-3.698-3.886-5.875-7.108-7.865-11.557h-.851c-1.045.951-1.045.951-2.559 2.271v10.994Zm12.413-41.784c.188-1.99.282-3.316.282-6.444v-14.404c0-2.365-.094-5.399-.381-7.483h14.022c-.282 1.99-.282 3.029-.282 7.483v14.21c0 3.886 0 5.024.282 6.632h-13.923v.006Zm31.736 1.896c0 5.306-1.138 8.052-4.167 9.948-2.465 1.608-5.781 2.178-12.977 2.178-1.139 0-3.411-.094-7.108-.188-.663-4.361-1.708-7.484-3.598-11.463 3.979.282 6.914.475 9.191.475 4.361 0 5.024-.381 5.024-2.747v-25.009c0-3.128-.094-5.306-.381-7.865h14.497c-.381 2.465-.475 4.455-.475 8.716v25.955h-.006Zm-26.623 26.623c1.232 1.802 2.365 3.034 4.736 4.924 2.084-1.42 3.792-2.84 5.876-4.924H139.68Z"/><path stroke="#000" stroke-width="4" d="M137.502 232.329c-10.042 1.896-13.834 2.465-25.672 3.979l-10.325 1.327c-1.608.188-1.895.287-3.885.475l-1.609-11.557c-3.697 1.796-5.023 2.46-9.379 4.355-2.271-5.305-3.885-8.24-6.632-11.938 9.38-1.989 16.957-4.924 23.119-9.097H92.121c-6.345 0-6.345 0-10.424.381v-12.507c2.653.287 4.454.381 10.987.381h28.895v-3.029h-3.316c-.282-2.177-.945-4.736-1.708-6.157 1.896.282 2.178.282 2.841.282.945 0 1.326-.381 1.326-1.326v-1.896h-5.576v2.178c0 3.504.094 4.924.282 7.771h-13.359c.282-3.223.282-3.598.282-7.677v-2.272h-4.737v4.361c0 2.935 0 3.504.188 4.736H84.92c0-.757 0-.757.188-2.177 0-.476.094-2.559.094-3.316v-7.014c0-.663 0-2.178-.094-2.747-.094-1.514-.094-1.514-.094-2.178.851.094 2.653.094 5.306.188h12.032v-2.653H90.794c-3.98 0-6.538.094-9.473.376v-10.324c2.084.282 3.504.381 7.39.381-2.466-1.707-5.4-3.316-8.529-4.83 3.792-4.455 5.4-7.296 7.39-13.359l12.22 2.084c-.663 1.702-.851 2.177-1.42 3.692h3.979c0-2.084-.094-3.029-.381-5.306h13.546c-.282 1.708-.381 2.935-.381 5.306h7.389c4.737 0 6.914-.094 9.379-.382v10.325c-3.316-.188-4.83-.282-9.285-.282h-7.472v2.747h7.483c6.251 0 8.053-.094 10.325-.382v10.325c-2.747-.282-5.588-.376-9.568-.376h-8.24v2.653h9.473c3.128 0 3.697 0 7.295-.188v10.136c0 1.421-.187 2.559-.663 3.698h4.643c-.282 2.083-.282 2.747-.282 5.024v1.608h21.699c6.063 0 9.097-.094 11.275-.381v12.507c-.476 0-.758-.094-1.045-.094-2.365-.287-3.885-.287-9.473-.287h-3.504l9.76 4.736c-.945.758-.945.758-3.598 2.935-.851.664-2.747 1.99-4.924 3.41 5.588 1.99 8.904 2.747 15.348 3.598-3.128 4.737-4.736 7.865-6.82 13.453-11.557-3.029-19.516-6.82-26.811-12.883v7.207h-.017Zm-35.146-66.699v-2.747h-8.622c-.569 1.138-.85 1.514-1.608 2.747h10.23Zm5.964 53.91c-3.885 2.652-4.924 3.222-10.136 5.969 3.885-.094 5.118-.188 10.136-.758v-5.211Zm13.834 3.598c5.306-.664 5.306-.664 11.275-1.708-3.698-3.886-5.875-7.108-7.865-11.557h-.851c-1.045.951-1.045.951-2.559 2.271v10.994Zm12.413-41.784c.188-1.99.282-3.316.282-6.444v-14.404c0-2.365-.094-5.399-.381-7.483h14.022c-.282 1.99-.282 3.029-.282 7.483v14.21c0 3.886 0 5.024.282 6.632h-13.923v.006Zm31.736 1.896c0 5.306-1.138 8.052-4.167 9.948-2.465 1.608-5.781 2.178-12.977 2.178-1.139 0-3.411-.094-7.108-.188-.663-4.361-1.708-7.484-3.598-11.463 3.979.282 6.914.475 9.191.475 4.361 0 5.024-.381 5.024-2.747v-25.009c0-3.128-.094-5.306-.381-7.865h14.497c-.381 2.465-.475 4.455-.475 8.716v25.955h-.006Zm-26.623 26.623c1.232 1.802 2.365 3.034 4.736 4.924 2.084-1.42 3.792-2.84 5.876-4.924H139.68Z" mask="url(#a)"/><path fill="#fff" stroke="#000" stroke-width="2" d="m176.053 181.968-.069 1h-.926v15.444l1.131-.149c2.16-.285 4.1-.467 5.838-.467h2.98v16.577c-2.9 2.041-4.197 2.865-6.698 4.293l-.009.005-.009.005c-.463.277-.833.486-1.128.651l-.06.034c-.247.139-.475.267-.642.377-.662.414-1.706.857-2.731 1.226l-.976.351.386.962 6.157 15.349.502 1.25 1.052-.842c.446-.358.921-.697 1.392-1.027l.286-.2c.353-.245.703-.489 1.01-.718 2.872-1.801 5.978-4.169 9.386-7.021 2.116 2.233 4.122 3.592 7.066 4.929l.003.001c5.913 2.661 11.529 3.216 28.835 3.216 14.6 0 25.693-.193 34.14-.476l.847-.028.111-.84c.843-6.372 1.397-8.68 3.46-14.777l.509-1.503-1.575.189c-11.788 1.414-24.627 1.983-43.179 1.983-7.953 0-12.783-.49-16.241-1.627 2.037-.257 3.413-.259 7.144-.259h35.532c4.65 0 6.113.001 8.705.277l1.206.128-.104-1.209c-.184-2.126-.185-3.123-.185-8.912v-9.666c0-6.143.094-7.727.279-9.96l.096-1.165-1.166.085c-2.617.191-5.056.285-9.588.285h-31.741c-5.107 0-8.013-.1-10.442-.285l-1.189-.09.118 1.186.005.045c.178 1.8.179 1.808.272 8.01v4.066c0 14.175-.001 14.186-.182 16.373l-.002.032-.049.583c-1.074-.435-1.815-.848-2.46-1.385-.693-.578-1.325-1.339-2.127-2.54v-21.961c0-5.57.099-7.719.376-10.608v5.513l1.071-.076a100.08 100.08 0 0 1 7.601-.279h44.337c3.388 0 5.806.093 8.681.467l1.129.147v-15.544l-1.131.149c-2.109.279-4.332.373-8.679.373H241.48v-2.83h8.473c4.916 0 7.529.093 10.519.371l1.093.102v-15.594l-1.129.146c-2.884.374-5.867.561-11.052.561h-7.904v-.608c0-4.166.095-5.787.457-7.677l.228-1.188h-17.476l.216 1.18c.364 1.99.459 3.623.459 7.685v.608h-2.373a116.804 116.804 0 0 0 .828-2.286 37.44 37.44 0 0 1 .123-.34l.032-.063.022-.067.007-.019c.469-1.401.47-1.406.658-1.975l.361-1.094-1.134-.203-13.74-2.465-1.004-.18-.16 1.007c-.589 3.702-3.034 9.202-6.485 14.18-4.318-4.857-9.42-9.81-15.851-15.261l-.672-.57-.65.595-10.882 9.954-.816.746.824.737c6.213 5.554 12.045 11.672 16.832 17.867l.682.884.804-.776 7.641-7.376c2.965 1.467 4.947 2.58 6.886 3.92-1.95-.046-3.09-.152-4.784-.346l-1.114-.127v8.539l-1.104.121c-2.519.278-4.185.37-7.186.37h-9.192c-3.246 0-4.694-.077-6.859-.351v-.124h-1.005Zm40.456-10.883h8.855v2.83h-10.645a55.612 55.612 0 0 0 1.79-2.83Zm26.762 32.205v3.024h-21.97v-3.024h21.97Zm68.88 2.182.934.039c-.787 2.999-1.793 5.55-3.104 7.964l-.004.007c-2.305 4.335-4.511 7.195-9.384 11.976l-.808.792.885.704c4.576 3.644 7.17 6.331 10.624 10.907l.721.955.812-.878c6.399-6.923 10.606-12.878 13.438-20.033 2.75-6.945 4.178-14.957 5.129-25.973h4.702v33.488c0 4.722-.094 7.415-.559 10.756l-.159 1.138h17.567l-.175-1.151c-.463-3.044-.558-5.54-.558-10.743v-33.485c2.908.018 4.132.122 6.672.374l1.099.109v-16.745l-1.133.152c-2.778.373-4.529.467-9.434.467h-17.665v-7.489c8.634-1.016 14.373-2.074 23.029-4.47a82.695 82.695 0 0 0 2.647-.654l.237-.062a81.053 81.053 0 0 1 2.027-.513l1.215-.29-.55-1.122-6.726-13.74-.451-.921-.909.473c-2.442 1.272-7.357 2.857-13.224 4.276-7.885 1.878-14.819 2.72-22.798 2.813l-1.105.013.123 1.098c.281 2.507.375 4.167.375 9.362 0 16.398-.094 21.66-.472 26.638-.446 5.404-1.046 9.651-1.942 13.25l-.037-.549c-.186-2.716-.186-3.156-.186-8.366v-16.675c0-4.162.094-7.825.278-10.054l.096-1.15-1.152.07c-3.104.186-5.267.28-10.077.28h-16.486c-4.716 0-6.968-.094-10.173-.28l-1.183-.069.131 1.178c.469 4.204.564 7.099.564 14.668 0 14.411-.573 24.065-1.871 29.715l-.003.016-.003.015c-.928 4.72-1.927 7.28-4.452 12.045l-.406.768.703.51c4.764 3.451 7.448 5.95 11.657 11.098l.934 1.141.715-1.289c5.285-9.53 7.506-18.511 8.137-32.741h11.736c5.384 0 7.741.094 10.002.187Zm-39.63-55.614-1.123-.139v16.261l1.102-.113c2.695-.276 5.501-.37 10.416-.37h20.179c5.203 0 8.284.094 10.784.37l1.109.122v-16.305l-1.153.179c-2.371.367-5.042.463-11.498.463h-18.476c-6.053 0-8.369-.1-11.34-.468Zm18.215 32.778h6.622v8.424h-6.678c.056-1.56.056-2.072.056-4.782v-3.642Z"/><path fill="#25E9F2" stroke="#000" d="m214 63.44 4.123 11.142.079.216.216.08L229.559 79l-11.141 4.123-.216.08-.079.215L214 94.559l-4.123-11.141-.079-.216-.216-.08L198.441 79l11.141-4.123.216-.08.079-.215L214 63.441Z"/><path fill="#000" stroke="#000" d="m320 116.441 1.962 5.302.08.215.215.08 5.302 1.962-5.302 1.962-.215.08-.08.215-1.962 5.302-1.962-5.302-.08-.215-.215-.08-5.302-1.962 5.302-1.962.215-.08.08-.215 1.962-5.302Z"/><path fill="#000" d="m364 157 2.431 6.569L373 166l-6.569 2.431L364 175l-2.431-6.569L355 166l6.569-2.431L364 157Z"/></svg>