<svg xmlns="http://www.w3.org/2000/svg" width="94" height="74" fill="none"><rect width="80.055" height="49.312" x="17.226" y="1" fill="#000" stroke="#000" stroke-linejoin="round" rx="4" transform="rotate(17.986 17.226 1)"/><rect width="80.055" height="49.312" x="16.226" y="2" fill="#000" stroke="#000" stroke-linejoin="round" rx="4" transform="rotate(17.986 16.226 2)"/><rect width="80.055" height="49.312" x="15.226" fill="#F1B7F7" stroke="#000" stroke-linejoin="round" rx="4" transform="rotate(17.986 15.226 0)"/><path fill="#000" d="M71.731 14.462c.522-1.861 3.184-1.786 3.601.1.315 1.424 2.069 1.945 3.11.929 1.382-1.35 3.652.046 3.069 1.888-.44 1.39.82 2.72 2.23 2.358 1.872-.478 3.14 1.866 1.712 3.17-1.075.982-.65 2.764.753 3.158 1.861.522 1.786 3.183-.1 3.6-1.424.315-1.946 2.07-.93 3.11 1.35 1.382-.045 3.652-1.888 3.07-1.39-.44-2.72.819-2.358 2.23.478 1.871-1.865 3.14-3.169 1.712-.983-1.075-2.764-.65-3.158.752-.522 1.861-3.184 1.786-3.6-.1-.315-1.423-2.07-1.945-3.111-.929-1.381 1.35-3.651-.046-3.069-1.888.44-1.39-.82-2.72-2.23-2.358-1.871.478-3.14-1.866-1.712-3.17 1.075-.982.65-2.764-.752-3.158-1.862-.522-1.786-3.183.1-3.6 1.423-.315 1.945-2.07.929-3.11-1.35-1.382.046-3.652 1.888-3.07 1.39.44 2.72-.819 2.358-2.23-.478-1.871 1.865-3.14 3.169-1.712.983 1.075 2.764.65 3.159-.752Z"/><path fill="#000" d="M72.823 42h-.063c-.93-.025-1.66-.629-1.86-1.538a1.728 1.728 0 0 0-1.21-1.302 1.731 1.731 0 0 0-1.725.426c-.664.65-1.608.754-2.4.268-.792-.489-1.123-1.375-.842-2.262a1.726 1.726 0 0 0-.399-1.731 1.73 1.73 0 0 0-1.706-.495c-.9.231-1.769-.148-2.21-.968-.443-.817-.286-1.752.402-2.38.475-.437.67-1.072.521-1.7a1.727 1.727 0 0 0-1.232-1.281c-.895-.252-1.457-1.015-1.431-1.943.025-.93.628-1.66 1.538-1.861a1.728 1.728 0 0 0 1.301-1.21 1.73 1.73 0 0 0-.425-1.725c-.65-.664-.755-1.607-.268-2.4.488-.792 1.375-1.123 2.261-.842a1.727 1.727 0 0 0 1.731-.398 1.73 1.73 0 0 0 .495-1.706c-.23-.902.149-1.77.968-2.212.818-.442 1.753-.285 2.381.403.436.476 1.071.67 1.698.522a1.727 1.727 0 0 0 1.28-1.233c.252-.895 1.01-1.458 1.944-1.431.93.025 1.66.629 1.86 1.538.14.631.592 1.117 1.21 1.302a1.731 1.731 0 0 0 1.725-.426c.664-.65 1.608-.754 2.4-.268.792.489 1.123 1.375.843 2.262a1.73 1.73 0 0 0 .398 1.733c.444.47 1.081.654 1.706.492.901-.23 1.769.15 2.21.969.443.817.286 1.752-.402 2.38a1.733 1.733 0 0 0-.521 1.698c.148.63.61 1.107 1.232 1.281.895.252 1.457 1.015 1.432 1.943-.026.93-.63 1.66-1.539 1.861a1.728 1.728 0 0 0-1.301 1.21 1.73 1.73 0 0 0 .425 1.724c.65.665.755 1.608.268 2.4-.488.792-1.375 1.124-2.261.843a1.726 1.726 0 0 0-1.731.398 1.73 1.73 0 0 0-.495 1.706c.23.901-.149 1.769-.968 2.211-.818.442-1.752.285-2.381-.402a1.733 1.733 0 0 0-1.698-.522 1.727 1.727 0 0 0-1.28 1.232c-.244.879-.98 1.434-1.88 1.434Zm-3.644-3.125c.188 0 .381.027.572.084.691.207 1.199.75 1.354 1.456.218.986 1.03 1.357 1.662 1.373.629.025 1.463-.306 1.735-1.278a1.938 1.938 0 0 1 1.434-1.38 1.933 1.933 0 0 1 1.9.585c.682.744 1.57.658 2.126.359.555-.3 1.115-.998.864-1.974-.179-.7.027-1.415.553-1.912a1.936 1.936 0 0 1 1.939-.444c.962.304 1.689-.216 2.02-.753.331-.536.465-1.42-.239-2.142a1.942 1.942 0 0 1-.478-1.932 1.937 1.937 0 0 1 1.457-1.354c.985-.218 1.356-1.031 1.373-1.662.017-.631-.306-1.463-1.279-1.736a1.939 1.939 0 0 1-1.379-1.433 1.933 1.933 0 0 1 .585-1.901c.744-.681.658-1.572.358-2.125-.3-.556-.997-1.113-1.974-.864a1.938 1.938 0 0 1-1.912-.553 1.936 1.936 0 0 1-.444-1.94c.304-.961-.216-1.688-.752-2.02-.537-.33-1.421-.465-2.142.24a1.942 1.942 0 0 1-1.933.477 1.937 1.937 0 0 1-1.354-1.456c-.213-.99-1.027-1.36-1.658-1.38-.624-.014-1.462.306-1.735 1.279a1.939 1.939 0 0 1-1.434 1.38 1.933 1.933 0 0 1-1.9-.586c-.682-.744-1.573-.658-2.126-.358-.555.3-1.115.998-.863 1.974.178.7-.028 1.415-.554 1.912a1.936 1.936 0 0 1-1.938.444c-.962-.304-1.69.216-2.02.753-.336.538-.47 1.423.234 2.144.505.517.683 1.238.478 1.932a1.937 1.937 0 0 1-1.457 1.354c-.985.218-1.356 1.031-1.373 1.662-.017.631.306 1.463 1.279 1.735a1.939 1.939 0 0 1 1.379 1.434 1.938 1.938 0 0 1-.585 1.903c-.744.681-.658 1.572-.358 2.126.3.555.997 1.112 1.974.863.7-.178 1.415.027 1.912.553.496.526.662 1.25.444 1.939-.304.962.216 1.69.752 2.02.537.332 1.421.468 2.142-.238.376-.365.86-.56 1.36-.56Z"/><path fill="#82E7D7" d="M71.065 13.462c.522-1.861 3.183-1.786 3.6.1.315 1.424 2.07 1.946 3.11.929 1.382-1.35 3.652.046 3.07 1.888-.44 1.39.819 2.72 2.23 2.358 1.871-.478 3.139 1.866 1.712 3.17-1.076.982-.65 2.764.752 3.158 1.861.522 1.786 3.183-.1 3.6-1.424.315-1.945 2.07-.929 3.111 1.35 1.381-.046 3.651-1.888 3.068-1.39-.44-2.72.82-2.358 2.23.478 1.872-1.866 3.14-3.17 1.713-.982-1.075-2.764-.65-3.158.752-.522 1.861-3.184 1.786-3.6-.1-.315-1.423-2.07-1.945-3.111-.929-1.381 1.35-3.651-.046-3.068-1.888.44-1.39-.82-2.72-2.23-2.358-1.872.478-3.14-1.866-1.713-3.17 1.075-.982.65-2.764-.752-3.158-1.861-.522-1.786-3.183.1-3.6 1.424-.315 1.945-2.07.929-3.11-1.35-1.382.046-3.652 1.888-3.07 1.39.44 2.72-.819 2.358-2.23-.478-1.871 1.866-3.139 3.17-1.712.982 1.075 2.764.65 3.158-.752Z"/><path fill="#000" d="M72.157 41h-.063c-.93-.025-1.66-.629-1.861-1.538a1.728 1.728 0 0 0-1.21-1.302 1.73 1.73 0 0 0-1.725.426c-.664.65-1.607.754-2.4.268-.792-.489-1.123-1.375-.842-2.262a1.726 1.726 0 0 0-.398-1.73 1.73 1.73 0 0 0-1.706-.495c-.902.23-1.77-.15-2.212-.969-.442-.817-.285-1.752.403-2.38.476-.437.67-1.072.522-1.7a1.727 1.727 0 0 0-1.233-1.281c-.895-.252-1.456-1.015-1.431-1.943.025-.93.629-1.66 1.538-1.861a1.728 1.728 0 0 0 1.302-1.21 1.731 1.731 0 0 0-.426-1.725c-.65-.664-.754-1.607-.268-2.4.488-.792 1.375-1.123 2.261-.842a1.726 1.726 0 0 0 1.732-.398 1.73 1.73 0 0 0 .494-1.706c-.23-.902.15-1.77.969-2.211.817-.443 1.752-.285 2.38.402.437.476 1.072.67 1.698.522a1.727 1.727 0 0 0 1.281-1.232c.251-.896 1.01-1.46 1.943-1.432.93.025 1.66.629 1.861 1.538.138.631.591 1.117 1.21 1.302a1.73 1.73 0 0 0 1.724-.426c.665-.65 1.608-.754 2.4-.268.792.489 1.124 1.375.843 2.262a1.73 1.73 0 0 0 .398 1.733c.444.47 1.081.654 1.706.492.901-.23 1.769.15 2.211.969.442.817.285 1.752-.402 2.38a1.733 1.733 0 0 0-.522 1.698c.149.63.61 1.107 1.232 1.281.895.252 1.457 1.015 1.432 1.943-.025.93-.629 1.66-1.539 1.861a1.728 1.728 0 0 0-1.301 1.21 1.731 1.731 0 0 0 .425 1.725c.65.664.755 1.607.269 2.4-.489.791-1.375 1.123-2.262.842a1.726 1.726 0 0 0-1.731.398 1.73 1.73 0 0 0-.495 1.706c.23.901-.149 1.77-.968 2.211-.817.443-1.752.285-2.381-.402a1.733 1.733 0 0 0-1.698-.522 1.726 1.726 0 0 0-1.28 1.232c-.244.879-.98 1.434-1.88 1.434Zm-3.645-3.125c.189 0 .381.027.572.084.692.207 1.199.75 1.354 1.456.218.986 1.031 1.357 1.662 1.373.629.026 1.463-.306 1.736-1.278a1.939 1.939 0 0 1 1.433-1.38 1.933 1.933 0 0 1 1.901.585c.681.744 1.57.659 2.125.359.556-.3 1.115-.998.864-1.974-.178-.7.027-1.415.553-1.912a1.936 1.936 0 0 1 1.939-.444c.962.304 1.69-.216 2.02-.753.331-.536.466-1.42-.239-2.142a1.942 1.942 0 0 1-.478-1.932 1.937 1.937 0 0 1 1.457-1.354c.985-.218 1.356-1.031 1.373-1.662.017-.631-.306-1.463-1.279-1.736a1.939 1.939 0 0 1-1.379-1.433 1.933 1.933 0 0 1 .585-1.901c.744-.681.658-1.572.359-2.125-.3-.556-.998-1.113-1.975-.864a1.938 1.938 0 0 1-1.911-.553 1.936 1.936 0 0 1-.445-1.939c.304-.962-.216-1.69-.752-2.02-.537-.332-1.421-.466-2.142.238a1.941 1.941 0 0 1-1.933.478 1.937 1.937 0 0 1-1.354-1.456c-.213-.99-1.027-1.36-1.657-1.38-.625-.014-1.463.306-1.736 1.279a1.939 1.939 0 0 1-1.433 1.38 1.933 1.933 0 0 1-1.901-.586c-.681-.744-1.572-.658-2.126-.358-.555.3-1.115.998-.863 1.974.178.7-.027 1.415-.553 1.912a1.936 1.936 0 0 1-1.94.444c-.961-.304-1.688.216-2.02.753-.335.538-.47 1.423.235 2.144.505.517.683 1.238.478 1.932a1.937 1.937 0 0 1-1.457 1.354c-.985.218-1.356 1.031-1.373 1.662-.016.631.306 1.463 1.279 1.736a1.939 1.939 0 0 1 1.38 1.433 1.938 1.938 0 0 1-.586 1.903c-.744.681-.658 1.572-.358 2.125.3.556.998 1.114 1.974.864.7-.178 1.415.027 1.912.553.496.526.662 1.25.444 1.94-.304.961.216 1.688.753 2.02.536.33 1.42.467 2.142-.24.375-.364.859-.559 1.36-.559Z"/><path fill="#fff" stroke="#000" stroke-width=".5" d="M66.933 26.909c.944.266 1.937-.13 2.766-.897.832-.772 1.536-1.947 1.929-3.34.393-1.393.407-2.763.1-3.856-.304-1.088-.944-1.944-1.888-2.21s-1.937.129-2.766.897c-.832.771-1.536 1.947-1.93 3.34-.392 1.393-.407 2.762-.1 3.855.305 1.089.945 1.944 1.889 2.21Z"/><path fill="#000" d="M71.31 22.877c-.637 2.26-2.254 3.782-3.61 3.4-1.356-.383-1.938-2.526-1.3-4.786.637-2.26 2.253-3.782 3.61-3.4 1.102.312 1.693 1.787 1.533 3.542-2.582.417-.233 1.244-.233 1.244Z"/><path fill="#fff" stroke="#000" stroke-width=".5" d="M76.933 29.909c.944.266 1.937-.13 2.766-.897.832-.772 1.536-1.947 1.929-3.34.393-1.393.407-2.763.1-3.856-.304-1.088-.944-1.944-1.888-2.21s-1.937.129-2.766.897c-.832.771-1.536 1.947-1.93 3.34-.392 1.393-.407 2.762-.1 3.855.305 1.089.945 1.944 1.889 2.21Z"/><path fill="#000" d="M81.31 25.877c-.637 2.26-2.254 3.782-3.61 3.4-1.356-.383-1.938-2.526-1.3-4.786.637-2.26 2.253-3.782 3.61-3.4 1.102.312 1.693 1.787 1.533 3.542-2.582.417-.233 1.244-.233 1.244Z"/></svg>