<svg xmlns="http://www.w3.org/2000/svg" width="87" height="82" fill="none"><path fill="#E82198" d="M54.14 4.064C44.174 6.308 38.158 17.297 40.703 28.6c-2.545-11.303-12.69-18.653-22.656-16.409C8.08 14.435 2.065 25.424 4.61 36.728c3.94 17.5 21.885 31.241 46.202 36.763 19.61-15.407 29.927-35.511 25.986-53.012C74.258 9.168 64.112 1.819 54.14 4.064Z"/><path fill="#E8E6DF" d="M34.435 47.298c4.873-3.437 6.037-10.176 2.6-15.052-3.437-4.875-10.173-6.04-15.045-2.604-4.873 3.438-6.037 10.176-2.6 15.052 3.436 4.875 10.173 6.041 15.045 2.604ZM62.448 40.989c4.872-3.438 6.036-10.176 2.6-15.052-3.437-4.875-10.173-6.041-15.046-2.604-4.872 3.437-6.036 10.176-2.6 15.052 3.437 4.875 10.173 6.04 15.046 2.604Z"/><path fill="#010101" d="M46.653 55.023a6.354 6.354 0 0 1-7.59-4.803.918.918 0 0 1 .694-1.098.923.923 0 0 1 1.104.694 4.516 4.516 0 0 0 5.387 3.408 4.516 4.516 0 0 0 3.406-5.389.92.92 0 0 1 .7-1.099.918.918 0 0 1 1.098.695c.769 3.414-1.38 6.822-4.799 7.592ZM25.845 27.931l4.746 21.074c5.81-1.314 9.464-7.087 8.153-12.907a10.797 10.797 0 0 0-12.899-8.167ZM53.858 21.623l4.746 21.075c5.81-1.315 9.464-7.088 8.153-12.908-1.31-5.82-7.086-9.47-12.899-8.167Z"/></svg>