<svg width="74" height="74" viewBox="0 0 74 74" fill="none" xmlns="http://www.w3.org/2000/svg">
<path d="M39.5075 62.2615L41.7736 27.4404L42.171 26.826L41.3211 26.7706L41.3162 26.7703L40.8173 26.7379L40.7927 27.1156C37.3132 32.4812 34.2567 36.1614 30.2767 40.086C28.6462 36.4132 27.4795 34.3582 24.9638 30.7671L24.9013 30.6778L24.9247 30.6572C29.3059 26.8067 32.3313 22.9973 35.227 17.8427C38.025 12.9244 39.9901 8.36455 40.7974 5.1743L50.7997 8.12512C50.6401 8.47156 50.5004 8.77372 50.3727 9.04989C49.9822 9.89463 49.7041 10.4962 49.3114 11.3781L49.3113 11.3781L49.3069 11.3886C48.532 13.2412 48.272 13.7736 47.7804 14.78C47.7464 14.8495 47.7113 14.9214 47.6749 14.9961L47.3481 15.6659L48.0918 15.7143L64.0168 16.7507C67.7968 16.9967 70.4328 17.0527 72.4533 16.9457L71.8448 26.2959C69.6282 25.9091 66.6344 25.5963 63.5286 25.3942L52.1635 24.6545L51.6645 24.6221L51.632 25.121L51.2064 31.6608L51.174 32.1597L51.6729 32.1922L61.5674 32.8362C64.5975 33.0334 66.6461 33.1082 68.7364 33.0128L68.1398 42.1805C65.7434 41.835 63.4326 41.5633 60.8716 41.3966L51.1201 40.762L50.6212 40.7295L50.5887 41.2284L50.1631 47.7682L50.1306 48.2672L50.6296 48.2997L60.4501 48.9388C63.5055 49.1376 65.4962 49.2076 67.7576 49.1195L67.1567 58.3523C64.6019 57.9453 62.522 57.7489 59.8879 57.5775L50.0674 56.9383L49.5684 56.9059L49.5359 57.4048L49.1834 62.8217C48.8882 67.3585 48.8335 69.9531 48.9429 71.9078L38.5654 71.2324C38.9445 69.1101 39.2209 66.6649 39.5075 62.2615ZM22.078 61.4054C21.8668 64.6498 21.8258 67.1602 21.8991 69.8597L11.6365 69.1918C12.0384 66.7905 12.3102 64.4639 12.5451 60.8545L13.6298 44.1884L13.63 44.1851L13.6302 44.1818L13.6304 44.1785L13.6306 44.1752L13.6309 44.1719L13.6311 44.1686L13.6313 44.1653L13.6315 44.162L13.6317 44.1587L13.6319 44.1554L13.6321 44.1522L13.6324 44.1489L13.6326 44.1456L13.6328 44.1423L13.633 44.139L13.6332 44.1357L13.6334 44.1324L13.6336 44.1292L13.6338 44.1259L13.6341 44.1226L13.6343 44.1193L13.6345 44.116L13.6347 44.1128L13.6349 44.1095L13.6351 44.1062L13.6353 44.1029L13.6356 44.0997L13.6358 44.0964L13.636 44.0931L13.6362 44.0898L13.6364 44.0866L13.6366 44.0833L13.6368 44.08L13.637 44.0767L13.6373 44.0735L13.6375 44.0702L13.6377 44.0669L13.6379 44.0636L13.6381 44.0604L13.6383 44.0571L13.6385 44.0538L13.6388 44.0505L13.639 44.0473L13.6392 44.044L13.6394 44.0407L13.6396 44.0374L13.6398 44.0342L13.64 44.0309L13.6402 44.0276L13.6405 44.0243L13.6407 44.021L13.6409 44.0178L13.6411 44.0145L13.6413 44.0112L13.6415 44.0079L13.6417 44.0046L13.642 44.0014L13.6422 43.9981L13.6424 43.9948L13.6426 43.9915L13.6428 43.9882L13.643 43.9849L13.6432 43.9816L13.6435 43.9783L13.6437 43.975L13.6439 43.9717L13.6441 43.9684L13.6443 43.9651L13.6445 43.9618L13.6447 43.9585L13.645 43.9552L13.6452 43.9519L13.6454 43.9486L13.6456 43.9453L13.6458 43.942L13.646 43.9387L13.6462 43.9354L13.6465 43.9321L13.6467 43.9288L13.6469 43.9254L13.6471 43.9221L13.6473 43.9188L13.6475 43.9155L13.6478 43.9121L13.648 43.9088L13.6482 43.9055L13.6484 43.9021L13.6486 43.8988L13.6488 43.8955L13.6491 43.8921L13.6493 43.8888L13.6495 43.8854L13.6497 43.8821L13.6499 43.8787L13.6502 43.8754L13.6504 43.872L13.6506 43.8686L13.6508 43.8653L13.651 43.8619L13.6512 43.8585L13.6515 43.8552L13.6517 43.8518L13.6519 43.8484L13.6521 43.845L13.6523 43.8416L13.6526 43.8383L13.6528 43.8349L13.653 43.8315L13.6532 43.8281L13.6535 43.8247L13.6537 43.8212L13.6539 43.8178L13.6541 43.8144L13.6543 43.811L13.6546 43.8076L13.6548 43.8042L13.655 43.8007L13.6552 43.7973L13.6555 43.7939L13.6557 43.7904L13.6559 43.787L13.6561 43.7835L13.6564 43.7801L13.6566 43.7766L13.6568 43.7732L13.657 43.7697L13.6573 43.7662L13.6575 43.7627L13.6577 43.7593L13.6579 43.7558L13.6582 43.7523L13.6584 43.7488L13.6586 43.7453L13.6588 43.7418L13.6591 43.7383L13.6593 43.7348L13.6595 43.7313L13.6598 43.7278L13.66 43.7242L13.6602 43.7207L13.6604 43.7172L13.6607 43.7136L13.6609 43.7101L13.6611 43.7065L13.6614 43.703L13.6616 43.6994L13.6618 43.6958L13.6621 43.6923L13.6623 43.6887L13.6625 43.6851L13.6628 43.6815L13.663 43.6779L13.6632 43.6743L13.6635 43.6707L13.6637 43.6671L13.6639 43.6635L13.6642 43.6599L13.6644 43.6563L13.6646 43.6526L13.6649 43.649L13.6651 43.6453L13.6654 43.6417L13.6656 43.638L13.6658 43.6344L13.6661 43.6307L13.6663 43.627L13.6666 43.6234L13.6668 43.6197L13.667 43.616L13.6673 43.6123L13.6675 43.6086L13.6678 43.6049L13.668 43.6011L13.6682 43.5974L13.6685 43.5937L13.6687 43.5899L13.669 43.5862L13.6692 43.5824L13.6695 43.5787L13.6697 43.5749L13.67 43.5711L13.6702 43.5674L13.6704 43.5636L13.6707 43.5598L13.6709 43.556L13.6712 43.5522L13.6714 43.5484L13.6717 43.5445L13.6719 43.5407L13.6722 43.5369L13.6724 43.533L13.6727 43.5292L13.6729 43.5253L13.6732 43.5215L13.6734 43.5176L13.6737 43.5137L13.6739 43.5098L13.6742 43.5059L13.6744 43.502L13.6747 43.4981L13.675 43.4942L13.6752 43.4903L13.6755 43.4863L13.6757 43.4824L13.676 43.4784L13.6762 43.4745L13.6765 43.4705L13.6768 43.4665L13.677 43.4625L13.6773 43.4586L13.6775 43.4546L13.6778 43.4505L13.6781 43.4465L13.6783 43.4425L13.6786 43.4385L13.6788 43.4344L13.6791 43.4304L13.6794 43.4263L13.6796 43.4222L13.6799 43.4182L13.6802 43.4141L13.6804 43.41L13.6807 43.4059L13.681 43.4018L13.6812 43.3977L13.6815 43.3935L13.6818 43.3894L13.682 43.3852L13.6823 43.3811L13.6826 43.3769L13.6829 43.3727L13.6831 43.3686L13.6834 43.3644L13.6837 43.3602L13.684 43.3559L13.6842 43.3517L13.6845 43.3475L13.6848 43.3432L13.6851 43.339L13.6853 43.3347L13.6856 43.3305L13.6859 43.3262L13.6862 43.3219L13.6865 43.3176L13.6867 43.3133L13.687 43.309L13.6873 43.3046L13.6876 43.3003L13.6879 43.2959L13.6881 43.2916L13.6884 43.2872L13.6887 43.2828L13.689 43.2784L13.6893 43.274L13.6896 43.2696L13.6899 43.2652L13.6902 43.2608L13.6904 43.2563L13.6907 43.2519L13.691 43.2474L13.6913 43.2429L13.6916 43.2384L13.6919 43.2339L13.6922 43.2294L13.6925 43.2249L13.6928 43.2204L13.6931 43.2158L13.6934 43.2113L13.6937 43.2067L13.694 43.2022L13.6943 43.1976L13.6946 43.193L13.6949 43.1884L13.6952 43.1838L13.6955 43.1791L13.6958 43.1745L13.6961 43.1698L13.6964 43.1652L13.6967 43.1605L13.697 43.1558L13.6973 43.1511L13.6976 43.1464L13.6979 43.1417L13.6982 43.1369L13.6985 43.1322L13.6988 43.1274L13.6991 43.1227L13.6994 43.1179L13.6998 43.1131L13.7001 43.1083L13.7004 43.1035L13.7007 43.0986L13.701 43.0938L13.7013 43.089L13.7016 43.0841L13.702 43.0792L13.7023 43.0743L13.7026 43.0694L13.7029 43.0645L13.7032 43.0596L13.7036 43.0546L13.7039 43.0497L13.7042 43.0447L13.7045 43.0397L13.7049 43.0347L13.7052 43.0297L13.7055 43.0247L13.7058 43.0197L13.7062 43.0146L13.7065 43.0096L13.7068 43.0045L13.7072 42.9994L13.7075 42.9943L13.7078 42.9892L13.7082 42.9841L13.7085 42.979L13.7088 42.9738L13.7092 42.9687L13.7095 42.9635L13.7098 42.9583L13.7102 42.9531L13.7105 42.9479L13.7109 42.9427L13.7112 42.9374L13.7115 42.9322L13.7119 42.9269L13.7122 42.9216L13.7126 42.9163L13.7129 42.911L13.7133 42.9057L13.7136 42.9003L13.714 42.895L13.7143 42.8896L13.7147 42.8842L13.715 42.8788L13.7154 42.8734L13.7157 42.868L13.7161 42.8626L13.7164 42.8571L13.7168 42.8516L13.7171 42.8462L13.7175 42.8407L13.7179 42.8351L13.7182 42.8296L13.7186 42.8241L13.7189 42.8185L13.7193 42.8129L13.7197 42.8074L13.72 42.8018L13.7204 42.7962L13.7208 42.7905L13.7211 42.7849L13.7215 42.7792L13.7219 42.7735L13.7222 42.7679L13.7226 42.7621L13.723 42.7564L13.7233 42.7507L13.7237 42.7449L13.7241 42.7392L13.7245 42.7334L13.7248 42.7276L13.7252 42.7218L13.7256 42.716L13.726 42.7101L13.7264 42.7043L13.7268 42.6984L13.7271 42.6925L13.7275 42.6866L13.7279 42.6807L13.7283 42.6747L13.7287 42.6688L13.7291 42.6628L13.7295 42.6568L13.7298 42.6508L13.7302 42.6448L13.7306 42.6387L13.731 42.6327L13.7314 42.6266L13.7318 42.6206L13.7322 42.6144L13.7326 42.6083L13.733 42.6022L13.7334 42.5961L13.7338 42.5899L13.7342 42.5837L13.7346 42.5775L13.735 42.5713L13.7354 42.5651L13.7358 42.5588L13.7362 42.5525L13.7367 42.5463L13.7371 42.54L13.7375 42.5336L13.7379 42.5273L13.7383 42.521L13.7387 42.5146L13.7391 42.5082L13.7395 42.5018L13.74 42.4954L13.7404 42.4889L13.7408 42.4825L13.7412 42.476L13.7416 42.4695L13.7421 42.463L13.7425 42.4565L13.7429 42.4499L13.7433 42.4434L13.7438 42.4368L13.7442 42.4302L13.7446 42.4236L13.7451 42.417L13.7455 42.4103L13.7459 42.4037L13.7464 42.397L13.7468 42.3903L13.7472 42.3835L13.7477 42.3768L13.7481 42.3701L13.7486 42.3633L13.749 42.3565L13.7494 42.3497L13.7499 42.3428L13.7503 42.336L13.7508 42.3291L13.7512 42.3222L13.7517 42.3153L13.7521 42.3084L13.7526 42.3015L13.753 42.2945L13.7535 42.2875L13.7539 42.2805L13.7544 42.2735L13.7549 42.2665L13.7553 42.2594L13.7558 42.2523L13.7562 42.2453L13.7567 42.2381L13.7572 42.231L13.7576 42.2239L13.7581 42.2167L13.7586 42.2095L13.759 42.2023L13.7595 42.1951L13.76 42.1878L13.7605 42.1806L13.7609 42.1733L13.7614 42.166L13.7619 42.1586L13.7624 42.1513L13.7628 42.1439L13.7633 42.1366L13.7638 42.1292L13.7643 42.1217L13.7648 42.1143L13.7652 42.1068L13.7657 42.0993L13.7662 42.0918L13.7667 42.0843L13.7672 42.0768L13.7677 42.0692L13.7682 42.0616L13.7687 42.054L13.7692 42.0464L13.7697 42.0387L13.7702 42.0311L13.7707 42.0234L13.7712 42.0157L13.7717 42.008L13.7722 42.0002L13.7727 41.9924L13.7732 41.9847L13.7737 41.9769L13.7742 41.969L13.7747 41.9612L13.7752 41.9533L13.7758 41.9454L13.7763 41.9375L13.7768 41.9296L13.7773 41.9216L13.7778 41.9136L13.7783 41.9056L13.7789 41.8976L13.7794 41.8896L13.7799 41.8815L13.7804 41.8734L13.781 41.8653L13.7815 41.8572L13.782 41.849L13.7826 41.8409L13.7831 41.8327L13.7836 41.8245L13.7842 41.8162L13.7847 41.808L13.7852 41.7997L13.7858 41.7914L13.7863 41.7831L13.7869 41.7747L13.7874 41.7664L13.788 41.758L13.7885 41.7496L13.789 41.7411L13.7896 41.7327L13.7902 41.7242L13.7907 41.7157L13.7913 41.7072L13.7918 41.6986L13.7924 41.6901L13.7929 41.6815L13.7935 41.6729L13.7941 41.6643L13.7941 41.663C14.0135 39.3549 14.0138 39.3516 14.2429 36.896L14.243 36.8949L14.3828 35.3968L13.3742 36.5133C11.8485 38.2021 10.5127 39.5722 8.90992 40.981C8.13419 36.0192 7.28956 33.0771 5.64769 29.0424C10.5596 25.3984 15.0312 19.5618 18.7811 12.0205C20.3686 8.88998 21.4478 6.13463 22.02 3.64541L31.6919 7.33454C31.1448 8.46664 30.9282 8.9556 30.1815 10.7817C28.5243 14.7438 27.313 17.1891 24.701 21.7366L24.6432 21.8373L24.6356 21.9532L24.0957 30.2491L24.0173 31.4547L24.0278 31.4455L22.078 61.4054Z" fill="black" stroke="black"/>
<path d="M37.5075 60.2615L39.7736 25.4404L40.171 24.826L39.3211 24.7706L39.3162 24.7703L38.8173 24.7379L38.7927 25.1156C35.3132 30.4812 32.2567 34.1614 28.2767 38.086C26.6462 34.4132 25.4795 32.3582 22.9638 28.7671L22.9013 28.6778L22.9247 28.6572C27.3059 24.8067 30.3313 20.9973 33.227 15.8427C36.025 10.9244 37.9901 6.36455 38.7974 3.1743L48.7997 6.12512C48.6401 6.47156 48.5004 6.77372 48.3727 7.04989C47.9822 7.89463 47.7041 8.4962 47.3114 9.37815L47.3113 9.37809L47.3069 9.38859C46.532 11.2412 46.272 11.7736 45.7804 12.78C45.7464 12.8495 45.7113 12.9214 45.6749 12.9961L45.3481 13.6659L46.0918 13.7143L62.0168 14.7507C65.7968 14.9967 68.4328 15.0527 70.4533 14.9457L69.8448 24.2959C67.6282 23.9091 64.6344 23.5963 61.5286 23.3942L50.1635 22.6545L49.6645 22.6221L49.632 23.121L49.2064 29.6608L49.174 30.1597L49.6729 30.1922L59.5674 30.8362C62.5975 31.0334 64.6461 31.1082 66.7364 31.0128L66.1398 40.1805C63.7434 39.835 61.4326 39.5633 58.8716 39.3966L49.1201 38.762L48.6212 38.7295L48.5887 39.2284L48.1631 45.7682L48.1306 46.2672L48.6296 46.2997L58.4501 46.9388C61.5055 47.1376 63.4962 47.2076 65.7576 47.1195L65.1567 56.3523C62.6019 55.9453 60.522 55.7489 57.8879 55.5775L48.0674 54.9383L47.5684 54.9059L47.5359 55.4048L47.1834 60.8217C46.8882 65.3585 46.8335 67.9531 46.9429 69.9078L36.5654 69.2324C36.9445 67.1101 37.2209 64.6649 37.5075 60.2615ZM20.078 59.4054C19.8668 62.6498 19.8258 65.1602 19.8991 67.8597L9.6365 67.1918C10.0384 64.7905 10.3102 62.4639 10.5451 58.8545L11.6298 42.1884L11.63 42.1851L11.6302 42.1818L11.6304 42.1785L11.6306 42.1752L11.6309 42.1719L11.6311 42.1686L11.6313 42.1653L11.6315 42.162L11.6317 42.1587L11.6319 42.1554L11.6321 42.1522L11.6324 42.1489L11.6326 42.1456L11.6328 42.1423L11.633 42.139L11.6332 42.1357L11.6334 42.1324L11.6336 42.1292L11.6338 42.1259L11.6341 42.1226L11.6343 42.1193L11.6345 42.116L11.6347 42.1128L11.6349 42.1095L11.6351 42.1062L11.6353 42.1029L11.6356 42.0997L11.6358 42.0964L11.636 42.0931L11.6362 42.0898L11.6364 42.0866L11.6366 42.0833L11.6368 42.08L11.637 42.0767L11.6373 42.0735L11.6375 42.0702L11.6377 42.0669L11.6379 42.0636L11.6381 42.0604L11.6383 42.0571L11.6385 42.0538L11.6388 42.0505L11.639 42.0473L11.6392 42.044L11.6394 42.0407L11.6396 42.0374L11.6398 42.0342L11.64 42.0309L11.6402 42.0276L11.6405 42.0243L11.6407 42.021L11.6409 42.0178L11.6411 42.0145L11.6413 42.0112L11.6415 42.0079L11.6417 42.0046L11.642 42.0014L11.6422 41.9981L11.6424 41.9948L11.6426 41.9915L11.6428 41.9882L11.643 41.9849L11.6432 41.9816L11.6435 41.9783L11.6437 41.975L11.6439 41.9717L11.6441 41.9684L11.6443 41.9651L11.6445 41.9618L11.6447 41.9585L11.645 41.9552L11.6452 41.9519L11.6454 41.9486L11.6456 41.9453L11.6458 41.942L11.646 41.9387L11.6462 41.9354L11.6465 41.9321L11.6467 41.9288L11.6469 41.9254L11.6471 41.9221L11.6473 41.9188L11.6475 41.9155L11.6478 41.9121L11.648 41.9088L11.6482 41.9055L11.6484 41.9021L11.6486 41.8988L11.6488 41.8955L11.6491 41.8921L11.6493 41.8888L11.6495 41.8854L11.6497 41.8821L11.6499 41.8787L11.6502 41.8754L11.6504 41.872L11.6506 41.8686L11.6508 41.8653L11.651 41.8619L11.6512 41.8585L11.6515 41.8552L11.6517 41.8518L11.6519 41.8484L11.6521 41.845L11.6523 41.8416L11.6526 41.8383L11.6528 41.8349L11.653 41.8315L11.6532 41.8281L11.6535 41.8247L11.6537 41.8212L11.6539 41.8178L11.6541 41.8144L11.6543 41.811L11.6546 41.8076L11.6548 41.8042L11.655 41.8007L11.6552 41.7973L11.6555 41.7939L11.6557 41.7904L11.6559 41.787L11.6561 41.7835L11.6564 41.7801L11.6566 41.7766L11.6568 41.7732L11.657 41.7697L11.6573 41.7662L11.6575 41.7627L11.6577 41.7593L11.6579 41.7558L11.6582 41.7523L11.6584 41.7488L11.6586 41.7453L11.6588 41.7418L11.6591 41.7383L11.6593 41.7348L11.6595 41.7313L11.6598 41.7278L11.66 41.7242L11.6602 41.7207L11.6604 41.7172L11.6607 41.7136L11.6609 41.7101L11.6611 41.7065L11.6614 41.703L11.6616 41.6994L11.6618 41.6958L11.6621 41.6923L11.6623 41.6887L11.6625 41.6851L11.6628 41.6815L11.663 41.6779L11.6632 41.6743L11.6635 41.6707L11.6637 41.6671L11.6639 41.6635L11.6642 41.6599L11.6644 41.6563L11.6646 41.6526L11.6649 41.649L11.6651 41.6453L11.6654 41.6417L11.6656 41.638L11.6658 41.6344L11.6661 41.6307L11.6663 41.627L11.6666 41.6234L11.6668 41.6197L11.667 41.616L11.6673 41.6123L11.6675 41.6086L11.6678 41.6049L11.668 41.6011L11.6682 41.5974L11.6685 41.5937L11.6687 41.5899L11.669 41.5862L11.6692 41.5824L11.6695 41.5787L11.6697 41.5749L11.67 41.5711L11.6702 41.5674L11.6704 41.5636L11.6707 41.5598L11.6709 41.556L11.6712 41.5522L11.6714 41.5484L11.6717 41.5445L11.6719 41.5407L11.6722 41.5369L11.6724 41.533L11.6727 41.5292L11.6729 41.5253L11.6732 41.5215L11.6734 41.5176L11.6737 41.5137L11.6739 41.5098L11.6742 41.5059L11.6744 41.502L11.6747 41.4981L11.675 41.4942L11.6752 41.4903L11.6755 41.4863L11.6757 41.4824L11.676 41.4784L11.6762 41.4745L11.6765 41.4705L11.6768 41.4665L11.677 41.4625L11.6773 41.4586L11.6775 41.4546L11.6778 41.4505L11.6781 41.4465L11.6783 41.4425L11.6786 41.4385L11.6788 41.4344L11.6791 41.4304L11.6794 41.4263L11.6796 41.4222L11.6799 41.4182L11.6802 41.4141L11.6804 41.41L11.6807 41.4059L11.681 41.4018L11.6812 41.3977L11.6815 41.3935L11.6818 41.3894L11.682 41.3852L11.6823 41.3811L11.6826 41.3769L11.6829 41.3727L11.6831 41.3686L11.6834 41.3644L11.6837 41.3602L11.684 41.3559L11.6842 41.3517L11.6845 41.3475L11.6848 41.3432L11.6851 41.339L11.6853 41.3347L11.6856 41.3305L11.6859 41.3262L11.6862 41.3219L11.6865 41.3176L11.6867 41.3133L11.687 41.309L11.6873 41.3046L11.6876 41.3003L11.6879 41.2959L11.6881 41.2916L11.6884 41.2872L11.6887 41.2828L11.689 41.2784L11.6893 41.274L11.6896 41.2696L11.6899 41.2652L11.6902 41.2608L11.6904 41.2563L11.6907 41.2519L11.691 41.2474L11.6913 41.2429L11.6916 41.2384L11.6919 41.2339L11.6922 41.2294L11.6925 41.2249L11.6928 41.2204L11.6931 41.2158L11.6934 41.2113L11.6937 41.2067L11.694 41.2022L11.6943 41.1976L11.6946 41.193L11.6949 41.1884L11.6952 41.1838L11.6955 41.1791L11.6958 41.1745L11.6961 41.1698L11.6964 41.1652L11.6967 41.1605L11.697 41.1558L11.6973 41.1511L11.6976 41.1464L11.6979 41.1417L11.6982 41.1369L11.6985 41.1322L11.6988 41.1274L11.6991 41.1227L11.6994 41.1179L11.6998 41.1131L11.7001 41.1083L11.7004 41.1035L11.7007 41.0986L11.701 41.0938L11.7013 41.089L11.7016 41.0841L11.702 41.0792L11.7023 41.0743L11.7026 41.0694L11.7029 41.0645L11.7032 41.0596L11.7036 41.0546L11.7039 41.0497L11.7042 41.0447L11.7045 41.0397L11.7049 41.0347L11.7052 41.0297L11.7055 41.0247L11.7058 41.0197L11.7062 41.0146L11.7065 41.0096L11.7068 41.0045L11.7072 40.9994L11.7075 40.9943L11.7078 40.9892L11.7082 40.9841L11.7085 40.979L11.7088 40.9738L11.7092 40.9687L11.7095 40.9635L11.7098 40.9583L11.7102 40.9531L11.7105 40.9479L11.7109 40.9427L11.7112 40.9374L11.7115 40.9322L11.7119 40.9269L11.7122 40.9216L11.7126 40.9163L11.7129 40.911L11.7133 40.9057L11.7136 40.9003L11.714 40.895L11.7143 40.8896L11.7147 40.8842L11.715 40.8788L11.7154 40.8734L11.7157 40.868L11.7161 40.8626L11.7164 40.8571L11.7168 40.8516L11.7171 40.8462L11.7175 40.8407L11.7179 40.8351L11.7182 40.8296L11.7186 40.8241L11.7189 40.8185L11.7193 40.8129L11.7197 40.8074L11.72 40.8018L11.7204 40.7962L11.7208 40.7905L11.7211 40.7849L11.7215 40.7792L11.7219 40.7735L11.7222 40.7679L11.7226 40.7621L11.723 40.7564L11.7233 40.7507L11.7237 40.7449L11.7241 40.7392L11.7245 40.7334L11.7248 40.7276L11.7252 40.7218L11.7256 40.716L11.726 40.7101L11.7264 40.7043L11.7268 40.6984L11.7271 40.6925L11.7275 40.6866L11.7279 40.6807L11.7283 40.6747L11.7287 40.6688L11.7291 40.6628L11.7295 40.6568L11.7298 40.6508L11.7302 40.6448L11.7306 40.6387L11.731 40.6327L11.7314 40.6266L11.7318 40.6206L11.7322 40.6144L11.7326 40.6083L11.733 40.6022L11.7334 40.5961L11.7338 40.5899L11.7342 40.5837L11.7346 40.5775L11.735 40.5713L11.7354 40.5651L11.7358 40.5588L11.7362 40.5525L11.7367 40.5463L11.7371 40.54L11.7375 40.5336L11.7379 40.5273L11.7383 40.521L11.7387 40.5146L11.7391 40.5082L11.7395 40.5018L11.74 40.4954L11.7404 40.4889L11.7408 40.4825L11.7412 40.476L11.7416 40.4695L11.7421 40.463L11.7425 40.4565L11.7429 40.4499L11.7433 40.4434L11.7438 40.4368L11.7442 40.4302L11.7446 40.4236L11.7451 40.417L11.7455 40.4103L11.7459 40.4037L11.7464 40.397L11.7468 40.3903L11.7472 40.3835L11.7477 40.3768L11.7481 40.3701L11.7486 40.3633L11.749 40.3565L11.7494 40.3497L11.7499 40.3428L11.7503 40.336L11.7508 40.3291L11.7512 40.3222L11.7517 40.3153L11.7521 40.3084L11.7526 40.3015L11.753 40.2945L11.7535 40.2875L11.7539 40.2805L11.7544 40.2735L11.7549 40.2665L11.7553 40.2594L11.7558 40.2523L11.7562 40.2453L11.7567 40.2381L11.7572 40.231L11.7576 40.2239L11.7581 40.2167L11.7586 40.2095L11.759 40.2023L11.7595 40.1951L11.76 40.1878L11.7605 40.1806L11.7609 40.1733L11.7614 40.166L11.7619 40.1586L11.7624 40.1513L11.7628 40.1439L11.7633 40.1366L11.7638 40.1292L11.7643 40.1217L11.7648 40.1143L11.7652 40.1068L11.7657 40.0993L11.7662 40.0918L11.7667 40.0843L11.7672 40.0768L11.7677 40.0692L11.7682 40.0616L11.7687 40.054L11.7692 40.0464L11.7697 40.0387L11.7702 40.0311L11.7707 40.0234L11.7712 40.0157L11.7717 40.008L11.7722 40.0002L11.7727 39.9924L11.7732 39.9847L11.7737 39.9769L11.7742 39.969L11.7747 39.9612L11.7752 39.9533L11.7758 39.9454L11.7763 39.9375L11.7768 39.9296L11.7773 39.9216L11.7778 39.9136L11.7783 39.9056L11.7789 39.8976L11.7794 39.8896L11.7799 39.8815L11.7804 39.8734L11.781 39.8653L11.7815 39.8572L11.782 39.849L11.7826 39.8409L11.7831 39.8327L11.7836 39.8245L11.7842 39.8162L11.7847 39.808L11.7852 39.7997L11.7858 39.7914L11.7863 39.7831L11.7869 39.7747L11.7874 39.7664L11.788 39.758L11.7885 39.7496L11.789 39.7411L11.7896 39.7327L11.7902 39.7242L11.7907 39.7157L11.7913 39.7072L11.7918 39.6986L11.7924 39.6901L11.7929 39.6815L11.7935 39.6729L11.7941 39.6643L11.7941 39.663C12.0135 37.3549 12.0138 37.3516 12.2429 34.896L12.243 34.8949L12.3828 33.3968L11.3742 34.5133C9.84851 36.2021 8.51273 37.5722 6.90992 38.981C6.13419 34.0192 5.28956 31.0771 3.64769 27.0424C8.55957 23.3984 13.0312 17.5618 16.7811 10.0205C18.3686 6.88998 19.4478 4.13463 20.02 1.64541L29.6919 5.33454C29.1448 6.46664 28.9282 6.9556 28.1815 8.78175C26.5243 12.7438 25.313 15.1891 22.701 19.7366L22.6432 19.8373L22.6356 19.9532L22.0957 28.2491L22.0173 29.4547L22.0278 29.4455L20.078 59.4054Z" fill="white" stroke="black"/>
</svg>
