<svg xmlns="http://www.w3.org/2000/svg" width="363" height="346" fill="none"><path fill="#000" d="M326.905 107.839c-5.637-6.219-11.586-12.155-17.872-17.735-1.888-1.69-9.596-7.765-10.959-8.895-.422.507-3.161 5.332-4.067 7.223a381.16 381.16 0 0 0-10.306 23.81 124.45 124.45 0 0 0-10.846-10.858c3.517-9.067 7.347-18.261 12.319-26.436 3.161-5.192 8.515-9.308 14.936-8.097 5.707 1.076 10.394 5.991 14.639 9.64 8.217 7.054 15.966 14.673 23.228 22.703-3.743 2.831-7.408 5.738-11.072 8.645Z"/><rect width="267" height="257" x="78.552" y="75.5" fill="#000" stroke="#000" rx="128.5"/><rect width="270" height="268" x="86.552" y="76.5" fill="#F2CF4B" stroke="#fff" stroke-width="3" rx="134"/><path fill="#fff" stroke="#000" stroke-width=".5" d="M172.052 118.25c5.083 0 9.651-3.147 12.938-8.168 3.287-5.022 5.312-11.947 5.312-19.582 0-7.635-2.025-14.56-5.312-19.582-3.287-5.02-7.855-8.168-12.938-8.168-5.082 0-9.65 3.147-12.937 8.168-3.287 5.022-5.313 11.947-5.313 19.582 0 7.635 2.026 14.56 5.313 19.582 3.287 5.021 7.855 8.168 12.937 8.168ZM226.552 109.25c4.946 0 9.389-3.092 12.585-8.022 3.196-4.932 5.165-11.731 5.165-19.228 0-7.497-1.969-14.296-5.165-19.228-3.196-4.93-7.639-8.022-12.585-8.022-4.945 0-9.388 3.092-12.584 8.022-3.196 4.932-5.166 11.731-5.166 19.228 0 7.497 1.97 14.296 5.166 19.228 3.196 4.93 7.639 8.022 12.584 8.022Z"/><path fill="#000" d="M190.052 91.5c0 12.979-6.268 23.5-14 23.5-7.731 0-14-10.521-14-23.5s6.269-23.5 14-23.5c6.288 0 11.608 6.958 13.376 16.537-13.017 6.093.624 6.963.624 6.963ZM244.052 82.5c0 12.979-6.268 23.5-14 23.5-7.731 0-14-10.521-14-23.5s6.269-23.5 14-23.5c6.288 0 11.608 6.958 13.376 16.537-13.017 6.093.624 6.963.624 6.963Z"/><path fill="#fff" d="M195.052 125.547c.065-2.103 1.401-6.083 6.23-5.17 1.935.365 3.015.562 3.966.42.998-.149 1.854-.672 3.41-1.766.28-.197.552-.366.814-.51 4.56-2.494 6.331 2.818 6.406 3.228.42 2.306.125 6.198-4.015 8.509-1.15.643-2.598 1.164-4.41 1.494-8.33 1.519-12.401-2.205-12.401-6.205Z"/><path stroke="#000" d="M207.453 131.752c-8.33 1.519-12.401-2.205-12.401-6.205.065-2.103 1.401-6.083 6.23-5.17 3.966.749 4.338.791 7.376-1.346.28-.197.552-.366.814-.51m-2.019 13.231-2.205-10.955m2.205 10.955c1.812-.33 3.26-.851 4.41-1.494m-13.23-9.531 3.528 11.025m7.311-13.231c4.56-2.494 6.331 2.818 6.406 3.228.42 2.306.125 6.198-4.015 8.509m-2.391-11.737 2.391 11.737"/><path fill="#FB6900" stroke="#000" stroke-width=".5" d="M209.4 112.347c.128 1.234-.435 2.443-1.491 3.401-1.057.958-2.594 1.65-4.364 1.835-1.769.184-3.416-.176-4.647-.896-1.232-.72-2.032-1.787-2.16-3.021-.129-1.235.434-2.444 1.491-3.402 1.056-.958 2.594-1.65 4.363-1.834 1.77-.184 3.417.176 4.648.896 1.231.719 2.031 1.787 2.16 3.021Z"/><path fill="#fff" d="M330.896 128.594c2.485-.661 4.142-3.296 4.672-6.792 2.739 2.551 6.013 3.817 9.043 2.518 2.676-1.162 3.992-3.055 4.457-5.307 2.059 1.272 4.164 1.672 5.948.877 3.866-1.705 4.67-8.314 1.783-14.749-2.886-6.434-8.355-10.26-12.221-8.555-1.25.547-2.175 1.618-2.766 3.025-1.677-.343-10.127-1.65-11.996 5.719-1.538-.926-3.384-1.183-5.612-.643-4.116 1.011-5.726 6.694-3.937 13.494 1.768 6.849 6.539 11.495 10.629 10.413Z"/><path fill="#000" d="M357.163 104.979c-2.955-6.61-8.704-10.53-12.74-8.739-1.215.533-2.178 1.558-2.835 2.95-2.225-.394-9.927-1.24-12.009 5.582-1.592-.804-3.415-.948-5.477-.451-1.48.372-2.716 1.319-3.574 2.77-1.591 2.65-1.828 6.743-.663 11.206 1.173 4.48 3.619 8.161 6.562 9.881 1.549.901 3.115 1.166 4.57.783 2.373-.638 4.151-3.015 4.842-6.411 2.883 2.454 6.022 3.266 8.722 2.216l.229-.089c2.401-1.035 3.937-2.728 4.554-5.06 2.095 1.156 4.156 1.391 5.851.63 1.367-.612 2.43-1.797 3.061-3.464 1.206-3.17.792-7.58-1.093-11.804Zm-26.376 23.231c-1.255.325-2.627.087-3.973-.711-2.709-1.587-5.086-5.193-6.198-9.413-1.114-4.279-.908-8.137.565-10.619.765-1.273 1.81-2.085 3.107-2.406 1.967-.48 3.635-.316 5.101.475a20.728 20.728 0 0 0 1.025 8.702 21.128 21.128 0 0 0 4.741 7.704c-.56 3.366-2.197 5.688-4.368 6.268Zm13.662-4.254c-3.569 1.53-6.942-.876-8.625-2.436l-.509-.473a19.963 19.963 0 0 1-4.192-7.024 20.054 20.054 0 0 1-.979-8.374l.044-.2c1.685-6.586 8.925-5.886 11.161-5.516-.502 2.369-.931 6.7 1.08 11.403a18.815 18.815 0 0 0 6.209 7.824c-.528 2.195-1.929 3.817-4.189 4.796Zm13.068-7.455c-.57 1.461-1.483 2.506-2.656 3.043-1.568.671-3.499.405-5.463-.781-1.962-1.391-4.593-3.821-6.27-7.719-2.025-4.739-1.476-9.075-.966-11.264.569-1.359 1.451-2.331 2.56-2.823 3.679-1.613 8.927 2.116 11.72 8.363 1.8 3.952 2.208 8.242 1.075 11.181ZM102.048 127.554l-2.47 22.39c-25.31-31.733-44.58-68.047-56.46-106.943-2.919-9.59 11.858-14.508 14.8-4.918 9.77 32.024 24.704 62.32 44.13 89.471Z"/><path fill="#fff" d="M63.712 44.618v-.023c9.455-6.333 7.3-29.374.36-33.888-9.455-5.278-11.745 12.598-11.745 12.598s-6.558-9.993-18.775-18.931C19.516-5.867 21.582 6.91 21.582 6.91S15.339.533 10.24 4.463c-4.11 3.167.404 8.826.404 8.826-2.897-1.212-8.983-3.121-10.061 1.168-1.01 4.043 2.92 7.523 5.21 9.859 3.19 3.256 6.558 6.31 10.016 9.298.988.853 3.01 2.088 3.436 3.436C25.4 56.767 40.47 55.712 40.47 55.712c-3.908 2.246-4.604 10.038 2.448 11.341 4.693.853 32.092-9.365 31.912-17.72-.18-8.196-11.116-4.715-11.116-4.715Z"/><path fill="#000" d="M71.28 55.712c2.673-2.268 4.02-4.424 3.976-6.378-.045-2.089-.764-3.66-2.156-4.649-2.246-1.594-5.66-1.28-7.726-.876 3.28-3.166 5.166-8.938 5.12-15.877-.044-7.995-2.582-15.227-6.198-17.585-2.133-1.19-4.11-1.347-5.861-.471-4.2 2.11-5.862 9.567-6.333 12.351-1.887-2.627-8.197-10.824-18.28-18.168C28.812.4 25.196-.79 23.063.511c-1.886 1.145-2.044 3.863-1.976 5.39C19.156 4.284 14.193.893 9.97 4.149c-1.078.83-1.684 1.886-1.841 3.144-.247 1.931.696 3.93 1.437 5.12-2.246-.808-5.39-1.572-7.456-.539-1.01.494-1.64 1.325-1.931 2.493a5.891 5.891 0 0 0-.135 2.156c.36 2.987 2.897 5.525 4.828 7.479l.607.628c2.762 2.83 5.861 5.705 10.038 9.32.247.202.54.427.854.674.965.741 2.156 1.662 2.448 2.56 5.142 16.484 16.596 18.663 20.413 18.932-1.572 1.482-2.402 3.885-1.998 6.176.471 2.717 2.515 4.604 5.614 5.188 1.864.337 6.985-.921 12.734-3.167 6.557-2.56 12.262-5.682 15.698-8.601ZM8.96 7.382c.135-1.032.63-1.886 1.528-2.582 4.738-3.66 10.735 2.336 10.802 2.403l.92.921-.022-.112L37.55 21.89l-9.342 6.58L10.959 13.02c-.202-.27-2.313-3.077-1.998-5.637ZM43.007 66.65c-3.75-.697-4.693-3.122-4.94-4.514-.405-2.38.718-4.986 2.605-6.064l.292-.157 4.357-2.178c.202-.113.291-.36.18-.562-.113-.202-.36-.292-.562-.18l-4.627 2.314c-.65.022-4.02.022-7.972-1.91-4.065-1.976-9.567-6.422-12.711-16.483-.36-1.146-1.662-2.156-2.717-2.965a9.213 9.213 0 0 1-.809-.65c-4.177-3.594-7.254-6.446-9.994-9.276l-.628-.629c-2.246-2.268-5.345-5.39-4.47-8.848.203-.898.697-1.527 1.46-1.909 2.269-1.123 6.266.314 7.973 1.01L27.51 28.943l-3.526 2.493a.397.397 0 0 0-.18.382c0 .067.023.135.067.18.135.18.405.224.584.09l15.698-11.05a.426.426 0 0 0 .09-.584.426.426 0 0 0-.584-.09l-1.437 1.011L21.986 6.709c-.09-.718-.427-4.312 1.505-5.48 1.257-.763 3.975-.763 9.836 3.504 11.498 8.4 18.034 17.876 18.618 18.752l.449 2.628c-1.617 0-6.558.247-9.522 3.413-1.864 1.976-2.583 4.694-2.179 8.085.023.225.247.382.472.36.224-.023.382-.225.36-.472-.383-3.144.269-5.637 1.953-7.411 3.256-3.459 9.342-3.145 9.387-3.145l.517.023-.629-3.66c.112-.81 1.55-10.421 6.041-12.69 1.482-.74 3.19-.605 5.053.428 3.324 2.155 5.75 9.252 5.794 16.865.045 7.613-2.268 13.722-6.176 16.327l-.157.112-.067.854.584-.18c.067-.023 5.794-1.797 8.78.337 1.168.83 1.775 2.156 1.82 3.997.045 1.707-1.19 3.638-3.683 5.727-7.703 6.535-24.277 12.195-27.736 11.566Z"/></svg>