<svg xmlns="http://www.w3.org/2000/svg" width="425" height="432" fill="none"><mask id="a" width="38.918" height="37.929" x="23.907" y="122.826" fill="#000" maskUnits="userSpaceOnUse"><path fill="#fff" d="M23.907 122.826h38.918v37.929H23.907z"/><path d="m33.593 140.39 10.792-1.758c1.637-.272 2.821-.4 4.42-.514a53.182 53.182 0 0 1-4.387-1.792l-6.638-3.03c-1.921-.876-3.112-1.35-4.531-1.786l2.83-6.201c1.23.773 2.426 1.389 4.319 2.253l15.458 7.055c1.776.81 3.154 1.334 4.444 1.747l-2.91 6.375c-1.346.019-2.728.197-4.694.496l-10.58 1.679c-1.523.254-2.622.35-4.537.461 1.376.453 3.004 1.125 4.43 1.776l6.521 2.976c2.009.917 3.316 1.444 4.648 1.84l-2.83 6.201c-1.056-.693-2.31-1.336-4.464-2.319L30.57 148.86c-1.688-.77-3.025-1.31-4.444-1.747l2.884-6.317c.918.068 2.375-.041 4.582-.406Z"/></mask><path fill="#000" d="m33.593 140.39 10.792-1.758c1.637-.272 2.821-.4 4.42-.514a53.182 53.182 0 0 1-4.387-1.792l-6.638-3.03c-1.921-.876-3.112-1.35-4.531-1.786l2.83-6.201c1.23.773 2.426 1.389 4.319 2.253l15.458 7.055c1.776.81 3.154 1.334 4.444 1.747l-2.91 6.375c-1.346.019-2.728.197-4.694.496l-10.58 1.679c-1.523.254-2.622.35-4.537.461 1.376.453 3.004 1.125 4.43 1.776l6.521 2.976c2.009.917 3.316 1.444 4.648 1.84l-2.83 6.201c-1.056-.693-2.31-1.336-4.464-2.319L30.57 148.86c-1.688-.77-3.025-1.31-4.444-1.747l2.884-6.317c.918.068 2.375-.041 4.582-.406Z"/><path fill="#fff" d="m33.593 140.39-.16-.987-.003.001.163.986Zm10.792-1.758.16.987h.004l-.164-.987Zm4.42-.514.072.997.264-1.94-.335.943ZM33.25 131.51l-.91-.415-.473 1.036 1.089.335.294-.956Zm2.83-6.201.532-.847-.967-.607-.475 1.039.91.415Zm24.22 11.055.91.415.468-1.025-1.073-.343-.304.953Zm-2.91 6.375.015 1 .633-.009.263-.576-.91-.415Zm-4.693.496-.15-.989-.007.001.157.988Zm-10.58 1.679-.157-.988-.008.001.165.987Zm-4.537.461-.058-.998-.254 1.948.312-.95Zm15.599 6.592.91.415.477-1.045-1.101-.328-.286.958Zm-2.83 6.201-.549.836.975.64.484-1.061-.91-.415Zm-24.22-11.055-.91-.415-.473 1.036 1.088.335.294-.956Zm2.883-6.317.073-.997-.694-.051-.29.633.91.415Zm4.743.581 10.792-1.758-.322-1.974-10.792 1.758.322 1.974Zm10.795-1.758a41.978 41.978 0 0 1 4.328-.504l-.142-1.995a44.046 44.046 0 0 0-4.515.526l.33 1.973Zm4.592-2.444a52.106 52.106 0 0 1-4.308-1.759l-.83 1.82a54.214 54.214 0 0 0 4.468 1.824l.67-1.885Zm-4.308-1.759-6.638-3.029-.83 1.819 6.637 3.03.83-1.82Zm-6.638-3.029c-1.943-.887-3.177-1.379-4.652-1.833l-.588 1.912c1.363.419 2.51.873 4.41 1.74l.83-1.819Zm-4.036-.462 2.83-6.201-1.82-.83-2.83 6.201 1.82.83Zm1.388-5.769c1.283.805 2.523 1.442 4.435 2.315l.83-1.819c-1.871-.855-3.023-1.45-4.201-2.19l-1.064 1.694Zm4.435 2.315 15.459 7.055.83-1.819-15.458-7.055-.83 1.819Zm15.459 7.055c1.808.826 3.223 1.364 4.554 1.79l.61-1.905c-1.248-.399-2.59-.908-4.334-1.704l-.83 1.819Zm3.949.422-2.91 6.376 1.82.83 2.91-6.375-1.82-.831Zm-2.014 5.791c-1.421.02-2.864.208-4.83.507l.3 1.978c1.965-.299 3.288-.467 4.558-.485l-.028-2Zm-4.837.508-10.58 1.679.314 1.975 10.58-1.678-.314-1.976Zm-10.588 1.68c-1.472.246-2.532.34-4.43.45l.116 1.997c1.93-.112 3.07-.211 4.644-.474l-.33-1.973Zm-4.684 2.398c1.328.437 2.92 1.093 4.327 1.736l.83-1.82c-1.444-.659-3.109-1.348-4.533-1.816l-.624 1.9Zm4.327 1.736 6.521 2.976.83-1.819-6.52-2.977-.83 1.82Zm6.521 2.976c2.024.924 3.38 1.472 4.777 1.889l.572-1.917c-1.266-.377-2.525-.882-4.518-1.791l-.83 1.819Zm4.153.515-2.83 6.201 1.82.83 2.83-6.201-1.82-.83Zm-1.371 5.78c-1.123-.737-2.435-1.406-4.598-2.393l-.83 1.82c2.145.979 3.342 1.596 4.33 2.245l1.098-1.672Zm-4.598-2.393-15.313-6.988-.83 1.819 15.313 6.989.83-1.82Zm-15.313-6.988c-1.71-.781-3.09-1.339-4.565-1.793l-.588 1.911c1.363.419 2.656.94 4.323 1.701l.83-1.819Zm-3.949-.422 2.883-6.317-1.82-.831-2.882 6.317 1.82.831Zm1.9-5.735c1.043.076 2.596-.05 4.819-.417l-.326-1.973c-2.19.362-3.55.454-4.346.395l-.147 1.995Z" mask="url(#a)"/><mask id="b" width="43.38" height="43.708" x="43.987" y="82.752" fill="#000" maskUnits="userSpaceOnUse"><path fill="#fff" d="M43.987 82.752h43.38v43.708h-43.38z"/><path d="m84.489 102.021-4.645 5.873c-1.363-.752-2.135-1.117-3.187-1.541l-2.67-1.009-5.656 7.154 1.597 2.364a18.417 18.417 0 0 0 2.215 2.772l-4.644 5.873c-.456-.972-.88-1.674-2.11-3.626l-10.823-17.37c-.873-1.425-1.448-2.246-2.076-2.947l5.18-6.551c.867.4 1.658.74 3.386 1.29l19.418 6.501c1.707.575 3.054.987 4.015 1.217Zm-15.691 1.218-9.416-3.57 5.685 8.289 3.731-4.719Z"/></mask><path fill="#000" d="m84.489 102.021-4.645 5.873c-1.363-.752-2.135-1.117-3.187-1.541l-2.67-1.009-5.656 7.154 1.597 2.364a18.417 18.417 0 0 0 2.215 2.772l-4.644 5.873c-.456-.972-.88-1.674-2.11-3.626l-10.823-17.37c-.873-1.425-1.448-2.246-2.076-2.947l5.18-6.551c.867.4 1.658.74 3.386 1.29l19.418 6.501c1.707.575 3.054.987 4.015 1.217Zm-15.691 1.218-9.416-3.57 5.685 8.289 3.731-4.719Z"/><path fill="#fff" d="m84.489 102.021.784.62.972-1.229-1.524-.364-.232.973Zm-4.645 5.873-.483.876.742.409.526-.664-.785-.621Zm-3.187-1.541.374-.927-.01-.004-.01-.004-.354.935Zm-2.67-1.009.354-.936-.684-.258-.454.574.784.62Zm-5.656 7.154-.785-.621-.453.574.41.606.828-.559Zm1.597 2.364.833-.554-.004-.005-.829.559Zm2.215 2.772.785.62.542-.686-.607-.629-.72.695Zm-4.644 5.873-.906.424.687 1.466 1.003-1.27-.784-.62Zm-2.11-3.626-.849.529.003.004.846-.533Zm-10.823-17.37-.853.522.004.006.849-.528Zm-2.076-2.947-.785-.62-.522.66.562.627.745-.667Zm5.18-6.551.419-.909-.715-.33-.488.618.784.62Zm3.386 1.29.317-.949-.007-.002-.007-.002-.303.953Zm19.418 6.501.319-.948h-.002l-.317.948Zm-11.676 2.435.784.621.847-1.072-1.276-.484-.355.935Zm-9.416-3.57.355-.934-2.985-1.132 1.805 2.632.825-.565Zm5.685 8.289-.825.566.767 1.119.842-1.064-.784-.621Zm18.637-6.558-4.644 5.874 1.569 1.241 4.644-5.874-1.569-1.241Zm-3.377 5.619c-1.392-.768-2.2-1.152-3.296-1.593l-.748 1.855c1.008.406 1.743.753 3.078 1.489l.966-1.751Zm-3.316-1.601-2.67-1.01-.707 1.871 2.67 1.01.707-1.871Zm-3.808-.694-5.657 7.153 1.57 1.241 5.656-7.154-1.569-1.24Zm-5.7 8.333 1.597 2.365 1.657-1.119-1.598-2.365-1.657 1.119Zm1.593 2.36a19.434 19.434 0 0 0 2.328 2.911l1.439-1.389a17.429 17.429 0 0 1-2.102-2.631l-1.665 1.109Zm2.263 1.596-4.645 5.874 1.57 1.24 4.644-5.873-1.57-1.241Zm-2.955 6.07c-.485-1.037-.942-1.789-2.169-3.735l-1.692 1.066c1.234 1.958 1.625 2.61 2.05 3.517l1.811-.848Zm-2.166-3.731-10.824-17.37-1.697 1.057L64.54 120.41l1.698-1.058Zm-10.82-17.364c-.882-1.44-1.494-2.323-2.184-3.092l-1.489 1.335c.568.633 1.105 1.393 1.968 2.802l1.705-1.045Zm-2.144-1.804 5.18-6.551-1.568-1.24-5.18 6.55 1.568 1.241Zm3.977-6.263c.902.416 1.732.771 3.501 1.334l.607-1.905c-1.685-.537-2.438-.862-3.27-1.246l-.838 1.817Zm3.487 1.33 19.418 6.501.635-1.896-19.418-6.502-.635 1.897Zm19.416 6.501c1.714.577 3.096 1.001 4.102 1.241l.465-1.945c-.915-.218-2.227-.619-3.928-1.192l-.639 1.896Zm-11.001.552-9.416-3.57-.71 1.871 9.416 3.569.71-1.87Zm-10.596-2.069 5.685 8.289 1.65-1.131-5.685-8.289-1.65 1.131Zm7.294 8.344 3.731-4.719-1.569-1.241-3.73 4.719 1.568 1.241Z" mask="url(#b)"/><mask id="c" width="43.677" height="43.325" x="74.377" y="52.156" fill="#000" maskUnits="userSpaceOnUse"><path fill="#fff" d="M74.377 52.156h43.677v43.325H74.377z"/><path d="m106.46 82.513-4.396 3.417c-.813-.786-1.818-1.504-3.993-2.894l-7.549-4.913c-.123-.107-2.708-1.867-2.94-2.01-.985-.693-.985-.693-1.387-.949 1.39 1.474 3.1 3.467 4.142 4.806l4.262 5.482c1.355 1.743 2.27 2.815 3.247 3.758l-4.977 3.87c-.733-1.255-1.507-2.355-2.843-4.073L79.793 75.845c-1.178-1.516-2.295-2.796-3.266-3.784l6.67-5.185c1.021.949 1.852 1.6 3.729 2.815l12.255 7.943-4.701-13.815c-.735-2.145-1.162-3.11-1.835-4.29l6.695-5.204c.791 1.33 1.546 2.405 2.862 4.098l10.233 13.162c1.492 1.92 2.309 2.866 3.246 3.759l-4.977 3.87c-.752-1.28-1.447-2.28-2.842-4.074l-4.282-5.507c-.471-.606-1.868-2.56-2.427-3.383-.965-1.397-.965-1.397-1.234-1.796.976 2.403 1.43 3.509 1.809 4.673l2.931 8.828c.763 2.284 1.299 3.651 1.801 4.558Z"/></mask><path fill="#000" d="m106.46 82.513-4.396 3.417c-.813-.786-1.818-1.504-3.993-2.894l-7.549-4.913c-.123-.107-2.708-1.867-2.94-2.01-.985-.693-.985-.693-1.387-.949 1.39 1.474 3.1 3.467 4.142 4.806l4.262 5.482c1.355 1.743 2.27 2.815 3.247 3.758l-4.977 3.87c-.733-1.255-1.507-2.355-2.843-4.073L79.793 75.845c-1.178-1.516-2.295-2.796-3.266-3.784l6.67-5.185c1.021.949 1.852 1.6 3.729 2.815l12.255 7.943-4.701-13.815c-.735-2.145-1.162-3.11-1.835-4.29l6.695-5.204c.791 1.33 1.546 2.405 2.862 4.098l10.233 13.162c1.492 1.92 2.309 2.866 3.246 3.759l-4.977 3.87c-.752-1.28-1.447-2.28-2.842-4.074l-4.282-5.507c-.471-.606-1.868-2.56-2.427-3.383-.965-1.397-.965-1.397-1.234-1.796.976 2.403 1.43 3.509 1.809 4.673l2.931 8.828c.763 2.284 1.299 3.651 1.801 4.558Z"/><path fill="#fff" d="m106.46 82.513.614.79.676-.526-.415-.749-.875.485Zm-4.396 3.417-.694.72.624.602.684-.532-.614-.79Zm-3.993-2.894-.545.838.007.005.538-.843Zm-7.549-4.913-.653.757.051.044.057.037.545-.838Zm-2.94-2.01-.576.818.025.018.027.016.523-.852Zm-1.387-.949.537-.843-1.264 1.529.727-.686Zm11.65 14.046.614.79.91-.708-.829-.8-.694.718Zm-4.976 3.87-.864.504.576.986.901-.7-.613-.79ZM76.527 72.06l-.614-.79-.886.69.787.8.713-.7Zm6.67-5.185.68-.733-.623-.579-.671.522.614.79Zm3.729 2.815.544-.839-.544.84Zm12.255 7.943-.544.839 2.419 1.568-.928-2.73-.947.323ZM94.48 63.819l.946-.323v-.002l-.946.325Zm-1.835-4.29-.614-.789-.685.533.43.753.869-.496Zm6.695-5.204.859-.511-.579-.974-.894.695.614.79Zm16.341 21.019.614.79.917-.713-.841-.801-.69.724Zm-4.977 3.87-.862.506.577.982.899-.7-.614-.789Zm-9.551-12.964.828-.561-.005-.007-.823.568Zm-1.234-1.796.828-.56-1.755.936.927-.376Zm1.809 4.673-.951.31.002.005.949-.315Zm2.931 8.828-.949.315.001.001.948-.316Zm1.187 3.768-4.395 3.418 1.227 1.579 4.396-3.418-1.228-1.579Zm-3.087 3.488c-.894-.863-1.976-1.63-4.15-3.018l-1.076 1.686c2.177 1.39 3.103 2.062 3.837 2.77l1.389-1.438Zm-4.142-3.013-7.55-4.913-1.09 1.676 7.549 4.913 1.09-1.676Zm-7.44-4.832c-.063-.053-.17-.129-.23-.17a187.984 187.984 0 0 0-2.842-1.934l-1.047 1.703.012.007.034.023.112.074.347.233a220.21 220.21 0 0 1 2.23 1.527c.106.075.107.078.076.05l1.307-1.513Zm-3.02-2.07c-.984-.694-1.001-.706-1.425-.975l-1.074 1.687c.38.241.362.229 1.348.923l1.151-1.636Zm-2.69.554c1.37 1.453 3.06 3.422 4.08 4.734l1.58-1.228c-1.063-1.366-2.796-3.383-4.204-4.878l-1.456 1.372Zm4.08 4.734 4.263 5.482 1.578-1.228-4.262-5.482-1.579 1.228Zm4.263 5.482c1.364 1.755 2.313 2.871 3.34 3.864l1.39-1.439c-.925-.894-1.806-1.922-3.152-3.653l-1.578 1.228Zm3.422 2.355-4.977 3.87 1.228 1.578L98.459 90l-1.227-1.579Zm-3.5 4.155c-.763-1.309-1.568-2.448-2.916-4.183l-1.579 1.228c1.323 1.701 2.067 2.762 2.768 3.963l1.727-1.008Zm-2.916-4.183L80.583 75.231l-1.58 1.228L89.238 89.62l1.579-1.228ZM80.583 75.231c-1.198-1.54-2.34-2.85-3.343-3.87l-1.426 1.4c.939.957 2.03 2.207 3.19 3.698l1.579-1.228Zm-3.442-2.38 6.67-5.186-1.228-1.579-6.67 5.186 1.228 1.578Zm5.375-5.243c1.075.998 1.954 1.685 3.866 2.923l1.087-1.679c-1.842-1.193-2.623-1.81-3.592-2.709l-1.361 1.465Zm3.866 2.923 12.255 7.942 1.088-1.679-12.255-7.942-1.088 1.679Zm13.746 6.78-4.702-13.815-1.893.645 4.701 13.815 1.894-.645Zm-4.702-13.817c-.747-2.178-1.197-3.207-1.913-4.46l-1.736.992c.63 1.105 1.034 2.007 1.757 4.117l1.892-.648Zm-2.167-3.175 6.694-5.205-1.227-1.578-6.695 5.204 1.228 1.58Zm5.221-5.483c.82 1.378 1.601 2.489 2.932 4.2l1.579-1.227c-1.301-1.673-2.029-2.712-2.792-3.995l-1.719 1.022Zm2.932 4.2L111.645 72.2l1.579-1.228-10.233-13.162-1.579 1.228ZM111.645 72.2c1.502 1.931 2.355 2.924 3.347 3.869l1.379-1.448c-.883-.84-1.663-1.74-3.147-3.649l-1.579 1.228Zm3.422 2.355-4.976 3.87 1.227 1.578 4.977-3.869-1.228-1.579Zm-3.5 4.153c-.782-1.331-1.506-2.368-2.915-4.18l-1.579 1.227c1.379 1.775 2.047 2.736 2.769 3.966l1.725-1.013Zm-2.915-4.18-4.282-5.508-1.579 1.228 4.282 5.507 1.579-1.228Zm-4.282-5.508c-.453-.583-1.837-2.517-2.389-3.33l-1.655 1.123c.565.832 1.975 2.805 2.465 3.435l1.579-1.228Zm-2.394-3.337c-.966-1.399-.963-1.394-1.229-1.788l-1.657 1.12c.273.404.276.408 1.24 1.805l1.646-1.137Zm-2.984-.852c.983 2.419 1.42 3.484 1.785 4.606l1.902-.618c-.392-1.207-.864-2.354-1.834-4.74l-1.853.752Zm1.787 4.612 2.931 8.828 1.898-.63-2.931-8.828-1.898.63Zm2.932 8.83c.762 2.283 1.323 3.73 1.874 4.725l1.75-.969c-.453-.817-.964-2.105-1.727-4.39l-1.897.633Z" mask="url(#c)"/><mask id="d" width="33.233" height="36.771" x="117.056" y="32.616" fill="#000" maskUnits="userSpaceOnUse"><path fill="#fff" d="M117.056 32.616h33.233v36.771h-33.233z"/><path d="m145.726 53.715 2.44 5.464c-1.321.415-2.399.826-4.912 1.948l-9.204 4.11c-2.221.992-3.026 1.386-4.256 2.006-.347-1.247-.771-2.355-1.671-4.37l-7.124-15.954c-.809-1.812-1.324-2.809-2.139-4.162 1.224-.477 2.055-.813 4.334-1.83l9.321-4.163c1.987-.887 2.955-1.389 4.263-2.148l2.439 5.464c-1.409.454-2.487.865-4.445 1.74l-7.597 3.392 1.918 4.295 6.312-2.818c1.928-.861 2.616-1.204 4.291-2.162l2.414 5.406c-1.438.467-2.458.852-4.474 1.752l-6.311 2.818 2.191 4.91 7.539-3.367c2.221-.992 3.48-1.624 4.671-2.331Z"/></mask><path fill="#000" d="m145.726 53.715 2.44 5.464c-1.321.415-2.399.826-4.912 1.948l-9.204 4.11c-2.221.992-3.026 1.386-4.256 2.006-.347-1.247-.771-2.355-1.671-4.37l-7.124-15.954c-.809-1.812-1.324-2.809-2.139-4.162 1.224-.477 2.055-.813 4.334-1.83l9.321-4.163c1.987-.887 2.955-1.389 4.263-2.148l2.439 5.464c-1.409.454-2.487.865-4.445 1.74l-7.597 3.392 1.918 4.295 6.312-2.818c1.928-.861 2.616-1.204 4.291-2.162l2.414 5.406c-1.438.467-2.458.852-4.474 1.752l-6.311 2.818 2.191 4.91 7.539-3.367c2.221-.992 3.48-1.624 4.671-2.331Z"/><path fill="#fff" d="m145.726 53.715.914-.408-.458-1.025-.966.573.51.86Zm2.44 5.464.3.954 1.071-.337-.458-1.025-.913.408Zm-18.372 8.064-.964.267.326 1.173 1.087-.547-.449-.893ZM118.86 42.757l-.363-.932-1.106.43.612 1.018.857-.516Zm17.918-8.141.913-.408-.454-1.015-.961.558.502.865Zm2.439 5.464.307.952 1.061-.342-.454-1.018-.914.408Zm-12.042 5.132-.407-.913-.913.407.407.913.913-.407Zm1.918 4.295-.913.408.408.913.913-.408-.408-.913Zm10.603-4.98.913-.408-.45-1.009-.959.549.496.868Zm2.414 5.406.309.95 1.058-.343-.454-1.015-.913.408Zm-10.785 4.57-.408-.913-.913.408.407.913.914-.408Zm2.191 4.91-.913.407.408.913.913-.408-.408-.913Zm11.297-5.29 2.44 5.464 1.826-.816-2.439-5.464-1.827.816Zm3.054 4.102c-1.374.43-2.491.86-5.021 1.989l.816 1.826c2.495-1.114 3.534-1.508 4.804-1.907l-.599-1.908Zm-5.021 1.989-9.204 4.11.815 1.826 9.205-4.11-.816-1.826Zm-9.204 4.11c-2.234.998-3.053 1.399-4.298 2.026l.899 1.786c1.216-.612 2.008-1 4.214-1.986l-.815-1.826Zm-2.885 2.65c-.366-1.316-.813-2.475-1.721-4.51l-1.827.816c.893 1.998 1.294 3.053 1.621 4.23l1.927-.535Zm-1.721-4.51-7.124-15.953-1.827.815 7.124 15.954 1.827-.816Zm-7.124-15.953c-.823-1.842-1.356-2.875-2.195-4.27l-1.714 1.032c.79 1.312 1.287 2.271 2.082 4.053l1.827-.815Zm-2.689-2.822c1.241-.483 2.087-.826 4.379-1.85l-.815-1.825c-2.267 1.011-3.083 1.341-4.29 1.811l.726 1.864Zm4.379-1.85 9.321-4.161-.816-1.827-9.32 4.163.815 1.826Zm9.321-4.161c2.014-.9 3.014-1.418 4.357-2.197l-1.004-1.73c-1.274.74-2.209 1.225-4.169 2.1l.816 1.827Zm2.941-2.654 2.44 5.464 1.827-.816-2.44-5.464-1.827.816Zm3.047 4.104c-1.451.467-2.563.892-4.546 1.778l.815 1.827c1.932-.863 2.976-1.26 4.344-1.701l-.613-1.904Zm-4.546 1.778-7.597 3.393.815 1.826 7.597-3.392-.815-1.827Zm-8.103 4.713 1.918 4.296 1.827-.816-1.918-4.295-1.827.815Zm3.239 4.801 6.311-2.818-.815-1.826-6.311 2.818.815 1.826Zm6.311-2.818c1.954-.873 2.673-1.23 4.381-2.207l-.993-1.736c-1.642.94-2.3 1.267-4.203 2.117l.815 1.826Zm2.971-2.667 2.414 5.405 1.826-.815-2.414-5.406-1.826.816Zm3.018 4.046c-1.477.48-2.53.879-4.573 1.791l.816 1.826c1.989-.888 2.975-1.26 4.375-1.714l-.618-1.903Zm-4.573 1.791-6.311 2.818.815 1.826 6.312-2.818-.816-1.826Zm-6.817 4.14 2.192 4.908 1.827-.816-2.192-4.908-1.827.815Zm3.513 5.413 7.539-3.366-.816-1.826-7.538 3.366.815 1.826Zm7.539-3.366c2.236-.998 3.535-1.649 4.774-2.384l-1.021-1.72c-1.143.679-2.363 1.293-4.569 2.278l.816 1.826Z" mask="url(#d)"/><mask id="e" width="33.074" height="35.492" x="157.918" y="19.834" fill="#000" maskUnits="userSpaceOnUse"><path fill="#fff" d="M157.918 19.834h33.074v35.492h-33.074z"/><path d="m185.623 30.473-6.258 2.434c-1.111-2.726-3.037-3.84-5.745-3.35-3.841.695-5.53 4.122-4.589 9.318.929 5.133 3.823 7.828 7.728 7.121 1.732-.313 3.08-1.305 3.766-2.73.398-.853.499-1.554.454-2.88l6.726-.209c-.113 2.785-.527 4.453-1.57 6.236-1.548 2.589-4.385 4.338-8.195 5.028-3.842.695-7.302.086-9.948-1.777-2.758-1.94-4.747-5.384-5.511-9.604-.775-4.282-.108-8.142 1.935-11.049 1.791-2.503 4.76-4.244 8.444-4.91 4.062-.736 7.493.074 10.036 2.443 1.241 1.108 1.987 2.177 2.727 3.929Z"/></mask><path fill="#000" d="m185.623 30.473-6.258 2.434c-1.111-2.726-3.037-3.84-5.745-3.35-3.841.695-5.53 4.122-4.589 9.318.929 5.133 3.823 7.828 7.728 7.121 1.732-.313 3.08-1.305 3.766-2.73.398-.853.499-1.554.454-2.88l6.726-.209c-.113 2.785-.527 4.453-1.57 6.236-1.548 2.589-4.385 4.338-8.195 5.028-3.842.695-7.302.086-9.948-1.777-2.758-1.94-4.747-5.384-5.511-9.604-.775-4.282-.108-8.142 1.935-11.049 1.791-2.503 4.76-4.244 8.444-4.91 4.062-.736 7.493.074 10.036 2.443 1.241 1.108 1.987 2.177 2.727 3.929Z"/><path fill="#fff" d="m185.623 30.473.363.932.959-.373-.4-.948-.922.389Zm-6.258 2.434-.926.377.371.911.917-.356-.362-.932Zm1.16 10.359.901.433.005-.01-.906-.423Zm.454-2.88-.031-.999-1.002.031.034 1.002.999-.033Zm6.726-.209 1 .041.043-1.074-1.074.034.031 1Zm-1.57 6.236.858.513.005-.008-.863-.505Zm-18.143 3.252.576-.818h-.001l-.575.817Zm-3.576-20.654-.813-.582-.005.007.818.575Zm18.48-2.467-.682.732.008.007.008.007.666-.746Zm2.365 2.997-6.259 2.434.725 1.864 6.259-2.434-.725-1.864Zm-4.97 2.988c-.612-1.502-1.494-2.667-2.697-3.368-1.21-.704-2.622-.866-4.152-.589l.356 1.968c1.179-.213 2.083-.062 2.79.35.715.416 1.352 1.17 1.851 2.394l1.852-.755Zm-6.849-3.957c-2.211.4-3.873 1.617-4.807 3.514-.912 1.853-1.081 4.247-.588 6.967l1.968-.356c-.448-2.475-.243-4.393.414-5.727.635-1.29 1.739-2.134 3.369-2.43l-.356-1.968Zm-5.395 10.481c.488 2.7 1.515 4.885 3.053 6.307 1.57 1.45 3.592 2.027 5.837 1.62l-.356-1.968c-1.66.3-3.038-.118-4.123-1.121-1.118-1.032-2.003-2.761-2.443-5.194l-1.968.356Zm8.89 7.927c2.015-.364 3.651-1.539 4.489-3.28l-1.803-.868c-.532 1.108-1.593 1.918-3.042 2.18l.356 1.968Zm4.494-3.29c.49-1.05.595-1.926.548-3.337l-1.999.067c.042 1.24-.055 1.766-.361 2.422l1.812.847Zm-.421-2.304 6.726-.21-.062-1.998-6.726.21.062 1.998Zm5.696-1.25c-.109 2.68-.499 4.173-1.434 5.772l1.726 1.01c1.151-1.967 1.588-3.81 1.707-6.7l-1.999-.082Zm-1.429 5.764c-1.361 2.276-3.906 3.904-7.516 4.557l.357 1.968c4.01-.726 7.141-2.598 8.875-5.5l-1.716-1.025Zm-7.516 4.557c-3.639.659-6.812.066-9.193-1.61l-1.152 1.635c2.911 2.05 6.658 2.675 10.702 1.943l-.357-1.968Zm-9.194-1.61c-2.49-1.752-4.372-4.934-5.102-8.965l-1.968.357c.798 4.408 2.895 8.116 5.92 10.243l1.15-1.635Zm-5.102-8.965c-.739-4.085-.086-7.657 1.769-10.296l-1.636-1.15c-2.232 3.175-2.912 7.323-2.101 11.803l1.968-.357Zm1.764-10.289c1.61-2.25 4.327-3.878 7.809-4.509l-.356-1.968c-3.886.704-7.108 2.558-9.079 5.313l1.626 1.164Zm7.809-4.509c3.826-.692 6.915.085 9.176 2.192l1.364-1.464c-2.824-2.63-6.598-3.474-10.896-2.696l.356 1.968Zm9.192 2.206c1.118.998 1.783 1.939 2.472 3.572l1.843-.778c-.791-1.872-1.618-3.067-2.983-4.286l-1.332 1.492Z" mask="url(#e)"/><mask id="f" width="33.792" height="31.919" x="200.915" y="19.217" fill="#000" maskUnits="userSpaceOnUse"><path fill="#fff" d="M200.915 19.217h33.792v31.919h-33.792z"/><path d="m230.669 49.15-7.474-.463c-.161-1.549-.301-2.391-.553-3.497l-.694-2.768-9.103-.563-1.03 2.661a18.398 18.398 0 0 0-1.012 3.4l-7.474-.462c.538-.929.873-1.677 1.774-3.802l8.089-18.8c.672-1.53 1.018-2.47 1.235-3.386l8.336.515c.167.94.339 1.785.873 3.517l5.741 19.656c.502 1.73.932 3.072 1.292 3.992Zm-9.954-12.19-2.442-9.77-3.563 9.398 6.005.372Z"/></mask><path fill="#000" d="m230.669 49.15-7.474-.463c-.161-1.549-.301-2.391-.553-3.497l-.694-2.768-9.103-.563-1.03 2.661a18.398 18.398 0 0 0-1.012 3.4l-7.474-.462c.538-.929.873-1.677 1.774-3.802l8.089-18.8c.672-1.53 1.018-2.47 1.235-3.386l8.336.515c.167.94.339 1.785.873 3.517l5.741 19.656c.502 1.73.932 3.072 1.292 3.992Zm-9.954-12.19-2.442-9.77-3.563 9.398 6.005.372Z"/><path fill="#fff" d="m230.669 49.15-.062.998 1.564.096-.571-1.459-.931.365Zm-7.474-.463-.995.103.088.843.845.052.062-.998Zm-.553-3.497.975-.222-.003-.01-.002-.011-.97.243Zm-.694-2.768.969-.243-.177-.71-.731-.045-.061.998Zm-9.103-.563.062-.998-.73-.045-.265.682.933.36Zm-1.03 2.661.93.368.002-.007-.932-.36Zm-1.012 3.4-.062.998.872.054.171-.857-.981-.195Zm-7.474-.462-.865-.502-.812 1.4 1.615.1.062-.998Zm1.774-3.802-.918-.395-.002.005.92.39Zm8.089-18.8-.916-.402-.003.007.919.395Zm1.235-3.386.062-.998-.841-.052-.194.82.973.23Zm8.336.515.985-.174-.137-.775-.786-.049-.062.998Zm.873 3.517.96-.28-.002-.007-.003-.008-.955.295Zm5.741 19.656.96-.278v-.002l-.96.28Zm-8.662-8.198-.062.998 1.363.084-.331-1.325-.97.243Zm-2.442-9.77.97-.242-.773-3.097-1.132 2.985.935.354Zm-3.563 9.398-.935-.355-.481 1.27 1.354.083.062-.998Zm16.02 11.564-7.473-.463-.124 1.996 7.474.463.123-1.996Zm-6.54.432c-.164-1.582-.31-2.464-.573-3.616l-1.95.445c.242 1.06.376 1.861.533 3.377l1.99-.206Zm-.578-3.637-.695-2.768-1.939.486.694 2.769 1.94-.487Zm-1.603-3.523-9.102-.563-.124 1.996 9.103.563.123-1.996Zm-10.097.074-1.03 2.661 1.865.722 1.031-2.661-1.866-.722Zm-1.028 2.655a19.456 19.456 0 0 0-1.062 3.572l1.962.39c.22-1.11.488-2.029.961-3.227l-1.861-.735Zm-.02 2.77-7.473-.463-.124 1.996 7.474.462.123-1.996Zm-6.67 1.036c.574-.99.932-1.794 1.83-3.912l-1.841-.781c-.904 2.13-1.217 2.824-1.719 3.69l1.73 1.003Zm1.828-3.908 8.088-18.8-1.837-.79-8.088 18.8 1.837.79Zm8.085-18.793c.679-1.546 1.055-2.552 1.293-3.558l-1.946-.46c-.196.826-.513 1.701-1.178 3.214l1.831.804Zm.258-2.79 8.337.516.123-1.997-8.336-.515-.124 1.996Zm7.414-.308c.173.978.354 1.863.901 3.637l1.911-.59c-.521-1.69-.683-2.494-.843-3.396l-1.969.349Zm.897 3.622 5.741 19.657 1.92-.561-5.741-19.656-1.92.56Zm5.74 19.655c.504 1.736.944 3.113 1.321 4.077l1.863-.729c-.343-.876-.763-2.181-1.263-3.905l-1.921.557Zm-6.731-8.72-2.442-9.77-1.94.486 2.441 9.769 1.941-.485Zm-4.347-9.881-3.563 9.398 1.87.709 3.563-9.398-1.87-.71Zm-2.69 10.75 6.005.372.123-1.996-6.004-.372-.124 1.996Z" mask="url(#f)"/><mask id="g" width="34.715" height="36.684" x="244.594" y="24.792" fill="#000" maskUnits="userSpaceOnUse"><path fill="#fff" d="M244.594 24.792h34.715v36.684h-34.715z"/><path d="m269.001 59.114-7.148-2.232c.122-1.035.147-2.401-.008-5.232-.148-2.963-.295-3.78-.849-4.69-.46-.781-1.147-1.264-2.125-1.57l-3.115-.972-1.565 5.01c-.648 2.076-.94 3.226-1.196 4.688l-6.567-2.05c.622-1.349.969-2.246 1.675-4.506l5.132-16.434c.591-1.893.883-3.043 1.158-4.566 1.325.48 2.445.864 4.522 1.513l7.942 2.48c4.949 1.545 7.019 5.007 5.645 9.406-.677 2.169-1.822 3.688-3.367 4.447-.983.464-1.729.6-3.378.62 1.405.976 1.888 1.898 2.188 4.372.153 1.12.256 2.292.601 6.02.069.96.197 1.839.455 3.696Zm-11.614-19.92 4.765 1.489c1.802.563 3.245-.194 3.789-1.935.534-1.71-.167-2.901-2.061-3.493l-4.795-1.497-1.698 5.437Z"/></mask><path fill="#000" d="m269.001 59.114-7.148-2.232c.122-1.035.147-2.401-.008-5.232-.148-2.963-.295-3.78-.849-4.69-.46-.781-1.147-1.264-2.125-1.57l-3.115-.972-1.565 5.01c-.648 2.076-.94 3.226-1.196 4.688l-6.567-2.05c.622-1.349.969-2.246 1.675-4.506l5.132-16.434c.591-1.893.883-3.043 1.158-4.566 1.325.48 2.445.864 4.522 1.513l7.942 2.48c4.949 1.545 7.019 5.007 5.645 9.406-.677 2.169-1.822 3.688-3.367 4.447-.983.464-1.729.6-3.378.62 1.405.976 1.888 1.898 2.188 4.372.153 1.12.256 2.292.601 6.02.069.96.197 1.839.455 3.696Zm-11.614-19.92 4.765 1.489c1.802.563 3.245-.194 3.789-1.935.534-1.71-.167-2.901-2.061-3.493l-4.795-1.497-1.698 5.437Z"/><path fill="#fff" d="m269.001 59.114-.298.955 1.505.47-.217-1.562-.99.137Zm-7.148-2.232-.993-.117-.097.824.792.248.298-.955Zm-.008-5.232-.999.05v.004l.999-.054Zm-.849-4.69-.861.507.007.012.854-.52Zm-5.24-2.542.298-.955-.955-.298-.298.955.955.298Zm-2.761 9.698-.298.955 1.087.339.196-1.122-.985-.172Zm-6.567-2.05-.908-.42-.477 1.034 1.087.34.298-.955Zm7.965-25.506.341-.94-1.115-.405-.21 1.167.984.178Zm14.742 17.846.427.904.007-.003.007-.004-.441-.897Zm-3.378.62-.013-1-3.124.041 2.567 1.781.57-.821Zm2.188 4.372-.993.12.001.008.001.007.991-.135Zm.601 6.02.997-.071v-.01l-.001-.01-.996.092Zm-11.159-16.223-.955-.298-.298.954.955.298.298-.954Zm1.698-5.437.298-.955-.955-.298-.298.954.955.299Zm10.214 24.402-7.148-2.232-.596 1.909 7.148 2.232.596-1.91ZM262.846 57c.133-1.124.153-2.562-.003-5.405l-1.997.11c.155 2.818.126 4.114.014 5.06l1.986.234Zm-.003-5.4c-.145-2.927-.287-4-.993-5.16l-1.708 1.04c.402.66.554 1.221.704 4.22l1.997-.1Zm-.985-5.148c-.614-1.041-1.532-1.655-2.689-2.016l-.596 1.91c.798.249 1.255.601 1.562 1.121l1.723-1.015Zm-2.689-2.016-3.115-.973-.597 1.91 3.116.972.596-1.909Zm-4.368-.316-1.564 5.01 1.909.595 1.564-5.009-1.909-.596Zm-1.564 5.01c-.657 2.101-.962 3.295-1.227 4.814l1.97.344c.246-1.406.525-2.51 1.166-4.563l-1.909-.596Zm.056 4.031-6.567-2.05-.596 1.909 6.567 2.05.596-1.909Zm-5.957-.677c.645-1.398 1.007-2.337 1.722-4.626l-1.909-.596c-.697 2.231-1.03 3.086-1.629 4.384l1.816.838Zm1.722-4.626 5.131-16.434-1.909-.596-5.131 16.433 1.909.597Zm5.131-16.434c.601-1.922.904-3.113 1.188-4.687l-1.968-.355c-.266 1.473-.546 2.581-1.129 4.446l1.909.596Zm-.137-3.924c1.34.486 2.475.875 4.565 1.527l.597-1.909a92.705 92.705 0 0 1-4.48-1.498l-.682 1.88Zm4.565 1.527 7.942 2.48.596-1.909-7.941-2.48-.597 1.91Zm7.942 2.48c2.319.724 3.832 1.856 4.634 3.193.79 1.319.973 2.979.354 4.961l1.909.596c.755-2.416.59-4.686-.548-6.585-1.127-1.88-3.123-3.252-5.753-4.074l-.596 1.91Zm4.988 8.154c-.623 1.997-1.628 3.246-2.852 3.847l.881 1.795c1.864-.915 3.15-2.706 3.88-5.046l-1.909-.596Zm-2.838 3.84c-.804.38-1.391.506-2.965.526l.026 2c1.724-.023 2.629-.168 3.792-.717l-.853-1.809Zm-3.522 2.347c.615.428.95.786 1.186 1.253.253.502.433 1.21.579 2.417l1.986-.24c-.154-1.267-.365-2.257-.78-3.078-.432-.857-1.042-1.447-1.831-1.995l-1.14 1.643Zm1.767 3.685c.15 1.093.25 2.234.596 5.978l1.992-.184c-.343-3.713-.449-4.916-.606-6.064l-1.982.27Zm.594 5.957c.072 1.002.207 1.921.462 3.762l1.981-.275c-.26-1.874-.382-2.711-.448-3.63l-1.995.143Zm-10.459-15.34 4.765 1.487.596-1.909-4.765-1.488-.596 1.91Zm4.765 1.487c1.096.343 2.187.312 3.121-.168.937-.482 1.585-1.348 1.92-2.423l-1.909-.596c-.208.666-.554 1.049-.925 1.24-.374.192-.905.259-1.611.038l-.596 1.91Zm5.041-2.59c.324-1.038.317-2.075-.213-2.973-.517-.877-1.425-1.436-2.504-1.773l-.596 1.909c.815.254 1.204.586 1.377.88.161.272.237.687.027 1.36l1.909.596Zm-2.717-4.746-4.795-1.498-.597 1.91 4.796 1.497.596-1.91Zm-6.048-.842-1.698 5.438 1.909.596 1.698-5.437-1.909-.596Z" mask="url(#g)"/><mask id="h" width="38.624" height="39.64" x="281.32" y="40.608" fill="#000" maskUnits="userSpaceOnUse"><path fill="#fff" d="M281.32 40.608h38.624v39.64H281.32z"/><path d="m286.402 61.85 9.02-14.927c1.125-1.862 1.617-2.799 2.186-4.175 1.063.717 1.731 1.158 4.004 2.532l5.724 3.459c3.369 2.036 5.517 4.605 6.277 7.494.807 3.18.083 6.669-2.118 10.311-2.268 3.752-5.184 6.103-8.523 6.926-2.927.7-6.092.058-9.351-1.911l-5.779-3.492c-2.109-1.275-2.892-1.71-4.076-2.351.893-1.106 1.494-1.977 2.636-3.866Zm5.952 2.4 3.67 2.218c1.78 1.076 3.322 1.371 4.903.981 1.818-.472 3.53-1.942 4.903-4.216 1.407-2.328 1.913-4.34 1.49-6.054-.379-1.538-1.429-2.77-3.401-3.962l-3.587-2.168-7.978 13.201Z"/></mask><path fill="#000" d="m286.402 61.85 9.02-14.927c1.125-1.862 1.617-2.799 2.186-4.175 1.063.717 1.731 1.158 4.004 2.532l5.724 3.459c3.369 2.036 5.517 4.605 6.277 7.494.807 3.18.083 6.669-2.118 10.311-2.268 3.752-5.184 6.103-8.523 6.926-2.927.7-6.092.058-9.351-1.911l-5.779-3.492c-2.109-1.275-2.892-1.71-4.076-2.351.893-1.106 1.494-1.977 2.636-3.866Zm5.952 2.4 3.67 2.218c1.78 1.076 3.322 1.371 4.903.981 1.818-.472 3.53-1.942 4.903-4.216 1.407-2.328 1.913-4.34 1.49-6.054-.379-1.538-1.429-2.77-3.401-3.962l-3.587-2.168-7.978 13.201Z"/><path fill="#fff" d="m297.608 42.748.56-.829-1.015-.684-.469 1.13.924.383Zm16.005 13.485.969-.246-.002-.008-.967.254ZM302.972 73.47l.232.973.007-.002-.239-.97Zm-19.206-7.754-.778-.628-.755.935 1.058.572.475-.88Zm8.588-1.466-.856-.517-.517.856.856.517.517-.856Zm8.573 3.2.24.97.012-.003-.252-.968Zm-.595-16.4.517-.857-.856-.517-.517.856.856.517Zm-13.074 11.317 9.02-14.927-1.712-1.034-9.02 14.926 1.712 1.035Zm9.02-14.927c1.14-1.887 1.659-2.87 2.254-4.31l-1.848-.764c-.543 1.313-1.008 2.203-2.118 4.04l1.712 1.034Zm.771-3.863c1.078.728 1.761 1.178 4.046 2.559l1.034-1.712c-2.261-1.366-2.915-1.799-3.961-2.505l-1.119 1.658Zm4.046 2.559 5.724 3.459 1.034-1.712-5.724-3.459-1.034 1.712Zm5.724 3.459c3.218 1.945 5.152 4.326 5.826 6.892l1.935-.508c-.844-3.212-3.208-5.97-6.727-8.096l-1.034 1.712Zm5.824 6.885c.724 2.847.103 6.06-2.004 9.547l1.711 1.034c2.296-3.798 3.124-7.562 2.232-11.074l-1.939.492Zm-2.004 9.547c-2.167 3.586-4.887 5.728-7.907 6.472l.479 1.942c3.659-.902 6.772-3.462 9.139-7.38l-1.711-1.034Zm-7.899 6.47c-2.611.624-5.507.076-8.602-1.794l-1.034 1.712c3.423 2.068 6.856 2.802 10.1 2.028l-.464-1.945Zm-8.602-1.794-5.779-3.492-1.034 1.711 5.779 3.493 1.034-1.712Zm-5.779-3.492c-2.121-1.282-2.918-1.726-4.117-2.375l-.951 1.76c1.168.631 1.938 1.06 4.034 2.326l1.034-1.711Zm-3.814-.867c.93-1.152 1.556-2.064 2.713-3.977l-1.712-1.035c-1.128 1.866-1.703 2.696-2.558 3.756l1.557 1.256Zm7.292-1.238 3.67 2.218 1.034-1.712-3.67-2.218-1.034 1.712Zm3.67 2.218c1.949 1.177 3.761 1.564 5.66 1.096l-.479-1.942c-1.265.312-2.535.108-4.147-.866l-1.034 1.712Zm5.672 1.093c2.159-.56 4.055-2.263 5.507-4.666l-1.711-1.035c-1.295 2.143-2.822 3.382-4.299 3.765l.503 1.936Zm5.507-4.666c1.468-2.43 2.12-4.726 1.605-6.811l-1.942.479c.331 1.342-.029 3.07-1.374 5.297l1.711 1.035Zm1.605-6.811c-.466-1.89-1.755-3.31-3.854-4.579l-1.035 1.712c1.844 1.115 2.655 2.16 2.947 3.346l1.942-.48Zm-3.854-4.579-3.588-2.168-1.035 1.712 3.588 2.168 1.035-1.712Zm-4.961-1.829-7.978 13.2 1.712 1.035 7.977-13.2-1.711-1.035Z" mask="url(#h)"/><mask id="i" width="41.011" height="41.014" x="314.066" y="66.108" fill="#000" maskUnits="userSpaceOnUse"><path fill="#fff" d="M314.066 66.108h41.011v41.014h-41.011z"/><path d="m339.292 77.944-2.117 10.727a43.012 43.012 0 0 1-1.059 4.323 52.982 52.982 0 0 1 3.21-3.488l5.154-5.163c1.492-1.495 2.351-2.446 3.255-3.624l4.824 4.815c-1.153.884-2.148 1.79-3.617 3.262l-12.004 12.026c-1.379 1.382-2.351 2.492-3.187 3.556l-4.96-4.95c.451-1.268.767-2.626 1.172-4.573l2.117-10.5c.293-1.517.586-2.58 1.15-4.414-.904 1.132-2.102 2.423-3.21 3.533l-5.063 5.073c-1.56 1.563-2.51 2.605-3.346 3.714l-4.824-4.815c1.018-.748 2.058-1.7 3.73-3.375l11.891-11.913c1.311-1.314 2.283-2.378 3.187-3.556l4.915 4.906c-.384.837-.79 2.24-1.218 4.436Z"/></mask><path fill="#000" d="m339.292 77.944-2.117 10.727a43.012 43.012 0 0 1-1.059 4.323 52.982 52.982 0 0 1 3.21-3.488l5.154-5.163c1.492-1.495 2.351-2.446 3.255-3.624l4.824 4.815c-1.153.884-2.148 1.79-3.617 3.262l-12.004 12.026c-1.379 1.382-2.351 2.492-3.187 3.556l-4.96-4.95c.451-1.268.767-2.626 1.172-4.573l2.117-10.5c.293-1.517.586-2.58 1.15-4.414-.904 1.132-2.102 2.423-3.21 3.533l-5.063 5.073c-1.56 1.563-2.51 2.605-3.346 3.714l-4.824-4.815c1.018-.748 2.058-1.7 3.73-3.375l11.891-11.913c1.311-1.314 2.283-2.378 3.187-3.556l4.915 4.906c-.384.837-.79 2.24-1.218 4.436Z"/><path fill="#fff" d="m339.292 77.944.981.193.001-.002-.982-.191Zm-2.117 10.727-.981-.193v.003l.981.19Zm-1.059 4.323-.96-.281 1.726.924-.766-.643Zm11.619-12.275.706-.708-.806-.804-.693.903.793.61Zm4.824 4.815.608.794.907-.695-.808-.807-.707.708Zm-18.808 18.844-.707.708.797.795.696-.885-.786-.618Zm-4.96-4.95-.942-.336-.213.596.448.447.707-.708Zm1.172-4.573.979.204.001-.006-.98-.198Zm2.117-10.5.981.197.001-.008-.982-.19Zm1.15-4.414.956.294-1.737-.918.781.624Zm-11.619 12.32-.706.708.813.812.692-.918-.799-.602Zm-4.824-4.815-.592-.806-.939.69.825.824.706-.708Zm18.808-18.844.707-.708-.806-.804-.694.903.793.61Zm4.915 4.906.909.416.29-.632-.492-.492-.707.708Zm-2.199 4.242-2.117 10.728 1.963.387 2.116-10.728-1.962-.387Zm-2.117 10.731a42.202 42.202 0 0 1-1.038 4.232l1.92.562a44.093 44.093 0 0 0 1.081-4.414l-1.963-.38Zm.688 5.156a52.006 52.006 0 0 1 3.152-3.424l-1.416-1.413a53.932 53.932 0 0 0-3.268 3.552l1.532 1.284Zm3.152-3.424 5.154-5.164-1.416-1.413-5.154 5.164 1.416 1.413Zm5.154-5.164c1.509-1.512 2.401-2.497 3.34-3.721l-1.586-1.218c-.868 1.131-1.695 2.049-3.17 3.526l1.416 1.413Zm1.841-3.622 4.824 4.815 1.413-1.416-4.825-4.815-1.412 1.416Zm4.922 3.313c-1.202.922-2.232 1.862-3.717 3.35l1.416 1.412c1.453-1.456 2.413-2.328 3.517-3.174l-1.216-1.588Zm-3.717 3.35-12.004 12.026 1.416 1.413 12.004-12.027-1.416-1.412Zm-12.004 12.026c-1.404 1.407-2.402 2.546-3.265 3.644l1.572 1.236c.81-1.031 1.755-2.111 3.109-3.467l-1.416-1.413Zm-1.773 3.554-4.96-4.95-1.413 1.415 4.96 4.951 1.413-1.416Zm-4.724-3.907c.477-1.339.804-2.757 1.209-4.704l-1.958-.408c-.405 1.946-.709 3.244-1.135 4.44l1.884.672Zm1.21-4.71 2.118-10.501-1.961-.395-2.117 10.5 1.96.396Zm2.119-10.51c.283-1.465.565-2.49 1.124-4.308l-1.912-.588c-.568 1.849-.873 2.951-1.176 4.518l1.964.379Zm-.613-5.226c-.873 1.093-2.043 2.355-3.136 3.45l1.415 1.413c1.122-1.124 2.348-2.444 3.284-3.615l-1.563-1.248Zm-3.136 3.45-5.064 5.074 1.415 1.412 5.064-5.073-1.415-1.413Zm-5.064 5.074c-1.572 1.574-2.559 2.654-3.436 3.818l1.597 1.204c.795-1.055 1.706-2.059 3.254-3.61l-1.415-1.412Zm-1.931 3.712-4.825-4.815-1.412 1.416 4.824 4.815 1.413-1.416Zm-4.939-3.301c1.082-.795 2.167-1.792 3.846-3.475l-1.415-1.412c-1.667 1.669-2.662 2.575-3.615 3.275l1.184 1.612Zm3.846-3.475 11.891-11.913-1.416-1.413-11.89 11.914 1.415 1.412Zm11.891-11.913c1.328-1.33 2.332-2.428 3.273-3.653l-1.587-1.218c-.868 1.13-1.807 2.161-3.102 3.458l1.416 1.413Zm1.773-3.554 4.915 4.906 1.413-1.416-4.915-4.906-1.413 1.416Zm4.712 3.781c-.435.95-.859 2.45-1.29 4.662l1.963.382c.425-2.179.813-3.486 1.145-4.21l-1.818-.834Z" mask="url(#i)"/><mask id="j" width="42.248" height="42.921" x="340.514" y="99.034" fill="#000" maskUnits="userSpaceOnUse"><path fill="#fff" d="M340.514 99.034h42.248v42.921h-42.248z"/><path d="m357.5 139.026-3.885-6.401c1.18-1.016 1.792-1.611 2.556-2.45l1.877-2.149-4.731-7.797-2.774.673a18.36 18.36 0 0 0-3.369 1.109l-3.885-6.402c1.07-.087 1.876-.24 4.134-.712l20.055-4.085c1.639-.321 2.609-.573 3.486-.918l4.333 7.14c-.677.673-1.272 1.296-2.39 2.723l-12.866 15.931c-1.135 1.4-1.991 2.518-2.541 3.338Zm4.331-15.13 6.63-7.579-9.751 2.436 3.121 5.143Z"/></mask><path fill="#000" d="m357.5 139.026-3.885-6.401c1.18-1.016 1.792-1.611 2.556-2.45l1.877-2.149-4.731-7.797-2.774.673a18.36 18.36 0 0 0-3.369 1.109l-3.885-6.402c1.07-.087 1.876-.24 4.134-.712l20.055-4.085c1.639-.321 2.609-.573 3.486-.918l4.333 7.14c-.677.673-1.272 1.296-2.39 2.723l-12.866 15.931c-1.135 1.4-1.991 2.518-2.541 3.338Zm4.331-15.13 6.63-7.579-9.751 2.436 3.121 5.143Z"/><path fill="#fff" d="m357.5 139.026-.855.519.813 1.34.873-1.302-.831-.557Zm-3.885-6.401-.652-.758-.642.553.439.724.855-.519Zm2.556-2.45.739.674.007-.008.008-.008-.754-.658Zm1.877-2.149.754.657.481-.551-.38-.625-.855.519Zm-4.731-7.797.855-.519-.38-.625-.711.172.236.972Zm-2.774.673.229.973.007-.002-.236-.971Zm-3.369 1.109-.855.519.453.747.801-.35-.399-.916Zm-3.885-6.402-.082-.996-1.612.132.839 1.383.855-.519Zm4.134-.712-.199-.98-.005.001.204.979Zm20.055-4.085-.192-.982-.008.002.2.98Zm3.486-.918.855-.519-.437-.72-.784.309.366.93Zm4.333 7.14.705.709.558-.555-.408-.673-.855.519Zm-2.39 2.723.778.629.004-.006.005-.006-.787-.617Zm-12.866 15.931.776.63.002-.002-.778-.628Zm1.79-11.792-.855.519.708 1.167.899-1.027-.752-.659Zm6.63-7.579.752.658 2.101-2.402-3.096.774.243.97Zm-9.751 2.436-.243-.97-1.316.329.704 1.16.855-.519Zm-.355 19.755-3.885-6.402-1.71 1.038 3.885 6.401 1.71-1.037Zm-4.088-5.125c1.206-1.037 1.847-1.661 2.643-2.534l-1.478-1.347c-.732.803-1.314 1.371-2.469 2.365l1.304 1.516Zm2.658-2.55 1.877-2.15-1.507-1.315-1.877 2.15 1.507 1.315Zm1.978-3.326-4.731-7.797-1.71 1.038 4.731 7.797 1.71-1.038Zm-5.822-8.25-2.773.673.471 1.943 2.773-.672-.471-1.944Zm-2.767.671a19.516 19.516 0 0 0-3.54 1.166l.799 1.833a17.47 17.47 0 0 1 3.199-1.052l-.458-1.947Zm-2.285 1.564-3.885-6.402-1.71 1.038 3.885 6.402 1.71-1.038Zm-4.658-4.886c1.14-.094 2.005-.259 4.257-.73l-.409-1.958c-2.266.474-3.013.613-4.012.695l.164 1.993Zm4.252-.729 20.054-4.085-.399-1.96-20.054 4.085.399 1.96Zm20.047-4.084c1.657-.325 2.698-.59 3.66-.968l-.732-1.861c-.791.311-1.691.549-3.312.866l.384 1.963Zm2.439-1.38 4.333 7.14 1.71-1.038-4.333-7.14-1.71 1.038Zm4.483 5.912c-.705.7-1.328 1.354-2.473 2.816l1.575 1.233c1.091-1.393 1.658-1.985 2.308-2.631l-1.41-1.418Zm-2.463 2.804-12.866 15.931 1.556 1.256 12.866-15.93-1.556-1.257Zm-12.865 15.929c-1.139 1.405-2.018 2.552-2.595 3.412l1.662 1.113c.523-.781 1.356-1.871 2.486-3.265l-1.553-1.26Zm3.319-10.503 6.63-7.58-1.505-1.317-6.63 7.58 1.505 1.317Zm5.635-9.208-9.751 2.436.485 1.94 9.751-2.436-.485-1.94Zm-10.363 3.925 3.121 5.143 1.71-1.038-3.122-5.143-1.709 1.038Z" mask="url(#j)"/><mask id="k" width="38.215" height="39.524" x="360.733" y="140.091" fill="#000" maskUnits="userSpaceOnUse"><path fill="#fff" d="M360.733 140.091h38.215v39.524h-38.215z"/><path d="m368.119 166.423-1.67-5.312c1.021-.489 2.045-1.179 4.106-2.733l7.237-5.361c.143-.079 2.694-1.887 2.91-2.055.993-.681.993-.681 1.372-.968-1.865.787-4.33 1.696-5.948 2.205l-6.624 2.082c-2.107.662-3.431 1.146-4.655 1.732l-1.891-6.014c1.432-.249 2.733-.591 4.809-1.243l15.904-5c1.832-.576 3.421-1.176 4.686-1.741l2.533 8.059c-1.245.626-2.145 1.178-3.939 2.513l-11.718 8.715 14.587.413c2.266.059 3.32-.004 4.659-.224l2.543 8.09c-1.523.278-2.793.61-4.839 1.253l-15.904 4.999c-2.321.73-3.492 1.165-4.655 1.732l-1.891-6.014c1.462-.258 2.641-.562 4.809-1.243l6.655-2.092c.732-.23 3.051-.858 4.016-1.095 1.647-.417 1.647-.417 2.114-.53-2.592.077-3.787.117-5.011.065l-9.295-.331c-2.407-.082-3.875-.057-4.9.098Z"/></mask><path fill="#000" d="m368.119 166.423-1.67-5.312c1.021-.489 2.045-1.179 4.106-2.733l7.237-5.361c.143-.079 2.694-1.887 2.91-2.055.993-.681.993-.681 1.372-.968-1.865.787-4.33 1.696-5.948 2.205l-6.624 2.082c-2.107.662-3.431 1.146-4.655 1.732l-1.891-6.014c1.432-.249 2.733-.591 4.809-1.243l15.904-5c1.832-.576 3.421-1.176 4.686-1.741l2.533 8.059c-1.245.626-2.145 1.178-3.939 2.513l-11.718 8.715 14.587.413c2.266.059 3.32-.004 4.659-.224l2.543 8.09c-1.523.278-2.793.61-4.839 1.253l-15.904 4.999c-2.321.73-3.492 1.165-4.655 1.732l-1.891-6.014c1.462-.258 2.641-.562 4.809-1.243l6.655-2.092c.732-.23 3.051-.858 4.016-1.095 1.647-.417 1.647-.417 2.114-.53-2.592.077-3.787.117-5.011.065l-9.295-.331c-2.407-.082-3.875-.057-4.9.098Z"/><path fill="#fff" d="m368.119 166.423-.954.3.257.816.846-.128-.149-.988Zm-1.67-5.312-.432-.902-.782.374.26.828.954-.3Zm4.106-2.733-.596-.804-.006.005.602.799Zm7.237-5.361-.481-.877-.06.033-.054.04.595.804Zm2.91-2.055-.566-.825-.026.018-.024.019.616.788Zm1.372-.968.604.797-.993-1.719.389.922Zm-17.227 6.019-.954.3.345 1.1 1.04-.498-.431-.902Zm-1.891-6.014-.171-.985-1.125.195.342 1.09.954-.3Zm25.399-7.984.954-.3-.337-1.071-1.025.458.408.913Zm2.533 8.059.45.894.759-.382-.255-.812-.954.3Zm-3.939 2.513.596.803.001-.001-.597-.802Zm-11.718 8.715-.597-.802-2.313 1.72 2.882.082.028-1Zm14.587.413-.028 1h.002l.026-1Zm4.659-.224.954-.3-.26-.827-.856.141.162.986Zm2.543 8.09.179.984 1.115-.203-.34-1.081-.954.3Zm-25.398 7.984-.954.3.348 1.108 1.044-.509-.438-.899Zm-1.891-6.014-.174-.985-1.121.199.341 1.086.954-.3Zm15.48-4.43.238.972.008-.002-.246-.97Zm2.114-.53.236.972-.265-1.972.029 1Zm-5.011.065.042-.999h-.006l-.036.999Zm-9.295-.331.036-1h-.002l-.034 1Zm-3.946-.202-1.67-5.312-1.908.6 1.67 5.312 1.908-.6Zm-2.192-4.11c1.121-.537 2.216-1.284 4.276-2.836l-1.204-1.598c-2.063 1.555-3.015 2.189-3.936 2.63l.864 1.804Zm4.269-2.831 7.237-5.362-1.19-1.607-7.238 5.361 1.191 1.608Zm7.123-5.288c.072-.04.18-.114.24-.155l.336-.232c.265-.185.606-.425.948-.668a88.978 88.978 0 0 0 1.52-1.089l-1.231-1.576-.011.008-.033.025-.108.079-.34.244-.952.677c-.34.24-.677.478-.937.659-.131.091-.24.167-.32.221-.107.074-.111.073-.074.053l.962 1.754Zm2.994-2.107c.993-.681 1.011-.693 1.411-.996l-1.207-1.595c-.358.271-.341.259-1.335.941l1.131 1.65Zm.418-2.715c-1.839.777-4.274 1.675-5.859 2.173l.6 1.908c1.651-.519 4.146-1.439 6.037-2.238l-.778-1.843Zm-5.859 2.173-6.624 2.082.6 1.908 6.624-2.082-.6-1.908Zm-6.624 2.082c-2.121.667-3.499 1.167-4.787 1.784l.863 1.804c1.161-.556 2.432-1.022 4.524-1.68l-.6-1.908Zm-3.401 2.386-1.891-6.014-1.908.6 1.891 6.014 1.908-.6Zm-2.674-4.729c1.493-.259 2.842-.615 4.938-1.274l-.6-1.908c-2.056.646-3.31.974-4.68 1.212l.342 1.97Zm4.938-1.274 15.904-5-.599-1.908-15.905 5 .6 1.908Zm15.904-5c1.862-.585 3.488-1.198 4.794-1.782l-.816-1.826c-1.223.547-2.776 1.134-4.577 1.7l.599 1.908Zm3.432-2.395 2.533 8.059 1.908-.6-2.533-8.059-1.908.6Zm3.038 6.866c-1.31.659-2.26 1.244-4.088 2.604l1.195 1.604c1.76-1.31 2.611-1.828 3.792-2.421l-.899-1.787Zm-4.087 2.604-11.718 8.715 1.194 1.605 11.717-8.715-1.193-1.605Zm-11.149 10.517 14.587.413.056-2-14.587-.412-.056 1.999Zm14.589.413c2.302.06 3.424-.003 4.847-.237l-.324-1.973c-1.256.206-2.241.268-4.471.21l-.052 2Zm3.731-.924 2.543 8.09 1.908-.6-2.543-8.09-1.908.6Zm3.318 6.806c-1.577.288-2.891.633-4.96 1.283l.6 1.908c2.022-.636 3.25-.956 4.718-1.223l-.358-1.968Zm-4.96 1.283-15.904 5 .599 1.907 15.905-4.999-.6-1.908Zm-15.904 5c-2.334.733-3.562 1.186-4.793 1.786l.876 1.798c1.095-.534 2.21-.952 4.516-1.677l-.599-1.907Zm-3.401 2.385-1.891-6.014-1.908.6 1.891 6.014 1.908-.6Zm-2.671-4.729c1.52-.269 2.744-.585 4.935-1.274l-.6-1.908c-2.145.674-3.279.964-4.683 1.212l.348 1.97Zm4.935-1.274 6.654-2.092-.599-1.908-6.655 2.092.6 1.908Zm6.654-2.092c.705-.221 3.001-.844 3.955-1.077l-.476-1.943c-.976.239-3.317.873-4.078 1.112l.599 1.908Zm3.963-1.079c1.648-.418 1.642-.416 2.104-.528l-.471-1.944c-.474.115-.479.116-2.124.533l.491 1.939Zm1.839-2.5c-2.61.078-3.761.116-4.94.066l-.084 1.999c1.269.053 2.508.011 5.083-.066l-.059-1.999Zm-4.946.066-9.295-.332-.072 1.999 9.296.332.071-1.999Zm-9.297-.332c-2.406-.082-3.957-.061-5.083.109l.298 1.977c.924-.139 2.309-.169 4.717-.087l.068-1.999Z" mask="url(#k)"/><mask id="l" width="31.403" height="24.863" x="372.458" y="190.486" fill="#000" maskUnits="userSpaceOnUse"><path fill="#fff" d="M372.458 190.486h31.403v24.863h-31.403z"/><path d="m381.413 213.268-5.972.38c.072-1.383.063-2.537-.113-5.283l-.641-10.06c-.155-2.427-.244-3.319-.395-4.688 1.289.11 2.475.099 4.679-.042l17.436-1.112c1.98-.126 3.094-.261 4.646-.553.02 1.314.045 2.21.204 4.701l.65 10.187c.138 2.172.271 3.254.527 4.744l-5.972.381c.066-1.479.056-2.633-.08-4.772l-.53-8.304-4.694.3.44 6.898c.134 2.108.215 2.872.529 4.776l-5.908.377c.064-1.512.058-2.601-.082-4.805l-.44-6.898-5.365.342.525 8.239c.155 2.428.309 3.829.556 5.192Z"/></mask><path fill="#000" d="m381.413 213.268-5.972.38c.072-1.383.063-2.537-.113-5.283l-.641-10.06c-.155-2.427-.244-3.319-.395-4.688 1.289.11 2.475.099 4.679-.042l17.436-1.112c1.98-.126 3.094-.261 4.646-.553.02 1.314.045 2.21.204 4.701l.65 10.187c.138 2.172.271 3.254.527 4.744l-5.972.381c.066-1.479.056-2.633-.08-4.772l-.53-8.304-4.694.3.44 6.898c.134 2.108.215 2.872.529 4.776l-5.908.377c.064-1.512.058-2.601-.082-4.805l-.44-6.898-5.365.342.525 8.239c.155 2.428.309 3.829.556 5.192Z"/><path fill="#fff" d="m381.413 213.268.063.998 1.121-.072-.2-1.105-.984.179Zm-5.972.38-.999-.052-.058 1.122 1.121-.072-.064-.998Zm-1.149-20.031.085-.996-1.213-.104.134 1.21.994-.11Zm26.761-1.707 1-.014-.017-1.187-1.167.219.184.982Zm1.381 19.632.063.998 1.11-.07-.188-1.096-.985.168Zm-5.972.381-.999-.044-.05 1.113 1.112-.071-.063-.998Zm-.61-13.076.998-.063-.063-.998-.998.064.063.997Zm-4.694.3-.064-.998-.998.064.064.997.998-.063Zm.969 11.674.063.998 1.103-.07-.18-1.091-.986.163Zm-5.908.377-.999-.043-.047 1.111 1.109-.07-.063-.998Zm-.522-11.703.998-.064-.064-.998-.998.064.064.998Zm-5.365.342-.064-.998-.998.064.064.998.998-.064Zm1.017 12.433-5.972.38.128 1.996 5.971-.38-.127-1.996Zm-4.909 1.431c.074-1.438.063-2.634-.114-5.4l-1.996.128c.174 2.727.182 3.838.112 5.167l1.998.105Zm-.114-5.4-.641-10.059-1.996.127.641 10.06 1.996-.128Zm-.641-10.059c-.156-2.442-.246-3.35-.399-4.735l-1.988.22c.149 1.353.237 2.23.391 4.642l1.996-.127Zm-1.478-3.629c1.362.117 2.604.102 4.827-.04l-.127-1.996c-2.184.139-3.313.148-4.53.044l-.17 1.992Zm4.827-.04 17.437-1.112-.127-1.996-17.437 1.112.127 1.996Zm17.437-1.112c2.012-.128 3.167-.267 4.767-.568l-.369-1.965c-1.506.282-2.578.413-4.525.537l.127 1.996Zm3.583-1.536c.019 1.332.045 2.245.205 4.75l1.996-.128c-.158-2.476-.182-3.356-.202-4.651l-1.999.029Zm.205 4.75.65 10.187 1.996-.127-.65-10.188-1.996.128Zm.65 10.187c.14 2.202.277 3.319.539 4.849l1.971-.337c-.248-1.452-.378-2.498-.514-4.639l-1.996.127Zm1.461 3.682-5.972.381.127 1.996 5.972-.381-.127-1.996Zm-4.909 1.424c.068-1.522.057-2.713-.081-4.881l-1.996.127c.134 2.112.143 3.229.079 4.665l1.998.089Zm-.081-4.881-.53-8.303-1.996.127.53 8.303 1.996-.127Zm-1.591-9.237-4.695.299.128 1.996 4.694-.3-.127-1.995Zm-5.629 1.36.44 6.898 1.996-.127-.44-6.898-1.996.127Zm.44 6.898c.136 2.136.22 2.934.54 4.875l1.973-.325c-.307-1.866-.385-2.597-.517-4.677l-1.996.127Zm1.463 3.715-5.908.377.127 1.996 5.908-.377-.127-1.996Zm-4.845 1.417c.066-1.552.059-2.677-.083-4.911l-1.996.128c.138 2.174.143 3.228.081 4.698l1.998.085Zm-.083-4.911-.44-6.898-1.996.128.44 6.898 1.996-.128Zm-1.502-7.832-5.365.342.127 1.996 5.366-.342-.128-1.996Zm-6.299 1.404.525 8.239 1.996-.127-.525-8.239-1.996.127Zm.525 8.239c.156 2.444.313 3.889.57 5.306l1.968-.357c-.238-1.308-.388-2.666-.542-5.076l-1.996.127Z" mask="url(#l)"/><mask id="m" width="35.45" height="33.026" x="368.789" y="229.306" fill="#000" maskUnits="userSpaceOnUse"><path fill="#fff" d="M368.789 229.306h35.45v33.026h-35.45z"/><path d="m389.279 258.765-.098-6.714c2.942-.091 4.659-1.506 5.144-4.215.688-3.843-1.935-6.621-7.133-7.552-5.134-.919-8.67.853-9.369 4.759-.311 1.732.149 3.343 1.245 4.482.66.671 1.282 1.01 2.54 1.43l-2.15 6.377c-2.57-1.078-3.99-2.048-5.296-3.647-1.887-2.353-2.537-5.623-1.854-9.434.688-3.843 2.466-6.873 5.135-8.704 2.779-1.907 6.702-2.57 10.923-1.815 4.283.768 7.669 2.739 9.68 5.668 1.721 2.551 2.317 5.941 1.657 9.626-.728 4.064-2.683 6.997-5.79 8.554-1.472.776-2.734 1.103-4.634 1.185Z"/></mask><path fill="#000" d="m389.279 258.765-.098-6.714c2.942-.091 4.659-1.506 5.144-4.215.688-3.843-1.935-6.621-7.133-7.552-5.134-.919-8.67.853-9.369 4.759-.311 1.732.149 3.343 1.245 4.482.66.671 1.282 1.01 2.54 1.43l-2.15 6.377c-2.57-1.078-3.99-2.048-5.296-3.647-1.887-2.353-2.537-5.623-1.854-9.434.688-3.843 2.466-6.873 5.135-8.704 2.779-1.907 6.702-2.57 10.923-1.815 4.283.768 7.669 2.739 9.68 5.668 1.721 2.551 2.317 5.941 1.657 9.626-.728 4.064-2.683 6.997-5.79 8.554-1.472.776-2.734 1.103-4.634 1.185Z"/><path fill="#fff" d="m389.279 258.765-1 .015.015 1.029 1.028-.044-.043-1Zm-.098-6.714-.031-.999-.983.03.014.984 1-.015Zm-10.113-2.526-.72.693.007.008.713-.701Zm2.54 1.43.947.319.321-.95-.951-.318-.317.949Zm-2.15 6.377-.387.922.991.416.344-1.019-.948-.319Zm-5.296-3.647-.78.626.005.007.775-.633Zm3.281-18.138.565.825-.565-.825Zm20.603 3.853.829-.56-.005-.007-.824.567Zm-4.133 18.18-.448-.894-.01.004-.009.005.467.885Zm-3.634 1.171-.098-6.715-2 .03.098 6.714 2-.029Zm-1.067-5.7c1.621-.05 3.021-.47 4.097-1.353 1.082-.889 1.726-2.156 2-3.686l-1.969-.353c-.211 1.179-.668 1.974-1.3 2.493-.639.525-1.569.859-2.89.9l.062 1.999Zm6.097-5.039c.396-2.212-.165-4.194-1.616-5.731-1.418-1.501-3.603-2.494-6.325-2.981l-.352 1.969c2.476.443 4.201 1.304 5.223 2.386.987 1.045 1.393 2.374 1.101 4.004l1.969.353Zm-7.941-8.712c-2.7-.484-5.106-.284-6.975.662-1.908.965-3.153 2.659-3.555 4.905l1.969.352c.297-1.659 1.17-2.805 2.489-3.473 1.357-.687 3.286-.913 5.72-.477l.352-1.969Zm-10.53 5.567c-.361 2.015.169 3.958 1.51 5.351l1.441-1.387c-.853-.885-1.242-2.162-.982-3.612l-1.969-.352Zm1.517 5.359c.812.826 1.597 1.23 2.936 1.677l.634-1.897c-1.177-.393-1.636-.666-2.144-1.183l-1.426 1.403Zm2.305.409-2.15 6.377 1.896.639 2.149-6.377-1.895-.639Zm-.815 5.775c-2.473-1.038-3.737-1.923-4.909-3.358l-1.549 1.266c1.442 1.764 3.017 2.817 5.684 3.936l.774-1.844Zm-4.903-3.35c-1.659-2.07-2.296-5.022-1.65-8.633l-1.968-.353c-.719 4.012-.057 7.599 2.058 10.237l1.56-1.251Zm-1.65-8.633c.652-3.641 2.315-6.408 4.716-8.055l-1.131-1.649c-2.936 2.013-4.829 5.306-5.553 9.351l1.968.353Zm4.716-8.055c2.511-1.723 6.149-2.377 10.181-1.655l.353-1.969c-4.41-.79-8.616-.118-11.665 1.975l1.131 1.649Zm10.181-1.655c4.087.732 7.207 2.59 9.033 5.249l1.648-1.133c-2.196-3.198-5.847-5.282-10.328-6.085l-.353 1.969Zm9.028 5.242c1.548 2.294 2.126 5.407 1.502 8.891l1.968.353c.696-3.887.083-7.554-1.812-10.363l-1.658 1.119Zm1.502 8.891c-.686 3.828-2.491 6.451-5.254 7.836l.896 1.788c3.45-1.729 5.556-4.972 6.326-9.271l-1.968-.353Zm-5.273 7.845c-1.326.7-2.439.995-4.21 1.071l.086 1.999c2.03-.088 3.439-.447 5.057-1.301l-.933-1.769Z" mask="url(#m)"/><mask id="n" width="40.408" height="41.424" x="353.439" y="266.579" fill="#000" maskUnits="userSpaceOnUse"><path fill="#fff" d="M353.439 266.579h40.408v41.424h-40.408z"/><path d="m356.064 294.468 3.04-6.843c1.507.389 2.346.552 3.47.701l2.836.315 3.703-8.335-2.135-1.894c-1-.9-1.816-1.507-2.833-2.134l3.04-6.843c.683.828 1.267 1.403 2.944 2.989l14.799 14.138c1.199 1.163 1.959 1.816 2.742 2.339l-3.391 7.632c-.939-.172-1.79-.305-3.6-.408l-20.424-1.476c-1.797-.133-3.204-.198-4.191-.181Zm14.896-5.078 10.007 1.12-7.564-6.617-2.443 5.497Z"/></mask><path fill="#000" d="m356.064 294.468 3.04-6.843c1.507.389 2.346.552 3.47.701l2.836.315 3.703-8.335-2.135-1.894c-1-.9-1.816-1.507-2.833-2.134l3.04-6.843c.683.828 1.267 1.403 2.944 2.989l14.799 14.138c1.199 1.163 1.959 1.816 2.742 2.339l-3.391 7.632c-.939-.172-1.79-.305-3.6-.408l-20.424-1.476c-1.797-.133-3.204-.198-4.191-.181Zm14.896-5.078 10.007 1.12-7.564-6.617-2.443 5.497Z"/><path fill="#fff" d="m356.064 294.468-.914-.406-.636 1.431 1.566-.026-.016-.999Zm3.04-6.843.25-.969-.82-.212-.344.775.914.406Zm3.47.701-.132.991.011.002.011.001.11-.994Zm2.836.315-.11.994.727.08.297-.668-.914-.406Zm3.703-8.335.914.406.297-.668-.547-.486-.664.748Zm-2.135-1.894-.668.744.005.004.663-.748Zm-2.833-2.134-.914-.406-.355.799.744.458.525-.851Zm3.04-6.843.772-.636-1.029-1.249-.657 1.479.914.406Zm2.944 2.989.691-.723-.004-.004-.687.727Zm14.799 14.138.696-.718-.006-.005-.69.723Zm2.742 2.339.914.406.342-.77-.701-.468-.555.832Zm-3.391 7.632-.18.984.774.142.32-.72-.914-.406Zm-3.6-.408-.072.997h.007l.008.001.057-.998Zm-20.424-1.476-.074.997h.002l.072-.997Zm10.705-5.259-.914-.406-.554 1.248 1.357.152.111-.994Zm10.007 1.12-.111.994 3.172.355-2.402-2.102-.659.753Zm-7.564-6.617.658-.753-1.021-.893-.551 1.24.914.406Zm-16.426 10.981 3.041-6.843-1.828-.812-3.04 6.843 1.827.812Zm1.877-6.281c1.539.398 2.417.569 3.588.724l.264-1.982c-1.078-.144-1.876-.297-3.352-.679l-.5 1.937Zm3.61.727 2.836.315.221-1.988-2.837-.315-.22 1.988Zm3.86-.273 3.703-8.335-1.828-.812-3.702 8.335 1.827.812Zm3.453-9.489-2.135-1.894-1.327 1.496 2.135 1.894 1.327-1.496Zm-2.13-1.889a19.439 19.439 0 0 0-2.977-2.242l-1.05 1.702a17.395 17.395 0 0 1 2.69 2.027l1.337-1.487Zm-2.588-.985 3.04-6.843-1.828-.812-3.04 6.843 1.828.812Zm1.354-6.613c.728.883 1.357 1.499 3.029 3.079l1.374-1.453c-1.681-1.59-2.222-2.125-2.859-2.898l-1.544 1.272Zm3.025 3.076 14.799 14.138 1.381-1.446-14.798-14.138-1.382 1.446Zm14.793 14.133c1.212 1.175 2.024 1.879 2.884 2.452l1.11-1.663c-.706-.472-1.415-1.075-2.601-2.225l-1.393 1.436Zm2.525 1.215-3.391 7.632 1.828.812 3.391-7.632-1.828-.812Zm-2.297 7.055c-.977-.179-1.869-.318-3.723-.424l-.114 1.997c1.766.101 2.576.229 3.477.394l.36-1.967Zm-3.708-.423-20.424-1.475-.144 1.994 20.424 1.476.144-1.995Zm-20.422-1.475c-1.803-.134-3.247-.201-4.282-.184l.033 1.999c.941-.015 2.311.047 4.101.179l.148-1.994Zm10.52-3.268 10.007 1.12.223-1.988-10.008-1.119-.222 1.987Zm10.777-.627-7.565-6.617-1.317 1.505 7.565 6.618 1.317-1.506Zm-9.137-6.27-2.443 5.497 1.828.812 2.442-5.497-1.827-.812Z" mask="url(#n)"/><mask id="o" width="40.251" height="39.716" x="330.664" y="306.026" fill="#000" maskUnits="userSpaceOnUse"><path fill="#fff" d="M330.664 306.026h40.251v39.716h-40.251z"/><path d="m333.355 326.917 4.585-5.92c.927.475 2.199.975 4.906 1.817 2.829.895 3.646 1.042 4.692.84.892-.159 1.584-.635 2.211-1.444l1.999-2.581-4.149-3.213c-1.721-1.332-2.696-2.007-3.977-2.756l4.212-5.44c1.047 1.053 1.766 1.692 3.639 3.142l13.611 10.541c1.569 1.215 2.544 1.889 3.876 2.678a93.85 93.85 0 0 0-2.996 3.711l-5.094 6.578c-3.174 4.098-7.141 4.831-10.784 2.009-1.797-1.391-2.822-2.994-2.993-4.706-.093-1.083.041-1.83.596-3.383-1.404.977-2.437 1.108-4.86.526-1.103-.247-2.238-.559-5.852-1.537-.924-.27-1.792-.456-3.622-.862Zm22.719-3.937-3.056 3.947c-1.156 1.492-.951 3.108.491 4.225 1.417 1.098 2.778.856 3.992-.712l3.077-3.972-4.504-3.488Z"/></mask><path fill="#000" d="m333.355 326.917 4.585-5.92c.927.475 2.199.975 4.906 1.817 2.829.895 3.646 1.042 4.692.84.892-.159 1.584-.635 2.211-1.444l1.999-2.581-4.149-3.213c-1.721-1.332-2.696-2.007-3.977-2.756l4.212-5.44c1.047 1.053 1.766 1.692 3.639 3.142l13.611 10.541c1.569 1.215 2.544 1.889 3.876 2.678a93.85 93.85 0 0 0-2.996 3.711l-5.094 6.578c-3.174 4.098-7.141 4.831-10.784 2.009-1.797-1.391-2.822-2.994-2.993-4.706-.093-1.083.041-1.83.596-3.383-1.404.977-2.437 1.108-4.86.526-1.103-.247-2.238-.559-5.852-1.537-.924-.27-1.792-.456-3.622-.862Zm22.719-3.937-3.056 3.947c-1.156 1.492-.951 3.108.491 4.225 1.417 1.098 2.778.856 3.992-.712l3.077-3.972-4.504-3.488Z"/><path fill="#fff" d="m333.355 326.917-.791-.613-.966 1.248 1.54.341.217-.976Zm4.585-5.92.456-.89-.739-.379-.508.656.791.613Zm4.906 1.817.302-.954-.005-.001-.297.955Zm4.692.84-.175-.984-.014.002.189.982Zm4.21-4.025.791.613.612-.791-.791-.612-.612.79Zm-8.126-5.969-.791-.613-.697.901.983.575.505-.863Zm4.212-5.44.71-.705-.803-.808-.697.901.79.612Zm21.126 16.361.762.648.768-.904-1.021-.604-.509.86Zm-21.867 7.592-.997.085.001.007.001.008.995-.1Zm.596-3.383.942.337 1.051-2.942-2.564 1.784.571.821Zm-4.86.526.233-.972-.007-.002-.007-.001-.219.975Zm-5.852-1.537-.281.96.01.003.01.003.261-.966Zm19.097-4.799.613-.791-.791-.612-.612.791.79.612Zm4.504 3.488.79.612.613-.791-.791-.612-.612.791Zm-26.433 1.061 4.585-5.92-1.581-1.225-4.585 5.92 1.581 1.225Zm3.338-5.642c1.007.516 2.347 1.036 5.066 1.881l.594-1.909c-2.695-.839-3.9-1.318-4.747-1.752l-.913 1.78Zm5.062 1.88c2.794.884 3.849 1.126 5.182.869l-.378-1.964c-.76.147-1.339.094-4.201-.812l-.603 1.907Zm5.168.872c1.19-.212 2.085-.859 2.827-1.817l-1.581-1.224c-.512.661-1.002.966-1.596 1.072l.35 1.969Zm2.827-1.817 1.999-2.58-1.582-1.225-1.998 2.581 1.581 1.224Zm1.82-3.983-4.149-3.214-1.225 1.582 4.15 3.213 1.224-1.581Zm-4.149-3.214c-1.741-1.348-2.753-2.05-4.084-2.829l-1.01 1.727c1.232.72 2.17 1.367 3.869 2.684l1.225-1.582Zm-3.799-1.353 4.213-5.44-1.581-1.224-4.213 5.439 1.581 1.225Zm2.713-5.347c1.085 1.092 1.84 1.759 3.735 3.227l1.225-1.581c-1.849-1.432-2.534-2.041-3.541-3.056l-1.419 1.41Zm3.735 3.227 13.612 10.542 1.224-1.582-13.611-10.541-1.225 1.581Zm13.612 10.542c1.592 1.233 2.602 1.933 3.978 2.747l1.019-1.72c-1.287-.763-2.228-1.412-3.773-2.609l-1.224 1.582Zm3.726 1.239a94.398 94.398 0 0 0-3.024 3.747l1.581 1.224a92.342 92.342 0 0 1 2.967-3.675l-1.524-1.296Zm-3.024 3.747-5.095 6.578 1.582 1.224 5.094-6.578-1.581-1.224Zm-5.095 6.578c-1.487 1.92-3.076 2.944-4.608 3.228-1.511.281-3.131-.126-4.773-1.397l-1.225 1.581c2.002 1.55 4.187 2.187 6.363 1.783 2.156-.401 4.138-1.793 5.825-3.971l-1.582-1.224Zm-9.381 1.831c-1.654-1.282-2.474-2.659-2.61-4.016l-1.99.2c.207 2.067 1.437 3.896 3.375 5.397l1.225-1.581Zm-2.609-4.001c-.075-.885.011-1.478.542-2.961l-1.884-.674c-.58 1.624-.76 2.523-.651 3.805l1.993-.17Zm-.971-4.119c-.615.428-1.068.617-1.588.675-.559.062-1.284-.016-2.468-.3l-.466 1.945c1.24.297 2.242.444 3.156.342.953-.106 1.719-.471 2.508-1.02l-1.142-1.642Zm-4.07.372c-1.076-.242-2.181-.545-5.81-1.527l-.522 1.931c3.599.973 4.763 1.294 5.894 1.547l.438-1.951Zm-5.79-1.521c-.964-.283-1.873-.477-3.687-.88l-.433 1.953c1.847.41 2.674.587 3.558.846l.562-1.919Zm18.026-4.452-3.057 3.946 1.581 1.225 3.057-3.947-1.581-1.224Zm-3.057 3.946c-.703.908-1.055 1.941-.931 2.985.125 1.045.711 1.955 1.601 2.644l1.224-1.581c-.552-.428-.789-.885-.839-1.3-.05-.417.073-.938.526-1.523l-1.581-1.225Zm.67 5.629c.859.665 1.833 1.02 2.859.837 1.003-.179 1.844-.834 2.536-1.728l-1.581-1.225c-.523.675-.97.924-1.305.984-.312.056-.727-.017-1.285-.449l-1.224 1.581Zm5.395-.891 3.076-3.972-1.581-1.225-3.076 3.972 1.581 1.225Zm2.898-5.375-4.503-3.488-1.225 1.581 4.503 3.488 1.225-1.581Z" mask="url(#o)"/><mask id="p" width="39.799" height="40.284" x="301.191" y="335.961" fill="#000" maskUnits="userSpaceOnUse"><path fill="#fff" d="M301.191 335.961h39.799v40.284h-39.799z"/><path d="m324.722 342.271 10.842 13.66c1.353 1.704 2.06 2.491 3.151 3.505-1.043.746-1.689 1.218-3.77 2.869l-5.238 4.158c-3.083 2.447-6.24 3.565-9.213 3.269-3.262-.353-6.278-2.248-8.924-5.582-2.726-3.433-3.912-6.986-3.519-10.403.366-2.987 2.071-5.729 5.053-8.097l5.289-4.198c1.93-1.532 2.612-2.114 3.624-3 .725 1.223 1.332 2.09 2.705 3.819Zm-4.326 4.741-3.359 2.666c-1.629 1.293-2.444 2.635-2.63 4.253-.192 1.868.59 3.985 2.241 6.066 1.691 2.13 3.401 3.306 5.154 3.508 1.574.181 3.095-.373 4.9-1.806l3.283-2.606-9.589-12.081Z"/></mask><path fill="#000" d="m324.722 342.271 10.842 13.66c1.353 1.704 2.06 2.491 3.151 3.505-1.043.746-1.689 1.218-3.77 2.869l-5.238 4.158c-3.083 2.447-6.24 3.565-9.213 3.269-3.262-.353-6.278-2.248-8.924-5.582-2.726-3.433-3.912-6.986-3.519-10.403.366-2.987 2.071-5.729 5.053-8.097l5.289-4.198c1.93-1.532 2.612-2.114 3.624-3 .725 1.223 1.332 2.09 2.705 3.819Zm-4.326 4.741-3.359 2.666c-1.629 1.293-2.444 2.635-2.63 4.253-.192 1.868.59 3.985 2.241 6.066 1.691 2.13 3.401 3.306 5.154 3.508 1.574.181 3.095-.373 4.9-1.806l3.283-2.606-9.589-12.081Z"/><path fill="#fff" d="m338.715 359.436.581.813.996-.712-.897-.834-.68.733Zm-18.221 10.296-.107.994.008.001.099-.995Zm-12.443-15.985-.993-.122-.001.008.994.114Zm13.966-15.295.86-.51-.613-1.034-.905.792.658.752Zm-1.621 8.56.783-.622-.622-.783-.783.622.622.783Zm-5.989 6.919-.993-.114-.002.012.995.102Zm15.578 5.162.622.783.783-.622-.622-.783-.783.622Zm-6.047-16.2 10.843 13.659 1.567-1.243-10.843-13.66-1.567 1.244Zm10.843 13.659c1.371 1.728 2.112 2.557 3.253 3.616l1.361-1.465c-1.041-.967-1.713-1.713-3.047-3.394l-1.567 1.243Zm3.352 2.071c-1.058.756-1.718 1.239-3.809 2.899l1.243 1.566c2.069-1.642 2.703-2.104 3.729-2.839l-1.163-1.626Zm-3.809 2.899-5.239 4.158 1.244 1.567 5.238-4.159-1.243-1.566Zm-5.239 4.158c-2.945 2.338-5.851 3.32-8.492 3.057l-.198 1.99c3.304.329 6.713-.924 9.934-3.48l-1.244-1.567Zm-8.484 3.057c-2.921-.315-5.715-2.017-8.248-5.208l-1.567 1.243c2.759 3.476 5.998 5.565 9.601 5.954l.214-1.989Zm-8.248-5.208c-2.605-3.282-3.664-6.578-3.309-9.668l-1.987-.228c-.43 3.744.883 7.554 3.729 11.139l1.567-1.243Zm-3.309-9.66c.326-2.664 1.85-5.187 4.682-7.436l-1.243-1.566c-3.133 2.487-5.019 5.448-5.425 8.758l1.986.244Zm4.682-7.436 5.288-4.198-1.243-1.566-5.288 4.198 1.243 1.566Zm5.288-4.198c1.942-1.54 2.636-2.133 3.662-3.03l-1.317-1.505c-1 .874-1.669 1.446-3.588 2.969l1.243 1.566Zm2.143-3.272c.756 1.273 1.391 2.178 2.781 3.93l1.567-1.244c-1.356-1.707-1.933-2.536-2.628-3.707l-1.72 1.021Zm-1.383 7.266-3.359 2.666 1.244 1.566 3.358-2.666-1.243-1.566Zm-3.359 2.666c-1.783 1.416-2.778 2.979-3.001 4.922l1.987.228c.148-1.294.783-2.413 2.258-3.584l-1.244-1.566Zm-3.003 4.934c-.228 2.219.707 4.59 2.453 6.789l1.566-1.243c-1.556-1.961-2.185-3.824-2.029-5.342l-1.99-.204Zm2.453 6.789c1.765 2.224 3.689 3.635 5.823 3.88l.228-1.987c-1.373-.158-2.867-1.098-4.485-3.136l-1.566 1.243Zm5.823 3.88c1.933.222 3.714-.49 5.635-2.016l-1.243-1.566c-1.688 1.34-2.95 1.735-4.164 1.595l-.228 1.987Zm5.635-2.016 3.284-2.606-1.244-1.566-3.283 2.606 1.243 1.566Zm3.445-4.011-9.589-12.081-1.567 1.244 9.59 12.081 1.566-1.244Z" mask="url(#p)"/><mask id="q" width="37.958" height="38.942" x="265.732" y="359.306" fill="#000" maskUnits="userSpaceOnUse"><path fill="#fff" d="M265.732 359.306h37.958v38.942h-37.958z"/><path d="m291.19 386.226-9.315-5.725a43.025 43.025 0 0 1-3.682-2.501 53.087 53.087 0 0 1 2.149 4.225l3.042 6.631c.88 1.92 1.472 3.057 2.26 4.315l-6.195 2.841c-.426-1.389-.928-2.637-1.795-4.527l-7.084-15.445c-.814-1.774-1.515-3.072-2.221-4.227l6.37-2.922c1.03.865 2.193 1.634 3.876 2.693l9.103 5.647c1.319.803 2.214 1.449 3.735 2.617-.746-1.242-1.538-2.815-2.191-4.24l-2.989-6.516c-.92-2.007-1.566-3.26-2.314-4.43l6.196-2.842c.345 1.214.874 2.521 1.862 4.673l7.017 15.3c.774 1.687 1.432 2.969 2.221 4.227l-6.312 2.895c-.651-.652-1.825-1.522-3.733-2.689Z"/></mask><path fill="#000" d="m291.19 386.226-9.315-5.725a43.025 43.025 0 0 1-3.682-2.501 53.087 53.087 0 0 1 2.149 4.225l3.042 6.631c.88 1.92 1.472 3.057 2.26 4.315l-6.195 2.841c-.426-1.389-.928-2.637-1.795-4.527l-7.084-15.445c-.814-1.774-1.515-3.072-2.221-4.227l6.37-2.922c1.03.865 2.193 1.634 3.876 2.693l9.103 5.647c1.319.803 2.214 1.449 3.735 2.617-.746-1.242-1.538-2.815-2.191-4.24l-2.989-6.516c-.92-2.007-1.566-3.26-2.314-4.43l6.196-2.842c.345 1.214.874 2.521 1.862 4.673l7.017 15.3c.774 1.687 1.432 2.969 2.221 4.227l-6.312 2.895c-.651-.652-1.825-1.522-3.733-2.689Z"/><path fill="#fff" d="m291.19 386.226-.523.852.002.001.521-.853Zm-9.315-5.725.523-.852-.003-.002-.52.854ZM278.193 378l.598-.801-1.467 1.295.869-.494Zm7.451 15.171.417.909 1.036-.475-.605-.965-.848.531Zm-6.195 2.841-.956.294.335 1.092 1.038-.477-.417-.909Zm-11.1-24.199-.417-.909-1.023.469.587.961.853-.521Zm6.37-2.922.643-.766-.485-.407-.575.264.417.909Zm3.876 2.693-.533.847.006.003.527-.85Zm9.103 5.647-.527.85.007.004.52-.854Zm3.735 2.617-.609.793 1.467-1.308-.858.515Zm-7.494-15.186-.417-.909-1.044.479.619.968.842-.538Zm6.196-2.842.961-.274-.319-1.121-1.059.486.417.909Zm11.1 24.2.417.909 1.035-.475-.605-.965-.847.531Zm-6.312 2.895-.708.706.492.493.633-.29-.417-.909Zm-3.209-3.541-9.316-5.725-1.047 1.704 9.316 5.725 1.047-1.704Zm-9.319-5.727a42.24 42.24 0 0 1-3.604-2.448l-1.196 1.602a43.785 43.785 0 0 0 3.759 2.553l1.041-1.707Zm-5.071-1.153a51.978 51.978 0 0 1 2.109 4.148l1.818-.834a53.854 53.854 0 0 0-2.189-4.302l-1.738.988Zm2.109 4.148 3.042 6.631 1.818-.834-3.042-6.631-1.818.834Zm3.042 6.631c.891 1.942 1.503 3.121 2.322 4.429l1.695-1.062c-.757-1.209-1.329-2.303-2.199-4.201l-1.818.834Zm2.753 2.989-6.196 2.841.834 1.818 6.195-2.841-.833-1.818Zm-4.823 3.457c-.444-1.448-.966-2.741-1.842-4.651l-1.818.833c.858 1.871 1.34 3.075 1.748 4.405l1.912-.587Zm-1.842-4.651-7.084-15.445-1.818.834 7.084 15.444 1.818-.833Zm-7.084-15.445c-.829-1.807-1.548-3.14-2.277-4.332l-1.706 1.043c.683 1.118 1.366 2.381 2.165 4.123l1.818-.834Zm-2.713-2.901 6.37-2.922-.834-1.818-6.37 2.922.834 1.818Zm5.31-3.065c1.088.913 2.303 1.714 3.986 2.774l1.065-1.693c-1.682-1.059-2.792-1.796-3.765-2.613l-1.286 1.532Zm3.992 2.777 9.103 5.647 1.054-1.7-9.103-5.647-1.054 1.7Zm9.11 5.651c1.275.777 2.138 1.398 3.646 2.556l1.218-1.586c-1.534-1.178-2.461-1.848-3.824-2.678l-1.04 1.708Zm5.113 1.248c-.72-1.199-1.495-2.735-2.14-4.142l-1.818.834c.662 1.443 1.471 3.053 2.243 4.338l1.715-1.03Zm-2.14-4.142-2.989-6.516-1.818.834 2.989 6.516 1.818-.834Zm-2.989-6.516c-.927-2.022-1.595-3.323-2.38-4.552l-1.685 1.077c.711 1.113 1.334 2.318 2.247 4.309l1.818-.834Zm-2.806-3.104 6.196-2.842-.834-1.818-6.196 2.842.834 1.818Zm4.817-3.477c.368 1.291.924 2.655 1.915 4.816l1.818-.834c-.984-2.144-1.486-3.393-1.81-4.53l-1.923.548Zm1.915 4.816 7.017 15.299 1.818-.833-7.017-15.3-1.818.834Zm7.017 15.299c.784 1.709 1.463 3.034 2.282 4.342l1.695-1.062c-.757-1.208-1.395-2.448-2.159-4.113l-1.818.833Zm2.713 2.902-6.312 2.895.834 1.818 6.312-2.895-.834-1.818Zm-5.187 3.097c-.739-.739-1.997-1.66-3.919-2.835l-1.043 1.706c1.894 1.158 2.983 1.978 3.546 2.542l1.416-1.413Z" mask="url(#q)"/><mask id="r" width="37.07" height="35.482" x="224.982" y="374.586" fill="#000" maskUnits="userSpaceOnUse"><path fill="#fff" d="M224.982 374.586h37.07v35.482h-37.07z"/><path d="m227.593 381.985 7.354-1.408c.54 1.46.886 2.241 1.404 3.25l1.36 2.509 8.958-1.715.337-2.834c.168-1.336.201-2.352.136-3.545l7.354-1.408c-.291 1.033-.429 1.842-.774 4.123l-3.167 20.22c-.271 1.649-.373 2.646-.356 3.587l-8.203 1.571c-.394-.87-.77-1.645-1.718-3.19l-10.443-17.615c-.916-1.551-1.665-2.743-2.242-3.545Zm12.669 9.336 4.791 8.857 1.118-9.988-5.909 1.131Z"/></mask><path fill="#000" d="m227.593 381.985 7.354-1.408c.54 1.46.886 2.241 1.404 3.25l1.36 2.509 8.958-1.715.337-2.834c.168-1.336.201-2.352.136-3.545l7.354-1.408c-.291 1.033-.429 1.842-.774 4.123l-3.167 20.22c-.271 1.649-.373 2.646-.356 3.587l-8.203 1.571c-.394-.87-.77-1.645-1.718-3.19l-10.443-17.615c-.916-1.551-1.665-2.743-2.242-3.545Zm12.669 9.336 4.791 8.857 1.118-9.988-5.909 1.131Z"/><path fill="#fff" d="m227.593 381.985-.188-.982-1.539.294.915 1.272.812-.584Zm7.354-1.408.938-.347-.294-.795-.832.16.188.982Zm1.404 3.25-.889.457.005.01.005.009.879-.476Zm1.36 2.509-.879.476.349.643.718-.137-.188-.982Zm8.958-1.715.188.982.718-.138.087-.726-.993-.118Zm.337-2.834-.992-.125-.001.007.993.118Zm.136-3.545-.188-.982-.859.164.048.873.999-.055Zm7.354-1.408.963.271.438-1.557-1.589.304.188.982Zm-.774 4.123.988.155v-.005l-.988-.15Zm-3.167 20.22.987.163.001-.008-.988-.155Zm-.356 3.587.189.982.827-.158-.016-.842-1 .018Zm-8.203 1.571-.91.413.325.717.774-.148-.189-.982Zm-1.718-3.19-.86.51.004.006.004.007.852-.523Zm-10.443-17.615-.861.509.001.001.86-.51Zm10.427 5.791-.188-.982-1.341.257.65 1.201.879-.476Zm4.791 8.857-.879.476 1.518 2.807.355-3.172-.994-.111Zm1.118-9.988.994.111.151-1.349-1.333.256.188.982Zm-18.39-7.223 7.354-1.408-.376-1.964-7.354 1.408.376 1.964Zm6.228-2.043c.552 1.491.913 2.31 1.453 3.36l1.779-.915c-.498-.966-.827-1.709-1.356-3.139l-1.876.694Zm1.463 3.379 1.36 2.509 1.759-.953-1.36-2.509-1.759.953Zm2.427 3.015 8.958-1.715-.376-1.964-8.958 1.715.376 1.964Zm9.763-2.579.337-2.834-1.986-.236-.337 2.834 1.986.236Zm.336-2.827a19.44 19.44 0 0 0 .142-3.725l-1.997.11c.062 1.13.031 2.087-.129 3.365l1.984.25Zm-.668-2.688 7.354-1.408-.376-1.964-7.354 1.408.376 1.964Zm6.204-2.661c-.311 1.102-.457 1.97-.801 4.245l1.977.299c.347-2.289.477-3.037.749-4.002l-1.925-.542Zm-.8 4.24-3.167 20.22 1.976.309 3.167-20.22-1.976-.309Zm-3.165 20.212c-.274 1.667-.388 2.735-.369 3.768l1.999-.037c-.015-.85.075-1.776.343-3.407l-1.973-.324Zm.442 2.767-8.203 1.571.377 1.964 8.203-1.571-.377-1.964Zm-7.104 2.14c-.41-.905-.806-1.717-1.776-3.3l-1.705 1.046c.924 1.508 1.281 2.246 1.66 3.08l1.821-.826Zm-1.769-3.287-10.442-17.615-1.721 1.02 10.443 17.615 1.72-1.02Zm-10.441-17.613c-.92-1.557-1.688-2.781-2.293-3.621l-1.623 1.168c.55.764 1.281 1.924 2.193 3.47l1.723-1.017Zm8.686 6.775 4.791 8.857 1.759-.952-4.791-8.857-1.759.952Zm6.664 8.492 1.118-9.988-1.988-.222-1.117 9.988 1.987.222Zm-.064-11.081-5.909 1.131.376 1.964 5.909-1.131-.376-1.964Z" mask="url(#r)"/><mask id="s" width="33.508" height="31.614" x="183.528" y="379.851" fill="#000" maskUnits="userSpaceOnUse"><path fill="#fff" d="M183.528 379.851h33.508v31.614h-33.508z"/><path d="m198.213 382.381 5.561.288c.102 1.127.392 2.328 1.129 4.801l2.5 8.653c.024.161.829 3.183.911 3.443.292 1.169.292 1.169.429 1.625-.088-2.023-.08-4.651.008-6.344l.359-6.935c.114-2.205.123-3.614.001-4.967l6.295.326c-.266 1.428-.399 2.767-.512 4.94l-.862 16.65c-.099 1.918-.091 3.616-.002 4.999l-8.437-.437c-.152-1.386-.355-2.422-.981-4.569l-4.081-14.022-5.474 13.527c-.846 2.104-1.155 3.113-1.416 4.445l-8.469-.438c.272-1.524.403-2.831.514-4.972l.862-16.65c.126-2.429.126-3.678.001-4.967l6.295.326c-.267 1.46-.394 2.672-.512 4.94l-.36 6.967c-.04.767-.26 3.159-.375 4.146-.184 1.689-.184 1.689-.24 2.167.832-2.456 1.211-3.59 1.686-4.719l3.553-8.596c.916-2.228 1.404-3.612 1.617-4.627Z"/></mask><path fill="#000" d="m198.213 382.381 5.561.288c.102 1.127.392 2.328 1.129 4.801l2.5 8.653c.024.161.829 3.183.911 3.443.292 1.169.292 1.169.429 1.625-.088-2.023-.08-4.651.008-6.344l.359-6.935c.114-2.205.123-3.614.001-4.967l6.295.326c-.266 1.428-.399 2.767-.512 4.94l-.862 16.65c-.099 1.918-.091 3.616-.002 4.999l-8.437-.437c-.152-1.386-.355-2.422-.981-4.569l-4.081-14.022-5.474 13.527c-.846 2.104-1.155 3.113-1.416 4.445l-8.469-.438c.272-1.524.403-2.831.514-4.972l.862-16.65c.126-2.429.126-3.678.001-4.967l6.295.326c-.267 1.46-.394 2.672-.512 4.94l-.36 6.967c-.04.767-.26 3.159-.375 4.146-.184 1.689-.184 1.689-.24 2.167.832-2.456 1.211-3.59 1.686-4.719l3.553-8.596c.916-2.228 1.404-3.612 1.617-4.627Z"/><path fill="#fff" d="m198.213 382.381.052-.998-.855-.045-.175.838.978.205Zm5.561.288.996-.09-.078-.864-.867-.045-.051.999Zm1.129 4.801.961-.278-.003-.008-.958.286Zm2.5 8.653.99-.145-.01-.068-.019-.065-.961.278Zm.911 3.443.97-.242-.007-.03-.009-.03-.954.302Zm.429 1.625-.958.287 1.957-.33-.999.043Zm.368-18.246.051-.998-1.151-.06.104 1.148.996-.09Zm6.295.326.983.184.21-1.123-1.141-.059-.052.998Zm-1.376 26.589-.052.998 1.122.058-.072-1.12-.998.064Zm-8.437-.437-.994.109.093.846.849.044.052-.999Zm-.981-4.569-.96.28.96-.28Zm-4.081-14.022.961-.279-.806-2.768-1.082 2.672.927.375Zm-5.474 13.527-.927-.375-.001.002.928.373Zm-1.416 4.445-.052.999.867.045.166-.851-.981-.193Zm-8.469-.438-.984-.175-.198 1.115 1.131.059.051-.999Zm1.377-26.589.052-.998-1.16-.06.113 1.155.995-.097Zm6.295.326.984.181.205-1.12-1.137-.059-.052.998Zm-1.247 16.053-.993-.116-.001.008.994.108Zm-.24 2.167-.993-.118 1.94.439-.947-.321Zm1.686-4.719.922.387.002-.005-.924-.382Zm3.553-8.596.924.382.001-.002-.925-.38Zm1.566-3.628 5.56.288.103-1.998-5.56-.287-.103 1.997Zm4.616-.621c.112 1.238.43 2.525 1.167 4.997l1.916-.572c-.737-2.475-.999-3.589-1.091-4.605l-1.992.18Zm1.164 4.988 2.5 8.653 1.922-.555-2.5-8.653-1.922.555Zm2.472 8.521c.012.081.044.208.061.279.026.103.06.239.101.395.08.313.187.717.294 1.122.21.791.44 1.645.491 1.805l1.907-.605-.004-.013-.012-.04a204.529 204.529 0 0 1-.74-2.769l-.096-.376c-.031-.127-.029-.13-.023-.088l-1.979.29Zm.93 3.541c.292 1.168.297 1.188.441 1.669l1.916-.574c-.129-.431-.124-.41-.417-1.58l-1.94.485Zm2.398 1.339c-.086-1.995-.078-4.591.008-6.25l-1.998-.103c-.089 1.729-.097 4.388-.008 6.439l1.998-.086Zm.008-6.25.359-6.934-1.998-.104-.359 6.935 1.998.103Zm.359-6.934c.114-2.221.126-3.686-.002-5.109l-1.992.18c.116 1.282.11 2.636-.004 4.825l1.998.104Zm-1.05-4.02 6.296.326.103-1.997-6.296-.326-.103 1.997Zm5.364-.856c-.278 1.49-.414 2.878-.528 5.072l1.998.103c.111-2.152.242-3.442.496-4.808l-1.966-.367Zm-.528 5.072-.861 16.649 1.997.104.862-16.65-1.998-.103Zm-.861 16.649c-.101 1.949-.094 3.687-.002 5.115l1.996-.128c-.086-1.337-.095-2.997.003-4.883l-1.997-.104Zm1.048 4.052-8.437-.437-.104 1.998 8.437.436.104-1.997Zm-7.495.453c-.16-1.458-.377-2.553-1.015-4.74l-1.92.56c.614 2.107.803 3.085.947 4.398l1.988-.218Zm-1.015-4.739-4.08-14.022-1.921.559 4.081 14.022 1.92-.559Zm-5.968-14.118-5.474 13.527 1.854.751 5.474-13.527-1.854-.751Zm-5.475 13.529c-.859 2.137-1.192 3.21-1.469 4.626l1.962.385c.245-1.249.53-2.195 1.363-4.264l-1.856-.747Zm-.436 3.82-8.469-.439-.103 1.998 8.468.438.104-1.997Zm-7.536.735c.281-1.578.416-2.93.528-5.096l-1.997-.103c-.11 2.116-.239 3.379-.5 4.849l1.969.35Zm.528-5.096.862-16.649-1.998-.104-.861 16.65 1.997.103Zm.862-16.649c.126-2.443.13-3.752-.003-5.116l-1.99.194c.118 1.213.12 2.404-.005 4.818l1.998.104Zm-1.05-4.02 6.296.326.103-1.997-6.295-.326-.104 1.997Zm5.364-.853c-.279 1.518-.409 2.776-.527 5.069l1.997.103c.116-2.245.24-3.409.497-4.811l-1.967-.361Zm-.527 5.069-.361 6.966 1.997.104.361-6.967-1.997-.103Zm-.361 6.966c-.038.738-.256 3.106-.369 4.082l1.986.232c.117-.999.339-3.414.38-4.21l-1.997-.104Zm-.37 4.09c-.184 1.69-.183 1.685-.239 2.157l1.986.236c.057-.484.058-.489.241-2.177l-1.988-.216Zm1.701 2.596c.837-2.473 1.203-3.565 1.66-4.653l-1.843-.775c-.492 1.17-.885 2.346-1.712 4.786l1.895.642Zm1.663-4.658 3.553-8.596-1.848-.764-3.553 8.596 1.848.764Zm3.554-8.598c.916-2.226 1.437-3.687 1.671-4.801l-1.957-.411c-.192.915-.647 2.223-1.564 4.451l1.85.761Z" mask="url(#s)"/><mask id="t" width="30.676" height="35.359" x="141.683" y="370.755" fill="#000" maskUnits="userSpaceOnUse"><path fill="#fff" d="M141.683 370.755h30.676v35.359h-30.676z"/><path d="m149.674 378.501 1.726-5.73c1.271.55 2.356.944 4.991 1.738l9.651 2.907c2.329.702 3.196.929 4.532 1.265-.553 1.17-.956 2.286-1.593 4.4l-5.04 16.729c-.572 1.9-.834 2.991-1.102 4.547-1.238-.439-2.087-.728-4.476-1.448l-9.775-2.945c-2.083-.628-3.143-.88-4.63-1.161l1.726-5.729c1.364.577 2.448.971 4.501 1.589l7.967 2.4 1.356-4.504-6.618-1.994c-2.022-.609-2.767-.8-4.66-1.17l1.707-5.668c1.394.587 2.417.962 4.532 1.599l6.618 1.994 1.551-5.148-7.906-2.381c-2.328-.702-3.695-1.046-5.058-1.29Z"/></mask><path fill="#000" d="m149.674 378.501 1.726-5.73c1.271.55 2.356.944 4.991 1.738l9.651 2.907c2.329.702 3.196.929 4.532 1.265-.553 1.17-.956 2.286-1.593 4.4l-5.04 16.729c-.572 1.9-.834 2.991-1.102 4.547-1.238-.439-2.087-.728-4.476-1.448l-9.775-2.945c-2.083-.628-3.143-.88-4.63-1.161l1.726-5.729c1.364.577 2.448.971 4.501 1.589l7.967 2.4 1.356-4.504-6.618-1.994c-2.022-.609-2.767-.8-4.66-1.17l1.707-5.668c1.394.587 2.417.962 4.532 1.599l6.618 1.994 1.551-5.148-7.906-2.381c-2.328-.702-3.695-1.046-5.058-1.29Z"/><path fill="#fff" d="m149.674 378.501-.958-.289-.324 1.076 1.106.197.176-.984Zm1.726-5.73.397-.918-1.031-.446-.324 1.076.958.288Zm19.174 5.91.904.427.52-1.1-1.18-.297-.244.97Zm-7.735 25.676-.335.943 1.119.397.201-1.17-.985-.17Zm-18.881-5.554-.957-.288-.321 1.065 1.093.206.185-.983Zm1.726-5.729.391-.921-1.026-.435-.322 1.067.957.289Zm12.468 3.989-.289.958.958.288.288-.957-.957-.289Zm1.356-4.504.958.289.288-.958-.957-.288-.289.957Zm-11.278-3.164-.958-.288-.319 1.058 1.085.212.192-.982Zm1.707-5.668.388-.922-1.024-.431-.321 1.065.957.288Zm11.15 3.593-.289.957.958.289.288-.958-.957-.288Zm1.551-5.148.957.289.288-.958-.957-.288-.288.957Zm-12.007-3.383 1.726-5.729-1.915-.577-1.726 5.729 1.915.577Zm.371-5.1c1.322.572 2.447.978 5.1 1.777l.577-1.915c-2.617-.788-3.661-1.169-4.882-1.698l-.795 1.836Zm5.1 1.777 9.652 2.908.577-1.915-9.652-2.908-.577 1.915Zm9.652 2.908c2.343.706 3.225.937 4.576 1.277l.488-1.94c-1.321-.331-2.173-.555-4.487-1.252l-.577 1.915Zm3.916-.12c-.584 1.236-1.004 2.405-1.646 4.538l1.915.577c.631-2.095 1.017-3.156 1.539-4.261l-1.808-.854Zm-1.646 4.538-5.04 16.73 1.915.577 5.04-16.73-1.915-.577Zm-5.04 16.73c-.582 1.931-.854 3.061-1.131 4.665l1.971.34c.261-1.509.512-2.56 1.075-4.428l-1.915-.577Zm.19 3.893c-1.255-.446-2.12-.74-4.523-1.464l-.577 1.915c2.376.716 3.209 1 4.43 1.434l.67-1.885Zm-4.523-1.464-9.774-2.944-.577 1.915 9.774 2.944.577-1.915Zm-9.774-2.944c-2.112-.637-3.207-.898-4.733-1.186l-.371 1.965c1.447.273 2.472.517 4.527 1.136l.577-1.915Zm-3.961.085 1.726-5.73-1.915-.577-1.726 5.73 1.915.577Zm.378-5.098c1.403.595 2.523 1 4.603 1.627l.577-1.915c-2.026-.61-3.076-.992-4.399-1.553l-.781 1.841Zm4.603 1.627 7.966 2.4.577-1.915-7.966-2.4-.577 1.915Zm9.212 1.731 1.357-4.504-1.915-.577-1.357 4.504 1.915.577Zm.688-5.75-6.618-1.994-.577 1.915 6.618 1.994.577-1.915Zm-6.618-1.994c-2.049-.617-2.826-.817-4.758-1.194l-.383 1.963c1.856.362 2.568.545 4.564 1.146l.577-1.915Zm-3.992.076 1.708-5.669-1.915-.576-1.708 5.668 1.915.577Zm.362-5.035c1.431.602 2.489.989 4.631 1.635l.577-1.915c-2.086-.629-3.075-.992-4.432-1.564l-.776 1.844Zm4.631 1.635 6.618 1.993.577-1.915-6.618-1.993-.577 1.915Zm7.864 1.324 1.551-5.147-1.915-.577-1.551 5.147 1.915.577Zm.882-6.393-7.905-2.382-.577 1.915 7.905 2.382.577-1.915Zm-7.905-2.382c-2.345-.706-3.753-1.063-5.172-1.317l-.351 1.969c1.309.234 2.634.567 4.946 1.263l.577-1.915Z" mask="url(#t)"/><mask id="u" width="39.874" height="40.931" x="97.45" y="351.462" fill="#000" maskUnits="userSpaceOnUse"><path fill="#fff" d="M97.45 351.462h39.874v40.931H97.45z"/><path d="m104.289 370.004 6.327 2.25c-.941 2.789-.213 4.891 2.157 6.291 3.361 1.985 6.88.495 9.565-4.051 2.652-4.491 2.224-8.423-1.192-10.441-1.516-.895-3.185-1.026-4.635-.396-.859.385-1.394.849-2.226 1.881l-5.227-4.239c1.907-2.033 3.311-3.025 5.265-3.691 2.864-.948 6.155-.416 9.489 1.553 3.361 1.985 5.581 4.709 6.366 7.848.818 3.27.071 7.178-2.109 10.87-2.213 3.747-5.242 6.232-8.688 7.096-2.992.723-6.377.099-9.6-1.805-3.555-2.099-5.622-4.955-5.997-8.41-.214-1.651-.081-2.947.505-4.756Z"/></mask><path fill="#000" d="m104.289 370.004 6.327 2.25c-.941 2.789-.213 4.891 2.157 6.291 3.361 1.985 6.88.495 9.565-4.051 2.652-4.491 2.224-8.423-1.192-10.441-1.516-.895-3.185-1.026-4.635-.396-.859.385-1.394.849-2.226 1.881l-5.227-4.239c1.907-2.033 3.311-3.025 5.265-3.691 2.864-.948 6.155-.416 9.489 1.553 3.361 1.985 5.581 4.709 6.366 7.848.818 3.27.071 7.178-2.109 10.87-2.213 3.747-5.242 6.232-8.688 7.096-2.992.723-6.377.099-9.6-1.805-3.555-2.099-5.622-4.955-5.997-8.41-.214-1.651-.081-2.947.505-4.756Z"/><path fill="#fff" d="m104.289 370.004.335-.943-.969-.344-.317.979.951.308Zm6.327 2.25.948.319.314-.932-.927-.329-.335.942Zm5.895-8.597-.399-.917-.01.004.409.913Zm-2.226 1.881-.63.777.779.632.629-.781-.778-.628Zm-5.227-4.239-.729-.684-.735.784.834.677.63-.777Zm5.265-3.691-.314-.95-.009.003.323.947Zm15.855 9.401-.971.242.001.001.97-.243Zm-10.797 17.966.235.972.008-.002-.243-.97Zm-15.597-10.215.994-.108-.001-.011-.001-.01-.992.129Zm.17-3.814 6.327 2.25.67-1.884-6.327-2.251-.67 1.885Zm5.715.988c-.519 1.537-.614 2.995-.162 4.311.455 1.325 1.419 2.37 2.757 3.161l1.017-1.722c-1.031-.61-1.617-1.315-1.882-2.089-.269-.782-.258-1.769.165-3.022l-1.895-.639Zm2.595 7.472c1.935 1.142 3.988 1.308 5.935.483 1.901-.805 3.594-2.506 5-4.886l-1.722-1.018c-1.28 2.166-2.689 3.483-4.058 4.063-1.324.56-2.711.478-4.138-.364l-1.017 1.722Zm10.935-4.403c1.395-2.363 2.047-4.687 1.812-6.769-.239-2.124-1.392-3.882-3.357-5.042l-1.017 1.722c1.452.857 2.221 2.075 2.387 3.544.17 1.512-.29 3.398-1.547 5.527l1.722 1.018Zm-1.545-11.811c-1.763-1.041-3.769-1.223-5.542-.452l.798 1.834c1.127-.49 2.459-.409 3.727.34l1.017-1.722Zm-5.552-.448c-1.056.474-1.709 1.068-2.595 2.166l1.556 1.256c.779-.965 1.196-1.3 1.857-1.596l-.818-1.826Zm-1.187 2.018-5.227-4.239-1.26 1.553 5.227 4.239 1.26-1.553Zm-5.127-2.779c1.834-1.955 3.105-2.831 4.858-3.429l-.646-1.893c-2.156.736-3.692 1.844-5.671 3.954l1.459 1.368Zm4.849-3.426c2.519-.833 5.508-.4 8.666 1.465l1.018-1.722c-3.51-2.073-7.103-2.703-10.312-1.642l.628 1.899Zm8.666 1.465c3.185 1.881 5.198 4.404 5.904 7.229l1.941-.485c-.863-3.453-3.289-6.376-6.827-8.466l-1.018 1.722Zm5.905 7.23c.739 2.954.083 6.591-2 10.118l1.722 1.017c2.278-3.857 3.115-8.034 2.218-11.621l-1.94.486Zm-2 10.118c-2.112 3.575-4.942 5.851-8.07 6.635l.486 1.94c3.764-.943 6.991-3.638 9.306-7.558l-1.722-1.017Zm-8.062 6.633c-2.69.65-5.809.106-8.857-1.694l-1.017 1.722c3.4 2.008 7.05 2.712 10.344 1.916l-.47-1.944Zm-8.857-1.694c-3.348-1.978-5.177-4.584-5.511-7.657l-1.988.216c.417 3.836 2.721 6.942 6.482 9.163l1.017-1.722Zm-5.513-7.678c-.193-1.486-.081-2.633.465-4.32l-1.903-.615c-.626 1.932-.781 3.378-.545 5.193l1.983-.258Z" mask="url(#u)"/><mask id="v" width="43.853" height="43.822" x="61.082" y="323.489" fill="#000" maskUnits="userSpaceOnUse"><path fill="#fff" d="M61.082 323.489h43.853v43.822H61.082z"/><path d="m82.415 326.421 5.352 5.236c-.89 1.277-1.335 2.006-1.867 3.008l-1.285 2.549 6.52 6.377 2.52-1.34a18.465 18.465 0 0 0 2.988-1.911l5.353 5.236c-1.014.35-1.757.698-3.828 1.716l-18.412 8.938c-1.508.718-2.385 1.203-3.148 1.755l-5.97-5.841c.488-.82.91-1.571 1.638-3.231l8.507-18.627c.751-1.637 1.302-2.933 1.632-3.865Zm-.438 15.732-4.54 8.989 8.84-4.782-4.3-4.207Z"/></mask><path fill="#000" d="m82.415 326.421 5.352 5.236c-.89 1.277-1.335 2.006-1.867 3.008l-1.285 2.549 6.52 6.377 2.52-1.34a18.465 18.465 0 0 0 2.988-1.911l5.353 5.236c-1.014.35-1.757.698-3.828 1.716l-18.412 8.938c-1.508.718-2.385 1.203-3.148 1.755l-5.97-5.841c.488-.82.91-1.571 1.638-3.231l8.507-18.627c.751-1.637 1.302-2.933 1.632-3.865Zm-.438 15.732-4.54 8.989 8.84-4.782-4.3-4.207Z"/><path fill="#fff" d="m82.415 326.421.699-.715-1.12-1.095-.522 1.477.943.333Zm5.352 5.236.82.573.485-.695-.605-.592-.7.714Zm-1.867 3.008-.883-.469-.005.009-.005.01.893.45Zm-1.285 2.549-.892-.45-.33.653.523.511.7-.714Zm6.52 6.377-.7.715.524.511.646-.343-.47-.883Zm2.52-1.34-.464-.886-.006.003.47.883Zm2.988-1.911.7-.715-.625-.611-.69.537.615.789Zm5.353 5.236.327.945 1.529-.529-1.157-1.131-.699.715Zm-3.828 1.716.437.9.004-.002-.44-.898Zm-18.412 8.938.43.903.007-.003-.437-.9Zm-3.148 1.755-.7.714.602.589.683-.493-.585-.81Zm-5.97-5.841-.86-.512-.403.677.563.55.7-.715Zm1.638-3.231-.91-.416-.003.007-.003.007.916.402Zm8.507-18.627-.91-.417v.002l.91.415Zm1.194 11.867.7-.715-.977-.955-.615 1.219.892.451Zm-4.54 8.989-.892-.451-1.44 2.848 2.808-1.518-.476-.879Zm8.84-4.782.476.879 1.194-.645-.97-.949-.7.715Zm-4.562-19.224 5.353 5.236 1.399-1.429-5.353-5.237-1.399 1.43Zm5.232 3.949c-.91 1.304-1.376 2.068-1.93 3.111l1.766.938c.51-.96.932-1.654 1.805-2.904l-1.64-1.145Zm-1.94 3.13-1.285 2.549 1.787.9 1.284-2.549-1.786-.9Zm-1.09 3.713 6.519 6.378 1.398-1.43-6.52-6.377-1.398 1.429Zm7.688 6.546 2.52-1.34-.94-1.766-2.52 1.34.94 1.766Zm2.513-1.337a19.465 19.465 0 0 0 3.14-2.009l-1.23-1.577a17.476 17.476 0 0 1-2.837 1.814l.927 1.772Zm1.826-2.083 5.353 5.237 1.398-1.43-5.352-5.236-1.4 1.429Zm5.725 3.577c-1.081.373-1.878.749-3.942 1.764l.882 1.795c2.077-1.022 2.767-1.342 3.714-1.669l-.654-1.89Zm-3.938 1.762L79.32 355.33l.873 1.8 18.412-8.938-.874-1.799Zm-18.405 8.934c-1.524.726-2.466 1.242-3.304 1.847l1.171 1.621c.69-.498 1.501-.952 2.993-1.662l-.86-1.806Zm-2.02 1.943-5.97-5.841-1.398 1.43 5.97 5.84 1.399-1.429Zm-5.81-4.614c.509-.853.95-1.641 1.696-3.341l-1.832-.804c-.71 1.62-1.113 2.334-1.582 3.121l1.718 1.024Zm1.69-3.328 8.506-18.626-1.819-.831-8.507 18.626 1.82.831Zm8.506-18.625c.754-1.643 1.32-2.973 1.666-3.949l-1.886-.666c-.314.887-.85 2.149-1.598 3.781l1.818.834Zm-.607 10.999-4.54 8.989 1.785.901 4.54-8.988-1.785-.902Zm-3.172 10.319 8.84-4.782-.951-1.759-8.84 4.782.951 1.759Zm9.064-6.376-4.3-4.207-1.4 1.43 4.301 4.207 1.399-1.43Z" mask="url(#v)"/><mask id="w" width="39.728" height="38.762" x="34.947" y="291.14" fill="#000" maskUnits="userSpaceOnUse"><path fill="#fff" d="M34.947 291.14h39.728v38.762H34.947z"/><path d="m59.924 293.82 3.95 6.362c-.77.703-1.682 1.722-3.415 3.965-1.825 2.338-2.248 3.053-2.424 4.104-.162.891.042 1.706.582 2.576l1.721 2.773 4.46-2.767c1.848-1.148 2.82-1.827 3.97-2.766l3.628 5.845c-1.352.613-2.201 1.065-4.213 2.314l-14.627 9.08c-1.686 1.046-2.658 1.725-3.862 2.698a94.096 94.096 0 0 0-2.433-4.102l-4.388-7.068c-2.734-4.405-2.036-8.378 1.879-10.808 1.93-1.199 3.79-1.6 5.454-1.164 1.047.292 1.7.677 2.963 1.739-.426-1.657-.189-2.67 1.202-4.738.616-.948 1.304-1.903 3.481-4.949.576-.771 1.053-1.52 2.072-3.094Zm-4.235 22.666-2.633-4.241c-.995-1.604-2.582-1.975-4.131-1.013-1.523.945-1.771 2.304-.725 3.99l2.65 4.268 4.84-3.004Z"/></mask><path fill="#000" d="m59.924 293.82 3.95 6.362c-.77.703-1.682 1.722-3.415 3.965-1.825 2.338-2.248 3.053-2.424 4.104-.162.891.042 1.706.582 2.576l1.721 2.773 4.46-2.767c1.848-1.148 2.82-1.827 3.97-2.766l3.628 5.845c-1.352.613-2.201 1.065-4.213 2.314l-14.627 9.08c-1.686 1.046-2.658 1.725-3.862 2.698a94.096 94.096 0 0 0-2.433-4.102l-4.388-7.068c-2.734-4.405-2.036-8.378 1.879-10.808 1.93-1.199 3.79-1.6 5.454-1.164 1.047.292 1.7.677 2.963 1.739-.426-1.657-.189-2.67 1.202-4.738.616-.948 1.304-1.903 3.481-4.949.576-.771 1.053-1.52 2.072-3.094Zm-4.235 22.666-2.633-4.241c-.995-1.604-2.582-1.975-4.131-1.013-1.523.945-1.771 2.304-.725 3.99l2.65 4.268 4.84-3.004Z"/><path fill="#fff" d="m59.924 293.82.85-.527-.832-1.34-.857 1.324.84.543Zm3.95 6.362.674.738.613-.56-.438-.705-.85.527Zm-3.415 3.965.788.615.003-.003-.791-.612Zm-2.424 4.104.984.179.002-.014-.986-.165Zm2.303 5.349-.85.528.528.849.85-.527-.528-.85Zm8.43-5.533.85-.528-.602-.967-.881.72.632.775Zm3.628 5.845.413.911 1.037-.471-.6-.967-.85.527Zm-22.702 14.092-.873.488.58 1.035.922-.745-.629-.778Zm.512-23.142.268-.963-.007-.002-.008-.002-.253.967Zm2.963 1.739-.644.765 2.39 2.012-.778-3.026-.968.249Zm1.202-4.738.83.558.004-.007.004-.006-.839-.545Zm3.481-4.949-.801-.598-.006.008-.006.009.813.581Zm-2.163 19.572.528.85.85-.528-.528-.849-.85.527Zm-4.84 3.004-.849.528.528.849.85-.527-.528-.85Zm8.226-25.142 3.949 6.362 1.699-1.055-3.95-6.362-1.699 1.055Zm4.123 5.096c-.834.764-1.79 1.838-3.53 4.092l1.582 1.223c1.726-2.234 2.596-3.196 3.298-3.839l-1.35-1.476Zm-3.527 4.088c-1.804 2.31-2.398 3.215-2.623 4.553l1.973.331c.128-.763.379-1.287 2.226-3.654l-1.576-1.23Zm-2.62 4.54c-.217 1.189.077 2.253.716 3.283l1.7-1.055c-.442-.711-.557-1.276-.448-1.87l-1.968-.358Zm.716 3.283 1.722 2.773 1.699-1.055-1.721-2.773-1.7 1.055Zm3.099 3.095 4.459-2.768-1.055-1.699-4.459 2.768 1.055 1.699Zm4.459-2.768c1.87-1.161 2.882-1.865 4.075-2.841l-1.265-1.549c-1.105.903-2.039 1.557-3.865 2.691l1.055 1.699Zm2.593-3.088 3.628 5.845 1.7-1.054-3.629-5.846-1.7 1.055Zm4.065 4.407c-1.402.636-2.29 1.111-4.328 2.375l1.055 1.7c1.987-1.234 2.797-1.663 4.1-2.253l-.827-1.822Zm-4.328 2.375-14.627 9.08 1.055 1.699 14.627-9.079-1.055-1.7Zm-14.627 9.08c-1.711 1.062-2.719 1.765-3.962 2.77l1.257 1.556c1.164-.941 2.1-1.596 3.76-2.627l-1.055-1.699Zm-2.461 3.06a94.708 94.708 0 0 0-2.456-4.141l-1.7 1.055a93.133 93.133 0 0 1 2.41 4.062l1.746-.976Zm-2.456-4.141-4.388-7.069-1.7 1.055 4.388 7.069 1.7-1.055Zm-4.388-7.069c-1.281-2.063-1.687-3.909-1.419-5.445.264-1.514 1.21-2.89 2.975-3.986l-1.055-1.699c-2.15 1.335-3.51 3.161-3.89 5.342-.377 2.159.236 4.502 1.69 6.843l1.699-1.055Zm1.556-9.431c1.778-1.103 3.355-1.391 4.674-1.046l.506-1.934c-2.009-.527-4.152-.012-6.235 1.281l1.055 1.699Zm4.659-1.05c.855.239 1.382.527 2.587 1.541l1.288-1.53c-1.32-1.11-2.1-1.593-3.339-1.937l-.536 1.926Zm4.2.527c-.187-.726-.206-1.216-.08-1.723.137-.546.464-1.199 1.142-2.208l-1.66-1.116c-.71 1.058-1.198 1.946-1.422 2.838-.232.931-.157 1.776.082 2.707l1.937-.498Zm1.07-3.944c.602-.924 1.272-1.854 3.458-4.912l-1.627-1.163c-2.168 3.033-2.875 4.013-3.507 4.984l1.677 1.091Zm3.446-4.896c.6-.805 1.1-1.588 2.11-3.148l-1.68-1.087c-1.028 1.588-1.483 2.301-2.033 3.039l1.603 1.196Zm-2.115 18.447-2.633-4.241-1.7 1.054 2.634 4.242 1.699-1.055Zm-2.633-4.241c-.606-.976-1.451-1.667-2.472-1.914-1.024-.248-2.08-.016-3.037.578l1.055 1.699c.593-.368 1.105-.431 1.511-.333.408.099.854.396 1.244 1.024l1.7-1.054Zm-5.509-1.336c-.923.573-1.595 1.362-1.782 2.388-.182 1.002.14 2.019.736 2.979l1.699-1.055c-.45-.725-.528-1.231-.467-1.566.057-.311.27-.675.87-1.047l-1.056-1.699Zm-1.046 5.367 2.65 4.269 1.699-1.055-2.65-4.269-1.7 1.055Zm4.026 4.591 4.84-3.004-1.055-1.699-4.84 3.004 1.055 1.699Z" mask="url(#w)"/><mask id="x" width="36.883" height="34.959" x="18.407" y="254.667" fill="#000" maskUnits="userSpaceOnUse"><path fill="#fff" d="M18.407 254.667H55.29v34.959H18.407z"/><path d="m48.545 280.374-16.583 5.398c-2.07.673-3.054 1.061-4.384 1.729-.335-1.237-.553-2.007-1.375-4.533l-2.07-6.36c-1.218-3.742-1.163-7.092.15-9.774 1.469-2.934 4.297-5.1 8.344-6.417 4.17-1.357 7.913-1.229 10.978.331 2.672 1.385 4.647 3.939 5.826 7.56l2.09 6.42c.762 2.343 1.07 3.185 1.546 4.444-1.398.253-2.422.519-4.522 1.202Zm-2.934-5.708-1.327-4.077c-.644-1.978-1.617-3.21-3.069-3.949-1.684-.831-3.94-.837-6.466-.015-2.587.842-4.285 2.034-5.085 3.607-.719 1.411-.73 3.031-.017 5.221l1.297 3.987 14.667-4.774Z"/></mask><path fill="#000" d="m48.545 280.374-16.583 5.398c-2.07.673-3.054 1.061-4.384 1.729-.335-1.237-.553-2.007-1.375-4.533l-2.07-6.36c-1.218-3.742-1.163-7.092.15-9.774 1.469-2.934 4.297-5.1 8.344-6.417 4.17-1.357 7.913-1.229 10.978.331 2.672 1.385 4.647 3.939 5.826 7.56l2.09 6.42c.762 2.343 1.07 3.185 1.546 4.444-1.398.253-2.422.519-4.522 1.202Zm-2.934-5.708-1.327-4.077c-.644-1.978-1.617-3.21-3.069-3.949-1.684-.831-3.94-.837-6.466-.015-2.587.842-4.285 2.034-5.085 3.607-.719 1.411-.73 3.031-.017 5.221l1.297 3.987 14.667-4.774Z"/><path fill="#fff" d="m27.578 287.501-.965.262.32 1.181 1.094-.549-.45-.894Zm-3.294-20.667-.894-.447-.004.007.898.44Zm19.32-6.086.461-.888-.007-.004-.453.892Zm9.463 18.424.178.984 1.183-.215-.426-1.124-.935.355Zm-7.456-4.506.31.951.95-.309-.31-.951-.95.309Zm-4.396-8.026.454-.891-.011-.005-.443.896Zm-10.27 12.8-.952.309.31.951.95-.309-.309-.951Zm17.291-.017-16.584 5.398.62 1.901 16.583-5.397-.619-1.902Zm-16.584 5.398c-2.097.682-3.132 1.088-4.523 1.787l.898 1.787c1.27-.638 2.203-1.008 4.244-1.673l-.619-1.901Zm-3.11 2.419c-.34-1.256-.561-2.042-1.388-4.581l-1.902.619c.818 2.512 1.03 3.266 1.36 4.485l1.93-.523Zm-1.388-4.581-2.07-6.36-1.901.619 2.07 6.36 1.901-.619Zm-2.07-6.36c-1.163-3.576-1.07-6.642.098-9.025l-1.796-.88c-1.461 2.982-1.476 6.614-.203 10.524l1.901-.619Zm.094-9.018c1.315-2.627 3.885-4.652 7.759-5.913l-.619-1.902c-4.22 1.373-7.307 3.68-8.928 6.921l1.788.894Zm7.759-5.913c3.985-1.297 7.442-1.14 10.214.271l.907-1.783c-3.358-1.709-7.387-1.807-11.74-.39l.619 1.902Zm10.208.267c2.382 1.236 4.215 3.544 5.335 6.982l1.902-.619c-1.238-3.803-3.356-6.603-6.317-8.138l-.92 1.775Zm5.335 6.982 2.09 6.421 1.901-.619-2.09-6.421-1.901.619Zm2.09 6.421c.766 2.357 1.08 3.214 1.562 4.488l1.87-.709c-.47-1.242-.773-2.069-1.53-4.398l-1.903.619Zm2.32 3.15c-1.458.264-2.528.543-4.654 1.235l.619 1.902c2.073-.675 3.051-.927 4.39-1.169l-.356-1.968Zm-6.328-3.831-1.327-4.078-1.902.619 1.327 4.078 1.902-.619Zm-1.327-4.078c-.705-2.165-1.823-3.643-3.566-4.53l-.907 1.783c1.16.591 1.988 1.576 2.57 3.366l1.903-.619Zm-3.577-4.535c-2-.988-4.548-.939-7.218-.07l.618 1.902c2.381-.775 4.346-.714 5.715-.039l.885-1.793Zm-7.218-.07c-2.7.878-4.694 2.19-5.668 4.104l1.783.907c.627-1.232 2.03-2.304 4.503-3.109l-.618-1.902Zm-5.668 4.104c-.882 1.735-.835 3.652-.076 5.985l1.902-.619c-.667-2.049-.597-3.37-.043-4.459l-1.783-.907Zm-.076 5.985 1.297 3.986 1.902-.619-1.297-3.986-1.902.619Zm2.558 4.628 14.666-4.774-.619-1.902-14.666 4.774.619 1.902Z" mask="url(#x)"/><rect width="303" height="292" x="309.063" y="393.86" fill="#000" stroke="#000" rx="146" transform="rotate(-165 309.063 393.86)"/><rect width="305" height="303" x="318.668" y="388.435" fill="#FB7AC0" stroke="#fff" stroke-width="3" rx="151.5" transform="rotate(-165 318.668 388.435)"/></svg>