<svg xmlns="http://www.w3.org/2000/svg" width="375" height="73" fill="none"><g clip-path="url(#a)"><path fill="#fff" d="M0 0h375v812H0z"/><path fill="#F2CF4B" d="M0 0h375v812H0z"/><path fill="#FB7AC0" d="M-3-3h31.5v31.5H-3zM60-3h31.5v31.5H60zM28.5 28.5H60V60H28.5zM91.5 28.5H123V60H91.5zM186-3h31.5v31.5H186zM123-3h31.5v31.5H123zM154.5 28.5H186V60h-31.5zM375 60h-31.5V28.5H375zM312 60h-31.5V28.5H312zM249 60h-31.5V28.5H249zM343.5 28.5H312V-3h31.5zM280.5 28.5H249V-3h31.5z"/><path fill="#FB7AC0" d="M217.5 28.5H186V-3h31.5z"/><rect width="88.066" height="44.966" x="172.279" y="17.293" fill="#F2CF4B" stroke="#000" stroke-linejoin="round" rx="1" transform="rotate(-10 172.279 17.293)"/><rect width="88.066" height="44.966" x="175.916" y="19.717" fill="#FB7AC0" stroke="#000" stroke-linejoin="round" rx="1" transform="rotate(-10 175.916 19.717)"/><path fill="#000" d="M113.648 59.316v-7.164c-2.088 1.044-3.24 1.512-5.76 2.484-1.044-2.268-1.692-3.312-3.204-5.076 4.104-.972 7.272-2.232 11.7-4.716-1.152-1.296-2.232-2.304-3.852-3.636-1.332.936-2.268 1.512-4.14 2.52-1.116-1.872-1.908-2.88-3.384-4.248 3.06-1.404 5.4-2.88 7.992-5.04 1.98-1.656 3.564-3.564 4.644-5.58l6.084 1.188c-.756 1.044-1.008 1.404-1.476 1.98h6.912c1.296 0 2.088-.036 2.952-.18l2.988 2.988c-.504.612-.504.612-1.404 1.764-2.448 3.024-6.156 6.588-9.72 9.252h9.792c1.656 0 2.556-.036 3.42-.108-.144 1.008-.18 2.088-.18 3.708v9.864c0 1.764.072 2.844.216 3.924h-5.652v-1.872h-12.492v1.872h-5.652c.144-1.152.216-2.268.216-3.924Zm12.456-22.32h-8.424c-.576.54-.684.648-1.188 1.08 2.556 2.016 2.556 2.016 4.356 3.78 2.268-1.764 3.42-2.808 5.256-4.86Zm-7.056 13.824v5.76h12.564v-5.76h-12.564Zm41.328.72h-10.584c-.9 5.328-1.944 8.1-4.536 11.952-1.332-1.872-2.592-3.204-4.464-4.788 1.872-2.412 2.988-5.076 3.528-8.568.288-1.62.504-4.464.576-6.768.036-.324.108-8.352.108-9.072 0-1.152-.144-3.6-.252-4.464h6.084c-.144 1.116-.18 1.836-.216 3.564 0 1.944 0 2.592-.036 3.708h8.028V34.08c0-2.268-.036-3.204-.216-4.536h6.012c-.18 1.296-.216 2.196-.216 4.536v3.024h5.112c2.124 0 3.78-.072 4.896-.216v5.544c-1.332-.144-2.808-.216-4.896-.216h-18.828c0 .684-.036 1.26-.036 1.584-.036 1.548-.036 1.584-.072 2.628h12.096c1.62 0 2.7-.036 3.816-.144-.144 1.08-.18 2.16-.18 3.816v8.28c0 2.484.036 3.528.216 4.968h-6.156c.18-1.332.216-2.484.216-4.968v-6.84Zm38.268 7.128v2.736c-3.816.72-5.256.936-9.756 1.512l-3.924.504c-.612.072-.72.108-1.476.18l-.612-4.392c-1.404.684-1.908.936-3.564 1.656-.864-2.016-1.476-3.132-2.52-4.536 3.564-.756 6.444-1.872 8.784-3.456H181.4c-2.412 0-2.412 0-3.96.144v-4.752c1.008.108 1.692.144 4.176.144h10.98V47.256h-1.26c-.108-.828-.36-1.8-.648-2.34.72.108.828.108 1.08.108.36 0 .504-.144.504-.504v-.72h-2.124v.828c0 1.332.036 1.872.108 2.952h-5.076c.108-1.224.108-1.368.108-2.916V43.8h-1.8v1.656c0 1.116 0 1.332.072 1.8h-4.896c0-.288 0-.288.072-.828 0-.18.036-.972.036-1.26v-2.664c0-.252 0-.828-.036-1.044-.036-.576-.036-.576-.036-.828.324.036 1.008.036 2.016.072h4.572v-1.008h-4.392c-1.512 0-2.484.036-3.6.144v-3.924c.792.108 1.332.144 2.808.144-.936-.648-2.052-1.26-3.24-1.836 1.44-1.692 2.052-2.772 2.808-5.076l4.644.792c-.252.648-.324.828-.54 1.404h1.512c0-.792-.036-1.152-.144-2.016h5.148c-.108.648-.144 1.116-.144 2.016h2.808c1.8 0 2.628-.036 3.564-.144v3.924c-1.26-.072-1.836-.108-3.528-.108h-2.844v1.044h2.844c2.376 0 3.06-.036 3.924-.144v3.924c-1.044-.108-2.124-.144-3.636-.144h-3.132v1.008h3.6c1.188 0 1.404 0 2.772-.072V44.484c0 .54-.072.972-.252 1.404h1.764c-.108.792-.108 1.044-.108 1.908v.612h8.244c2.304 0 3.456-.036 4.284-.144v4.752c-.18 0-.288-.036-.396-.036-.9-.108-1.476-.108-3.6-.108h-1.332l3.708 1.8c-.36.288-.36.288-1.368 1.116-.324.252-1.044.756-1.872 1.296 2.124.756 3.384 1.044 5.832 1.368-1.188 1.8-1.8 2.988-2.592 5.112-4.392-1.152-7.416-2.592-10.188-4.896Zm-5.832-4.932v4.176c2.016-.252 2.016-.252 4.284-.648-1.404-1.476-2.232-2.7-2.988-4.392h-.324c-.396.36-.396.36-.972.864Zm10.692-.864h-4.032c.468.684.9 1.152 1.8 1.872.792-.54 1.44-1.08 2.232-1.872Zm-15.948 5.652v-1.98c-1.476 1.008-1.872 1.224-3.852 2.268 1.476-.036 1.944-.072 3.852-.288ZM181.4 36.06h3.888v-1.044h-3.276c-.216.432-.324.576-.612 1.044Zm21.42 5.976h-5.292c.072-.756.108-1.26.108-2.448v-5.472c0-.9-.036-2.052-.144-2.844h5.328c-.108.756-.108 1.152-.108 2.844v5.4c0 1.476 0 1.908.108 2.52Zm6.768-9.144v9.864c0 2.016-.432 3.06-1.584 3.78-.936.612-2.196.828-4.932.828-.432 0-1.296-.036-2.7-.072-.252-1.656-.648-2.844-1.368-4.356 1.512.108 2.628.18 3.492.18 1.656 0 1.908-.144 1.908-1.044v-9.504c0-1.188-.036-2.016-.144-2.988h5.508c-.144.936-.18 1.692-.18 3.312Zm3.348.504 4.14-3.78c2.592 2.196 4.608 4.176 6.3 6.12 1.476-2.016 2.556-4.356 2.808-5.94l5.22.936-.252.756c-.036.072-.288.828-.576 1.548h1.836v-.612c0-1.548-.036-2.196-.18-2.988h5.724c-.144.756-.18 1.404-.18 2.988v.612h3.384c1.98 0 3.132-.072 4.248-.216v5.076c-1.152-.108-2.16-.144-4.032-.144h-3.6v1.836h5.292c1.656 0 2.52-.036 3.348-.144v5.04c-1.116-.144-2.052-.18-3.348-.18H226.22c-1.08 0-1.908.036-2.916.108v-4.968c.936.108 1.44.144 3.024.144-1.188-.936-2.088-1.476-3.852-2.34l-3.096 2.988c-1.836-2.376-4.068-4.716-6.444-6.84Zm14.328 6.192h5.148v-1.836h-3.96a22.998 22.998 0 0 1-1.188 1.836Zm13.968 16.704h-13.5c-1.44 0-1.98 0-2.808.108.072-.864.072-.864.072-6.264v-1.548c-.036-2.376-.036-2.376-.108-3.096.936.072 2.052.108 3.996.108h12.06c1.728 0 2.664-.036 3.672-.108-.072.864-.108 1.476-.108 3.816v3.672c0 2.196 0 2.592.072 3.42-1.008-.108-1.584-.108-3.348-.108Zm-11.124-6.3V51.9h9.108v-1.908h-9.108Zm-16.812-1.908v-5.436c1.044.144 1.584.18 2.988.18h3.492c1.152 0 1.8-.036 2.772-.144-.108 1.116-.144 1.944-.144 4.068v8.46c.684 1.044 1.116 1.404 2.16 1.8 1.404.54 3.348.756 6.624.756 7.056 0 11.952-.216 16.452-.756-.792 2.34-1.008 3.24-1.332 5.688-3.204.108-7.416.18-12.96.18-6.588 0-8.64-.216-10.8-1.188-1.188-.54-1.944-1.08-2.808-2.052-1.404 1.188-2.664 2.16-3.816 2.88-.288.216-.684.468-1.044.756l-2.34-5.832c.396-.144.828-.324 1.116-.504.108-.072.324-.18.684-.396 1.008-.576 1.512-.9 2.736-1.764v-6.876h-1.512c-.684 0-1.44.072-2.268.18Zm61.2-2.412h-2.52c-.72 8.712-2.16 12.384-6.984 17.604-1.332-1.764-2.34-2.808-4.104-4.212 1.872-1.836 2.736-2.952 3.636-4.644 1.152-2.124 1.692-4.5 2.016-8.424.144-1.908.18-3.924.18-10.152 0-1.98-.036-2.628-.144-3.6 3.06-.036 5.724-.36 8.748-1.08 2.232-.54 4.14-1.152 5.112-1.656l2.556 5.22c-.756.18-.936.252-1.872.468-3.384.936-5.58 1.332-9.036 1.728v3.564h7.092c1.872 0 2.556-.036 3.636-.18v5.508c-1.08-.108-1.548-.144-2.952-.144v13.104c0 1.98.036 2.952.216 4.14h-5.796c.18-1.296.216-2.34.216-4.14V45.672Zm-24.588-9.9v-5.328c1.152.144 2.052.18 4.356.18h7.02c2.448 0 3.492-.036 4.428-.18v5.328c-.972-.108-2.16-.144-4.14-.144h-7.668c-1.872 0-2.952.036-3.996.144Zm15.048 5.508v6.336c0 1.98 0 2.16.072 3.204a78.627 78.627 0 0 0-3.816-.072h-4.824c-.216 5.58-1.044 9-3.06 12.636-1.62-1.98-2.664-2.952-4.5-4.284.972-1.836 1.368-2.844 1.728-4.68.504-2.196.72-5.904.72-11.376 0-2.88-.036-3.996-.216-5.616 1.224.072 2.088.108 3.888.108h6.264c1.836 0 2.664-.036 3.852-.108-.072.864-.108 2.268-.108 3.852Zm-8.496 4.824h3.312v-3.96h-3.276v1.764c0 1.224 0 1.26-.036 2.196Z"/><mask id="b" width="183" height="39" x="101" y="25" fill="#000" maskUnits="userSpaceOnUse"><path fill="#fff" d="M101 25h183v39H101z"/><path d="M112.648 57.316v-7.164c-2.088 1.044-3.24 1.512-5.76 2.484-1.044-2.268-1.692-3.312-3.204-5.076 4.104-.972 7.272-2.232 11.7-4.716-1.152-1.296-2.232-2.304-3.852-3.636-1.332.936-2.268 1.512-4.14 2.52-1.116-1.872-1.908-2.88-3.384-4.248 3.06-1.404 5.4-2.88 7.992-5.04 1.98-1.656 3.564-3.564 4.644-5.58l6.084 1.188c-.756 1.044-1.008 1.404-1.476 1.98h6.912c1.296 0 2.088-.036 2.952-.18l2.988 2.988c-.504.612-.504.612-1.404 1.764-2.448 3.024-6.156 6.588-9.72 9.252h9.792c1.656 0 2.556-.036 3.42-.108-.144 1.008-.18 2.088-.18 3.708v9.864c0 1.764.072 2.844.216 3.924h-5.652v-1.872h-12.492v1.872h-5.652c.144-1.152.216-2.268.216-3.924Zm12.456-22.32h-8.424c-.576.54-.684.648-1.188 1.08 2.556 2.016 2.556 2.016 4.356 3.78 2.268-1.764 3.42-2.808 5.256-4.86Zm-7.056 13.824v5.76h12.564v-5.76h-12.564Zm41.328.72h-10.584c-.9 5.328-1.944 8.1-4.536 11.952-1.332-1.872-2.592-3.204-4.464-4.788 1.872-2.412 2.988-5.076 3.528-8.568.288-1.62.504-4.464.576-6.768.036-.324.108-8.352.108-9.072 0-1.152-.144-3.6-.252-4.464h6.084c-.144 1.116-.18 1.836-.216 3.564 0 1.944 0 2.592-.036 3.708h8.028V32.08c0-2.268-.036-3.204-.216-4.536h6.012c-.18 1.296-.216 2.196-.216 4.536v3.024h5.112c2.124 0 3.78-.072 4.896-.216v5.544c-1.332-.144-2.808-.216-4.896-.216h-18.828c0 .684-.036 1.26-.036 1.584-.036 1.548-.036 1.584-.072 2.628h12.096c1.62 0 2.7-.036 3.816-.144-.144 1.08-.18 2.16-.18 3.816v8.28c0 2.484.036 3.528.216 4.968h-6.156c.18-1.332.216-2.484.216-4.968v-6.84Zm38.268 7.128v2.736c-3.816.72-5.256.936-9.756 1.512l-3.924.504c-.612.072-.72.108-1.476.18l-.612-4.392c-1.404.684-1.908.936-3.564 1.656-.864-2.016-1.476-3.132-2.52-4.536 3.564-.756 6.444-1.872 8.784-3.456H180.4c-2.412 0-2.412 0-3.96.144v-4.752c1.008.108 1.692.144 4.176.144h10.98V45.256h-1.26c-.108-.828-.36-1.8-.648-2.34.72.108.828.108 1.08.108.36 0 .504-.144.504-.504v-.72h-2.124v.828c0 1.332.036 1.872.108 2.952h-5.076c.108-1.224.108-1.368.108-2.916V41.8h-1.8v1.656c0 1.116 0 1.332.072 1.8h-4.896c0-.288 0-.288.072-.828 0-.18.036-.972.036-1.26v-2.664c0-.252 0-.828-.036-1.044-.036-.576-.036-.576-.036-.828.324.036 1.008.036 2.016.072h4.572v-1.008h-4.392c-1.512 0-2.484.036-3.6.144v-3.924c.792.108 1.332.144 2.808.144-.936-.648-2.052-1.26-3.24-1.836 1.44-1.692 2.052-2.772 2.808-5.076l4.644.792c-.252.648-.324.828-.54 1.404h1.512c0-.792-.036-1.152-.144-2.016h5.148c-.108.648-.144 1.116-.144 2.016h2.808c1.8 0 2.628-.036 3.564-.144v3.924c-1.26-.072-1.836-.108-3.528-.108h-2.844v1.044h2.844c2.376 0 3.06-.036 3.924-.144v3.924c-1.044-.108-2.124-.144-3.636-.144h-3.132v1.008h3.6c1.188 0 1.404 0 2.772-.072V42.484c0 .54-.072.972-.252 1.404h1.764c-.108.792-.108 1.044-.108 1.908v.612h8.244c2.304 0 3.456-.036 4.284-.144v4.752c-.18 0-.288-.036-.396-.036-.9-.108-1.476-.108-3.6-.108h-1.332l3.708 1.8c-.36.288-.36.288-1.368 1.116-.324.252-1.044.756-1.872 1.296 2.124.756 3.384 1.044 5.832 1.368-1.188 1.8-1.8 2.988-2.592 5.112-4.392-1.152-7.416-2.592-10.188-4.896Zm-5.832-4.932v4.176c2.016-.252 2.016-.252 4.284-.648-1.404-1.476-2.232-2.7-2.988-4.392h-.324c-.396.36-.396.36-.972.864Zm10.692-.864h-4.032c.468.684.9 1.152 1.8 1.872.792-.54 1.44-1.08 2.232-1.872Zm-15.948 5.652v-1.98c-1.476 1.008-1.872 1.224-3.852 2.268 1.476-.036 1.944-.072 3.852-.288ZM180.4 34.06h3.888v-1.044h-3.276c-.216.432-.324.576-.612 1.044Zm21.42 5.976h-5.292c.072-.756.108-1.26.108-2.448v-5.472c0-.9-.036-2.052-.144-2.844h5.328c-.108.756-.108 1.152-.108 2.844v5.4c0 1.476 0 1.908.108 2.52Zm6.768-9.144v9.864c0 2.016-.432 3.06-1.584 3.78-.936.612-2.196.828-4.932.828-.432 0-1.296-.036-2.7-.072-.252-1.656-.648-2.844-1.368-4.356 1.512.108 2.628.18 3.492.18 1.656 0 1.908-.144 1.908-1.044v-9.504c0-1.188-.036-2.016-.144-2.988h5.508c-.144.936-.18 1.692-.18 3.312Zm3.348.504 4.14-3.78c2.592 2.196 4.608 4.176 6.3 6.12 1.476-2.016 2.556-4.356 2.808-5.94l5.22.936-.252.756c-.036.072-.288.828-.576 1.548h1.836v-.612c0-1.548-.036-2.196-.18-2.988h5.724c-.144.756-.18 1.404-.18 2.988v.612h3.384c1.98 0 3.132-.072 4.248-.216v5.076c-1.152-.108-2.16-.144-4.032-.144h-3.6v1.836h5.292c1.656 0 2.52-.036 3.348-.144v5.04c-1.116-.144-2.052-.18-3.348-.18H225.22c-1.08 0-1.908.036-2.916.108v-4.968c.936.108 1.44.144 3.024.144-1.188-.936-2.088-1.476-3.852-2.34l-3.096 2.988c-1.836-2.376-4.068-4.716-6.444-6.84Zm14.328 6.192h5.148v-1.836h-3.96a22.998 22.998 0 0 1-1.188 1.836Zm13.968 16.704h-13.5c-1.44 0-1.98 0-2.808.108.072-.864.072-.864.072-6.264v-1.548c-.036-2.376-.036-2.376-.108-3.096.936.072 2.052.108 3.996.108h12.06c1.728 0 2.664-.036 3.672-.108-.072.864-.108 1.476-.108 3.816v3.672c0 2.196 0 2.592.072 3.42-1.008-.108-1.584-.108-3.348-.108Zm-11.124-6.3V49.9h9.108v-1.908h-9.108Zm-16.812-1.908v-5.436c1.044.144 1.584.18 2.988.18h3.492c1.152 0 1.8-.036 2.772-.144-.108 1.116-.144 1.944-.144 4.068v8.46c.684 1.044 1.116 1.404 2.16 1.8 1.404.54 3.348.756 6.624.756 7.056 0 11.952-.216 16.452-.756-.792 2.34-1.008 3.24-1.332 5.688-3.204.108-7.416.18-12.96.18-6.588 0-8.64-.216-10.8-1.188-1.188-.54-1.944-1.08-2.808-2.052-1.404 1.188-2.664 2.16-3.816 2.88-.288.216-.684.468-1.044.756l-2.34-5.832c.396-.144.828-.324 1.116-.504.108-.072.324-.18.684-.396 1.008-.576 1.512-.9 2.736-1.764v-6.876h-1.512c-.684 0-1.44.072-2.268.18Zm61.2-2.412h-2.52c-.72 8.712-2.16 12.384-6.984 17.604-1.332-1.764-2.34-2.808-4.104-4.212 1.872-1.836 2.736-2.952 3.636-4.644 1.152-2.124 1.692-4.5 2.016-8.424.144-1.908.18-3.924.18-10.152 0-1.98-.036-2.628-.144-3.6 3.06-.036 5.724-.36 8.748-1.08 2.232-.54 4.14-1.152 5.112-1.656l2.556 5.22c-.756.18-.936.252-1.872.468-3.384.936-5.58 1.332-9.036 1.728v3.564h7.092c1.872 0 2.556-.036 3.636-.18v5.508c-1.08-.108-1.548-.144-2.952-.144v13.104c0 1.98.036 2.952.216 4.14h-5.796c.18-1.296.216-2.34.216-4.14V43.672Zm-24.588-9.9v-5.328c1.152.144 2.052.18 4.356.18h7.02c2.448 0 3.492-.036 4.428-.18v5.328c-.972-.108-2.16-.144-4.14-.144h-7.668c-1.872 0-2.952.036-3.996.144Zm15.048 5.508v6.336c0 1.98 0 2.16.072 3.204a78.627 78.627 0 0 0-3.816-.072h-4.824c-.216 5.58-1.044 9-3.06 12.636-1.62-1.98-2.664-2.952-4.5-4.284.972-1.836 1.368-2.844 1.728-4.68.504-2.196.72-5.904.72-11.376 0-2.88-.036-3.996-.216-5.616 1.224.072 2.088.108 3.888.108h6.264c1.836 0 2.664-.036 3.852-.108-.072.864-.108 2.268-.108 3.852Zm-8.496 4.824h3.312v-3.96h-3.276v1.764c0 1.224 0 1.26-.036 2.196Z"/></mask><path fill="#fff" d="M112.648 57.316v-7.164c-2.088 1.044-3.24 1.512-5.76 2.484-1.044-2.268-1.692-3.312-3.204-5.076 4.104-.972 7.272-2.232 11.7-4.716-1.152-1.296-2.232-2.304-3.852-3.636-1.332.936-2.268 1.512-4.14 2.52-1.116-1.872-1.908-2.88-3.384-4.248 3.06-1.404 5.4-2.88 7.992-5.04 1.98-1.656 3.564-3.564 4.644-5.58l6.084 1.188c-.756 1.044-1.008 1.404-1.476 1.98h6.912c1.296 0 2.088-.036 2.952-.18l2.988 2.988c-.504.612-.504.612-1.404 1.764-2.448 3.024-6.156 6.588-9.72 9.252h9.792c1.656 0 2.556-.036 3.42-.108-.144 1.008-.18 2.088-.18 3.708v9.864c0 1.764.072 2.844.216 3.924h-5.652v-1.872h-12.492v1.872h-5.652c.144-1.152.216-2.268.216-3.924Zm12.456-22.32h-8.424c-.576.54-.684.648-1.188 1.08 2.556 2.016 2.556 2.016 4.356 3.78 2.268-1.764 3.42-2.808 5.256-4.86Zm-7.056 13.824v5.76h12.564v-5.76h-12.564Zm41.328.72h-10.584c-.9 5.328-1.944 8.1-4.536 11.952-1.332-1.872-2.592-3.204-4.464-4.788 1.872-2.412 2.988-5.076 3.528-8.568.288-1.62.504-4.464.576-6.768.036-.324.108-8.352.108-9.072 0-1.152-.144-3.6-.252-4.464h6.084c-.144 1.116-.18 1.836-.216 3.564 0 1.944 0 2.592-.036 3.708h8.028V32.08c0-2.268-.036-3.204-.216-4.536h6.012c-.18 1.296-.216 2.196-.216 4.536v3.024h5.112c2.124 0 3.78-.072 4.896-.216v5.544c-1.332-.144-2.808-.216-4.896-.216h-18.828c0 .684-.036 1.26-.036 1.584-.036 1.548-.036 1.584-.072 2.628h12.096c1.62 0 2.7-.036 3.816-.144-.144 1.08-.18 2.16-.18 3.816v8.28c0 2.484.036 3.528.216 4.968h-6.156c.18-1.332.216-2.484.216-4.968v-6.84Zm38.268 7.128v2.736c-3.816.72-5.256.936-9.756 1.512l-3.924.504c-.612.072-.72.108-1.476.18l-.612-4.392c-1.404.684-1.908.936-3.564 1.656-.864-2.016-1.476-3.132-2.52-4.536 3.564-.756 6.444-1.872 8.784-3.456H180.4c-2.412 0-2.412 0-3.96.144v-4.752c1.008.108 1.692.144 4.176.144h10.98V45.256h-1.26c-.108-.828-.36-1.8-.648-2.34.72.108.828.108 1.08.108.36 0 .504-.144.504-.504v-.72h-2.124v.828c0 1.332.036 1.872.108 2.952h-5.076c.108-1.224.108-1.368.108-2.916V41.8h-1.8v1.656c0 1.116 0 1.332.072 1.8h-4.896c0-.288 0-.288.072-.828 0-.18.036-.972.036-1.26v-2.664c0-.252 0-.828-.036-1.044-.036-.576-.036-.576-.036-.828.324.036 1.008.036 2.016.072h4.572v-1.008h-4.392c-1.512 0-2.484.036-3.6.144v-3.924c.792.108 1.332.144 2.808.144-.936-.648-2.052-1.26-3.24-1.836 1.44-1.692 2.052-2.772 2.808-5.076l4.644.792c-.252.648-.324.828-.54 1.404h1.512c0-.792-.036-1.152-.144-2.016h5.148c-.108.648-.144 1.116-.144 2.016h2.808c1.8 0 2.628-.036 3.564-.144v3.924c-1.26-.072-1.836-.108-3.528-.108h-2.844v1.044h2.844c2.376 0 3.06-.036 3.924-.144v3.924c-1.044-.108-2.124-.144-3.636-.144h-3.132v1.008h3.6c1.188 0 1.404 0 2.772-.072V42.484c0 .54-.072.972-.252 1.404h1.764c-.108.792-.108 1.044-.108 1.908v.612h8.244c2.304 0 3.456-.036 4.284-.144v4.752c-.18 0-.288-.036-.396-.036-.9-.108-1.476-.108-3.6-.108h-1.332l3.708 1.8c-.36.288-.36.288-1.368 1.116-.324.252-1.044.756-1.872 1.296 2.124.756 3.384 1.044 5.832 1.368-1.188 1.8-1.8 2.988-2.592 5.112-4.392-1.152-7.416-2.592-10.188-4.896Zm-5.832-4.932v4.176c2.016-.252 2.016-.252 4.284-.648-1.404-1.476-2.232-2.7-2.988-4.392h-.324c-.396.36-.396.36-.972.864Zm10.692-.864h-4.032c.468.684.9 1.152 1.8 1.872.792-.54 1.44-1.08 2.232-1.872Zm-15.948 5.652v-1.98c-1.476 1.008-1.872 1.224-3.852 2.268 1.476-.036 1.944-.072 3.852-.288ZM180.4 34.06h3.888v-1.044h-3.276c-.216.432-.324.576-.612 1.044Zm21.42 5.976h-5.292c.072-.756.108-1.26.108-2.448v-5.472c0-.9-.036-2.052-.144-2.844h5.328c-.108.756-.108 1.152-.108 2.844v5.4c0 1.476 0 1.908.108 2.52Zm6.768-9.144v9.864c0 2.016-.432 3.06-1.584 3.78-.936.612-2.196.828-4.932.828-.432 0-1.296-.036-2.7-.072-.252-1.656-.648-2.844-1.368-4.356 1.512.108 2.628.18 3.492.18 1.656 0 1.908-.144 1.908-1.044v-9.504c0-1.188-.036-2.016-.144-2.988h5.508c-.144.936-.18 1.692-.18 3.312Zm3.348.504 4.14-3.78c2.592 2.196 4.608 4.176 6.3 6.12 1.476-2.016 2.556-4.356 2.808-5.94l5.22.936-.252.756c-.036.072-.288.828-.576 1.548h1.836v-.612c0-1.548-.036-2.196-.18-2.988h5.724c-.144.756-.18 1.404-.18 2.988v.612h3.384c1.98 0 3.132-.072 4.248-.216v5.076c-1.152-.108-2.16-.144-4.032-.144h-3.6v1.836h5.292c1.656 0 2.52-.036 3.348-.144v5.04c-1.116-.144-2.052-.18-3.348-.18H225.22c-1.08 0-1.908.036-2.916.108v-4.968c.936.108 1.44.144 3.024.144-1.188-.936-2.088-1.476-3.852-2.34l-3.096 2.988c-1.836-2.376-4.068-4.716-6.444-6.84Zm14.328 6.192h5.148v-1.836h-3.96a22.998 22.998 0 0 1-1.188 1.836Zm13.968 16.704h-13.5c-1.44 0-1.98 0-2.808.108.072-.864.072-.864.072-6.264v-1.548c-.036-2.376-.036-2.376-.108-3.096.936.072 2.052.108 3.996.108h12.06c1.728 0 2.664-.036 3.672-.108-.072.864-.108 1.476-.108 3.816v3.672c0 2.196 0 2.592.072 3.42-1.008-.108-1.584-.108-3.348-.108Zm-11.124-6.3V49.9h9.108v-1.908h-9.108Zm-16.812-1.908v-5.436c1.044.144 1.584.18 2.988.18h3.492c1.152 0 1.8-.036 2.772-.144-.108 1.116-.144 1.944-.144 4.068v8.46c.684 1.044 1.116 1.404 2.16 1.8 1.404.54 3.348.756 6.624.756 7.056 0 11.952-.216 16.452-.756-.792 2.34-1.008 3.24-1.332 5.688-3.204.108-7.416.18-12.96.18-6.588 0-8.64-.216-10.8-1.188-1.188-.54-1.944-1.08-2.808-2.052-1.404 1.188-2.664 2.16-3.816 2.88-.288.216-.684.468-1.044.756l-2.34-5.832c.396-.144.828-.324 1.116-.504.108-.072.324-.18.684-.396 1.008-.576 1.512-.9 2.736-1.764v-6.876h-1.512c-.684 0-1.44.072-2.268.18Zm61.2-2.412h-2.52c-.72 8.712-2.16 12.384-6.984 17.604-1.332-1.764-2.34-2.808-4.104-4.212 1.872-1.836 2.736-2.952 3.636-4.644 1.152-2.124 1.692-4.5 2.016-8.424.144-1.908.18-3.924.18-10.152 0-1.98-.036-2.628-.144-3.6 3.06-.036 5.724-.36 8.748-1.08 2.232-.54 4.14-1.152 5.112-1.656l2.556 5.22c-.756.18-.936.252-1.872.468-3.384.936-5.58 1.332-9.036 1.728v3.564h7.092c1.872 0 2.556-.036 3.636-.18v5.508c-1.08-.108-1.548-.144-2.952-.144v13.104c0 1.98.036 2.952.216 4.14h-5.796c.18-1.296.216-2.34.216-4.14V43.672Zm-24.588-9.9v-5.328c1.152.144 2.052.18 4.356.18h7.02c2.448 0 3.492-.036 4.428-.18v5.328c-.972-.108-2.16-.144-4.14-.144h-7.668c-1.872 0-2.952.036-3.996.144Zm15.048 5.508v6.336c0 1.98 0 2.16.072 3.204a78.627 78.627 0 0 0-3.816-.072h-4.824c-.216 5.58-1.044 9-3.06 12.636-1.62-1.98-2.664-2.952-4.5-4.284.972-1.836 1.368-2.844 1.728-4.68.504-2.196.72-5.904.72-11.376 0-2.88-.036-3.996-.216-5.616 1.224.072 2.088.108 3.888.108h6.264c1.836 0 2.664-.036 3.852-.108-.072.864-.108 2.268-.108 3.852Zm-8.496 4.824h3.312v-3.96h-3.276v1.764c0 1.224 0 1.26-.036 2.196Z"/><path fill="#000" d="M112.648 50.152h1v-1.618l-1.447.724.447.894Zm-5.76 2.484-.908.418.392.853.876-.338-.36-.933Zm-3.204-5.076-.23-.973-1.597.378 1.068 1.246.759-.651Zm11.7-4.716.489.872 1.084-.608-.826-.928-.747.664Zm-3.852-3.636.635-.772-.588-.484-.622.438.575.818Zm-4.14 2.52-.859.512.49.822.843-.453-.474-.881Zm-3.384-4.248-.417-.909-1.361.625 1.098 1.017.68-.733ZM112 32.44l.64.768h.002L112 32.44Zm4.644-5.58.192-.982-.725-.14-.348.65.881.472Zm6.084 1.188.81.587.918-1.268-1.536-.3-.192.981Zm-1.476 1.98-.776-.63-1.325 1.63h2.101v-1Zm9.864-.18.707-.707-.364-.364-.507.085.164.986Zm2.988 2.988.772.636.577-.701-.642-.642-.707.707ZM132.7 34.6l.777.63.006-.008.005-.006-.788-.616Zm-9.72 9.252-.599-.801-2.409 1.801h3.008v-1Zm13.212-.108.99.141.177-1.242-1.25.105.083.996Zm.036 17.496v1h1.142l-.151-1.132-.991.132Zm-5.652 0h-1v1h1v-1Zm0-1.872h1v-1h-1v1Zm-12.492 0v-1h-1v1h1Zm0 1.872v1h1v-1h-1Zm-5.652 0-.992-.124-.141 1.124h1.133v-1Zm12.672-26.244.745.667 1.492-1.667h-2.237v1Zm-8.424 0v-1h-.395l-.289.27.684.73Zm-1.188 1.08-.651-.76-.923.792.955.753.619-.785Zm4.356 3.78-.7.714.624.612.69-.537-.614-.789Zm-1.8 8.964v-1h-1v1h1Zm0 5.76h-1v1h1v-1Zm12.564 0v1h1v-1h-1Zm0-5.76h1v-1h-1v1Zm-16.964 8.496v-7.164h-2v7.164h2Zm-1.447-8.058c-2.047 1.023-3.165 1.478-5.673 2.445l.72 1.866c2.532-.977 3.718-1.458 5.847-2.523l-.894-1.788Zm-4.405 2.96c-1.078-2.342-1.773-3.466-3.353-5.309l-1.518 1.302c1.444 1.685 2.045 2.649 3.055 4.843l1.816-.836Zm-3.882-3.685c4.208-.996 7.463-2.294 11.959-4.817l-.978-1.744c-4.36 2.445-7.441 3.667-11.441 4.615l.46 1.946Zm12.217-6.353c-1.195-1.345-2.316-2.39-3.964-3.744l-1.27 1.544c1.592 1.31 2.631 2.281 3.74 3.528l1.494-1.328Zm-5.174-3.79c-1.294.909-2.195 1.465-4.039 2.457l.948 1.761c1.9-1.023 2.871-1.619 4.241-2.582l-1.15-1.636Zm-2.706 2.826c-1.158-1.943-2.009-3.029-3.563-4.47l-1.36 1.467c1.398 1.295 2.131 2.226 3.205 4.027l1.718-1.024Zm-3.826-2.827c3.141-1.441 5.556-2.964 8.215-5.18l-1.28-1.537c-2.525 2.103-4.79 3.532-7.769 4.9l.834 1.817Zm8.217-5.182c2.066-1.728 3.736-3.733 4.883-5.875l-1.762-.944c-1.013 1.89-2.511 3.701-4.405 5.285l1.284 1.534Zm3.81-5.366 6.084 1.188.384-1.962-6.084-1.189-.384 1.963Zm5.466-.38c-.764 1.056-.996 1.388-1.442 1.936l1.552 1.262c.49-.604.762-.992 1.51-2.024l-1.62-1.174Zm-.666 3.567h6.912v-2h-6.912v2Zm6.912 0c1.313 0 2.17-.036 3.116-.194l-.328-1.972c-.782.13-1.509.166-2.788.166v2Zm2.245-.473 2.988 2.988 1.414-1.414-2.988-2.988-1.414 1.414Zm2.923 1.645c-.512.622-.518.63-1.42 1.784l1.576 1.232c.898-1.15.892-1.142 1.388-1.744l-1.544-1.272Zm-1.409 1.77c-2.393 2.956-6.04 6.463-9.542 9.081l1.198 1.602c3.626-2.71 7.395-6.331 9.898-9.424l-1.554-1.258Zm-8.943 10.882h9.792v-2h-9.792v2Zm9.792 0c1.672 0 2.602-.036 3.503-.111l-.166-1.993c-.827.068-1.697.104-3.337.104v2Zm2.43-1.25c-.155 1.083-.19 2.224-.19 3.85h2c0-1.613.037-2.633.17-3.567l-1.98-.282Zm-.19 3.85v9.864h2v-9.864h-2Zm0 9.864c0 1.796.073 2.921.225 4.056l1.982-.264c-.136-1.025-.207-2.06-.207-3.792h-2Zm1.216 2.924h-5.652v2h5.652v-2Zm-4.652 1v-1.872h-2v1.872h2Zm-1-2.872h-12.492v2h12.492v-2Zm-13.492 1v1.872h2v-1.872h-2Zm1 .872h-5.652v2h5.652v-2Zm-4.66 1.124c.15-1.2.224-2.358.224-4.048h-2c0 1.622-.07 2.696-.208 3.8l1.984.248Zm11.68-27.368h-8.424v2h8.424v-2Zm-9.108.27c-.579.543-.67.636-1.155 1.05l1.302 1.52c.523-.45.648-.573 1.221-1.11l-1.368-1.46Zm-1.123 2.595c2.535 2 2.507 1.976 4.275 3.71l1.4-1.43c-1.832-1.794-1.86-1.818-4.437-3.85l-1.238 1.57Zm5.589 3.784c2.308-1.795 3.506-2.88 5.387-4.982l-1.49-1.334c-1.791 2.001-2.897 3.005-5.125 4.738l1.228 1.578Zm-3.414 8.175v5.76h2v-5.76h-2Zm1 6.76h12.564v-2h-12.564v2Zm13.564-1v-5.76h-2v5.76h2Zm-1-6.76h-12.564v2h12.564v-2Zm28.764 1.72h1v-1h-1v1Zm-10.584 0v-1h-.845l-.141.833.986.167Zm-4.536 11.952-.815.58.838 1.177.807-1.199-.83-.558Zm-4.464-4.788-.79-.613-.588.757.732.62.646-.764Zm3.528-8.568-.985-.175-.002.011-.001.011.988.153Zm.576-6.768-.994-.11-.004.04-.002.039 1 .031Zm-.144-13.536v-1h-1.133l.141 1.124.992-.124Zm6.084 0 .992.128.145-1.128h-1.137v1Zm-.216 3.564-1-.02v.02h1Zm-.036 3.708-.999-.032-.034 1.032h1.033v-1Zm8.028 0v1h1v-1h-1Zm-.216-7.56v-1h-1.144l.153 1.134.991-.134Zm6.012 0 .99.138.158-1.138h-1.148v1Zm-.216 7.56h-1v1h1v-1Zm10.008-.216h1v-1.137l-1.128.145.128.992Zm0 5.544-.107.994 1.107.12v-1.114h-1Zm-23.724-.216v-1h-1v1h1Zm-.036 1.584 1 .023V41.8h-1Zm-.072 2.628-.999-.034-.036 1.034h1.035v-1Zm15.912-.144.991.132.167-1.249-1.254.122.096.995Zm.036 17.064v1h1.133l-.141-1.124-.992.124Zm-6.156 0-.991-.134-.153 1.134h1.144v-1Zm.216-12.808h-10.584v2h10.584v-2Zm-11.57.833c-.881 5.213-1.88 7.846-4.38 11.56l1.66 1.117c2.684-3.989 3.773-6.9 4.692-12.343l-1.972-.334Zm-2.735 11.54c-1.387-1.95-2.706-3.342-4.633-4.972l-1.292 1.526c1.817 1.538 3.018 2.81 4.295 4.605l1.63-1.16Zm-4.489-3.596c1.988-2.562 3.163-5.389 3.726-9.028l-1.976-.306c-.517 3.345-1.574 5.846-3.33 8.108l1.58 1.226Zm3.723-9.006c.3-1.691.518-4.592.591-6.912l-2-.062c-.071 2.288-.285 5.075-.561 6.624l1.97.35Zm.585-6.833c.011-.097.016-.322.021-.542l.017-1.006c.012-.812.024-1.87.035-2.939.023-2.135.041-4.328.041-4.695h-2a995.657 995.657 0 0 1-.076 7.605c-.006.403-.011.744-.017.992-.006.284-.011.381-.009.365l1.988.22Zm.114-9.182c0-1.187-.146-3.677-.26-4.588l-1.984.248c.102.817.244 3.223.244 4.34h2Zm-1.252-3.464h6.084v-2h-6.084v2Zm5.092-1.128c-.151 1.17-.188 1.932-.224 3.671l2 .042c.036-1.717.071-2.394.208-3.457l-1.984-.256Zm-.224 3.692c0 1.946 0 2.578-.035 3.676l1.998.064c.037-1.134.037-1.798.037-3.74h-2Zm.964 4.708h8.028v-2h-8.028v2Zm9.028-1V32.08h-2v3.024h2Zm0-3.024c0-2.28-.036-3.27-.225-4.67l-1.982.268c.171 1.264.207 2.146.207 4.402h2Zm-1.216-3.536h6.012v-2h-6.012v2Zm5.022-1.138c-.19 1.367-.226 2.323-.226 4.674h2c0-2.33.036-3.173.206-4.398l-1.98-.276Zm-.226 4.674v3.024h2V32.08h-2Zm1 4.024h5.112v-2h-5.112v2Zm5.112 0c2.136 0 3.843-.072 5.024-.224l-.256-1.984c-1.051.136-2.655.208-4.768.208v2Zm3.896-1.216v5.544h2v-5.544h-2Zm1.107 4.55c-1.378-.15-2.892-.222-5.003-.222v2c2.065 0 3.503.071 4.789.21l.214-1.988Zm-5.003-.222h-18.828v2h18.828v-2Zm-19.828 1c0 .325-.009.627-.017.894-.009.254-.019.506-.019.69h2c0-.14.008-.338.017-.624.01-.273.019-.601.019-.96h-2Zm-.036 1.56c-.036 1.548-.036 1.58-.071 2.617l1.998.07c.037-1.05.037-1.09.073-2.64l-2-.046Zm.928 3.652h12.096v-2h-12.096v2Zm12.096 0c1.635 0 2.751-.036 3.912-.149l-.192-1.99c-1.071.103-2.115.139-3.72.139v2Zm2.825-1.276c-.153 1.148-.189 2.282-.189 3.948h2c0-1.646.036-2.672.171-3.684l-1.982-.264ZM164.1 48.1v8.28h2V48.1h-2Zm0 8.28c0 2.494.036 3.588.224 5.092l1.984-.248c-.172-1.376-.208-2.37-.208-4.844h-2Zm1.216 3.968h-6.156v2h6.156v-2Zm-5.165 1.134c.19-1.404.225-2.615.225-5.102h-2c0 2.48-.037 3.574-.207 4.834l1.982.268Zm.225-5.102v-6.84h-2v6.84h2Zm37.268.288.639-.769-1.639-1.363v2.132h1Zm0 2.736.185.983.815-.154v-.829h-1Zm-9.756 1.512-.127-.992.127.992Zm-3.924.504.117.993.01-.001-.127-.992Zm-1.476.18-.99.138.132.948.953-.09-.095-.996Zm-.612-4.392.99-.138-.19-1.364-1.238.603.438.899Zm-3.564 1.656-.919.394.396.924.922-.4-.399-.918Zm-2.52-4.536-.208-.978-1.525.323.931 1.252.802-.597Zm8.784-3.456.561.828 2.7-1.828h-3.261v1Zm-8.136.144h-1v1.097l1.093-.101-.093-.996Zm0-4.752.107-.994-1.107-.119v1.113h1Zm15.156.144v1h1v-1h-1Zm0-1.152h1v-1h-1v1Zm-1.26 0-.992.13.114.87h.878v-1Zm-.648-2.34.148-.989-1.966-.295.936 1.755.882-.471Zm1.584-1.116h1v-1h-1v1Zm-2.124 0v-1h-1v1h1Zm.108 3.78v1h1.069l-.071-1.066-.998.066Zm-5.076 0-.996-.088-.096 1.088h1.092v-1Zm.108-3.78h1v-1h-1v1Zm-1.8 0v-1h-1v1h1Zm.072 3.456v1h1.166l-.178-1.152-.988.152Zm-4.896 0h-1v1h1v-1Zm.072-.828.991.132.009-.066v-.066h-1Zm0-4.968-.998.062.003.052.009.05.986-.164Zm-.036-.828.11-.994-1.11-.123v1.117h1Zm2.016.072-.036 1h.036v-1Zm4.572 0v1h1v-1h-1Zm0-1.008h1v-1h-1v1Zm-7.992.144h-1v1.101l1.096-.106-.096-.995Zm0-3.924.135-.99-1.135-.156v1.146h1Zm2.808.144v1h3.201l-2.632-1.822-.569.822Zm-3.24-1.836-.762-.648-.837.984 1.163.564.436-.9Zm2.808-5.076.168-.986-.849-.145-.269.82.95.311Zm4.644.792.932.362.444-1.142-1.208-.206-.168.986Zm-.54 1.404-.936-.351-.507 1.351h1.443v-1Zm1.512 0v1h1v-1h-1Zm-.144-2.016v-1h-1.133l.141 1.124.992-.124Zm5.148 0 .986.164.194-1.164h-1.18v1Zm-.144 2.016h-1v1h1v-1Zm6.372-.144h1v-1.122l-1.115.129.115.993Zm0 3.924-.057.998 1.057.06v-1.058h-1Zm-6.372-.108v-1h-1v1h1Zm0 1.044h-1v1h1v-1Zm6.768-.144h1v-1.133l-1.124.14.124.993Zm0 3.924-.103.995 1.103.114V37.84h-1Zm-6.768-.144v-1h-1v1h1Zm0 1.008h-1v1h1v-1Zm6.372-.072h1v-1.054l-1.053.055.053.999Zm-.252 5.256-.923-.385-.577 1.385h1.5v-1Zm1.764 0 .991.135.155-1.135h-1.146v1Zm-.108 2.52h-1v1h1v-1Zm12.528-.144h1v-1.139l-1.129.147.129.992Zm0 4.752v1h1v-1h-1Zm-.396-.036-.119.993.059.007h.06v-1Zm-4.932-.108v-1l-.437 1.9.437-.9Zm3.708 1.8.625.78 1.236-.988-1.424-.692-.437.9Zm-1.368 1.116.614.79.01-.009.011-.008-.635-.773Zm-1.872 1.296-.546-.838-1.691 1.103 1.902.677.335-.942Zm5.832 1.368.835.55.879-1.332-1.583-.21-.131.992Zm-2.592 5.112-.254.967.875.23.316-.848-.937-.349Zm-16.02-9.828-.659-.753-.341.3v.453h1Zm0 4.176h-1v1.133l1.124-.14-.124-.993Zm4.284-.648.172.985 1.84-.321-1.287-1.353-.725.689Zm-2.988-4.392.913-.408-.265-.592h-.648v1Zm-.324 0v-1h-.387l-.286.26.673.74Zm9.72 0 .707.707 1.707-1.707h-2.414v1Zm-4.032 0v-1h-1.896l1.071 1.565.825-.565Zm1.8 1.872-.625.78.578.463.61-.417-.563-.826Zm-13.716 3.78.112.994.888-.1v-.894h-1Zm0-1.98h1V52.65l-1.564 1.068.564.826Zm-3.852 2.268-.466-.885.49 1.885-.024-1ZM180.4 34.06l-.852-.524-.938 1.524h1.79v-1Zm3.888 0v1h1v-1h-1Zm0-1.044h1v-1h-1v1Zm-3.276 0v-1h-.618l-.276.553.894.447Zm20.808 7.02v1h1.192l-.207-1.174-.985.174Zm-5.292 0-.995-.095-.105 1.095h1.1v-1Zm-.036-10.764v-1h-1.146l.155 1.135.991-.135Zm5.328 0 .99.141.163-1.141h-1.153v1Zm5.184 15.264-.53-.848-.009.005-.008.006.547.837Zm-7.632.756-.989.15.126.828.837.022.026-1Zm-1.368-4.356.071-.998-1.712-.122.738 1.55.903-.43Zm5.256-13.356v-1h-1.117l.123 1.11.994-.11Zm5.508 0 .988.152.178-1.152h-1.166v1Zm-12.124 29.088v2.736h2v-2.736h-2Zm.815 1.753c-3.792.716-5.212.929-9.698 1.503l.254 1.984c4.514-.578 5.974-.797 9.814-1.521l-.37-1.966Zm-9.698 1.503-3.924.504.254 1.984 3.924-.504-.254-1.984Zm-3.914.503c-.696.082-.692.105-1.454.178l.19 1.99c.75-.071.97-.12 1.498-.182l-.234-1.986Zm-.369 1.035-.612-4.392-1.98.276.612 4.392 1.98-.276Zm-2.04-5.153c-1.401.682-1.889.927-3.525 1.638l.798 1.834c1.676-.729 2.196-.988 3.603-1.674l-.876-1.798Zm-2.207 2.161c-.886-2.067-1.534-3.256-2.637-4.739l-1.604 1.194c.985 1.325 1.561 2.368 2.403 4.333l1.838-.788ZM176 55.306c3.649-.774 6.66-1.93 9.137-3.606l-1.122-1.656c-2.203 1.491-4.952 2.568-8.431 3.306l.416 1.956Zm8.576-5.434H180.4v2h4.176v-2Zm-4.176 0c-2.428 0-2.462 0-4.053.148l.186 1.992c1.505-.14 1.471-.14 3.867-.14v-2Zm-2.96 1.144v-4.752h-2v4.752h2Zm-1.107-3.758c1.062.114 1.789.15 4.283.15v-2c-2.474 0-3.115-.036-4.069-.138l-.214 1.988Zm4.283.15h10.98v-2h-10.98v2Zm11.98-1v-.612h-2v.612h2Zm0-.612V45.256h-2V45.796h2Zm-1-1.54H190.336v2H191.596v-2Zm-.268.87c-.115-.88-.388-1.988-.758-2.68l-1.764.94c.206.388.437 1.224.538 2l1.984-.26Zm-1.788-1.221c.745.112.907.119 1.228.119v-2c-.12 0-.173 0-.274-.01-.117-.01-.299-.033-.658-.087l-.296 1.978Zm1.228.119c.279 0 .734-.05 1.094-.41.36-.36.41-.815.41-1.094h-2c0 .081-.022-.122.176-.32.198-.198.401-.176.32-.176v2Zm1.504-1.504v-.72h-2v.72h2Zm-1-1.72h-2.124v2h2.124v-2Zm-3.124 1v.828h2V41.8h-2Zm0 .828c0 1.364.038 1.928.11 3.019l1.996-.133a34.45 34.45 0 0 1-.106-2.886h-2Zm1.108 1.952h-5.076v2h5.076v-2Zm-4.08 1.088c.112-1.264.112-1.44.112-3.004h-2c0 1.532 0 1.644-.104 2.828l1.992.176Zm.112-3.004V41.8h-2v.864h2Zm-1-1.864h-1.8v2h1.8v-2Zm-2.8 1v1.656h2V41.8h-2Zm0 1.656c0 1.098-.002 1.394.084 1.952l1.976-.304c-.058-.378-.06-.514-.06-1.648h-2Zm1.072.8h-4.896v2h4.896v-2Zm-3.896 1c0-.149.001-.179.005-.233.007-.075.021-.18.058-.463l-1.982-.264c-.074.552-.081.605-.081.96h2Zm.072-.828c0-.067.008-.281.017-.554.009-.249.019-.54.019-.706h-2c0 .122-.008.371-.017.635-.009.24-.019.512-.019.625h2Zm.036-1.26v-2.664h-2v2.664h2Zm0-2.664c0-.125 0-.343-.005-.558a5.103 5.103 0 0 0-.045-.65l-1.972.328c-.001-.001.004.031.008.112.005.072.008.16.01.255.004.19.004.386.004.513h2Zm-.038-1.106c-.036-.575-.034-.548-.034-.766h-2c0 .286.002.313.038.89l1.996-.124Zm-1.144.228c.372.041 1.158.044 2.09.077l.072-1.998c-1.084-.04-1.666-.036-1.942-.067l-.22 1.988Zm2.126.078h4.572v-2h-4.572v2Zm5.572-1v-1.008h-2v1.008h2Zm-1-2.008h-4.392v2h4.392v-2Zm-4.392 0c-1.531 0-2.538.037-3.696.149l.192 1.99c1.074-.104 2.011-.139 3.504-.139v-2Zm-2.6 1.144v-3.924h-2v3.924h2Zm-1.135-2.933c.853.116 1.443.153 2.943.153v-2c-1.452 0-1.942-.035-2.673-.135l-.27 1.982Zm3.512-1.67c-.994-.688-2.16-1.325-3.373-1.913l-.872 1.8c1.163.564 2.229 1.15 3.107 1.758l1.138-1.644Zm-3.047-.365c1.527-1.795 2.201-2.99 2.996-5.412l-1.9-.624c-.717 2.186-1.267 3.15-2.62 4.74l1.524 1.296Zm1.878-4.738 4.644.792.336-1.972-4.644-.792-.336 1.972Zm3.88-.556c-.251.645-.326.832-.544 1.415l1.872.702c.214-.569.283-.742.536-1.393l-1.864-.724Zm.392 2.766h1.512v-2h-1.512v2Zm2.512-1c0-.85-.041-1.255-.152-2.14l-1.984.248c.105.843.136 1.157.136 1.892h2Zm-1.144-1.016h5.148v-2h-5.148v2Zm4.162-1.164c-.12.715-.158 1.24-.158 2.18h2c0-.86.034-1.27.13-1.852l-1.972-.328Zm.842 3.18h2.808v-2h-2.808v2Zm2.808 0c1.813 0 2.686-.036 3.679-.15l-.23-1.987c-.879.101-1.662.137-3.449.137v2Zm2.564-1.144v3.924h2V29.2h-2Zm1.057 2.926c-1.269-.073-1.866-.11-3.585-.11v2c1.665 0 2.22.035 3.471.106l.114-1.996Zm-3.585-.11h-2.844v2h2.844v-2Zm-3.844 1v1.044h2v-1.044h-2Zm1 2.044h2.844v-2h-2.844v2Zm2.844 0c2.381 0 3.118-.035 4.048-.152l-.248-1.984c-.798.1-1.429.136-3.8.136v2Zm2.924-1.144v3.924h2v-3.924h-2Zm1.103 2.93c-1.094-.114-2.213-.15-3.739-.15v2c1.498 0 2.539.036 3.533.139l.206-1.99Zm-3.739-.15h-3.132v2h3.132v-2Zm-4.132 1v1.008h2v-1.008h-2Zm1 2.008h3.6v-2h-3.6v2Zm3.6 0c1.202 0 1.436 0 2.825-.073l-.106-1.998c-1.347.071-1.545.071-2.719.071v2Zm1.772-1.072V39.964h2V38.632h-2Zm0 1.332v2.52h2v-2.52h-2Zm0 2.52c0 .44-.057.736-.175 1.02l1.846.769c.242-.581.329-1.15.329-1.789h-2Zm.748 2.404h1.764v-2h-1.764v2Zm.773-1.135c-.117.857-.117 1.16-.117 2.043h2c0-.846 0-1.046.099-1.773l-1.982-.27Zm-.117 2.043v.612h2v-.612h-2Zm1 1.612h8.244v-2h-8.244v2Zm8.244 0c2.294 0 3.511-.035 4.413-.152l-.258-1.984c-.754.099-1.841.136-4.155.136v2Zm3.284-1.144v4.752h2v-4.752h-2Zm1 3.752a.556.556 0 0 1-.084-.008 1.673 1.673 0 0 0-.312-.028v2c-.028 0-.044-.002-.037-.002l.067.01c.08.011.206.028.366.028v-2Zm-.277-.029c-.972-.117-1.613-.115-3.719-.115v2c2.142 0 2.653.002 3.481.1l.238-1.985Zm-3.719-.115h-1.332v2h1.332v-2Zm-1.769 1.9 3.708 1.8.874-1.8-3.708-1.8-.874 1.8Zm3.52.12c-.366.292-.37.296-1.378 1.123l1.27 1.546c1.008-.829 1.004-.825 1.358-1.108l-1.25-1.562Zm-1.357 1.107c-.291.226-.983.712-1.804 1.247l1.092 1.676c.835-.545 1.583-1.067 1.94-1.345L205.85 53Zm-1.593 3.027c2.199.783 3.528 1.085 6.036 1.417l.262-1.982c-2.388-.316-3.579-.59-5.628-1.32l-.67 1.885Zm5.332-.125c-1.229 1.863-1.875 3.118-2.694 5.314l1.874.698c.765-2.052 1.343-3.173 2.49-4.91l-1.67-1.102Zm-1.503 4.696c-4.29-1.125-7.171-2.51-9.803-4.698l-1.278 1.538c2.912 2.42 6.079 3.915 10.573 5.094l.508-1.934Zm-17.274-8.861v4.176h2v-4.176h-2Zm1.124 5.168c2.034-.254 2.05-.257 4.332-.655l-.344-1.97c-2.254.393-2.238.391-4.236.64l.248 1.985Zm4.885-2.33c-1.332-1.4-2.094-2.53-2.8-4.11l-1.826.816c.806 1.804 1.7 3.121 3.176 4.673l1.45-1.378Zm-3.713-4.702h-.324v2h.324v-2Zm-.997.26c-.389.354-.384.35-.958.851l1.318 1.506c.578-.507.583-.511.986-.877l-1.346-1.48Zm10.393-.26h-4.032v2h4.032v-2Zm-4.857 1.565c.533.78 1.038 1.318 2 2.088l1.25-1.562c-.838-.67-1.197-1.068-1.6-1.656l-1.65 1.13Zm3.188 2.133c.85-.579 1.545-1.16 2.376-1.99l-1.414-1.415c-.753.753-1.354 1.252-2.088 1.753l1.126 1.652Zm-13.279 2.954v-1.98h-2v1.98h2Zm-1.564-2.806c-1.432.978-1.791 1.174-3.754 2.21l.932 1.769c1.997-1.053 2.43-1.29 3.95-2.327l-1.128-1.652Zm-3.264 4.094c1.514-.037 2.012-.076 3.94-.294l-.224-1.988c-1.888.214-2.326.247-3.764.282l.048 2ZM180.4 35.06h3.888v-2H180.4v2Zm4.888-1v-1.044h-2v1.044h2Zm-1-2.044h-3.276v2h3.276v-2Zm-4.17.553c-.19.38-.26.464-.57.967l1.704 1.048c.266-.433.412-.637.654-1.12l-1.788-.895Zm21.702 6.467h-5.292v2h5.292v-2Zm-4.297 1.095c.075-.786.113-1.322.113-2.543h-2c0 1.155-.034 1.627-.103 2.353l1.99.19Zm.113-2.543v-5.472h-2v5.472h2Zm0-5.472c0-.91-.036-2.117-.153-2.98l-1.982.271c.099.722.135 1.819.135 2.709h2Zm-1.144-1.844h5.328v-2h-5.328v2Zm4.338-1.141c-.12.839-.118 1.31-.118 2.985h2c0-1.708.002-2.03.098-2.703l-1.98-.282Zm-.118 2.985v5.4h2v-5.4h-2Zm0 5.4c0 1.447-.003 1.977.123 2.694l1.97-.348c-.09-.507-.093-.84-.093-2.346h-2Zm6.876-6.624v9.864h2v-9.864h-2Zm0 9.864c0 .952-.105 1.565-.283 1.99-.163.392-.41.68-.831.942l1.06 1.696c.731-.457 1.276-1.051 1.617-1.866.326-.78.437-1.698.437-2.762h-2Zm-1.131 2.943c-.661.432-1.638.665-4.385.665v2c2.725 0 4.268-.199 5.479-.991l-1.094-1.674Zm-4.385.665c-.416 0-1.24-.035-2.674-.072l-.052 2c1.374.035 2.278.072 2.726.072v-2Zm-1.711.778c-.269-1.767-.698-3.049-1.454-4.636l-1.806.86c.684 1.437 1.047 2.53 1.282 4.076l1.978-.3Zm-2.428-3.209c1.503.108 2.657.183 3.563.183v-2c-.822 0-1.9-.069-3.421-.178l-.142 1.995Zm3.563.183c.42 0 .791-.009 1.104-.042.301-.033.644-.096.953-.266.358-.197.6-.497.729-.86.109-.308.122-.629.122-.876h-2c0 .203-.018.238-.008.21a.442.442 0 0 1 .193-.226c.039-.022.009.006-.203.03-.2.02-.482.03-.89.03v2Zm2.908-2.044v-9.504h-2v9.504h2Zm0-9.504c0-1.213-.037-2.08-.15-3.098l-1.988.22c.103.926.138 1.715.138 2.878h2Zm-1.144-1.988h5.508v-2h-5.508v2Zm4.52-1.152c-.156 1.012-.192 1.829-.192 3.464h2c0-1.605.036-2.3.168-3.16l-1.976-.304Zm4.156 3.968-.674-.739-.818.747.826.738.666-.746Zm4.14-3.78.646-.763-.671-.569-.649.594.674.738Zm6.3 6.12-.754.657.821.944.74-1.01-.807-.591Zm2.808-5.94.176-.984-1.003-.18-.161 1.007.988.157Zm5.22.936.949.316.365-1.096-1.138-.204-.176.984Zm-.252.756.894.447.032-.063.023-.068-.949-.316Zm-.576 1.548-.928-.371-.549 1.371h1.477v-1Zm1.836 0v1h1v-1h-1Zm-.18-3.6v-1h-1.198l.214 1.179.984-.179Zm5.724 0 .982.187.226-1.187h-1.208v1Zm-.18 3.6h-1v1h1v-1Zm7.632-.216h1v-1.137l-1.128.145.128.992Zm0 5.076-.093.996 1.093.102v-1.098h-1Zm-7.632-.144v-1h-1v1h1Zm0 1.836h-1v1h1v-1Zm8.64-.144h1v-1.139l-1.129.147.129.992Zm0 5.04-.128.992 1.128.145v-1.137h-1Zm-23.112-.072h-1v1.074l1.071-.076-.071-.998Zm0-4.968.115-.993-1.115-.129v1.122h1Zm3.024.144v1h2.885l-2.266-1.785-.619.785Zm-3.852-2.34.44-.898-.63-.309-.504.488.694.719Zm-3.096 2.988-.791.611.682.884.803-.776-.694-.719Zm7.884-.648-.819-.574-1.102 1.574h1.921v-1Zm5.148 0v1h1v-1h-1Zm0-1.836h1v-1h-1v1Zm-3.96 0v-1h-.571l-.29.491.861.509ZM223.924 54.4l-.997-.083-.102 1.235 1.228-.16-.129-.992Zm.072-7.812h1v-.015l-1 .015Zm-.108-3.096.077-.997-1.191-.092.119 1.189.995-.1Zm19.728 0 .997.083.097-1.164-1.165.084.071.997ZM243.58 54.4l-.107.994 1.208.13-.105-1.21-.996.086Zm-14.472-6.408v-1h-1v1h1Zm0 1.908h-1v1h1v-1Zm9.108 0v1h1v-1h-1Zm0-1.908h1v-1h-1v1Zm-25.92-1.908h-1v1.139l1.129-.147-.129-.992Zm0-5.436.137-.99-1.137-.157v1.147h1Zm9.252.036.995.096.119-1.226-1.224.136.11.994Zm-.144 12.528h-1v.298l.164.25.836-.548Zm2.16 1.8.359-.933-.004-.002-.355.935Zm23.076 0 .947.32.509-1.502-1.575.19.119.992Zm-1.332 5.688.034 1 .846-.03.111-.839-.991-.131Zm-23.76-1.008-.414.91.004.002.41-.912Zm-2.808-2.052.747-.664-.648-.73-.745.63.646.764Zm-3.816 2.88-.53-.848-.036.023-.034.025.6.8Zm-1.044.756-.928.372.501 1.25 1.052-.841-.625-.781Zm-2.34-5.832-.342-.94-.971.353.385.96.928-.373Zm1.116-.504.53.848.012-.008.013-.008-.555-.832Zm.684-.396-.496-.868-.009.005-.009.006.514.857Zm2.736-1.764.577.817.423-.299v-.518h-1Zm0-6.876h1v-1h-1v1Zm-3.466-13.77 4.14-3.78-1.348-1.476-4.14 3.78 1.348 1.477Zm2.82-3.755c2.56 2.17 4.538 4.114 6.192 6.013l1.508-1.313c-1.73-1.988-3.784-4.003-6.408-6.226l-1.292 1.526Zm7.753 5.948c1.531-2.091 2.703-4.579 2.989-6.374l-1.976-.314c-.218 1.373-1.206 3.565-2.627 5.506l1.614 1.182Zm1.825-5.547 5.22.936.352-1.968-5.22-.936-.352 1.968Zm4.447-.364-.252.756 1.898.632.252-.756-1.898-.632Zm-.197.625c-.033.065-.059.137-.065.152l-.047.127-.129.36c-.102.285-.232.641-.369.985l1.856.742a32.392 32.392 0 0 0 .524-1.41l.037-.1c.016-.042.005-.009-.019.038l-1.788-.894Zm.318 2.995h1.836v-2h-1.836v2Zm2.836-1v-.612h-2v.612h2Zm0-.612c0-1.56-.035-2.282-.196-3.167l-1.968.358c.127.7.164 1.273.164 2.809h2Zm-1.18-1.988h5.724v-2h-5.724v2Zm4.742-1.187c-.163.855-.198 1.583-.198 3.175h2c0-1.576.037-2.144.162-2.8l-1.964-.375Zm-.198 3.175v.612h2v-.612h-2Zm1 1.612h3.384v-2h-3.384v2Zm3.384 0c2.007 0 3.204-.073 4.376-.224l-.256-1.984c-1.06.137-2.167.208-4.12.208v2Zm3.248-1.216v5.076h2V30.82h-2Zm1.093 4.08c-1.196-.112-2.238-.148-4.125-.148v2c1.857 0 2.831.036 3.939.14l.186-1.992Zm-4.125-.148h-3.6v2h3.6v-2Zm-4.6 1v1.836h2v-1.836h-2Zm1 2.836h5.292v-2h-5.292v2Zm5.292 0c1.665 0 2.582-.036 3.477-.152l-.258-1.984c-.761.1-1.572.136-3.219.136v2Zm2.348-1.144v5.04h2v-5.04h-2Zm1.128 4.048c-1.175-.151-2.158-.188-3.476-.188v2c1.274 0 2.163.035 3.22.172l.256-1.984Zm-3.476-.188H225.22v2h16.848v-2Zm-16.848 0c-1.107 0-1.959.037-2.987.11l.142 1.995c.988-.07 1.792-.105 2.845-.105v-2Zm-1.916 1.108v-4.968h-2v4.968h2Zm-1.115-3.975c.983.114 1.526.151 3.139.151v-2c-1.555 0-2.02-.035-2.909-.137l-.23 1.986Zm3.758-1.634c-1.26-.993-2.225-1.569-4.031-2.453l-.88 1.796c1.722.843 2.557 1.348 3.673 2.227l1.238-1.57Zm-5.165-2.274-3.096 2.987 1.388 1.44 3.096-2.989-1.388-1.438Zm-1.611 3.096c-1.879-2.433-4.155-4.817-6.569-6.974l-1.332 1.49c2.338 2.09 4.526 4.387 6.319 6.706l1.582-1.222Zm7.093.963h5.148v-2h-5.148v2Zm6.148-1v-1.836h-2v1.836h2Zm-1-2.836h-3.96v2h3.96v-2Zm-4.821.491a22.136 22.136 0 0 1-1.146 1.771l1.638 1.147a23.86 23.86 0 0 0 1.23-1.9l-1.722-1.018Zm13.641 18.049h-13.5v2h13.5v-2Zm-13.5 0c-1.429 0-2.034-.001-2.937.116l.258 1.984c.753-.099 1.228-.1 2.679-.1v-2Zm-1.811 1.191c.076-.917.075-.974.075-6.347h-2c0 5.427-.001 5.37-.069 6.181l1.994.166Zm.075-6.347v-1.548h-2v1.548h2Zm0-1.563c-.036-2.366-.036-2.41-.113-3.18l-1.99.199c.067.67.067.625.103 3.011l2-.03Zm-1.185-2.084c.974.075 2.119.111 4.073.111v-2c-1.934 0-3.021-.036-3.919-.105l-.154 1.994Zm4.073.111h12.06v-2h-12.06v2Zm12.06 0c1.746 0 2.706-.037 3.743-.11l-.142-1.995c-.979.07-1.891.105-3.601.105v2Zm2.675-1.191c-.075.902-.111 1.545-.111 3.899h2c0-2.326.036-2.907.105-3.733l-1.994-.166Zm-.111 3.899v3.672h2v-3.672h-2Zm0 3.672c0 2.183-.001 2.626.076 3.507l1.992-.174c-.067-.775-.068-1.124-.068-3.333h-2Zm1.179 2.426c-1.07-.115-1.698-.114-3.455-.114v2c1.771 0 2.295 0 3.241.102l.214-1.988Zm-15.579-5.414V49.9h2v-1.908h-2Zm1 2.908h9.108v-2h-9.108v2Zm10.108-1v-1.908h-2V49.9h2Zm-1-2.908h-9.108v2h9.108v-2Zm-24.92-.908v-5.436h-2v5.436h2Zm-1.137-4.445c1.099.151 1.686.189 3.125.189v-2c-1.369 0-1.862-.034-2.851-.17l-.274 1.98Zm3.125.189h3.492v-2h-3.492v2Zm3.492 0c1.185 0 1.87-.038 2.882-.15l-.22-1.988a20.92 20.92 0 0 1-2.662.138v2Zm1.777-1.24c-.113 1.161-.149 2.025-.149 4.164h2c0-2.109.036-2.901.139-3.972l-1.99-.192Zm-.149 4.164v8.46h2v-8.46h-2Zm.164 9.008c.361.551.704.999 1.141 1.363.444.37.928.607 1.5.824l.71-1.87c-.472-.179-.726-.32-.93-.49-.211-.176-.426-.43-.749-.923l-1.672 1.096Zm2.637 2.185c1.591.612 3.698.823 6.983.823v-2c-3.267 0-5.048-.221-6.265-.69l-.718 1.867Zm6.983.823c7.075 0 12.015-.216 16.571-.763l-.238-1.986c-4.444.533-9.296.749-16.333.749v2Zm15.505-2.077c-.812 2.4-1.044 3.363-1.376 5.878l1.982.262c.316-2.381.516-3.218 1.288-5.498l-1.894-.642Zm-.419 5.01c-3.19.107-7.39.179-12.926.179v2c5.552 0 9.776-.072 12.994-.18l-.068-2Zm-12.926.179c-6.62 0-8.456-.23-10.39-1.1l-.82 1.824c2.386 1.074 4.654 1.276 11.21 1.276v-2Zm-10.386-1.098c-1.069-.486-1.709-.945-2.475-1.806l-1.494 1.328c.962 1.083 1.834 1.704 3.141 2.298l.828-1.82Zm-3.868-1.905c-1.389 1.175-2.607 2.112-3.7 2.795l1.06 1.696c1.211-.757 2.513-1.764 3.932-2.965l-1.292-1.526Zm-3.77 2.843c-.127.095-.274.196-.468.332-.184.128-.395.278-.601.443l1.25 1.562c.154-.123.321-.243.497-.367.166-.116.361-.249.522-.37l-1.2-1.6Zm.484 1.184-2.34-5.832-1.856.744 2.34 5.832 1.856-.744Zm-2.926-4.52c.406-.148.922-.357 1.304-.596l-1.06-1.696c-.194.12-.542.272-.928.412l.684 1.88Zm1.329-.612.046-.027.135-.076c.115-.065.269-.152.462-.267l-1.028-1.715c-.167.1-.301.175-.411.236-.092.052-.219.122-.314.185l1.11 1.664Zm.625-.36c1.042-.595 1.573-.937 2.817-1.815l-1.154-1.634c-1.204.85-1.681 1.156-2.655 1.713l.992 1.736Zm3.24-2.632v-6.876h-2v6.876h2Zm-1-7.876h-1.512v2h1.512v-2Zm-1.512 0c-.748 0-1.554.078-2.397.188l.258 1.984c.813-.106 1.519-.172 2.139-.172v-2Zm58.932-1.232h1v-1h-1v1Zm-2.52 0v-1h-.921l-.076.918.997.082Zm-6.984 17.604-.798.603.721.954.811-.878-.734-.679Zm-4.104-4.212-.7-.714-.808.792.885.704.623-.782Zm3.636-4.644-.879-.477-.004.007.883.47Zm2.016-8.424.997.082v-.007l-.997-.075Zm.036-13.752-.012-1-1.104.013.122 1.097.994-.11Zm8.748-1.08.232.973.003-.001-.235-.972Zm5.112-1.656.898-.44-.45-.919-.908.471.46.888Zm2.556 5.22.232.973 1.216-.29-.55-1.123-.898.44Zm-1.872.468-.225-.974-.021.004-.021.006.267.964Zm-9.036 1.728-.114-.993-.886.101v.892h1Zm0 3.564h-1v1h1v-1Zm10.728-.18h1v-1.142l-1.132.15.132.992Zm0 5.508-.1.995 1.1.11v-1.105h-1Zm-2.952-.144v-1h-1v1h1Zm.216 17.244v1h1.163l-.174-1.15-.989.15Zm-5.796 0-.99-.138-.158 1.138h1.148v-1Zm-24.372-27.144h-1v1.109l1.103-.114-.103-.995Zm0-5.328.124-.992-1.124-.14v1.132h1Zm15.804 0h1v-1.166l-1.152.178.152.988Zm0 5.328-.11.994 1.11.123v-1.117h-1Zm-.684 15.048-.042 1 1.116.046-.076-1.115-.998.069Zm-8.64-.072v-1h-.962l-.037.961.999.039Zm-3.06 12.636-.774.633.934 1.141.715-1.29-.875-.484Zm-4.5-4.284-.884-.468-.406.768.703.51.587-.81Zm1.728-4.68-.975-.224-.003.016-.003.016.981.192Zm.504-16.992.059-.998-1.184-.07.131 1.178.994-.11Zm14.004 0 .997.083.095-1.151-1.152.07.06.998Zm-8.604 8.676-.999-.038-.04 1.038h1.039v-1Zm3.312 0v1h1v-1h-1Zm0-3.96h1v-1h-1v1Zm-3.276 0v-1h-1v1h1Zm18 2.528h-2.52v2h2.52v-2Zm-3.517.918c-.357 4.324-.887 7.303-1.886 9.825-.992 2.505-2.472 4.625-4.835 7.182l1.468 1.358c2.461-2.663 4.113-4.99 5.227-7.803 1.107-2.797 1.657-6.01 2.02-10.398l-1.994-.164Zm-5.189 17.083c-1.382-1.83-2.448-2.934-4.279-4.391l-1.246 1.564c1.697 1.351 2.647 2.334 3.929 4.033l1.596-1.206Zm-4.202-2.895c1.923-1.886 2.858-3.082 3.819-4.888l-1.766-.94c-.839 1.578-1.632 2.614-3.453 4.4l1.4 1.428Zm3.815-4.881c1.25-2.305 1.805-4.845 2.134-8.819l-1.994-.164c-.319 3.874-.844 6.086-1.898 8.03l1.758.953Zm2.134-8.826c.148-1.952.183-4.008.183-10.227h-2c0 6.236-.037 8.213-.177 10.077l1.994.15Zm.183-10.227c0-1.998-.036-2.687-.15-3.71l-1.988.22c.102.92.138 1.527.138 3.49h2Zm-1.132-2.6a39.032 39.032 0 0 0 8.968-1.107l-.464-1.946a37.03 37.03 0 0 1-8.528 1.053l.024 2Zm8.971-1.108c2.24-.542 4.25-1.176 5.337-1.74l-.92-1.776c-.857.444-2.663 1.034-4.887 1.572l.47 1.944Zm3.979-2.188 2.556 5.22 1.796-.88-2.556-5.22-1.796.88Zm3.222 3.807c-.391.093-.637.16-.891.226-.25.066-.518.136-.974.24l.45 1.95c.48-.111.77-.186 1.033-.255.259-.069.481-.128.846-.215l-.464-1.946Zm-1.907.477c-3.327.92-5.471 1.308-8.883 1.699l.228 1.986c3.5-.4 5.748-.806 9.189-1.757l-.534-1.928Zm-9.769 2.692v3.564h2v-3.564h-2Zm1 4.564h7.092v-2h-7.092v2Zm7.092 0c1.892 0 2.625-.036 3.768-.189l-.264-1.982c-1.017.135-1.652.171-3.504.171v2Zm2.636-1.18v5.508h2v-5.508h-2Zm1.1 4.513c-1.11-.111-1.611-.149-3.052-.149v2c1.367 0 1.802.034 2.852.139l.2-1.99Zm-4.052.851v13.104h2V43.672h-2Zm0 13.104c0 1.99.035 3.024.227 4.29l1.978-.3c-.168-1.11-.205-2.02-.205-3.99h-2Zm1.216 3.14h-5.796v2h5.796v-2Zm-4.806 1.138c.19-1.365.226-2.463.226-4.278h-2c0 1.785-.036 2.775-.206 4.002l1.98.276Zm.226-4.278V43.672h-2v13.104h2Zm-24.588-23.004v-5.328h-2v5.328h2Zm-1.124-4.336c1.216.152 2.168.188 4.48.188v-2c-2.296 0-3.144-.036-4.232-.172l-.248 1.984Zm4.48.188h7.02v-2h-7.02v2Zm7.02 0c2.438 0 3.557-.034 4.58-.192l-.304-1.976c-.849.13-1.818.168-4.276.168v2Zm3.428-1.18v5.328h2v-5.328h-2Zm1.11 4.334c-1.031-.114-2.267-.15-4.25-.15v2c1.977 0 3.117.036 4.03.138l.22-1.988Zm-4.25-.15h-7.668v2h7.668v-2Zm-7.668 0c-1.882 0-3.003.036-4.099.15l.206 1.989c.992-.103 2.031-.139 3.893-.139v-2Zm10.052 6.652v6.336h2V39.28h-2Zm0 6.336c0 1.982 0 2.192.074 3.273l1.996-.138c-.07-1.007-.07-1.157-.07-3.135h-2Zm1.114 2.205a79.541 79.541 0 0 0-3.858-.073v2c2.035 0 2.921.036 3.774.071l.084-1.998Zm-3.858-.073h-4.824v2h4.824v-2Zm-5.823.961c-.212 5.475-1.017 8.73-2.936 12.19l1.75.97c2.113-3.812 2.964-7.397 3.184-13.082l-1.998-.078Zm-1.287 12.042c-1.672-2.044-2.779-3.076-4.687-4.46l-1.174 1.618c1.764 1.28 2.745 2.192 4.313 4.108l1.548-1.266Zm-4.39-3.183c1.006-1.901 1.442-3.002 1.825-4.956l-1.962-.384c-.337 1.718-.693 2.633-1.631 4.404l1.768.936Zm1.819-4.924c.532-2.321.745-6.136.745-11.6h-2c0 5.48-.219 9.081-.695 11.152l1.95.448Zm.745-11.6c0-2.89-.036-4.05-.222-5.726l-1.988.22c.174 1.564.21 2.635.21 5.506h2Zm-1.275-4.618c1.243.073 2.126.11 3.947.11v-2c-1.779 0-2.624-.035-3.829-.106l-.118 1.996Zm3.947.11h6.264v-2h-6.264v2Zm6.264 0c1.857 0 2.705-.037 3.912-.11l-.12-1.996c-1.169.07-1.977.106-3.792.106v2Zm2.855-1.191c-.075.907-.111 2.345-.111 3.935h2c0-1.578.036-2.948.105-3.769l-1.994-.166Zm-7.607 9.759h3.312v-2h-3.312v2Zm4.312-1v-3.96h-2v3.96h2Zm-1-4.96h-3.276v2h3.276v-2Zm-4.276 1v1.764h2v-1.764h-2Zm0 1.764c0 1.216 0 1.238-.035 2.158l1.998.076c.037-.952.037-1.002.037-2.234h-2Z" mask="url(#b)"/><path fill="#25E9F2" stroke="#000" d="m138.5 34 2.566 6.934L148 43.5l-6.934 2.566L138.5 53l-2.566-6.934L129 43.5l6.934-2.566L138.5 34Z"/><path fill="#000" d="m284.5 34 2.566 6.934L294 43.5l-6.934 2.566L284.5 53l-2.566-6.934L275 43.5l6.934-2.566L284.5 34Z"/><path fill="#fff" d="m317 5 1.891 5.11L324 12l-5.109 1.89L317 19l-1.891-5.11L310 12l5.109-1.89L317 5ZM79 4l1.35 3.65L84 9l-3.65 1.35L79 14l-1.35-3.65L74 9l3.65-1.35L79 4Z"/><path fill="#000" d="m360.002-17.136 14.112-4.378c-12.454 23.53-29.246 44.629-49.525 61.96-5.002 4.267-11.83-3.331-6.834-7.612 16.7-14.262 31.007-31.177 42.247-49.97ZM38.756-22.422l-13.52-6.179c9.41 25.077 23.46 48.283 41.473 68.177 4.444 4.899 12.231-1.807 7.795-6.72C59.669 16.485 47.562-2.228 38.756-22.421Z"/><path fill="#fff" d="m331.64 39.262-.003.016c4.912 5.715-.004 21.424-5.031 23.594-6.713 2.351-5.369-10.387-5.369-10.387s-5.638 6.03-14.641 10.54c-10.339 5.163-7.069-3.428-7.069-3.428s-4.881 3.563-7.45.123c-2.072-2.772 1.62-6.076 1.62-6.076-1.994.44-6.085.92-6.092-2.21-.003-2.95 2.987-4.822 4.777-6.125 2.493-1.82 5.067-3.472 7.686-5.066.749-.456 2.201-1.033 2.675-1.91 6.894-12.843 16.125-10.013 16.125-10.013-2.088-2.104-1.313-7.615 3.285-7.539 3.059.06 18.556 10.972 17.149 16.751-1.383 5.67-7.662 1.73-7.662 1.73Z"/><path fill="#000" d="M338.079 32.607c1.314 1.948 1.82 3.633 1.489 4.985-.352 1.444-1.043 2.437-2.065 2.93-1.647.795-3.727.101-4.952-.467 1.553 2.656 1.835 6.929.731 11.744-1.268 5.548-3.971 10.219-6.591 11.354-1.515.53-2.771.364-3.728-.488-2.291-2.05-2.171-7.462-2.033-9.462-1.584 1.563-6.789 6.38-14.214 10.079-3.69 1.846-6.129 2.17-7.257.968-.999-1.058-.675-2.968-.397-4.02-1.454.855-5.075 2.52-7.202-.329a3.345 3.345 0 0 1-.661-2.44c.146-1.377 1.044-2.634 1.69-3.358-1.525.25-3.604.342-4.732-.663-.553-.484-.816-1.149-.817-2 .002-.54.086-1.046.25-1.517.687-2.025 2.663-3.435 4.17-4.524l.475-.353c2.161-1.581 4.539-3.147 7.704-5.078.185-.106.402-.222.636-.35.717-.38 1.602-.854 1.924-1.438 5.762-10.736 13.24-10.656 15.662-10.312-.75-1.249-.895-3.034-.288-4.57.715-1.822 2.282-2.848 4.304-2.822 1.215.025 4.212 1.611 7.448 3.971 3.692 2.691 6.764 5.654 8.454 8.16Zm-46.348 24.907c-.076.736.1 1.398.552 2.006 2.387 3.203 7.055-.129 7.107-.166l.717-.512-.031.075 11.729-7.505L307 45.54l-13.149 8.335c-.167.16-1.919 1.816-2.12 3.639Zm30.416-36.44c-2.447-.037-3.411 1.517-3.781 2.45-.621 1.597-.325 3.563.684 4.575l.158.15 2.379 2.12c.108.105.126.29.025.414-.102.125-.27.153-.378.047l-2.526-2.25c-.403-.107-2.503-.576-5.266.216-2.841.808-6.961 3.132-10.481 9.684-.402.746-1.371 1.267-2.154 1.682-.231.112-.434.23-.605.34-3.161 1.915-5.522 3.468-7.669 5.053l-.489.35c-1.752 1.263-4.168 3-4.158 5.525-.014.652.197 1.158.614 1.53 1.24 1.095 3.955.653 5.127.407l13.012-8.251-1.811-2.223a.293.293 0 0 1-.053-.29.192.192 0 0 1 .07-.115.254.254 0 0 1 .378.019l8.074 9.86a.327.327 0 0 1-.035.418c-.112.107-.287.1-.378-.018l-.739-.903-12.397 7.93c-.168.487-.935 2.936.088 4.016.666.706 2.36 1.084 6.676-1.065 8.471-4.236 14.015-9.91 14.515-10.438l.687-1.763c-1.008-.225-4.05-1.084-5.407-3.697-.856-1.632-.883-3.62-.105-5.92a.28.28 0 0 1 .35-.184c.137.047.203.21.151.378-.726 2.131-.706 3.954.069 5.42 1.494 2.857 5.337 3.485 5.365 3.491l.326.057-.96 2.455c-.055.578-.649 7.456 1.799 9.656.809.721 1.894.865 3.217.407 2.406-1.035 5.019-5.629 6.227-10.912 1.208-5.283.713-9.848-1.319-12.202l-.081-.1.091-.602.336.206c.038.025 3.334 2.054 5.527.987.857-.414 1.44-1.25 1.754-2.524.292-1.18-.178-2.693-1.409-4.49-3.789-5.613-13.245-11.85-15.498-11.895Z"/><path fill="#fff" d="M61.445 38.68v.015c-6.629 4.44-5.117 20.596-.252 23.761 6.63 3.7 8.235-8.833 8.235-8.833s4.598 7.007 13.164 13.274c9.841 7.18 8.393-1.78 8.393-1.78s4.377 4.472 7.951 1.716c2.882-2.22-.283-6.188-.283-6.188 2.031.85 6.298 2.189 7.054-.819.709-2.834-2.047-5.274-3.653-6.912-2.236-2.283-4.598-4.425-7.023-6.519-.692-.598-2.11-1.464-2.409-2.409-4.314-13.825-14.88-13.085-14.88-13.085 2.74-1.575 3.228-7.038-1.716-7.952-3.291-.598-22.501 6.566-22.375 12.424.126 5.747 7.794 3.306 7.794 3.306Z"/><path fill="#000" d="M56.139 30.901c-1.874 1.59-2.819 3.102-2.787 4.472.031 1.464.535 2.567 1.511 3.26 1.575 1.117 3.968.897 5.417.613-2.299 2.22-3.622 6.267-3.59 11.133.031 5.605 1.81 10.676 4.346 12.33 1.496.834 2.881.944 4.11.33 2.944-1.48 4.11-6.708 4.44-8.66 1.323 1.842 5.747 7.589 12.817 12.738 3.511 2.567 6.047 3.401 7.542 2.488 1.323-.803 1.433-2.709 1.386-3.78 1.354 1.135 4.834 3.512 7.794 1.229.756-.583 1.181-1.323 1.292-2.204.173-1.355-.489-2.756-1.008-3.59 1.574.566 3.779 1.102 5.228.377.708-.346 1.149-.929 1.354-1.748.126-.52.157-1.023.094-1.511-.252-2.094-2.031-3.874-3.385-5.244l-.425-.44c-1.937-1.984-4.11-4-7.039-6.535-.173-.142-.378-.3-.598-.472-.677-.52-1.512-1.166-1.717-1.795-3.605-11.558-11.636-13.086-14.313-13.274 1.102-1.04 1.685-2.724 1.402-4.33-.33-1.906-1.764-3.229-3.937-3.638-1.307-.236-4.897.646-8.928 2.22-4.598 1.795-8.597 3.984-11.006 6.031Zm43.695 33.886c-.094.724-.44 1.322-1.07 1.81-3.323 2.567-7.527-1.637-7.575-1.684l-.645-.646.016.079-10.77-9.731L86.34 50l12.093 10.833c.141.19 1.621 2.157 1.401 3.953ZM75.963 23.233c2.63.488 3.29 2.188 3.464 3.165.283 1.669-.504 3.495-1.826 4.251l-.205.11-3.055 1.528c-.142.078-.205.252-.126.393.079.142.252.205.394.126l3.244-1.622c.456-.015 2.818-.015 5.59 1.339 2.85 1.385 6.707 4.503 8.912 11.557.252.803 1.165 1.512 1.905 2.079.22.157.41.315.567.457 2.928 2.519 5.086 4.519 7.007 6.503l.441.44c1.574 1.59 3.747 3.78 3.133 6.205-.142.63-.488 1.07-1.023 1.338-1.591.787-4.394-.22-5.59-.709L86.828 49.67l2.472-1.748a.279.279 0 0 0 .126-.267.179.179 0 0 0-.047-.126.299.299 0 0 0-.41-.063l-11.006 7.747a.299.299 0 0 0-.063.41.299.299 0 0 0 .41.062l1.007-.708L90.7 65.259c.063.504.3 3.023-1.055 3.842-.882.535-2.787.535-6.897-2.456-8.061-5.89-12.644-12.534-13.053-13.148l-.315-1.843c1.134 0 4.598-.173 6.677-2.393 1.306-1.386 1.81-3.291 1.527-5.669-.016-.157-.173-.267-.33-.252-.158.016-.268.158-.253.331.268 2.205-.189 3.952-1.37 5.196-2.283 2.425-6.55 2.205-6.582 2.205l-.362-.016.441 2.567c-.079.566-1.086 7.306-4.236 8.896-1.039.52-2.235.425-3.542-.3-2.33-1.51-4.031-6.486-4.063-11.824-.031-5.338 1.59-9.621 4.33-11.448l.11-.079.048-.598-.41.126c-.047.016-4.062 1.26-6.156-.236-.82-.583-1.244-1.512-1.276-2.803-.031-1.197.835-2.55 2.583-4.015 5.4-4.582 17.021-8.55 19.446-8.11Z"/></g><defs><clipPath id="a"><path fill="#fff" d="M0 0h375v812H0z"/></clipPath></defs></svg>