<svg xmlns="http://www.w3.org/2000/svg" width="375" height="812" fill="none"><path fill="#FB7AC0" d="M153.336 351.716h-14.185L103.4 315.965h24.051l25.885 35.751Z"/><path fill="#FB7AC0" d="m136.57 280.177 15.696 35.788h-24.815l-25.867-35.788h34.986ZM180.025 351.716h-12.082l-15.677-35.751h20.514l7.245 35.751ZM191.993 280.177l-.439 35.788H172.78l-7.284-35.788h26.497Z"/><path fill="#FB7AC0" d="m210.442 315.965-8.221 35.751h-11.126l.459-35.751h18.888ZM248.085 280.177 231.3 315.965h-20.858l8.221-35.788h29.422ZM256.879 315.965l-27.3 35.751h-15.084l16.805-35.751h25.579Z"/><path fill="#FB7AC0" d="M313.258 280.177v18.162l-35.769 30.474v-12.848h-20.61l27.301-35.788h29.078Z"/><path fill="#FB7AC0" d="m311.48 244.407-27.3 35.77h-36.095l16.786-35.77h46.609ZM226.865 244.407l-8.202 35.77h-26.67l.459-35.77h34.413ZM158.25 244.407l7.246 35.77H136.57l-15.677-35.77h37.357ZM75.698 244.407l25.886 35.77H67.592l-35.75-35.77h43.856ZM105.197 208.637l15.696 35.77H75.698l-25.885-35.77h55.384ZM192.93 208.637l-.478 35.77H158.25l-7.265-35.77h41.945ZM281.675 208.637l-16.804 35.77h-38.007l8.221-35.77h46.59ZM384.798 208.637v28.696l-35.77 30.493v-23.419H311.48l27.301-35.77h46.017ZM366.081 172.868l-27.3 35.769h-57.106l16.786-35.769h67.62ZM243.306 172.868l-8.221 35.769H192.93l.459-35.769h49.917ZM143.739 172.868l7.246 35.769h-45.788l-15.676-35.769h54.218ZM23.946 172.868l25.867 35.769H-3.947l-35.75-35.769h63.643Z"/><path fill="#FB7AC0" d="m73.825 137.098 15.696 35.77H23.946l-25.885-35.77h75.764ZM193.847 137.098l-.458 35.77h-49.65l-7.265-35.77h57.373ZM315.246 137.098l-16.785 35.77h-55.156l8.221-35.77h63.72ZM456.337 137.098v39.249l-35.769 30.512v-33.991h-54.487l27.301-35.77h62.955ZM420.682 101.328l-27.301 35.77h-78.135l16.805-35.77h88.631ZM259.747 101.328l-8.22 35.77h-57.679l.439-35.77h65.46ZM129.21 101.328l7.265 35.77h-62.65l-15.677-35.77h71.062ZM348.837 65.54l-16.786 35.788h-72.304l8.221-35.789h80.869ZM194.746 65.54l-.459 35.788H129.21l-7.265-35.789h72.801ZM42.453 65.54l15.695 35.788h-85.973l-25.867-35.789h96.144ZM277.489 328.813v27.434L241.7 375.48v-16.174l35.789-30.493ZM313.258 337.053v30.665l-35.769 10.266v-21.737l35.769-19.194ZM349.028 267.826v50.013l-35.77 19.214v-38.714l35.77-30.513ZM384.798 298.626v48.54l-35.77 10.266v-39.593l35.77-19.213ZM384.798 390.009v41.639l-35.77-5.276v-33.973l35.77-2.39ZM349.028 357.432v34.967l-35.77 2.39v-27.071l35.77-10.286ZM313.258 394.789v26.306l-35.769-5.257v-18.659l35.769-2.39ZM277.489 377.984v19.195l-35.789 2.389V388.27l35.789-10.286ZM384.798 476.021v52.211l-35.77-23.037v-42.614l35.77 13.44ZM349.028 426.372v36.209l-35.77-13.44v-28.046l35.77 5.277ZM313.258 449.141v32.998l-35.769-23.037v-23.401l35.769 13.44ZM277.489 415.838v19.863l-35.789-13.44v-11.7l35.789 5.277ZM277.489 459.102v30.952h-.02l-35.769-35.77v-18.239l35.789 23.057ZM349.028 505.195v56.417l-35.77-35.789v-43.684l35.77 23.056ZM322.721 704.691l15.696 35.77h-79.492l-7.265-35.77h71.061ZM420.568 633.151l35.769 35.77H382.81l-25.886-35.77h63.644ZM382.81 668.921l25.885 35.77h-85.973l-15.696-35.77h75.784ZM291.349 633.151l15.677 35.77h-62.631l-7.265-35.77h54.219Z"/><path fill="#FB7AC0" d="m331.038 597.363 25.886 35.788h-65.575l-15.696-35.788h55.385ZM349.028 561.612l35.77 35.751h-53.76l-25.867-35.751h43.857ZM259.977 561.612l15.676 35.751h-45.768l-7.265-35.751h37.357ZM279.286 525.823l25.885 35.789h-45.195l-15.695-35.789h35.005ZM277.489 490.054l35.769 35.769h-33.972L253.4 490.054h24.089ZM228.604 490.054l15.677 35.769h-28.926l-7.264-35.769h20.513ZM253.4 490.054h-24.796l-15.696-35.77h14.625l25.867 35.77ZM208.09 490.054h-18.773l.458-35.77h11.07l7.245 35.77ZM215.355 525.823l7.265 35.789h-34.221l.459-35.789h26.497ZM229.885 597.363l7.246 35.788h-49.65l.459-35.788h41.945ZM244.395 668.921l7.265 35.77h-65.096l.458-35.77h57.373ZM186.564 704.691l-.459 35.77h-73.222l8.221-35.77h65.46ZM187.481 633.151l-.459 35.77h-57.698l8.221-35.77h49.936ZM188.399 561.612l-.459 35.751h-42.155l8.221-35.751h34.393ZM189.317 490.054l-.459 35.769h-26.632l8.221-35.769h18.87ZM475.283 29.77l-27.281 35.77h-99.165l16.805-35.77h109.641ZM434.562 740.461l25.866 35.769H354.094l-15.677-35.769h96.145ZM382.427-6l-16.785 35.77h-89.453L284.409-6h98.018ZM354.094 776.23 369.79 812h-96.354l-7.265-35.77h87.923Z"/><path fill="#FB7AC0" d="m276.189 29.77-8.221 35.77h-73.222l.459-35.77h80.984ZM258.925 740.461l7.246 35.769h-80.506l.44-35.769h72.82ZM195.683-6l-.478 35.77H114.68L107.435-6h88.248ZM185.665 776.23l-.478 35.77H96.461l8.221-35.77h80.983ZM178.649 454.284l-8.202 35.77H149.59l16.766-35.77h12.293ZM162.226 525.823l-8.22 35.789h-38.007l16.786-35.789h29.441ZM151.291 454.284l-27.281 35.77h-20.629v-12.848l35.77-30.512v7.59h12.14ZM149.59 490.054l-16.805 35.769H96.69l27.32-35.769h25.58ZM145.785 597.363l-8.24 35.788H82.409l16.786-35.788h46.59ZM139.151 417.73v12.809l-35.77 19.214v-21.737l35.77-10.286ZM139.151 395.458v10.974l-35.77 2.389v-18.64l35.77 5.277ZM139.151 369.955v13.784l-35.77-13.44v-23.382l35.77 23.038ZM129.324 668.921l-8.22 35.77H48.819l16.785-35.77h63.72Z"/><path fill="#FB7AC0" d="m114.68 29.77 7.265 35.77H42.453L26.776 29.77h87.904ZM115.999 561.612l-16.804 35.751H42.089l27.3-35.751H116ZM112.883 740.461l-8.201 35.769H15.248l16.766-35.769h80.869ZM67.612 280.177l35.769 35.788v30.952l-35.788-23.056v-43.684h.019ZM103.381 449.753v27.453l-35.788 30.493v-38.752l35.788-19.194ZM103.381 408.821v19.195l-35.788 10.285v-27.09l35.788-2.39ZM103.381 370.299v19.882l-35.788-5.276v-28.046l35.788 13.44ZM96.69 525.823l-27.3 35.789H31.842v-23.439l35.75-30.474v18.124H96.69ZM82.41 633.151l-16.805 35.77h-78.117l27.301-35.77h67.62ZM67.593 438.301v30.646L31.842 488.18v-39.612l35.75-10.267ZM67.593 384.905v26.306l-35.751 2.39v-33.954l35.75 5.258ZM67.593 323.861v32.998l-35.751-13.421v-42.614l35.75 23.037ZM48.819 704.691l-16.805 35.77h-99.126l27.3-35.77h88.63Z"/><path fill="#FB7AC0" d="m42.09 597.363-27.301 35.789h-54.486V599.16l35.75-30.493v28.696H42.09ZM-3.928 208.637l35.77 35.77v56.417l-35.789-23.056v-69.131h.02Z"/><path fill="#FB7AC0" d="M31.842 488.18v49.993l-35.789 30.494v-61.293l35.79-19.194ZM31.842 413.601v34.967l-35.789 10.285v-42.862l35.79-2.39ZM31.842 343.438v36.209l-35.789-5.276v-44.373l35.79 13.44ZM11.08-6l15.696 35.77H-79.577L-105.463-6H11.08ZM15.248 776.23-1.557 812h-120.156l27.3-35.77h109.66Z"/></svg>