<svg width="96" height="25" viewBox="0 0 96 25" fill="none" xmlns="http://www.w3.org/2000/svg">
<mask id="path-1-outside-1_624_5627" maskUnits="userSpaceOnUse" x="0" y="0" width="96" height="25" fill="black">
<rect fill="white" width="96" height="25"/>
<path d="M5.3999 17.9802V15.0063C6.04554 15.0782 6.45205 15.1022 7.59985 15.1022C7.62376 14.8144 7.62376 14.3107 7.64767 13.5912C6.81074 13.6152 6.28466 13.6392 5.73467 13.6872V10.8092C6.42814 10.8811 7.07377 10.9051 8.29331 10.9051H14.7497C16.017 10.9051 16.7105 10.8811 17.404 10.8092V13.6872C16.8301 13.6392 16.5192 13.6152 15.5388 13.5912V15.1022C16.6627 15.1022 17.0453 15.0782 17.6909 15.0063V17.9802C17.0214 17.9082 16.6388 17.9082 15.5388 17.8843V21.0261C15.5388 22.1293 15.5627 22.585 15.6344 23.0407H12.215C12.2867 22.4171 12.3106 22.1053 12.3106 21.0021V17.8843H10.6128C10.2541 20.3785 9.6085 21.7456 7.93462 23.4963C6.95421 22.3931 6.45205 21.9614 5.23251 21.17C6.49987 20.1147 7.02595 19.2993 7.33681 17.8843C6.42814 17.9082 5.87815 17.9322 5.3999 17.9802ZM12.3106 13.5912H10.8041C10.8041 14.1908 10.8041 14.5026 10.7802 15.1022H12.3106V13.5912ZM4.70644 10.0657V20.4745C4.70644 22.0094 4.75426 22.8728 4.84991 23.6642H1C1.09565 22.8968 1.14347 22.0813 1.14347 20.4265V4.47758C1.14347 3.1585 1.11956 2.51095 1.04782 1.74348C1.69346 1.81543 2.26736 1.83942 3.46299 1.83942H8.53243C9.82371 1.83942 10.3737 1.81543 10.9715 1.74348C10.9237 2.46298 10.8998 2.99062 10.8998 3.92596V8.02711C10.8998 9.27424 10.8998 9.63399 10.9476 10.1137C10.4454 10.0897 9.63241 10.0657 8.98677 10.0657H4.70644ZM4.70644 4.18978V5.07716H7.59985V4.18978H4.70644ZM4.70644 6.99583V7.88321H7.59985V6.99583H4.70644ZM21.9713 4.4536V20.1147C21.9713 21.4338 21.8278 22.0574 21.4213 22.585C20.8474 23.3045 19.9865 23.4963 17.2844 23.4963C17.1648 23.4963 16.9975 23.4963 16.6627 23.4724C16.4953 21.9374 16.304 21.194 15.8018 19.9468C16.5192 20.0188 17.0931 20.0667 17.7148 20.0667C18.3126 20.0667 18.4322 19.9948 18.4322 19.5151V10.0897H13.9845C13.2432 10.0897 12.741 10.1137 12.0237 10.1376C12.0715 9.61001 12.0715 9.15433 12.0715 8.02711V3.92596C12.0715 3.08655 12.0476 2.41502 11.9997 1.74348C12.6215 1.81543 13.1715 1.83942 14.4388 1.83942H19.6517C20.8474 1.83942 21.4213 1.81543 22.0669 1.74348C21.9952 2.51095 21.9713 3.18248 21.9713 4.4536ZM15.4192 4.18978V5.07716H18.4322V4.18978H15.4192ZM15.4192 6.99583V7.88321H18.4322V6.99583H15.4192Z"/>
<path d="M34.071 12.0323L33.7601 9.92179C33.4732 12.4161 33.0427 14.1908 32.2058 16.3014C32.9949 16.9249 33.1862 17.0928 34.1188 17.9802V14.9103C34.1188 13.999 34.0949 13.2555 34.0471 12.6319C34.5731 12.6799 35.147 12.7039 36.0079 12.7039H43.4447C44.6403 12.7039 45.1903 12.6799 45.6924 12.6079C45.6207 13.3274 45.5968 14.0229 45.5968 14.9823V21.4818C45.5968 22.3931 45.6446 23.0646 45.7403 23.7841H42.0577V22.7769H37.6578V23.7602H34.0232C34.0949 23.2325 34.1188 22.6329 34.1188 21.6017V18.9635L32.3254 21.6496C31.3928 20.6184 31.1058 20.3306 30.3885 19.635C29.3124 21.194 28.4755 22.0574 26.419 23.6642C25.7016 22.4891 25.0321 21.6976 23.9082 20.6903C25.5342 19.635 26.6103 18.6517 27.6385 17.2847C26.5625 16.4213 25.9646 16.0375 24.3386 15.0302C25.1994 13.0876 25.7494 11.2888 26.2755 8.62669H25.9646C25.4864 8.62669 25.0081 8.65068 24.4821 8.72263V5.22106C25.1516 5.29301 25.7255 5.34098 26.419 5.34098H26.8255C27.0407 3.80605 27.1842 2.12722 27.1842 1L30.8667 1.33577C30.795 1.76747 30.7232 2.19917 30.6276 2.91866C30.508 3.75808 30.3885 4.57351 30.2928 5.34098H31.9906C32.8514 5.34098 33.4732 5.317 34.0949 5.22106C34.071 5.84463 34.071 5.84463 34.0471 6.27633C34.0231 7.04379 33.9992 7.13973 33.9036 8.31491C34.3101 8.31491 34.4058 8.33889 34.8601 8.33889C35.984 5.34098 36.7253 2.63087 36.8687 1.09593L40.886 1.79145C40.7187 2.12722 40.7187 2.12722 40.2643 3.63816C39.7382 5.41293 39.2361 6.82794 38.6861 8.19499C40.3839 8.07508 40.4317 8.07508 41.7469 7.95516C41.2208 6.99583 40.886 6.44421 40.0013 5.14911L43.2534 3.66215C45.1425 6.56413 45.8598 7.90719 47.0794 10.7132L43.7555 12.6559C43.4686 11.8405 43.349 11.5527 43.1338 11.025C41.2447 11.2649 38.6383 11.5287 36.2948 11.7445C34.9079 11.8644 34.621 11.8884 34.071 12.0323ZM30.5798 8.62669H29.5993C29.2646 10.5454 28.9298 11.8644 28.3559 13.5912C28.8581 13.903 28.9776 13.975 29.3363 14.2148C30.0537 12.3921 30.3167 11.1449 30.5798 8.62669ZM37.6339 16.0375V19.4672H42.0577V16.0375H37.6339Z"/>
<path d="M62.4551 20.7143V22.537C59.9204 23.0167 58.9639 23.1606 55.9748 23.5443L53.3684 23.8801C52.9618 23.928 52.8901 23.952 52.3879 24L51.9814 21.074C51.0488 21.5297 50.7141 21.6976 49.6141 22.1773C49.0402 20.8342 48.6337 20.0907 47.9402 19.1554C50.3076 18.6517 52.2206 17.9082 53.7749 16.853H51.001C49.3989 16.853 49.3989 16.853 48.3706 16.9489V13.7831C49.0402 13.8551 49.4945 13.879 51.1445 13.879H58.4378V13.4713C58.4378 13.3514 58.4378 13.2795 58.4378 13.1116C58.103 13.1116 57.9835 13.1116 57.6009 13.1116C57.5291 12.56 57.3617 11.9124 57.1704 11.5527C57.6487 11.6246 57.7204 11.6246 57.8878 11.6246C58.1269 11.6246 58.2226 11.5287 58.2226 11.2888V10.8092H56.8118V11.3608C56.8118 12.2482 56.8357 12.6079 56.8835 13.3274H53.5118C53.5836 12.512 53.5836 12.4161 53.5836 11.3848V10.8092H52.3879V11.9124C52.3879 12.6559 52.3879 12.7998 52.4358 13.1116H49.1837C49.1837 12.9197 49.1837 12.9197 49.2315 12.56C49.2315 12.44 49.2554 11.9124 49.2554 11.7205V9.94578C49.2554 9.77789 49.2554 9.39416 49.2315 9.25026C49.2076 8.86653 49.2076 8.86653 49.2076 8.69864C49.4228 8.72263 49.8771 8.72263 50.5467 8.74661H53.5836V8.07508H50.6662C49.6619 8.07508 49.0163 8.09906 48.275 8.17101V5.55683C48.8011 5.62878 49.1598 5.65276 50.1402 5.65276C49.5184 5.22106 48.7772 4.81335 47.988 4.42961C48.9445 3.3024 49.3511 2.5829 49.8532 1.04797L52.9379 1.5756C52.7705 2.0073 52.7227 2.12722 52.5792 2.51095H53.5836C53.5836 1.98332 53.5597 1.74348 53.4879 1.16788H56.9074C56.8357 1.59958 56.8118 1.91137 56.8118 2.51095H58.6769C59.8726 2.51095 60.4225 2.48696 61.0443 2.41502V5.0292C60.2073 4.98123 59.8247 4.95725 58.7008 4.95725H56.8118V5.65276H58.7008C60.2791 5.65276 60.7334 5.62878 61.3073 5.55683V8.17101C60.6138 8.09906 59.8965 8.07508 58.8921 8.07508H56.8118V8.74661H59.203C59.9921 8.74661 60.1356 8.74661 61.0443 8.69864C61.0443 8.98644 61.0443 9.08238 61.0443 9.58603V11.2649C61.0443 11.6246 60.9964 11.9124 60.8769 12.2002H62.0486C61.9769 12.7278 61.9769 12.8957 61.9769 13.4713V13.879H67.4528C68.9832 13.879 69.7484 13.8551 70.2984 13.7831V16.9489C70.1788 16.9489 70.1071 16.9249 70.0354 16.9249C69.4376 16.853 69.0549 16.853 67.6441 16.853H66.7594L69.2223 18.0521C68.9832 18.244 68.9832 18.244 68.3137 18.7956C68.0984 18.9635 67.6202 19.2993 67.0702 19.659C68.481 20.1627 69.318 20.3545 70.944 20.5704C70.1549 21.7696 69.7484 22.561 69.2223 23.976C66.305 23.2086 64.2964 22.2492 62.4551 20.7143ZM58.5813 17.4286V20.2106C59.9204 20.0428 59.9204 20.0428 61.4269 19.7789C60.4943 18.7956 59.9443 17.9802 59.4421 16.853H59.2269C58.9639 17.0928 58.9639 17.0928 58.5813 17.4286ZM65.6833 16.853H63.0051C63.3159 17.3087 63.6029 17.6204 64.2007 18.1001C64.7268 17.7404 65.1572 17.3806 65.6833 16.853ZM55.0901 20.6184V19.2993C54.1096 19.9708 53.8466 20.1147 52.5314 20.8102C53.5118 20.7862 53.8227 20.7623 55.0901 20.6184ZM51.001 5.65276H53.5836V4.95725H51.4075C51.2641 5.24505 51.1923 5.34098 51.001 5.65276ZM65.229 9.63399H61.7138C61.7616 9.13034 61.7856 8.79458 61.7856 8.00313V4.35766C61.7856 3.75808 61.7616 2.99062 61.6899 2.46298H65.229C65.1572 2.96663 65.1572 3.23045 65.1572 4.35766V7.95516C65.1572 8.93848 65.1572 9.22628 65.229 9.63399ZM69.7245 3.54223V10.1137C69.7245 11.4567 69.4376 12.1522 68.6724 12.6319C68.0506 13.0396 67.2137 13.1835 65.3963 13.1835C65.1094 13.1835 64.5355 13.1595 63.6029 13.1356C63.4355 12.0323 63.1725 11.2409 62.6942 10.2336C63.6986 10.3055 64.4398 10.3535 65.0137 10.3535C66.1137 10.3535 66.2811 10.2576 66.2811 9.65798V3.32638C66.2811 2.53493 66.2572 1.98332 66.1855 1.33577H69.8441C69.7484 1.95933 69.7245 2.46298 69.7245 3.54223Z"/>
<path d="M71.9484 3.878L74.6983 1.35975C76.42 2.82273 77.7591 4.14181 78.883 5.43691C79.8634 4.09385 80.5808 2.53493 80.7482 1.47967L84.2155 2.10323C84.1676 2.24713 84.1676 2.24713 84.0481 2.60688C84.0242 2.65485 83.8568 3.1585 83.6655 3.63816H84.885V3.23045C84.885 2.19917 84.8611 1.76747 84.7655 1.23983H88.5675C88.4719 1.74348 88.448 2.17518 88.448 3.23045V3.63816H90.6958C92.0109 3.63816 92.7761 3.5902 93.5174 3.49426V6.87591C92.7522 6.80396 92.0827 6.77998 90.8392 6.77998H88.448V8.00313H91.9631C93.0631 8.00313 93.637 7.97914 94.187 7.90719V11.2649C93.4457 11.1689 92.824 11.1449 91.9631 11.1449H80.7721C80.0547 11.1449 79.5047 11.1689 78.8352 11.2169V7.90719C79.4569 7.97914 79.7917 8.00313 80.8438 8.00313C80.0547 7.37956 79.4569 7.01981 78.2852 6.44421L76.2287 8.43483C75.0092 6.85193 73.5266 5.29301 71.9484 3.878ZM81.4655 8.00313H84.885V6.77998H82.2546C81.9438 7.30761 81.8003 7.52346 81.4655 8.00313ZM90.7436 19.1314H81.7764C80.8199 19.1314 80.4612 19.1314 79.9112 19.2033C79.959 18.6277 79.959 18.6277 79.959 15.0302V13.999C79.9351 12.4161 79.9351 12.4161 79.8873 11.9364C80.509 11.9844 81.2503 12.0083 82.5416 12.0083H90.5523C91.7001 12.0083 92.3218 11.9844 92.9914 11.9364C92.9435 12.512 92.9196 12.9197 92.9196 14.4786V16.9249C92.9196 18.3879 92.9196 18.6517 92.9674 19.2033C92.2979 19.1314 91.9153 19.1314 90.7436 19.1314ZM83.3546 14.9343V16.2054H89.4045V14.9343H83.3546ZM72.1875 13.6632V10.0417C72.881 10.1376 73.2396 10.1616 74.1722 10.1616H76.4917C77.2569 10.1616 77.6874 10.1376 78.333 10.0657C78.2613 10.8092 78.2373 11.3608 78.2373 12.7758V18.4119C78.6917 19.1074 78.9786 19.3472 79.6721 19.6111C80.6047 19.9708 81.896 20.1147 84.072 20.1147C88.7588 20.1147 92.0109 19.9708 95 19.6111C94.4739 21.17 94.3305 21.7696 94.1152 23.4004C91.987 23.4724 89.1893 23.5203 85.5067 23.5203C81.1308 23.5203 79.7677 23.3764 78.333 22.7289C77.5439 22.3691 77.0417 22.0094 76.4678 21.3618C75.5352 22.1533 74.6983 22.8008 73.9331 23.2805C73.7418 23.4244 73.4788 23.5923 73.2396 23.7841L71.6853 19.8989C71.9484 19.8029 72.2353 19.683 72.4266 19.5631C72.4983 19.5151 72.6418 19.4432 72.881 19.2993C73.5505 18.9155 73.8853 18.6997 74.6983 18.1241V13.5433H73.694C73.2396 13.5433 72.7375 13.5912 72.1875 13.6632Z"/>
</mask>
<path d="M5.3999 17.9802V15.0063C6.04554 15.0782 6.45205 15.1022 7.59985 15.1022C7.62376 14.8144 7.62376 14.3107 7.64767 13.5912C6.81074 13.6152 6.28466 13.6392 5.73467 13.6872V10.8092C6.42814 10.8811 7.07377 10.9051 8.29331 10.9051H14.7497C16.017 10.9051 16.7105 10.8811 17.404 10.8092V13.6872C16.8301 13.6392 16.5192 13.6152 15.5388 13.5912V15.1022C16.6627 15.1022 17.0453 15.0782 17.6909 15.0063V17.9802C17.0214 17.9082 16.6388 17.9082 15.5388 17.8843V21.0261C15.5388 22.1293 15.5627 22.585 15.6344 23.0407H12.215C12.2867 22.4171 12.3106 22.1053 12.3106 21.0021V17.8843H10.6128C10.2541 20.3785 9.6085 21.7456 7.93462 23.4963C6.95421 22.3931 6.45205 21.9614 5.23251 21.17C6.49987 20.1147 7.02595 19.2993 7.33681 17.8843C6.42814 17.9082 5.87815 17.9322 5.3999 17.9802ZM12.3106 13.5912H10.8041C10.8041 14.1908 10.8041 14.5026 10.7802 15.1022H12.3106V13.5912ZM4.70644 10.0657V20.4745C4.70644 22.0094 4.75426 22.8728 4.84991 23.6642H1C1.09565 22.8968 1.14347 22.0813 1.14347 20.4265V4.47758C1.14347 3.1585 1.11956 2.51095 1.04782 1.74348C1.69346 1.81543 2.26736 1.83942 3.46299 1.83942H8.53243C9.82371 1.83942 10.3737 1.81543 10.9715 1.74348C10.9237 2.46298 10.8998 2.99062 10.8998 3.92596V8.02711C10.8998 9.27424 10.8998 9.63399 10.9476 10.1137C10.4454 10.0897 9.63241 10.0657 8.98677 10.0657H4.70644ZM4.70644 4.18978V5.07716H7.59985V4.18978H4.70644ZM4.70644 6.99583V7.88321H7.59985V6.99583H4.70644ZM21.9713 4.4536V20.1147C21.9713 21.4338 21.8278 22.0574 21.4213 22.585C20.8474 23.3045 19.9865 23.4963 17.2844 23.4963C17.1648 23.4963 16.9975 23.4963 16.6627 23.4724C16.4953 21.9374 16.304 21.194 15.8018 19.9468C16.5192 20.0188 17.0931 20.0667 17.7148 20.0667C18.3126 20.0667 18.4322 19.9948 18.4322 19.5151V10.0897H13.9845C13.2432 10.0897 12.741 10.1137 12.0237 10.1376C12.0715 9.61001 12.0715 9.15433 12.0715 8.02711V3.92596C12.0715 3.08655 12.0476 2.41502 11.9997 1.74348C12.6215 1.81543 13.1715 1.83942 14.4388 1.83942H19.6517C20.8474 1.83942 21.4213 1.81543 22.0669 1.74348C21.9952 2.51095 21.9713 3.18248 21.9713 4.4536ZM15.4192 4.18978V5.07716H18.4322V4.18978H15.4192ZM15.4192 6.99583V7.88321H18.4322V6.99583H15.4192Z" fill="white"/>
<path d="M34.071 12.0323L33.7601 9.92179C33.4732 12.4161 33.0427 14.1908 32.2058 16.3014C32.9949 16.9249 33.1862 17.0928 34.1188 17.9802V14.9103C34.1188 13.999 34.0949 13.2555 34.0471 12.6319C34.5731 12.6799 35.147 12.7039 36.0079 12.7039H43.4447C44.6403 12.7039 45.1903 12.6799 45.6924 12.6079C45.6207 13.3274 45.5968 14.0229 45.5968 14.9823V21.4818C45.5968 22.3931 45.6446 23.0646 45.7403 23.7841H42.0577V22.7769H37.6578V23.7602H34.0232C34.0949 23.2325 34.1188 22.6329 34.1188 21.6017V18.9635L32.3254 21.6496C31.3928 20.6184 31.1058 20.3306 30.3885 19.635C29.3124 21.194 28.4755 22.0574 26.419 23.6642C25.7016 22.4891 25.0321 21.6976 23.9082 20.6903C25.5342 19.635 26.6103 18.6517 27.6385 17.2847C26.5625 16.4213 25.9646 16.0375 24.3386 15.0302C25.1994 13.0876 25.7494 11.2888 26.2755 8.62669H25.9646C25.4864 8.62669 25.0081 8.65068 24.4821 8.72263V5.22106C25.1516 5.29301 25.7255 5.34098 26.419 5.34098H26.8255C27.0407 3.80605 27.1842 2.12722 27.1842 1L30.8667 1.33577C30.795 1.76747 30.7232 2.19917 30.6276 2.91866C30.508 3.75808 30.3885 4.57351 30.2928 5.34098H31.9906C32.8514 5.34098 33.4732 5.317 34.0949 5.22106C34.071 5.84463 34.071 5.84463 34.0471 6.27633C34.0231 7.04379 33.9992 7.13973 33.9036 8.31491C34.3101 8.31491 34.4058 8.33889 34.8601 8.33889C35.984 5.34098 36.7253 2.63087 36.8687 1.09593L40.886 1.79145C40.7187 2.12722 40.7187 2.12722 40.2643 3.63816C39.7382 5.41293 39.2361 6.82794 38.6861 8.19499C40.3839 8.07508 40.4317 8.07508 41.7469 7.95516C41.2208 6.99583 40.886 6.44421 40.0013 5.14911L43.2534 3.66215C45.1425 6.56413 45.8598 7.90719 47.0794 10.7132L43.7555 12.6559C43.4686 11.8405 43.349 11.5527 43.1338 11.025C41.2447 11.2649 38.6383 11.5287 36.2948 11.7445C34.9079 11.8644 34.621 11.8884 34.071 12.0323ZM30.5798 8.62669H29.5993C29.2646 10.5454 28.9298 11.8644 28.3559 13.5912C28.8581 13.903 28.9776 13.975 29.3363 14.2148C30.0537 12.3921 30.3167 11.1449 30.5798 8.62669ZM37.6339 16.0375V19.4672H42.0577V16.0375H37.6339Z" fill="white"/>
<path d="M62.4551 20.7143V22.537C59.9204 23.0167 58.9639 23.1606 55.9748 23.5443L53.3684 23.8801C52.9618 23.928 52.8901 23.952 52.3879 24L51.9814 21.074C51.0488 21.5297 50.7141 21.6976 49.6141 22.1773C49.0402 20.8342 48.6337 20.0907 47.9402 19.1554C50.3076 18.6517 52.2206 17.9082 53.7749 16.853H51.001C49.3989 16.853 49.3989 16.853 48.3706 16.9489V13.7831C49.0402 13.8551 49.4945 13.879 51.1445 13.879H58.4378V13.4713C58.4378 13.3514 58.4378 13.2795 58.4378 13.1116C58.103 13.1116 57.9835 13.1116 57.6009 13.1116C57.5291 12.56 57.3617 11.9124 57.1704 11.5527C57.6487 11.6246 57.7204 11.6246 57.8878 11.6246C58.1269 11.6246 58.2226 11.5287 58.2226 11.2888V10.8092H56.8118V11.3608C56.8118 12.2482 56.8357 12.6079 56.8835 13.3274H53.5118C53.5836 12.512 53.5836 12.4161 53.5836 11.3848V10.8092H52.3879V11.9124C52.3879 12.6559 52.3879 12.7998 52.4358 13.1116H49.1837C49.1837 12.9197 49.1837 12.9197 49.2315 12.56C49.2315 12.44 49.2554 11.9124 49.2554 11.7205V9.94578C49.2554 9.77789 49.2554 9.39416 49.2315 9.25026C49.2076 8.86653 49.2076 8.86653 49.2076 8.69864C49.4228 8.72263 49.8771 8.72263 50.5467 8.74661H53.5836V8.07508H50.6662C49.6619 8.07508 49.0163 8.09906 48.275 8.17101V5.55683C48.8011 5.62878 49.1598 5.65276 50.1402 5.65276C49.5184 5.22106 48.7772 4.81335 47.988 4.42961C48.9445 3.3024 49.3511 2.5829 49.8532 1.04797L52.9379 1.5756C52.7705 2.0073 52.7227 2.12722 52.5792 2.51095H53.5836C53.5836 1.98332 53.5597 1.74348 53.4879 1.16788H56.9074C56.8357 1.59958 56.8118 1.91137 56.8118 2.51095H58.6769C59.8726 2.51095 60.4225 2.48696 61.0443 2.41502V5.0292C60.2073 4.98123 59.8247 4.95725 58.7008 4.95725H56.8118V5.65276H58.7008C60.2791 5.65276 60.7334 5.62878 61.3073 5.55683V8.17101C60.6138 8.09906 59.8965 8.07508 58.8921 8.07508H56.8118V8.74661H59.203C59.9921 8.74661 60.1356 8.74661 61.0443 8.69864C61.0443 8.98644 61.0443 9.08238 61.0443 9.58603V11.2649C61.0443 11.6246 60.9964 11.9124 60.8769 12.2002H62.0486C61.9769 12.7278 61.9769 12.8957 61.9769 13.4713V13.879H67.4528C68.9832 13.879 69.7484 13.8551 70.2984 13.7831V16.9489C70.1788 16.9489 70.1071 16.9249 70.0354 16.9249C69.4376 16.853 69.0549 16.853 67.6441 16.853H66.7594L69.2223 18.0521C68.9832 18.244 68.9832 18.244 68.3137 18.7956C68.0984 18.9635 67.6202 19.2993 67.0702 19.659C68.481 20.1627 69.318 20.3545 70.944 20.5704C70.1549 21.7696 69.7484 22.561 69.2223 23.976C66.305 23.2086 64.2964 22.2492 62.4551 20.7143ZM58.5813 17.4286V20.2106C59.9204 20.0428 59.9204 20.0428 61.4269 19.7789C60.4943 18.7956 59.9443 17.9802 59.4421 16.853H59.2269C58.9639 17.0928 58.9639 17.0928 58.5813 17.4286ZM65.6833 16.853H63.0051C63.3159 17.3087 63.6029 17.6204 64.2007 18.1001C64.7268 17.7404 65.1572 17.3806 65.6833 16.853ZM55.0901 20.6184V19.2993C54.1096 19.9708 53.8466 20.1147 52.5314 20.8102C53.5118 20.7862 53.8227 20.7623 55.0901 20.6184ZM51.001 5.65276H53.5836V4.95725H51.4075C51.2641 5.24505 51.1923 5.34098 51.001 5.65276ZM65.229 9.63399H61.7138C61.7616 9.13034 61.7856 8.79458 61.7856 8.00313V4.35766C61.7856 3.75808 61.7616 2.99062 61.6899 2.46298H65.229C65.1572 2.96663 65.1572 3.23045 65.1572 4.35766V7.95516C65.1572 8.93848 65.1572 9.22628 65.229 9.63399ZM69.7245 3.54223V10.1137C69.7245 11.4567 69.4376 12.1522 68.6724 12.6319C68.0506 13.0396 67.2137 13.1835 65.3963 13.1835C65.1094 13.1835 64.5355 13.1595 63.6029 13.1356C63.4355 12.0323 63.1725 11.2409 62.6942 10.2336C63.6986 10.3055 64.4398 10.3535 65.0137 10.3535C66.1137 10.3535 66.2811 10.2576 66.2811 9.65798V3.32638C66.2811 2.53493 66.2572 1.98332 66.1855 1.33577H69.8441C69.7484 1.95933 69.7245 2.46298 69.7245 3.54223Z" fill="white"/>
<path d="M71.9484 3.878L74.6983 1.35975C76.42 2.82273 77.7591 4.14181 78.883 5.43691C79.8634 4.09385 80.5808 2.53493 80.7482 1.47967L84.2155 2.10323C84.1676 2.24713 84.1676 2.24713 84.0481 2.60688C84.0242 2.65485 83.8568 3.1585 83.6655 3.63816H84.885V3.23045C84.885 2.19917 84.8611 1.76747 84.7655 1.23983H88.5675C88.4719 1.74348 88.448 2.17518 88.448 3.23045V3.63816H90.6958C92.0109 3.63816 92.7761 3.5902 93.5174 3.49426V6.87591C92.7522 6.80396 92.0827 6.77998 90.8392 6.77998H88.448V8.00313H91.9631C93.0631 8.00313 93.637 7.97914 94.187 7.90719V11.2649C93.4457 11.1689 92.824 11.1449 91.9631 11.1449H80.7721C80.0547 11.1449 79.5047 11.1689 78.8352 11.2169V7.90719C79.4569 7.97914 79.7917 8.00313 80.8438 8.00313C80.0547 7.37956 79.4569 7.01981 78.2852 6.44421L76.2287 8.43483C75.0092 6.85193 73.5266 5.29301 71.9484 3.878ZM81.4655 8.00313H84.885V6.77998H82.2546C81.9438 7.30761 81.8003 7.52346 81.4655 8.00313ZM90.7436 19.1314H81.7764C80.8199 19.1314 80.4612 19.1314 79.9112 19.2033C79.959 18.6277 79.959 18.6277 79.959 15.0302V13.999C79.9351 12.4161 79.9351 12.4161 79.8873 11.9364C80.509 11.9844 81.2503 12.0083 82.5416 12.0083H90.5523C91.7001 12.0083 92.3218 11.9844 92.9914 11.9364C92.9435 12.512 92.9196 12.9197 92.9196 14.4786V16.9249C92.9196 18.3879 92.9196 18.6517 92.9674 19.2033C92.2979 19.1314 91.9153 19.1314 90.7436 19.1314ZM83.3546 14.9343V16.2054H89.4045V14.9343H83.3546ZM72.1875 13.6632V10.0417C72.881 10.1376 73.2396 10.1616 74.1722 10.1616H76.4917C77.2569 10.1616 77.6874 10.1376 78.333 10.0657C78.2613 10.8092 78.2373 11.3608 78.2373 12.7758V18.4119C78.6917 19.1074 78.9786 19.3472 79.6721 19.6111C80.6047 19.9708 81.896 20.1147 84.072 20.1147C88.7588 20.1147 92.0109 19.9708 95 19.6111C94.4739 21.17 94.3305 21.7696 94.1152 23.4004C91.987 23.4724 89.1893 23.5203 85.5067 23.5203C81.1308 23.5203 79.7677 23.3764 78.333 22.7289C77.5439 22.3691 77.0417 22.0094 76.4678 21.3618C75.5352 22.1533 74.6983 22.8008 73.9331 23.2805C73.7418 23.4244 73.4788 23.5923 73.2396 23.7841L71.6853 19.8989C71.9484 19.8029 72.2353 19.683 72.4266 19.5631C72.4983 19.5151 72.6418 19.4432 72.881 19.2993C73.5505 18.9155 73.8853 18.6997 74.6983 18.1241V13.5433H73.694C73.2396 13.5433 72.7375 13.5912 72.1875 13.6632Z" fill="white"/>
<path d="M5.3999 17.9802V15.0063C6.04554 15.0782 6.45205 15.1022 7.59985 15.1022C7.62376 14.8144 7.62376 14.3107 7.64767 13.5912C6.81074 13.6152 6.28466 13.6392 5.73467 13.6872V10.8092C6.42814 10.8811 7.07377 10.9051 8.29331 10.9051H14.7497C16.017 10.9051 16.7105 10.8811 17.404 10.8092V13.6872C16.8301 13.6392 16.5192 13.6152 15.5388 13.5912V15.1022C16.6627 15.1022 17.0453 15.0782 17.6909 15.0063V17.9802C17.0214 17.9082 16.6388 17.9082 15.5388 17.8843V21.0261C15.5388 22.1293 15.5627 22.585 15.6344 23.0407H12.215C12.2867 22.4171 12.3106 22.1053 12.3106 21.0021V17.8843H10.6128C10.2541 20.3785 9.6085 21.7456 7.93462 23.4963C6.95421 22.3931 6.45205 21.9614 5.23251 21.17C6.49987 20.1147 7.02595 19.2993 7.33681 17.8843C6.42814 17.9082 5.87815 17.9322 5.3999 17.9802ZM12.3106 13.5912H10.8041C10.8041 14.1908 10.8041 14.5026 10.7802 15.1022H12.3106V13.5912ZM4.70644 10.0657V20.4745C4.70644 22.0094 4.75426 22.8728 4.84991 23.6642H1C1.09565 22.8968 1.14347 22.0813 1.14347 20.4265V4.47758C1.14347 3.1585 1.11956 2.51095 1.04782 1.74348C1.69346 1.81543 2.26736 1.83942 3.46299 1.83942H8.53243C9.82371 1.83942 10.3737 1.81543 10.9715 1.74348C10.9237 2.46298 10.8998 2.99062 10.8998 3.92596V8.02711C10.8998 9.27424 10.8998 9.63399 10.9476 10.1137C10.4454 10.0897 9.63241 10.0657 8.98677 10.0657H4.70644ZM4.70644 4.18978V5.07716H7.59985V4.18978H4.70644ZM4.70644 6.99583V7.88321H7.59985V6.99583H4.70644ZM21.9713 4.4536V20.1147C21.9713 21.4338 21.8278 22.0574 21.4213 22.585C20.8474 23.3045 19.9865 23.4963 17.2844 23.4963C17.1648 23.4963 16.9975 23.4963 16.6627 23.4724C16.4953 21.9374 16.304 21.194 15.8018 19.9468C16.5192 20.0188 17.0931 20.0667 17.7148 20.0667C18.3126 20.0667 18.4322 19.9948 18.4322 19.5151V10.0897H13.9845C13.2432 10.0897 12.741 10.1137 12.0237 10.1376C12.0715 9.61001 12.0715 9.15433 12.0715 8.02711V3.92596C12.0715 3.08655 12.0476 2.41502 11.9997 1.74348C12.6215 1.81543 13.1715 1.83942 14.4388 1.83942H19.6517C20.8474 1.83942 21.4213 1.81543 22.0669 1.74348C21.9952 2.51095 21.9713 3.18248 21.9713 4.4536ZM15.4192 4.18978V5.07716H18.4322V4.18978H15.4192ZM15.4192 6.99583V7.88321H18.4322V6.99583H15.4192Z" stroke="black" stroke-width="2" stroke-linejoin="round" mask="url(#path-1-outside-1_624_5627)"/>
<path d="M34.071 12.0323L33.7601 9.92179C33.4732 12.4161 33.0427 14.1908 32.2058 16.3014C32.9949 16.9249 33.1862 17.0928 34.1188 17.9802V14.9103C34.1188 13.999 34.0949 13.2555 34.0471 12.6319C34.5731 12.6799 35.147 12.7039 36.0079 12.7039H43.4447C44.6403 12.7039 45.1903 12.6799 45.6924 12.6079C45.6207 13.3274 45.5968 14.0229 45.5968 14.9823V21.4818C45.5968 22.3931 45.6446 23.0646 45.7403 23.7841H42.0577V22.7769H37.6578V23.7602H34.0232C34.0949 23.2325 34.1188 22.6329 34.1188 21.6017V18.9635L32.3254 21.6496C31.3928 20.6184 31.1058 20.3306 30.3885 19.635C29.3124 21.194 28.4755 22.0574 26.419 23.6642C25.7016 22.4891 25.0321 21.6976 23.9082 20.6903C25.5342 19.635 26.6103 18.6517 27.6385 17.2847C26.5625 16.4213 25.9646 16.0375 24.3386 15.0302C25.1994 13.0876 25.7494 11.2888 26.2755 8.62669H25.9646C25.4864 8.62669 25.0081 8.65068 24.4821 8.72263V5.22106C25.1516 5.29301 25.7255 5.34098 26.419 5.34098H26.8255C27.0407 3.80605 27.1842 2.12722 27.1842 1L30.8667 1.33577C30.795 1.76747 30.7232 2.19917 30.6276 2.91866C30.508 3.75808 30.3885 4.57351 30.2928 5.34098H31.9906C32.8514 5.34098 33.4732 5.317 34.0949 5.22106C34.071 5.84463 34.071 5.84463 34.0471 6.27633C34.0231 7.04379 33.9992 7.13973 33.9036 8.31491C34.3101 8.31491 34.4058 8.33889 34.8601 8.33889C35.984 5.34098 36.7253 2.63087 36.8687 1.09593L40.886 1.79145C40.7187 2.12722 40.7187 2.12722 40.2643 3.63816C39.7382 5.41293 39.2361 6.82794 38.6861 8.19499C40.3839 8.07508 40.4317 8.07508 41.7469 7.95516C41.2208 6.99583 40.886 6.44421 40.0013 5.14911L43.2534 3.66215C45.1425 6.56413 45.8598 7.90719 47.0794 10.7132L43.7555 12.6559C43.4686 11.8405 43.349 11.5527 43.1338 11.025C41.2447 11.2649 38.6383 11.5287 36.2948 11.7445C34.9079 11.8644 34.621 11.8884 34.071 12.0323ZM30.5798 8.62669H29.5993C29.2646 10.5454 28.9298 11.8644 28.3559 13.5912C28.8581 13.903 28.9776 13.975 29.3363 14.2148C30.0537 12.3921 30.3167 11.1449 30.5798 8.62669ZM37.6339 16.0375V19.4672H42.0577V16.0375H37.6339Z" stroke="black" stroke-width="2" stroke-linejoin="round" mask="url(#path-1-outside-1_624_5627)"/>
<path d="M62.4551 20.7143V22.537C59.9204 23.0167 58.9639 23.1606 55.9748 23.5443L53.3684 23.8801C52.9618 23.928 52.8901 23.952 52.3879 24L51.9814 21.074C51.0488 21.5297 50.7141 21.6976 49.6141 22.1773C49.0402 20.8342 48.6337 20.0907 47.9402 19.1554C50.3076 18.6517 52.2206 17.9082 53.7749 16.853H51.001C49.3989 16.853 49.3989 16.853 48.3706 16.9489V13.7831C49.0402 13.8551 49.4945 13.879 51.1445 13.879H58.4378V13.4713C58.4378 13.3514 58.4378 13.2795 58.4378 13.1116C58.103 13.1116 57.9835 13.1116 57.6009 13.1116C57.5291 12.56 57.3617 11.9124 57.1704 11.5527C57.6487 11.6246 57.7204 11.6246 57.8878 11.6246C58.1269 11.6246 58.2226 11.5287 58.2226 11.2888V10.8092H56.8118V11.3608C56.8118 12.2482 56.8357 12.6079 56.8835 13.3274H53.5118C53.5836 12.512 53.5836 12.4161 53.5836 11.3848V10.8092H52.3879V11.9124C52.3879 12.6559 52.3879 12.7998 52.4358 13.1116H49.1837C49.1837 12.9197 49.1837 12.9197 49.2315 12.56C49.2315 12.44 49.2554 11.9124 49.2554 11.7205V9.94578C49.2554 9.77789 49.2554 9.39416 49.2315 9.25026C49.2076 8.86653 49.2076 8.86653 49.2076 8.69864C49.4228 8.72263 49.8771 8.72263 50.5467 8.74661H53.5836V8.07508H50.6662C49.6619 8.07508 49.0163 8.09906 48.275 8.17101V5.55683C48.8011 5.62878 49.1598 5.65276 50.1402 5.65276C49.5184 5.22106 48.7772 4.81335 47.988 4.42961C48.9445 3.3024 49.3511 2.5829 49.8532 1.04797L52.9379 1.5756C52.7705 2.0073 52.7227 2.12722 52.5792 2.51095H53.5836C53.5836 1.98332 53.5597 1.74348 53.4879 1.16788H56.9074C56.8357 1.59958 56.8118 1.91137 56.8118 2.51095H58.6769C59.8726 2.51095 60.4225 2.48696 61.0443 2.41502V5.0292C60.2073 4.98123 59.8247 4.95725 58.7008 4.95725H56.8118V5.65276H58.7008C60.2791 5.65276 60.7334 5.62878 61.3073 5.55683V8.17101C60.6138 8.09906 59.8965 8.07508 58.8921 8.07508H56.8118V8.74661H59.203C59.9921 8.74661 60.1356 8.74661 61.0443 8.69864C61.0443 8.98644 61.0443 9.08238 61.0443 9.58603V11.2649C61.0443 11.6246 60.9964 11.9124 60.8769 12.2002H62.0486C61.9769 12.7278 61.9769 12.8957 61.9769 13.4713V13.879H67.4528C68.9832 13.879 69.7484 13.8551 70.2984 13.7831V16.9489C70.1788 16.9489 70.1071 16.9249 70.0354 16.9249C69.4376 16.853 69.0549 16.853 67.6441 16.853H66.7594L69.2223 18.0521C68.9832 18.244 68.9832 18.244 68.3137 18.7956C68.0984 18.9635 67.6202 19.2993 67.0702 19.659C68.481 20.1627 69.318 20.3545 70.944 20.5704C70.1549 21.7696 69.7484 22.561 69.2223 23.976C66.305 23.2086 64.2964 22.2492 62.4551 20.7143ZM58.5813 17.4286V20.2106C59.9204 20.0428 59.9204 20.0428 61.4269 19.7789C60.4943 18.7956 59.9443 17.9802 59.4421 16.853H59.2269C58.9639 17.0928 58.9639 17.0928 58.5813 17.4286ZM65.6833 16.853H63.0051C63.3159 17.3087 63.6029 17.6204 64.2007 18.1001C64.7268 17.7404 65.1572 17.3806 65.6833 16.853ZM55.0901 20.6184V19.2993C54.1096 19.9708 53.8466 20.1147 52.5314 20.8102C53.5118 20.7862 53.8227 20.7623 55.0901 20.6184ZM51.001 5.65276H53.5836V4.95725H51.4075C51.2641 5.24505 51.1923 5.34098 51.001 5.65276ZM65.229 9.63399H61.7138C61.7616 9.13034 61.7856 8.79458 61.7856 8.00313V4.35766C61.7856 3.75808 61.7616 2.99062 61.6899 2.46298H65.229C65.1572 2.96663 65.1572 3.23045 65.1572 4.35766V7.95516C65.1572 8.93848 65.1572 9.22628 65.229 9.63399ZM69.7245 3.54223V10.1137C69.7245 11.4567 69.4376 12.1522 68.6724 12.6319C68.0506 13.0396 67.2137 13.1835 65.3963 13.1835C65.1094 13.1835 64.5355 13.1595 63.6029 13.1356C63.4355 12.0323 63.1725 11.2409 62.6942 10.2336C63.6986 10.3055 64.4398 10.3535 65.0137 10.3535C66.1137 10.3535 66.2811 10.2576 66.2811 9.65798V3.32638C66.2811 2.53493 66.2572 1.98332 66.1855 1.33577H69.8441C69.7484 1.95933 69.7245 2.46298 69.7245 3.54223Z" stroke="black" stroke-width="2" stroke-linejoin="round" mask="url(#path-1-outside-1_624_5627)"/>
<path d="M71.9484 3.878L74.6983 1.35975C76.42 2.82273 77.7591 4.14181 78.883 5.43691C79.8634 4.09385 80.5808 2.53493 80.7482 1.47967L84.2155 2.10323C84.1676 2.24713 84.1676 2.24713 84.0481 2.60688C84.0242 2.65485 83.8568 3.1585 83.6655 3.63816H84.885V3.23045C84.885 2.19917 84.8611 1.76747 84.7655 1.23983H88.5675C88.4719 1.74348 88.448 2.17518 88.448 3.23045V3.63816H90.6958C92.0109 3.63816 92.7761 3.5902 93.5174 3.49426V6.87591C92.7522 6.80396 92.0827 6.77998 90.8392 6.77998H88.448V8.00313H91.9631C93.0631 8.00313 93.637 7.97914 94.187 7.90719V11.2649C93.4457 11.1689 92.824 11.1449 91.9631 11.1449H80.7721C80.0547 11.1449 79.5047 11.1689 78.8352 11.2169V7.90719C79.4569 7.97914 79.7917 8.00313 80.8438 8.00313C80.0547 7.37956 79.4569 7.01981 78.2852 6.44421L76.2287 8.43483C75.0092 6.85193 73.5266 5.29301 71.9484 3.878ZM81.4655 8.00313H84.885V6.77998H82.2546C81.9438 7.30761 81.8003 7.52346 81.4655 8.00313ZM90.7436 19.1314H81.7764C80.8199 19.1314 80.4612 19.1314 79.9112 19.2033C79.959 18.6277 79.959 18.6277 79.959 15.0302V13.999C79.9351 12.4161 79.9351 12.4161 79.8873 11.9364C80.509 11.9844 81.2503 12.0083 82.5416 12.0083H90.5523C91.7001 12.0083 92.3218 11.9844 92.9914 11.9364C92.9435 12.512 92.9196 12.9197 92.9196 14.4786V16.9249C92.9196 18.3879 92.9196 18.6517 92.9674 19.2033C92.2979 19.1314 91.9153 19.1314 90.7436 19.1314ZM83.3546 14.9343V16.2054H89.4045V14.9343H83.3546ZM72.1875 13.6632V10.0417C72.881 10.1376 73.2396 10.1616 74.1722 10.1616H76.4917C77.2569 10.1616 77.6874 10.1376 78.333 10.0657C78.2613 10.8092 78.2373 11.3608 78.2373 12.7758V18.4119C78.6917 19.1074 78.9786 19.3472 79.6721 19.6111C80.6047 19.9708 81.896 20.1147 84.072 20.1147C88.7588 20.1147 92.0109 19.9708 95 19.6111C94.4739 21.17 94.3305 21.7696 94.1152 23.4004C91.987 23.4724 89.1893 23.5203 85.5067 23.5203C81.1308 23.5203 79.7677 23.3764 78.333 22.7289C77.5439 22.3691 77.0417 22.0094 76.4678 21.3618C75.5352 22.1533 74.6983 22.8008 73.9331 23.2805C73.7418 23.4244 73.4788 23.5923 73.2396 23.7841L71.6853 19.8989C71.9484 19.8029 72.2353 19.683 72.4266 19.5631C72.4983 19.5151 72.6418 19.4432 72.881 19.2993C73.5505 18.9155 73.8853 18.6997 74.6983 18.1241V13.5433H73.694C73.2396 13.5433 72.7375 13.5912 72.1875 13.6632Z" stroke="black" stroke-width="2" stroke-linejoin="round" mask="url(#path-1-outside-1_624_5627)"/>
</svg>
