<svg width="81" height="81" viewBox="0 0 81 81" fill="none" xmlns="http://www.w3.org/2000/svg">
<mask id="path-1-inside-1_705_3065" fill="white">
<path d="M48.741 73.7295C40.5324 74.7337 37.4409 74.9929 27.7991 75.6004L19.3889 76.131C18.0769 76.1973 17.8457 76.2635 16.227 76.3098L15.5339 66.8667C12.4527 68.1287 11.3522 68.5987 7.72805 69.9012C6.17799 65.4886 5.03063 63.0252 3.0082 59.8927C10.6894 58.7729 16.9619 56.7978 22.1535 53.7448L13.2805 53.1673C8.15794 52.834 8.15794 52.834 4.84485 52.9271L5.50375 42.8028C7.63023 43.1741 9.07814 43.3441 14.3567 43.6877L37.6881 45.2061L37.773 43.9008C37.798 43.5178 37.8131 43.2859 37.8478 42.7519C36.777 42.6822 36.395 42.6573 35.1681 42.5775C35.0516 40.7986 34.6537 38.6927 34.115 37.5039C35.6284 37.8299 35.8598 37.8449 36.3925 37.8796C37.1566 37.9293 37.4833 37.6418 37.5331 36.8759L37.6328 35.344L33.1183 35.0502L33.0035 36.814C32.8189 39.6512 32.8194 40.805 32.8256 43.1184L22.0478 42.4169C22.449 39.8213 22.4687 39.5193 22.6835 36.2182L22.8032 34.3789L18.9775 34.1299L18.7479 37.6575C18.5931 40.0362 18.5632 40.4947 18.649 41.5024L8.24241 40.8251C8.28243 40.2102 8.28243 40.2102 8.50786 39.0711C8.53278 38.6882 8.71799 37.0048 8.75766 36.3953L9.12695 30.7209C9.1617 30.1869 9.24174 28.9571 9.19624 28.4937C9.20095 27.259 9.20095 27.259 9.2357 26.725C9.91953 26.8453 11.3724 26.9399 13.509 27.1548L23.2268 27.7872L23.3665 25.6404L14.0362 25.0332C10.8238 24.8242 8.75263 24.7652 6.36459 24.8427L6.9087 16.4822C8.57781 16.8237 9.71901 16.9738 12.856 17.178C10.955 15.6676 8.67202 14.2136 6.22845 12.8195C9.52464 9.41565 10.9713 7.19686 12.8993 2.39851L22.6579 4.72905C22.0353 6.07521 21.8543 6.44803 21.3169 7.64807L24.5293 7.85713C24.6392 6.16884 24.6137 5.398 24.502 3.54363L35.4413 4.25556C35.12 5.62134 34.9797 6.61431 34.8551 8.52914L40.8225 8.9175C44.6483 9.16648 46.4127 9.20548 48.4133 9.10276L47.8692 17.4633C45.1997 17.1325 43.9832 16.9775 40.3888 16.7435L34.3407 16.3499L34.1961 18.5722L40.2388 18.9655C45.286 19.294 46.7438 19.313 48.5991 19.2008L48.055 27.5614C45.8532 27.1851 43.5605 26.9601 40.3481 26.751L33.692 26.3178L33.5523 28.4646L41.2039 28.9626C43.7275 29.1268 44.1849 29.1566 47.1057 29.195C47.0457 30.1174 47.026 30.4194 46.9211 32.0322L46.5718 37.3991C46.497 38.548 46.2863 39.4606 45.8443 40.3581L49.5947 40.6021C49.2535 42.2754 49.2187 42.8094 49.099 44.6487L49.0141 45.954L66.5341 47.0942C71.4306 47.4129 73.8838 47.4967 75.6585 47.3793L74.9996 57.5036C74.6175 57.4788 74.3911 57.3882 74.1651 57.3735C72.27 57.0172 71.0431 56.9374 66.5286 56.6436L63.6983 56.4594L71.3263 60.8071C70.5222 61.3723 70.5222 61.3723 68.2658 62.9967C67.5423 63.4859 65.9439 64.4652 64.1096 65.4996C68.5195 67.4008 71.1538 68.1897 76.3121 69.2188C73.5389 72.8896 72.0721 75.3346 70.0934 79.7505C60.9228 76.689 54.6924 73.2014 49.1248 67.9153L48.7464 73.7299L48.741 73.7295ZM23.8706 17.8948L24.0153 15.6725L17.0524 15.2194C16.535 16.112 16.2837 16.4044 15.6057 17.3569L23.8706 17.8948ZM25.8523 61.8398C22.5756 63.7824 21.7063 64.1862 17.3535 66.1401C20.4955 66.2687 21.4958 66.258 25.5778 66.0578L25.8523 61.8398ZM36.8277 65.4845C41.1456 65.2293 41.1456 65.2293 46.0219 64.6962C43.2402 61.3572 41.6556 58.6378 40.2816 54.9246L39.5928 54.8797C38.7036 55.5911 38.7036 55.5911 37.4069 56.5846L36.8277 65.4845ZM49.0532 32.3172C49.3084 30.7196 49.459 29.6515 49.624 27.1164L50.3826 15.4602C50.5072 13.5453 50.5916 11.0862 50.4701 9.38287L61.7914 10.1197C61.4554 11.712 61.4003 12.5588 61.1658 16.1619L60.4174 27.6617C60.2127 30.8064 60.1531 31.7233 60.2995 33.0437L49.0535 32.3118L49.0532 32.3172ZM74.5771 35.5167C74.2976 39.8102 73.2329 41.9726 70.6899 43.3509C68.6141 44.5266 65.9099 44.8111 60.0933 44.4325C59.1731 44.3726 57.3432 44.1777 54.3671 43.9082C54.064 40.3459 53.3838 37.7612 52.0652 34.4416C55.2625 34.8826 57.6256 35.1881 59.4605 35.3075C62.9796 35.5365 63.5323 35.2637 63.6569 33.3489L64.9747 13.1002C65.1393 10.5705 65.1788 8.80176 65.0822 6.71545L76.7855 7.4771C76.3489 9.45288 76.169 11.0554 75.9443 14.5075L74.5771 35.5167ZM51.6836 55.6666C52.5843 57.1878 53.4341 58.2452 55.2499 59.9017C57.0089 58.8624 58.4612 57.8032 60.2499 56.2241L51.6836 55.6666Z"/>
</mask>
<path d="M48.741 73.7295C40.5324 74.7337 37.4409 74.9929 27.7991 75.6004L19.3889 76.131C18.0769 76.1973 17.8457 76.2635 16.227 76.3098L15.5339 66.8667C12.4527 68.1287 11.3522 68.5987 7.72805 69.9012C6.17799 65.4886 5.03063 63.0252 3.0082 59.8927C10.6894 58.7729 16.9619 56.7978 22.1535 53.7448L13.2805 53.1673C8.15794 52.834 8.15794 52.834 4.84485 52.9271L5.50375 42.8028C7.63023 43.1741 9.07814 43.3441 14.3567 43.6877L37.6881 45.2061L37.773 43.9008C37.798 43.5178 37.8131 43.2859 37.8478 42.7519C36.777 42.6822 36.395 42.6573 35.1681 42.5775C35.0516 40.7986 34.6537 38.6927 34.115 37.5039C35.6284 37.8299 35.8598 37.8449 36.3925 37.8796C37.1566 37.9293 37.4833 37.6418 37.5331 36.8759L37.6328 35.344L33.1183 35.0502L33.0035 36.814C32.8189 39.6512 32.8194 40.805 32.8256 43.1184L22.0478 42.4169C22.449 39.8213 22.4687 39.5193 22.6835 36.2182L22.8032 34.3789L18.9775 34.1299L18.7479 37.6575C18.5931 40.0362 18.5632 40.4947 18.649 41.5024L8.24241 40.8251C8.28243 40.2102 8.28243 40.2102 8.50786 39.0711C8.53278 38.6882 8.71799 37.0048 8.75766 36.3953L9.12695 30.7209C9.1617 30.1869 9.24174 28.9571 9.19624 28.4937C9.20095 27.259 9.20095 27.259 9.2357 26.725C9.91953 26.8453 11.3724 26.9399 13.509 27.1548L23.2268 27.7872L23.3665 25.6404L14.0362 25.0332C10.8238 24.8242 8.75263 24.7652 6.36459 24.8427L6.9087 16.4822C8.57781 16.8237 9.71901 16.9738 12.856 17.178C10.955 15.6676 8.67202 14.2136 6.22845 12.8195C9.52464 9.41565 10.9713 7.19686 12.8993 2.39851L22.6579 4.72905C22.0353 6.07521 21.8543 6.44803 21.3169 7.64807L24.5293 7.85713C24.6392 6.16884 24.6137 5.398 24.502 3.54363L35.4413 4.25556C35.12 5.62134 34.9797 6.61431 34.8551 8.52914L40.8225 8.9175C44.6483 9.16648 46.4127 9.20548 48.4133 9.10276L47.8692 17.4633C45.1997 17.1325 43.9832 16.9775 40.3888 16.7435L34.3407 16.3499L34.1961 18.5722L40.2388 18.9655C45.286 19.294 46.7438 19.313 48.5991 19.2008L48.055 27.5614C45.8532 27.1851 43.5605 26.9601 40.3481 26.751L33.692 26.3178L33.5523 28.4646L41.2039 28.9626C43.7275 29.1268 44.1849 29.1566 47.1057 29.195C47.0457 30.1174 47.026 30.4194 46.9211 32.0322L46.5718 37.3991C46.497 38.548 46.2863 39.4606 45.8443 40.3581L49.5947 40.6021C49.2535 42.2754 49.2187 42.8094 49.099 44.6487L49.0141 45.954L66.5341 47.0942C71.4306 47.4129 73.8838 47.4967 75.6585 47.3793L74.9996 57.5036C74.6175 57.4788 74.3911 57.3882 74.1651 57.3735C72.27 57.0172 71.0431 56.9374 66.5286 56.6436L63.6983 56.4594L71.3263 60.8071C70.5222 61.3723 70.5222 61.3723 68.2658 62.9967C67.5423 63.4859 65.9439 64.4652 64.1096 65.4996C68.5195 67.4008 71.1538 68.1897 76.3121 69.2188C73.5389 72.8896 72.0721 75.3346 70.0934 79.7505C60.9228 76.689 54.6924 73.2014 49.1248 67.9153L48.7464 73.7299L48.741 73.7295ZM23.8706 17.8948L24.0153 15.6725L17.0524 15.2194C16.535 16.112 16.2837 16.4044 15.6057 17.3569L23.8706 17.8948ZM25.8523 61.8398C22.5756 63.7824 21.7063 64.1862 17.3535 66.1401C20.4955 66.2687 21.4958 66.258 25.5778 66.0578L25.8523 61.8398ZM36.8277 65.4845C41.1456 65.2293 41.1456 65.2293 46.0219 64.6962C43.2402 61.3572 41.6556 58.6378 40.2816 54.9246L39.5928 54.8797C38.7036 55.5911 38.7036 55.5911 37.4069 56.5846L36.8277 65.4845ZM49.0532 32.3172C49.3084 30.7196 49.459 29.6515 49.624 27.1164L50.3826 15.4602C50.5072 13.5453 50.5916 11.0862 50.4701 9.38287L61.7914 10.1197C61.4554 11.712 61.4003 12.5588 61.1658 16.1619L60.4174 27.6617C60.2127 30.8064 60.1531 31.7233 60.2995 33.0437L49.0535 32.3118L49.0532 32.3172ZM74.5771 35.5167C74.2976 39.8102 73.2329 41.9726 70.6899 43.3509C68.6141 44.5266 65.9099 44.8111 60.0933 44.4325C59.1731 44.3726 57.3432 44.1777 54.3671 43.9082C54.064 40.3459 53.3838 37.7612 52.0652 34.4416C55.2625 34.8826 57.6256 35.1881 59.4605 35.3075C62.9796 35.5365 63.5323 35.2637 63.6569 33.3489L64.9747 13.1002C65.1393 10.5705 65.1788 8.80176 65.0822 6.71545L76.7855 7.4771C76.3489 9.45288 76.169 11.0554 75.9443 14.5075L74.5771 35.5167ZM51.6836 55.6666C52.5843 57.1878 53.4341 58.2452 55.2499 59.9017C57.0089 58.8624 58.4612 57.8032 60.2499 56.2241L51.6836 55.6666Z" fill="black" stroke="black" stroke-width="2" mask="url(#path-1-inside-1_705_3065)"/>
<mask id="path-2-inside-2_705_3065" fill="white">
<path d="M46.741 71.7295C38.5324 72.7337 35.4409 72.9929 25.7991 73.6004L17.3889 74.131C16.0769 74.1973 15.8457 74.2635 14.227 74.3098L13.5339 64.8667C10.4527 66.1287 9.3522 66.5987 5.72805 67.9012C4.17799 63.4886 3.03063 61.0252 1.0082 57.8927C8.68939 56.7729 14.9619 54.7978 20.1535 51.7448L11.2805 51.1673C6.15794 50.834 6.15794 50.834 2.84485 50.9271L3.50375 40.8028C5.63023 41.1741 7.07814 41.3441 12.3567 41.6877L35.6881 43.2061L35.773 41.9008C35.798 41.5178 35.8131 41.2859 35.8478 40.7519C34.777 40.6822 34.395 40.6573 33.1681 40.5775C33.0516 38.7986 32.6537 36.6927 32.115 35.5039C33.6284 35.8299 33.8598 35.8449 34.3925 35.8796C35.1566 35.9293 35.4833 35.6418 35.5331 34.8759L35.6328 33.344L31.1183 33.0502L31.0035 34.814C30.8189 37.6512 30.8194 38.805 30.8256 41.1184L20.0478 40.4169C20.449 37.8213 20.4687 37.5193 20.6835 34.2182L20.8032 32.3789L16.9775 32.1299L16.7479 35.6575C16.5931 38.0362 16.5632 38.4947 16.649 39.5024L6.24241 38.8251C6.28243 38.2102 6.28243 38.2102 6.50786 37.0711C6.53278 36.6882 6.71799 35.0048 6.75766 34.3953L7.12695 28.7209C7.1617 28.1869 7.24174 26.9571 7.19624 26.4937C7.20095 25.259 7.20095 25.259 7.2357 24.725C7.91953 24.8453 9.37236 24.9399 11.509 25.1548L21.2268 25.7872L21.3665 23.6404L12.0362 23.0332C8.82379 22.8242 6.75263 22.7652 4.36459 22.8427L4.9087 14.4822C6.57781 14.8237 7.71901 14.9738 10.856 15.178C8.955 13.6676 6.67202 12.2136 4.22845 10.8195C7.52464 7.41565 8.97131 5.19686 10.8993 0.398514L20.6579 2.72905C20.0353 4.07521 19.8543 4.44803 19.3169 5.64807L22.5293 5.85713C22.6392 4.16884 22.6137 3.398 22.502 1.54363L33.4413 2.25556C33.12 3.62134 32.9797 4.61431 32.8551 6.52914L38.8225 6.9175C42.6483 7.16648 44.4127 7.20548 46.4133 7.10276L45.8692 15.4633C43.1997 15.1325 41.9832 14.9775 38.3888 14.7435L32.3407 14.3499L32.1961 16.5722L38.2388 16.9655C43.286 17.294 44.7438 17.313 46.5991 17.2008L46.055 25.5614C43.8532 25.1851 41.5605 24.9601 38.3481 24.751L31.692 24.3178L31.5523 26.4646L39.2039 26.9626C41.7275 27.1268 42.1849 27.1566 45.1057 27.195C45.0457 28.1174 45.026 28.4194 44.9211 30.0322L44.5718 35.3991C44.497 36.548 44.2863 37.4606 43.8443 38.3581L47.5947 38.6021C47.2535 40.2754 47.2187 40.8094 47.099 42.6487L47.0141 43.954L64.5341 45.0942C69.4306 45.4129 71.8838 45.4967 73.6585 45.3793L72.9996 55.5036C72.6175 55.4788 72.3911 55.3882 72.1651 55.3735C70.27 55.0172 69.0431 54.9374 64.5286 54.6436L61.6983 54.4594L69.3263 58.8071C68.5222 59.3723 68.5222 59.3723 66.2658 60.9967C65.5423 61.4859 63.9439 62.4652 62.1096 63.4996C66.5195 65.4008 69.1538 66.1897 74.3121 67.2188C71.5389 70.8896 70.0721 73.3346 68.0934 77.7505C58.9228 74.689 52.6924 71.2014 47.1248 65.9153L46.7464 71.7299L46.741 71.7295ZM21.8706 15.8948L22.0153 13.6725L15.0524 13.2194C14.535 14.112 14.2837 14.4044 13.6057 15.3569L21.8706 15.8948ZM23.8523 59.8398C20.5756 61.7824 19.7063 62.1862 15.3535 64.1401C18.4955 64.2687 19.4958 64.258 23.5778 64.0578L23.8523 59.8398ZM34.8277 63.4845C39.1456 63.2293 39.1456 63.2293 44.0219 62.6962C41.2402 59.3572 39.6556 56.6378 38.2816 52.9246L37.5928 52.8797C36.7036 53.5911 36.7036 53.5911 35.4069 54.5846L34.8277 63.4845ZM47.0532 30.3172C47.3084 28.7196 47.459 27.6515 47.624 25.1164L48.3826 13.4602C48.5072 11.5453 48.5916 9.08621 48.4701 7.38287L59.7914 8.11966C59.4554 9.71198 59.4003 10.5588 59.1658 14.1619L58.4174 25.6617C58.2127 28.8064 58.1531 29.7233 58.2995 31.0437L47.0535 30.3118L47.0532 30.3172ZM72.5771 33.5167C72.2976 37.8102 71.2329 39.9726 68.6899 41.3509C66.6141 42.5266 63.9099 42.8111 58.0933 42.4325C57.1731 42.3726 55.3432 42.1777 52.3671 41.9082C52.064 38.3459 51.3838 35.7612 50.0652 32.4416C53.2625 32.8826 55.6256 33.1881 57.4605 33.3075C60.9796 33.5365 61.5323 33.2637 61.6569 31.3489L62.9747 11.1002C63.1393 8.57047 63.1788 6.80176 63.0822 4.71545L74.7855 5.4771C74.3489 7.45288 74.169 9.05536 73.9443 12.5075L72.5771 33.5167ZM49.6836 53.6666C50.5843 55.1878 51.4341 56.2452 53.2499 57.9017C55.0089 56.8624 56.4612 55.8032 58.2499 54.2241L49.6836 53.6666Z"/>
</mask>
<path d="M46.741 71.7295C38.5324 72.7337 35.4409 72.9929 25.7991 73.6004L17.3889 74.131C16.0769 74.1973 15.8457 74.2635 14.227 74.3098L13.5339 64.8667C10.4527 66.1287 9.3522 66.5987 5.72805 67.9012C4.17799 63.4886 3.03063 61.0252 1.0082 57.8927C8.68939 56.7729 14.9619 54.7978 20.1535 51.7448L11.2805 51.1673C6.15794 50.834 6.15794 50.834 2.84485 50.9271L3.50375 40.8028C5.63023 41.1741 7.07814 41.3441 12.3567 41.6877L35.6881 43.2061L35.773 41.9008C35.798 41.5178 35.8131 41.2859 35.8478 40.7519C34.777 40.6822 34.395 40.6573 33.1681 40.5775C33.0516 38.7986 32.6537 36.6927 32.115 35.5039C33.6284 35.8299 33.8598 35.8449 34.3925 35.8796C35.1566 35.9293 35.4833 35.6418 35.5331 34.8759L35.6328 33.344L31.1183 33.0502L31.0035 34.814C30.8189 37.6512 30.8194 38.805 30.8256 41.1184L20.0478 40.4169C20.449 37.8213 20.4687 37.5193 20.6835 34.2182L20.8032 32.3789L16.9775 32.1299L16.7479 35.6575C16.5931 38.0362 16.5632 38.4947 16.649 39.5024L6.24241 38.8251C6.28243 38.2102 6.28243 38.2102 6.50786 37.0711C6.53278 36.6882 6.71799 35.0048 6.75766 34.3953L7.12695 28.7209C7.1617 28.1869 7.24174 26.9571 7.19624 26.4937C7.20095 25.259 7.20095 25.259 7.2357 24.725C7.91953 24.8453 9.37236 24.9399 11.509 25.1548L21.2268 25.7872L21.3665 23.6404L12.0362 23.0332C8.82379 22.8242 6.75263 22.7652 4.36459 22.8427L4.9087 14.4822C6.57781 14.8237 7.71901 14.9738 10.856 15.178C8.955 13.6676 6.67202 12.2136 4.22845 10.8195C7.52464 7.41565 8.97131 5.19686 10.8993 0.398514L20.6579 2.72905C20.0353 4.07521 19.8543 4.44803 19.3169 5.64807L22.5293 5.85713C22.6392 4.16884 22.6137 3.398 22.502 1.54363L33.4413 2.25556C33.12 3.62134 32.9797 4.61431 32.8551 6.52914L38.8225 6.9175C42.6483 7.16648 44.4127 7.20548 46.4133 7.10276L45.8692 15.4633C43.1997 15.1325 41.9832 14.9775 38.3888 14.7435L32.3407 14.3499L32.1961 16.5722L38.2388 16.9655C43.286 17.294 44.7438 17.313 46.5991 17.2008L46.055 25.5614C43.8532 25.1851 41.5605 24.9601 38.3481 24.751L31.692 24.3178L31.5523 26.4646L39.2039 26.9626C41.7275 27.1268 42.1849 27.1566 45.1057 27.195C45.0457 28.1174 45.026 28.4194 44.9211 30.0322L44.5718 35.3991C44.497 36.548 44.2863 37.4606 43.8443 38.3581L47.5947 38.6021C47.2535 40.2754 47.2187 40.8094 47.099 42.6487L47.0141 43.954L64.5341 45.0942C69.4306 45.4129 71.8838 45.4967 73.6585 45.3793L72.9996 55.5036C72.6175 55.4788 72.3911 55.3882 72.1651 55.3735C70.27 55.0172 69.0431 54.9374 64.5286 54.6436L61.6983 54.4594L69.3263 58.8071C68.5222 59.3723 68.5222 59.3723 66.2658 60.9967C65.5423 61.4859 63.9439 62.4652 62.1096 63.4996C66.5195 65.4008 69.1538 66.1897 74.3121 67.2188C71.5389 70.8896 70.0721 73.3346 68.0934 77.7505C58.9228 74.689 52.6924 71.2014 47.1248 65.9153L46.7464 71.7299L46.741 71.7295ZM21.8706 15.8948L22.0153 13.6725L15.0524 13.2194C14.535 14.112 14.2837 14.4044 13.6057 15.3569L21.8706 15.8948ZM23.8523 59.8398C20.5756 61.7824 19.7063 62.1862 15.3535 64.1401C18.4955 64.2687 19.4958 64.258 23.5778 64.0578L23.8523 59.8398ZM34.8277 63.4845C39.1456 63.2293 39.1456 63.2293 44.0219 62.6962C41.2402 59.3572 39.6556 56.6378 38.2816 52.9246L37.5928 52.8797C36.7036 53.5911 36.7036 53.5911 35.4069 54.5846L34.8277 63.4845ZM47.0532 30.3172C47.3084 28.7196 47.459 27.6515 47.624 25.1164L48.3826 13.4602C48.5072 11.5453 48.5916 9.08621 48.4701 7.38287L59.7914 8.11966C59.4554 9.71198 59.4003 10.5588 59.1658 14.1619L58.4174 25.6617C58.2127 28.8064 58.1531 29.7233 58.2995 31.0437L47.0535 30.3118L47.0532 30.3172ZM72.5771 33.5167C72.2976 37.8102 71.2329 39.9726 68.6899 41.3509C66.6141 42.5266 63.9099 42.8111 58.0933 42.4325C57.1731 42.3726 55.3432 42.1777 52.3671 41.9082C52.064 38.3459 51.3838 35.7612 50.0652 32.4416C53.2625 32.8826 55.6256 33.1881 57.4605 33.3075C60.9796 33.5365 61.5323 33.2637 61.6569 31.3489L62.9747 11.1002C63.1393 8.57047 63.1788 6.80176 63.0822 4.71545L74.7855 5.4771C74.3489 7.45288 74.169 9.05536 73.9443 12.5075L72.5771 33.5167ZM49.6836 53.6666C50.5843 55.1878 51.4341 56.2452 53.2499 57.9017C55.0089 56.8624 56.4612 55.8032 58.2499 54.2241L49.6836 53.6666Z" fill="white" stroke="black" stroke-width="2" mask="url(#path-2-inside-2_705_3065)"/>
</svg>
